<svg width="18" height="20" viewBox="0 0 18 20" fill="none" xmlns="http://www.w3.org/2000/svg">
<path d="M5.43555 19.6719C3.83854 19.6719 2.60319 19.2243 1.72949 18.3291C0.862956 17.4339 0.429688 16.1449 0.429688 14.4619V5.93262C0.429688 4.15658 0.841471 2.7959 1.66504 1.85059C2.49577 0.898112 3.7526 0.421875 5.43555 0.421875C7.12565 0.421875 8.38249 0.898112 9.20605 1.85059C10.0296 2.7959 10.4414 4.15658 10.4414 5.93262V14.4619C10.4414 16.1449 10.0081 17.4339 9.1416 18.3291C8.27507 19.2243 7.03971 19.6719 5.43555 19.6719ZM5.43555 16.1914C5.72917 16.1914 5.95833 16.0589 6.12305 15.7939C6.28776 15.529 6.37012 15.2318 6.37012 14.9023V5.56738C6.37012 5.12337 6.31999 4.73665 6.21973 4.40723C6.12663 4.07064 5.86523 3.90234 5.43555 3.90234C5.00586 3.90234 4.74089 4.07064 4.64062 4.40723C4.54753 4.73665 4.50098 5.12337 4.50098 5.56738V14.9023C4.50098 15.2318 4.58333 15.529 4.74805 15.7939C4.91992 16.0589 5.14909 16.1914 5.43555 16.1914ZM13.4814 19.5V4.93359C13.2236 5.24154 12.8691 5.49219 12.418 5.68555C11.9668 5.87174 11.5407 5.96484 11.1396 5.96484V2.94629C11.5192 2.889 11.9274 2.76725 12.3643 2.58105C12.8011 2.3877 13.2057 2.1263 13.5781 1.79688C13.9577 1.46029 14.2477 1.05566 14.4482 0.583008H17.4883V19.5H13.4814Z" fill="#111111"/>
</svg>
