<svg width="22" height="20" viewBox="0 0 22 20" fill="none" xmlns="http://www.w3.org/2000/svg">
<path d="M5.43555 19.6719C3.83854 19.6719 2.60319 19.2243 1.72949 18.3291C0.862956 17.4339 0.429688 16.1449 0.429688 14.4619V5.93262C0.429688 4.15658 0.841471 2.7959 1.66504 1.85059C2.49577 0.898112 3.7526 0.421875 5.43555 0.421875C7.12565 0.421875 8.38249 0.898112 9.20605 1.85059C10.0296 2.7959 10.4414 4.15658 10.4414 5.93262V14.4619C10.4414 16.1449 10.0081 17.4339 9.1416 18.3291C8.27507 19.2243 7.03971 19.6719 5.43555 19.6719ZM5.43555 16.1914C5.72917 16.1914 5.95833 16.0589 6.12305 15.7939C6.28776 15.529 6.37012 15.2318 6.37012 14.9023V5.56738C6.37012 5.12337 6.31999 4.73665 6.21973 4.40723C6.12663 4.07064 5.86523 3.90234 5.43555 3.90234C5.00586 3.90234 4.74089 4.07064 4.64062 4.40723C4.54753 4.73665 4.50098 5.12337 4.50098 5.56738V14.9023C4.50098 15.2318 4.58333 15.529 4.74805 15.7939C4.91992 16.0589 5.14909 16.1914 5.43555 16.1914ZM11.5371 19.5V18.5977C11.5371 17.6595 11.6803 16.818 11.9668 16.0732C12.2604 15.3213 12.6364 14.6266 13.0947 13.9893C13.5531 13.3447 14.0365 12.7145 14.5449 12.0986C15.0391 11.4971 15.5081 10.8812 15.9521 10.251C16.4033 9.61361 16.7686 8.92611 17.0479 8.18848C17.3343 7.44368 17.4775 6.60938 17.4775 5.68555C17.4775 5.24154 17.4095 4.86198 17.2734 4.54688C17.1445 4.22461 16.8724 4.06348 16.457 4.06348C15.8268 4.06348 15.5117 4.62565 15.5117 5.75V8.05957H11.5371C11.5299 7.89486 11.5192 7.70866 11.5049 7.50098C11.4977 7.29329 11.4941 7.09277 11.4941 6.89941C11.4941 5.53874 11.6374 4.38574 11.9238 3.44043C12.2103 2.48796 12.7152 1.76465 13.4385 1.27051C14.1689 0.769206 15.193 0.518555 16.5107 0.518555C18.0791 0.518555 19.2965 0.958984 20.1631 1.83984C21.0368 2.7207 21.4736 3.97754 21.4736 5.61035C21.4736 6.72038 21.3304 7.69434 21.0439 8.53223C20.7575 9.36296 20.3779 10.1221 19.9053 10.8096C19.4326 11.4899 18.9134 12.1702 18.3477 12.8506C17.9466 13.3304 17.5563 13.821 17.1768 14.3223C16.8044 14.8236 16.4749 15.3607 16.1885 15.9336H21.3447V19.5H11.5371Z" fill="#111111"/>
</svg>
