<svg width="22" height="20" viewBox="0 0 22 20" fill="none" xmlns="http://www.w3.org/2000/svg">
<path d="M5.43555 19.6719C3.83854 19.6719 2.60319 19.2243 1.72949 18.3291C0.862956 17.4339 0.429688 16.1449 0.429688 14.4619V5.93262C0.429688 4.15658 0.841471 2.7959 1.66504 1.85059C2.49577 0.898112 3.7526 0.421875 5.43555 0.421875C7.12565 0.421875 8.38249 0.898112 9.20605 1.85059C10.0296 2.7959 10.4414 4.15658 10.4414 5.93262V14.4619C10.4414 16.1449 10.0081 17.4339 9.1416 18.3291C8.27507 19.2243 7.03971 19.6719 5.43555 19.6719ZM5.43555 16.1914C5.72917 16.1914 5.95833 16.0589 6.12305 15.7939C6.28776 15.529 6.37012 15.2318 6.37012 14.9023V5.56738C6.37012 5.12337 6.31999 4.73665 6.21973 4.40723C6.12663 4.07064 5.86523 3.90234 5.43555 3.90234C5.00586 3.90234 4.74089 4.07064 4.64062 4.40723C4.54753 4.73665 4.50098 5.12337 4.50098 5.56738V14.9023C4.50098 15.2318 4.58333 15.529 4.74805 15.7939C4.91992 16.0589 5.14909 16.1914 5.43555 16.1914ZM16.0703 19.7148C14.4017 19.7148 13.1878 19.2744 12.4287 18.3936C11.6696 17.5127 11.29 16.1842 11.29 14.4082V12.4316H15.168V14.4189C15.168 14.9202 15.2288 15.3464 15.3506 15.6973C15.4795 16.041 15.7624 16.2129 16.1992 16.2129C16.6432 16.2129 16.9261 16.0267 17.0479 15.6543C17.1696 15.2747 17.2305 14.6589 17.2305 13.8066V13.334C17.2305 12.6823 17.1195 12.113 16.8975 11.626C16.6826 11.139 16.2565 10.8955 15.6191 10.8955C15.5404 10.8955 15.4688 10.8991 15.4043 10.9062C15.347 10.9062 15.2969 10.9098 15.2539 10.917V7.52246C15.9056 7.52246 16.4033 7.37923 16.7471 7.09277C17.0908 6.79915 17.2627 6.31217 17.2627 5.63184C17.2627 4.56478 16.9548 4.03125 16.3389 4.03125C15.9378 4.03125 15.6657 4.1888 15.5225 4.50391C15.3864 4.81185 15.3184 5.20573 15.3184 5.68555V6.25488H11.4082C11.401 6.16895 11.3939 6.0651 11.3867 5.94336C11.3867 5.82161 11.3867 5.70345 11.3867 5.58887C11.3867 3.85579 11.7913 2.58464 12.6006 1.77539C13.4098 0.966146 14.6488 0.561523 16.3174 0.561523C19.54 0.561523 21.1514 2.2373 21.1514 5.58887C21.1514 6.51986 21.026 7.28971 20.7754 7.89844C20.5247 8.5 20.0592 8.92253 19.3789 9.16602C19.916 9.42383 20.3135 9.75326 20.5713 10.1543C20.8291 10.5553 20.9974 11.0531 21.0762 11.6475C21.1549 12.2419 21.1943 12.9616 21.1943 13.8066C21.1943 15.6973 20.7969 17.1546 20.002 18.1787C19.2142 19.2028 17.9036 19.7148 16.0703 19.7148Z" fill="#111111"/>
</svg>
