<?xml version="1.0" encoding="UTF-8"?>
<svg width="16px" height="16px" viewBox="0 0 16 16" version="1.1" xmlns="http://www.w3.org/2000/svg" xmlns:xlink="http://www.w3.org/1999/xlink">
    <title>icons/general/Delete/Close Copy 2</title>
    <defs>
        <polygon id="path-1" points="0 20 20 20 20 0 0 0"></polygon>
    </defs>
    <g id="页面-1" stroke="none" stroke-width="1" fill="none" fill-rule="evenodd">
        <g id="2" transform="translate(-1302.000000, -147.000000)">
            <g id="Delete/Close" transform="translate(1300.000000, 145.000000)">
                <path d="M11.0043252,9.97602716 L16.8966052,4.10964049 C17.1752317,3.83222708 17.1766448,3.38266773 16.8994519,3.1038401 C16.6215217,2.8242746 16.1730364,2.82355724 15.8944304,3.10097065 L10.0006963,8.96807469 L4.15816153,3.10310224 C3.88168539,2.82568883 3.43176655,2.8242746 3.15314004,3.10168801 C2.87520984,3.37910143 2.87453401,3.82937813 3.15172694,4.10822626 L8.99284862,9.97176399 L3.10339481,15.8346049 C2.8247683,16.1120183 2.8233552,16.5615776 3.10054813,16.8404258 C3.23915484,16.9798601 3.42181341,17.0502638 3.60449246,17.0502638 C3.78573793,17.0502638 3.9669834,16.9812743 4.10556963,16.8432747 L9.99645701,10.9790196 L15.89228,16.8973227 C16.0308867,17.036757 16.2128285,17.1064639 16.395528,17.1064639 C16.5774493,17.1064639 16.7586948,17.036757 16.8973015,16.8987574 C17.1752317,16.621344 17.175928,16.1717641 16.8987146,15.892916 L11.0043252,9.97602716 Z" id="Fill-1" fill="#999999"></path>
                <mask id="mask-2" fill="white">
                    <use xlink:href="#path-1"></use>
                </mask>
                <g id="Clip-4"></g>
            </g>
        </g>
    </g>
</svg>