<svg width="22" height="22" viewBox="0 0 22 22" fill="none" xmlns="http://www.w3.org/2000/svg">
<g id="Add &#229;&#162;&#158;&#229;&#138;&#160;">
<path id="Vector" d="M18.7907 10.0843C19.0442 10.0837 19.25 10.2891 19.25 10.5426V11.4593C19.25 11.712 19.0454 11.9171 18.7926 11.9176L11.9304 11.9313L11.9175 18.7925C11.9171 19.0453 11.712 19.25 11.4592 19.25H10.5426C10.2891 19.25 10.0837 19.0442 10.0843 18.7907L10.098 11.9313L3.20742 11.9176C2.95465 11.9171 2.75 11.712 2.75 11.4592V10.5426C2.75 10.2891 2.95576 10.0837 3.20925 10.0843L10.098 10.098L10.0843 3.20925C10.0837 2.95576 10.2891 2.75 10.5426 2.75H11.4592C11.712 2.75 11.9171 2.95468 11.9175 3.20748L11.9304 10.098L18.7907 10.0843Z" fill="black"/>
</g>
</svg>
