<svg width="192" height="201" viewBox="0 0 192 201" fill="none" xmlns="http://www.w3.org/2000/svg">
<path d="M191.781 178.884C191.708 176.178 191.635 173.546 191.708 170.84C191.781 166.891 191.05 163.161 189.808 159.431C188.201 154.678 186.593 149.997 184.913 145.317C183.086 140.271 180.748 135.444 178.264 130.691C176.438 127.254 174.173 124.109 171.981 120.818C170.885 119.136 169.351 117.674 167.817 116.357C166.648 115.333 165.625 114.456 165.917 112.774C165.99 112.262 165.771 111.677 165.552 111.165C164.967 109.995 165.259 109.044 165.917 108.02C167.232 106.119 167.67 103.925 167.963 101.731C168.255 99.3909 168.255 97.1238 167.817 94.9299C167.597 93.7598 167.159 92.5897 166.648 91.4928C166.282 90.8346 165.99 90.1764 165.698 89.4451C165.186 88.3481 164.748 87.2512 164.31 86.1542C162.702 82.2052 161.387 78.1829 161.241 73.8682C161.241 73.2832 161.095 72.7713 161.095 72.1862C161.095 70.1386 160.949 68.0909 161.095 66.1164C161.314 63.3374 161.533 60.6315 161.46 57.8526C161.387 56.0974 161.095 54.4154 160.364 52.7334C159.414 50.5395 158.757 48.2724 158.392 45.8591C158.172 44.104 157.661 42.5682 156.857 41.1056C156.127 39.643 155.104 38.3266 153.935 37.0834C153.277 36.4252 152.62 35.7671 151.889 35.182C148.747 32.6224 145.24 30.721 141.441 29.4047C140.272 28.9659 139.103 28.7465 137.934 28.5271C136.473 28.2346 136.254 28.2346 134.866 27.2107C134.281 26.772 133.624 26.4063 132.893 26.1138C129.971 24.9437 127.048 23.6273 124.053 22.6766C118.792 20.9946 113.459 20.4827 107.979 21.5797C105.13 22.1647 102.353 22.9692 99.5768 23.7005C96.5813 24.5049 93.7319 25.8213 91.2477 27.5033C88.2522 29.5509 85.4028 31.7449 82.4073 33.8657C78.1697 36.864 74.8088 40.74 72.2517 45.2009C68.8908 51.0514 64.4341 56.0243 59.9042 60.9241C58.9544 61.9479 57.9316 62.8255 56.8356 63.5568C55.6667 64.2881 54.4977 64.8 53.1095 65.0925C52.7442 65.1657 52.3789 65.2388 52.0136 65.3119C48.945 65.9701 45.8033 66.5551 42.6617 67.0671C39.5931 67.579 36.5245 67.7252 33.5289 68.5297C28.4877 69.846 23.9578 72.1862 19.5011 74.7458C17.6015 75.8428 16.1402 77.3785 14.8982 79.1336C13.1447 81.6201 11.9757 84.3259 11.6104 87.2512C11.2451 90.0302 10.0761 92.0778 7.3728 93.2479C5.54626 94.0523 4.45033 95.5881 3.9389 97.4164C3.57359 98.9521 3.20828 100.488 3.13522 102.024C3.06216 103.852 3.64665 105.461 4.96176 106.85C5.25401 107.143 5.4732 107.362 5.76544 107.655C6.64219 108.532 6.64219 108.605 5.91157 109.483C3.9389 111.896 2.76991 114.675 2.03929 117.674C1.16255 121.33 0.578057 125.133 0.139686 128.863C-0.444809 133.397 0.797242 137.492 4.01196 140.856C5.76544 142.757 7.73811 144.513 10.003 145.829C13.0716 147.657 16.0672 149.486 19.0627 151.387C19.9394 151.899 20.597 152.557 20.8892 153.654C21.9852 157.749 24.5423 160.894 27.757 163.527C33.2367 168.207 39.7392 169.67 46.8262 169.158C47.6299 169.085 48.5066 168.938 49.3103 168.938C49.7487 168.938 50.2601 169.011 50.6254 169.304C52.1597 170.547 53.9132 170.986 55.8128 171.205C56.8356 171.352 56.9087 171.498 57.0548 172.375C57.201 173.765 57.274 175.154 57.3471 176.544C57.5663 180.932 58.6622 184.954 61.95 188.099C62.1692 188.318 62.3153 188.537 62.4614 188.757C64.1418 191.024 66.4067 192.413 68.9639 193.364C71.6672 194.388 74.4435 194.461 77.2199 194.388C81.9689 194.242 86.2065 192.633 90.1518 190.293C91.7592 188.611 93.8049 188.172 95.9968 188.391C96.3621 188.391 96.7274 188.391 97.0927 188.318C104.691 188.172 112.216 188.099 119.742 189.342C124.929 190.219 130.19 189.927 135.45 189.781C137.861 189.707 140.272 189.488 142.756 189.342C144.218 189.269 145.752 189.196 147.213 188.976C148.163 188.83 148.82 189.122 149.405 189.854C150.574 191.17 151.743 192.486 152.985 193.803C154.885 195.85 157.223 197.094 159.853 197.898C162.337 198.629 164.894 199.434 167.378 200.165C169.57 200.823 171.762 201.262 174.027 200.823C178.118 200.019 181.917 198.556 185.278 196.143C187.251 194.68 188.931 192.925 189.808 190.658C190.685 188.537 191.415 186.343 191.489 184.003C191.489 183.418 191.415 182.687 192 182.248V180.566C191.635 180.201 191.781 179.542 191.781 178.884ZM157.953 113.725C158.026 113.725 158.099 114.017 158.245 114.163C157.88 114.895 157.442 115.553 157.076 116.284C155.834 118.551 154.008 120.16 151.962 121.623C151.378 122.061 150.866 121.988 150.647 121.33C149.478 118.405 148.382 115.48 147.286 112.554C147.213 112.408 147.578 111.969 147.651 112.043C151.012 112.628 154.592 112.701 157.953 113.725ZM154.665 74.0145C154.958 73.8682 155.542 74.9652 155.469 75.6234C155.396 76.0621 155.25 76.5009 155.104 76.9397C154.519 78.4023 154.008 79.865 153.423 81.3276C153.058 82.2051 152.62 83.0096 152.4 83.8872C151.378 88.0556 149.113 91.7122 146.848 95.2956C145.094 98.0014 143.56 100.854 141.88 103.632C141.368 104.51 141.295 105.388 141.807 106.265C144.364 111.311 146.044 116.723 148.967 121.55C149.332 122.208 149.624 122.866 149.916 123.524C152.327 130.106 155.396 136.468 158.684 142.684C159.926 145.098 159.707 147.072 158.172 149.047C157.515 149.924 156.857 150.802 156.2 151.753C154.3 154.385 151.67 155.921 148.455 156.214C145.752 156.433 143.049 156.214 140.345 156.14C139.98 156.14 139.615 155.994 139.249 155.848C138.373 155.629 137.715 155.19 137.496 154.239C137.35 153.581 137.204 152.996 137.058 152.338C135.889 148.169 134.72 144.001 133.551 139.832C132.893 137.273 132.309 134.64 131.651 132.007C131.432 130.91 131.286 129.813 130.993 128.716C129.459 123.012 127.852 117.308 126.244 111.677C125.441 108.971 124.71 106.338 124.637 103.559C124.564 101.439 125.368 99.8297 126.829 98.3671C128.363 96.8313 129.824 95.2956 131.14 93.6136C134.208 89.5182 135.377 84.8379 134.573 79.7187C134.281 77.671 134.281 75.6965 135.012 73.722C135.085 73.4294 135.523 73.1369 135.815 73.0638C136.108 73.0638 136.619 73.2832 136.692 73.5757C137.058 74.5995 137.496 75.6234 137.642 76.7203C138.153 79.6456 138.446 82.5708 137.715 85.496C137.569 86.1542 137.715 86.9586 137.788 87.69C137.788 87.9093 138.153 88.1287 138.373 88.2019C138.592 88.275 138.884 88.0556 139.103 87.9093C139.249 87.8362 139.322 87.6168 139.395 87.4706C139.98 85.3498 140.418 83.1558 140.272 80.8888C140.126 78.6217 139.834 76.2815 139.103 74.0876C138.592 72.4056 138.007 70.7236 138.373 68.9685C138.446 68.6759 138.665 68.2372 138.957 68.164C139.249 68.0909 139.688 68.164 139.98 68.3834C140.784 68.8953 141.295 69.6998 141.514 70.6505C141.953 72.5519 142.464 74.4533 142.61 76.3547C142.902 78.9143 142.829 81.4738 142.391 84.1065C142.172 85.3498 142.245 86.6661 142.245 87.9825C142.245 88.2019 142.683 88.6407 142.976 88.6407C143.268 88.6407 143.706 88.3481 143.779 88.0556C143.998 87.3243 144.071 86.593 144.218 85.8617C144.51 83.3021 144.802 80.7425 144.948 78.1829C145.167 75.1115 144.364 72.1131 143.122 69.3341C142.976 69.0416 143.049 68.6759 143.049 68.3834C143.414 68.4565 143.779 68.4565 144.071 68.5297C144.802 68.6759 145.24 69.1879 145.387 69.846C145.679 70.8699 145.971 71.9668 146.117 73.0638C146.263 74.5995 146.117 76.2084 146.117 77.7442C146.409 81.1813 146.044 84.5453 145.167 87.9093C145.094 88.2019 145.021 88.4944 145.094 88.7138C145.167 88.9332 145.387 89.2257 145.533 89.2988C145.752 89.372 146.19 89.2988 146.263 89.1526C146.629 88.6407 146.994 88.0556 147.14 87.4706C147.432 86.4467 147.944 85.6423 148.528 84.8379C149.332 83.6678 149.989 82.2783 150.647 80.9619C151.305 79.6456 151.743 78.2561 152.327 76.8666C152.62 76.2084 152.985 75.4771 153.35 74.8921C153.716 74.5264 154.227 74.1608 154.665 74.0145ZM148.382 76.7203C148.455 76.1353 148.382 75.2577 148.747 74.9652C149.405 74.4533 150.428 74.2339 151.232 73.8682C151.305 74.0876 151.524 74.3801 151.451 74.5264C150.939 75.7696 150.428 77.086 149.843 78.3292C149.551 78.9874 149.259 79.6456 148.894 80.3037C148.82 80.45 148.601 80.5231 148.455 80.5963C148.309 80.3769 148.09 80.2306 148.09 80.0112C148.09 79.353 148.163 78.768 148.163 78.1098C148.382 77.5979 148.382 77.1591 148.382 76.7203ZM124.637 36.0596C124.637 36.1327 124.564 36.2058 124.564 36.279C124.491 36.279 124.491 36.2058 124.418 36.2058C124.491 36.2058 124.564 36.1327 124.637 36.0596ZM95.9237 69.261C95.9968 66.9939 96.0698 64.6537 96.289 62.3867C96.5082 60.1928 96.5813 57.9988 97.3119 55.878C97.5311 55.1467 97.8233 54.5617 98.627 54.196C99.1384 53.9766 99.4307 53.4647 99.796 53.0991C101.476 51.4171 103.522 50.3201 105.86 49.7351C107.833 49.2231 109.659 49.8813 110.682 51.6365C111.194 52.514 111.632 53.4647 111.851 54.4154C111.997 55.0005 111.997 55.7318 111.778 56.3168C111.559 57.1213 110.682 56.8287 110.098 57.1213C109.952 57.1944 109.732 57.2675 109.586 57.3407C109.075 57.6332 109.075 58.4376 109.659 58.7301C109.879 58.8764 110.171 58.8764 110.463 59.0227C110.609 59.0958 111.267 58.9495 110.828 59.3883C109.148 61.2166 106.225 61.5822 104.253 60.2659C103.961 60.0465 103.668 59.8271 103.303 59.6808C103.011 59.5346 102.426 59.8271 102.426 60.1196C102.572 61.436 102.28 62.6061 101.842 63.8493C101.769 64.0687 101.988 64.6537 102.207 64.7269C102.426 64.8731 102.938 64.6537 103.23 64.5075C103.449 64.3612 103.668 64.1418 103.741 63.8493C104.107 63.118 104.545 62.7523 105.495 62.9717C106.298 63.118 107.175 63.0449 107.979 62.9717C109.805 62.7523 109.879 62.7523 109.294 64.6537C108.783 66.3358 108.125 67.9446 107.687 69.6266C107.102 71.7474 108.344 74.3801 110.317 75.1115C110.609 75.2577 111.048 75.2577 111.413 75.1846C111.851 75.1846 112.143 74.3801 111.924 74.0876C111.778 73.8682 111.559 73.6488 111.34 73.5026C109.513 71.9668 109.221 71.1624 110.025 68.9685C110.974 66.1895 111.997 63.4105 113.093 60.6315C113.751 58.8764 114.116 57.1213 114.262 55.2199C114.481 51.3439 110.682 47.7605 106.664 48.053C104.837 48.1993 103.23 48.8575 101.623 49.6619C101.403 49.735 101.111 49.6619 100.892 49.5888C100.819 49.5888 100.892 49.2963 100.965 49.0769C100.965 49.0037 101.038 48.9306 101.111 48.8575C104.253 43.8846 108.344 39.9355 114.189 38.1804C116.162 37.5953 118.208 37.3028 120.034 38.6923C120.253 38.9117 120.765 38.9117 121.057 38.8386C122.08 38.6192 123.03 38.3266 123.979 38.1072C124.637 37.961 125.222 37.8147 125.879 37.6685C126.683 37.5222 127.34 37.8147 127.925 38.3266C129.678 40.0818 131.066 41.9832 131.87 44.3234C132.235 45.2741 132.528 46.2248 132.747 47.2486C132.82 47.6143 132.674 47.9799 132.162 47.9068C130.117 47.6143 128.071 47.2486 126.025 47.1023C124.856 46.9561 123.614 47.1023 122.372 47.1755C121.934 47.1755 121.422 47.3949 121.13 47.6874C120.838 47.9068 120.619 48.3456 120.692 48.6381C120.838 49.0037 121.13 49.5157 121.495 49.5888C122.007 49.735 122.591 49.6619 123.103 49.5888C125.441 49.3694 127.779 49.2963 130.117 49.8082C132.382 50.247 134.135 51.2708 134.866 53.5379C135.304 54.8542 135.962 56.0974 136.473 57.3407C137.35 59.4614 138.446 61.5091 139.907 63.3374C140.199 63.703 140.491 64.0687 140.857 64.3612C141.587 64.9463 142.61 64.8 143.049 63.9956C143.925 62.3867 145.24 61.2166 146.482 60.0465C147.944 58.7301 148.82 58.7301 150.501 59.8271C152.985 61.5091 154.154 65.5313 152.985 68.3103C152.912 68.5297 152.766 68.8953 152.62 69.0416C151.451 69.6266 151.085 70.8699 150.282 71.7474C150.136 71.9668 149.843 72.1862 149.624 72.1862C149.332 72.1862 148.747 72.04 148.747 71.8206C148.528 71.2355 148.382 70.5773 148.455 69.9192C148.674 68.5297 148.601 67.2133 148.09 65.8238C147.798 64.9463 148.382 64.215 149.405 64.215C149.77 64.215 150.136 64.3612 150.501 64.3612C150.72 64.3612 151.085 64.0687 151.085 63.9224C151.158 63.6299 151.158 63.118 150.939 62.8986C150.282 62.1673 149.478 62.1673 148.601 62.533C147.213 63.1911 146.117 64.1418 145.021 65.1657C144.583 65.6044 144.145 66.1895 143.56 66.4089C142.391 66.9208 141.149 67.5058 139.907 66.5551C139.615 66.3358 139.249 66.2626 138.884 66.1895C137.788 66.0432 136.838 66.6283 136.546 67.7252C136.4 68.2372 136.327 68.8222 136.327 69.3341C136.254 70.2848 136.181 71.0893 134.866 71.2355C133.843 71.3818 133.477 72.3325 133.185 73.2832C132.601 75.5502 132.674 77.8904 132.747 80.3769C133.112 83.9603 132.455 87.4706 130.555 90.8346C129.313 93.0285 127.779 95.003 125.806 96.6119C122.591 99.2446 121.861 102.609 123.03 106.338C125.295 113.651 126.61 121.184 128.582 128.643C128.655 128.789 128.655 129.009 128.655 129.155C128.802 129.886 128.655 130.106 127.925 130.398C124.126 131.642 120.253 132.227 116.308 131.788C114.554 131.568 112.801 131.203 111.048 130.837C110.39 130.691 110.098 130.252 110.171 129.594C110.39 128.131 110.536 126.669 110.828 125.206C111.267 123.012 111.851 120.891 112.363 118.771C112.509 118.039 113.02 117.674 113.751 117.674C113.97 117.674 114.116 117.6 114.335 117.674C116.381 117.893 116.527 117.381 116.454 115.48C116.381 112.628 116.162 109.775 116.016 106.923C115.943 105.753 115.87 104.51 115.797 103.34C115.723 102.389 115.212 101.804 114.189 101.731C113.459 101.658 112.728 101.731 111.924 101.731C111.048 101.658 110.317 101.365 109.879 100.561C107.76 96.9044 104.91 93.9061 102.207 90.6883C99.6499 87.6168 98.4078 83.9603 97.8233 80.0844C97.5311 77.8173 97.0927 75.5502 96.9466 73.2101C96.8735 72.2593 96.7274 71.4549 96.0698 70.7236C95.8507 70.2848 95.8507 69.6998 95.9237 69.261ZM113.605 104.803C113.532 105.022 113.459 105.168 113.385 105.314C113.239 105.241 113.093 105.168 113.02 105.022C112.947 104.876 112.874 104.729 112.801 104.51C112.728 104.218 112.728 103.852 112.655 103.559C112.655 103.559 112.801 103.486 112.874 103.486C113.459 103.559 113.532 104.071 113.532 104.51C113.605 104.656 113.605 104.729 113.605 104.803ZM113.605 111.457C113.605 111.311 113.751 111.092 113.824 110.946C113.897 111.165 114.116 111.311 114.116 111.531C114.335 112.774 114.554 114.09 114.774 115.407C114.554 115.553 114.408 115.918 114.262 115.918C113.897 115.918 113.532 115.772 113.312 115.553C113.166 115.407 113.166 115.041 113.166 114.748C113.312 113.651 113.459 112.554 113.605 111.457ZM95.3392 75.1115C95.7045 77.086 95.7776 79.1336 96.1429 81.1082C96.8735 85.496 98.5539 89.4451 101.257 92.9554C102.938 95.0762 104.618 97.1238 106.372 99.2446C107.248 100.342 108.125 101.439 109.002 102.536C110.39 104.291 111.048 106.119 110.974 108.386C110.974 110.58 111.121 112.774 110.974 115.407C111.048 118.186 110.536 121.403 109.659 124.548C108.636 127.985 107.979 131.495 107.321 135.079C106.445 139.905 105.495 144.659 104.107 149.412C103.668 151.021 103.303 152.63 103.011 154.239C102.865 155.043 102.499 155.555 101.842 155.994C99.4307 157.457 96.8005 158.042 94.0241 157.164C91.8323 156.433 89.6404 155.555 87.5216 154.605C86.791 154.312 85.9873 153.727 85.5489 153.142C84.3799 151.606 83.284 149.997 82.3342 148.315C81.6036 147.072 81.7497 145.683 82.4073 144.366C84.1608 141.002 85.7681 137.565 87.4485 134.128C89.3481 130.179 90.8824 126.157 92.0514 121.988C93.1474 118.186 94.3894 114.383 95.7045 110.653C95.9968 109.775 95.9237 109.117 95.6315 108.24C94.1702 103.559 92.0514 99.0984 91.0286 94.3449C90.8824 93.833 90.8094 93.2479 90.6633 92.736C90.5171 92.0778 90.6633 91.7853 91.4669 91.7853C92.2706 91.7853 92.6359 91.1271 92.4167 90.4689C92.1976 89.7376 91.9784 89.0795 91.6861 88.3481C89.7135 83.6678 89.8596 78.768 90.371 73.8682C90.5171 72.2593 91.2478 70.8699 92.8551 70.0654C93.0012 69.9923 93.2204 70.0654 93.3665 70.1386C93.4396 70.2117 93.4396 70.5042 93.3665 70.5773C91.9784 71.9668 91.54 73.7951 91.3939 75.6234C91.2478 77.4516 91.2477 79.353 91.6131 81.1082C92.1976 84.1797 93.1474 87.178 93.951 90.2495C94.0972 90.7615 94.3894 91.2734 95.047 91.3465C95.5584 91.4196 96.0698 90.6152 95.8507 89.8108C95.4853 88.3481 95.1931 86.9586 94.7547 85.496C94.0241 83.0096 93.4396 80.5231 93.3665 77.8904C93.3665 76.8666 93.4396 75.8428 93.5857 74.8921C93.7319 74.0145 93.5857 73.0638 94.6086 72.5519C95.1931 73.21 95.1931 74.2339 95.3392 75.1115ZM89.129 70.2117C89.202 70.1386 89.202 70.0654 89.2751 69.9923C89.2751 69.9192 89.2751 69.846 89.3481 69.7729C89.3481 69.7729 89.4212 69.7729 89.4212 69.6998C90.1518 67.9446 91.6131 66.9208 93.2935 66.1164C93.5127 66.0432 93.951 66.1164 94.0241 66.2626C94.1702 66.5551 94.1702 66.9208 94.0972 67.2865C94.0972 67.4327 93.878 67.6521 93.7319 67.6521C92.0514 67.8715 90.9555 69.1879 89.4212 69.6998C89.4212 69.6998 89.4212 69.7729 89.3481 69.7729C89.3481 69.846 89.2751 69.846 89.2751 69.9192L89.202 70.2848C89.202 70.3579 89.129 70.2848 89.129 70.2117ZM86.1334 190.585C85.4759 190.878 84.7453 191.17 84.0877 191.463C77.8774 194.095 72.0325 192.998 66.4798 189.561C66.2606 189.415 65.9684 189.269 65.8223 189.049C63.0459 186.051 60.3426 182.979 59.3928 178.811C59.0275 177.422 59.0275 175.886 58.8814 174.423C58.9544 170.913 59.9042 167.695 61.2924 164.55C64.8724 156.506 68.4525 148.535 70.8635 140.052C71.0827 139.247 71.3749 138.443 71.8133 137.711C73.2746 134.859 74.8089 131.934 76.4162 129.155C78.0966 126.303 80.6538 124.255 83.284 122.354C84.5261 121.476 85.9142 120.891 87.4485 120.818C88.3983 120.745 89.3481 120.087 90.371 120.672C90.0788 121.55 89.8596 122.427 89.4212 123.232C87.0102 128.204 84.5991 133.25 82.4803 138.37C81.7497 140.271 81.3844 142.319 80.0693 143.928C78.6811 149.047 75.8317 153.508 73.4937 158.261C71.6672 161.991 69.9868 165.794 68.5986 169.743C68.1602 171.059 67.7949 172.375 66.5529 173.253C66.4067 173.399 66.3337 173.984 66.4798 174.204C66.6259 174.423 67.1374 174.496 67.4296 174.423C68.6717 174.057 69.4023 173.253 69.7676 171.937C70.7174 169.085 71.8133 166.159 73.0554 163.454C75.2472 158.627 77.5852 153.947 79.8501 149.193C79.9232 149.047 80.1424 148.754 80.1424 148.827C80.3615 148.9 80.6538 149.047 80.7999 149.266C81.3113 150.217 81.8228 151.241 82.3342 152.191C83.5032 154.312 85.1106 155.921 87.3755 156.799C89.2751 157.603 91.1747 158.334 93.1474 158.993C95.4123 159.797 97.7503 159.724 100.015 158.846C100.307 158.773 100.527 158.627 100.819 158.554C101.257 158.408 101.623 158.627 101.549 159.066C100.965 161.772 100.454 164.477 99.7229 167.183C98.627 171.059 97.3849 174.935 96.216 178.811C94.5355 184.223 91.3208 188.172 86.1334 190.585ZM145.825 187.879C145.46 187.879 145.094 187.879 144.729 187.879H134.062C131.432 187.879 128.802 187.952 126.244 187.879C124.199 187.806 122.153 187.587 120.107 187.44C118.354 187.294 116.6 187.221 114.774 187.148C108.49 186.929 102.28 186.782 95.9968 186.636C95.1931 186.636 94.9739 186.197 95.3392 185.539C96.8735 183.053 97.7503 180.347 98.627 177.641C100.161 172.814 101.33 167.841 102.572 162.942C103.741 158.115 105.349 153.361 106.591 148.535C107.614 144.513 108.344 140.417 109.148 136.395C109.221 136.029 109.221 135.664 109.294 135.298C110.025 132.154 109.367 132.519 112.363 133.324C115.797 134.201 119.23 134.274 122.664 134.128C123.833 134.055 125.002 133.616 126.171 133.324C127.048 133.104 127.998 132.812 128.875 132.665C129.167 132.592 129.678 132.812 129.824 133.104C130.263 133.909 130.628 134.786 130.847 135.664C131.432 138.077 132.016 140.49 132.528 142.904C133.404 147.072 134.281 151.168 135.231 155.336C135.304 155.775 135.45 156.287 135.596 156.652C138.007 161.772 139.322 167.256 141.076 172.595C142.61 177.348 144.291 182.029 146.775 186.417C147.359 187.44 147.14 187.806 145.825 187.879ZM190.393 176.398C190.027 180.786 189.443 185.173 188.055 189.415C187.397 191.536 186.228 193.291 184.329 194.461C178.045 198.41 171.25 200.019 164.017 197.752C160.291 196.582 157.003 194.315 154.081 191.609C152.547 190.146 151.085 188.611 149.624 187.002C148.09 185.32 146.994 183.418 146.117 181.371C144.729 177.86 143.341 174.277 142.026 170.767C141.807 170.255 141.66 169.743 141.514 169.158C140.638 165.867 140.126 162.503 138.884 159.285C138.592 158.481 138.884 158.115 139.907 158.261C141.003 158.407 142.172 158.407 142.902 158.481C145.313 158.407 147.359 158.627 149.405 158.042C152.62 157.091 155.469 155.629 157.442 152.85C157.953 152.118 158.538 151.387 159.195 150.656C159.853 149.924 160.072 148.827 161.095 148.389C161.606 149.193 162.118 149.924 162.556 150.729C164.894 155.043 167.232 159.358 169.57 163.673C169.935 164.404 170.447 165.136 170.812 165.867C171.47 167.037 172.273 167.988 173.588 168.5C174.246 168.719 174.83 169.231 175.488 169.523C175.634 169.597 176.073 169.45 176.219 169.304C176.365 169.158 176.511 168.792 176.438 168.573C176.365 167.841 175.853 167.329 175.269 167.11C173.223 166.379 172.273 164.697 171.324 163.015C170.666 161.918 170.008 160.748 169.424 159.651C167.597 156.287 165.771 152.996 164.017 149.632C162.629 146.853 161.241 144.001 160.072 141.075C158.099 135.956 155.761 131.057 152.912 126.376C152.4 125.499 151.378 124.694 151.816 123.67C152.108 122.939 153.131 122.427 153.862 121.915C155.761 120.453 157.296 118.771 158.392 116.723C158.684 116.138 159.049 115.626 159.414 115.041C159.999 114.09 160.145 114.09 161.241 114.456C162.702 115.041 164.09 115.845 165.259 116.942C167.451 118.844 169.205 121.111 170.812 123.524C171.689 124.84 172.639 126.084 173.735 127.254C175.342 129.009 176.511 130.91 177.461 133.031C179.872 138.297 181.917 143.781 184.036 149.193C186.155 154.532 187.616 160.089 188.712 165.721C189.151 168.134 189.735 170.62 190.1 173.034C190.393 174.204 190.466 175.301 190.393 176.398Z" fill="#070707"/>
<path d="M136.252 60.5587C135.887 61.2169 136.325 61.5825 136.691 61.9482C137.129 62.387 137.275 62.8989 136.837 63.4108C136.398 63.8496 135.814 63.9959 135.302 63.7033C133.549 62.6064 131.722 62.5332 129.677 63.0451C127.704 63.5571 126.097 62.387 124.855 60.9244C124.635 60.705 124.635 60.193 124.782 59.9005C124.928 59.5349 125.439 59.4617 125.731 59.7543C127.85 61.6557 129.969 61.2169 132.234 60.1199C132.964 59.7543 133.768 59.4617 134.572 59.1692C135.668 58.8767 136.252 59.3155 136.252 60.5587Z" fill="black"/>
<path d="M116.744 81.5451C116.16 81.3989 115.356 81.1795 114.553 80.9601C114.041 80.8138 113.895 80.2288 114.114 79.79C114.26 79.4975 114.626 79.2781 114.918 79.0587C114.991 78.9856 115.064 78.9856 115.21 78.9856C118.133 79.3512 120.398 78.0349 122.662 76.4991C123.174 76.1335 123.685 75.6947 124.27 75.4753C124.635 75.4022 125.147 75.6215 125.512 75.8409C125.95 76.1335 125.804 76.7185 125.512 77.0842C123.174 79.4975 120.398 81.1064 116.744 81.5451Z" fill="black"/>
<path d="M126.244 56.6078C127.34 56.5346 128.144 57.1197 128.071 57.7779C127.998 58.3629 127.267 58.7286 126.244 58.5823C125.587 58.5092 124.929 58.3629 124.345 58.1435C124.125 58.0704 123.906 57.7047 123.906 57.4853C123.906 57.2659 124.199 57.0465 124.345 56.8272C124.418 56.754 124.491 56.754 124.564 56.754C125.148 56.754 125.66 56.6809 126.244 56.6078Z" fill="black"/>
<path d="M116.382 73.1386C116.235 73.2849 116.016 73.5774 115.87 73.5774C114.701 73.5774 113.824 72.9923 113.094 72.1879C112.948 72.0416 113.094 71.676 113.167 71.4566C113.24 71.3103 113.459 71.1641 113.605 71.1641C114.774 71.2372 115.724 71.676 116.455 72.5535C116.455 72.6267 116.382 72.8461 116.382 73.1386Z" fill="black"/>
<g clip-path="url(#clip0_476_11527)">
<path d="M54.0183 53.0183L50.4773 39.838V39.7396C56.1822 29.8052 54.7068 17.0183 46.2478 8.5593C36.1167 -1.57185 19.6904 -1.57185 9.5593 8.5593C-0.571849 18.6904 -0.571849 35.1167 9.5593 45.2478C18.0183 53.7068 30.9036 55.0839 40.7396 49.4773H40.838L54.0183 53.0183Z" fill="white"/>
<path d="M54.0164 54C53.918 54 53.8197 54 53.7213 54L40.9344 50.5574C30.5082 56.3607 17.3279 54.4918 8.86885 46.0328C3.7541 40.918 1 34.2295 1 26.9508C1 19.7705 3.7541 12.9836 8.86885 7.86885C13.9836 2.7541 20.6721 0 27.9508 0C35.1311 0 41.918 2.7541 47.0328 7.86885C55.4918 16.3279 57.3607 29.4098 51.5574 39.9344L55 52.7213C55.0984 53.0164 55 53.4098 54.7049 53.7049C54.5082 53.9016 54.3115 54 54.0164 54ZM27.9508 1.96721C21.2623 1.96721 14.9672 4.52459 10.2459 9.2459C5.52459 13.9672 2.96721 20.2623 2.96721 26.9508C2.96721 33.6393 5.52459 39.9344 10.2459 44.5574C18.2131 52.5246 30.5082 54.1967 40.2459 48.5902C40.4426 48.4918 40.7377 48.3934 41.0328 48.4918L52.6393 51.6393L49.5902 40.1311C49.4918 39.8361 49.4918 39.541 49.6885 39.3443C55.2951 29.6066 53.623 17.2131 45.6557 9.34426C40.8361 4.52459 34.6393 1.96721 27.9508 1.96721Z" fill="#070707"/>
<path d="M27.4573 39.8348C27.4573 39.8348 3.55565 12.1954 25.4901 21.5397C32.6704 24.5889 23.9163 28.5233 23.9163 28.5233C23.9163 28.5233 26.7688 17.2118 35.0311 15.4413C43.3917 13.6708 35.1294 29.5069 27.4573 39.8348Z" fill="#FF4E28"/>
</g>
<defs>
<clipPath id="clip0_476_11527">
<rect width="54" height="54" fill="white" transform="translate(1)"/>
</clipPath>
</defs>
</svg>
