<svg width="160" height="160" viewBox="0 0 160 160" fill="none" xmlns="http://www.w3.org/2000/svg">
<g clip-path="url(#clip0_2554_2890)">
<path d="M150.646 54.3923H21.063C16.7435 54.3923 13.1061 57.6989 12.7651 61.9022L2.98958 65.5451C1.56872 66.0495 0.829868 67.6748 1.34138 69.0758C1.62555 69.8605 2.25073 70.4769 3.04641 70.7011L12.7083 73.8956V96.3693C12.7083 100.909 16.4594 104.608 21.063 104.608H150.646C155.249 104.608 159 100.909 159 96.3693V62.6308C159 58.0912 155.249 54.3923 150.646 54.3923Z" fill="#002E47"/>
<path d="M33.1125 67.6751C33.7376 66.6663 34.9312 66.0498 36.1247 66.1058C36.5225 66.1058 36.8635 66.1619 37.2614 66.2179C37.5455 66.274 37.8866 66.386 38.1707 66.5542C38.4549 66.6663 38.6822 66.8344 38.9096 67.0025C39.0801 67.1707 39.3074 67.3388 39.4779 67.5069C39.7621 67.2827 39.9894 67.0025 40.1599 66.7223C40.3873 66.4981 40.5009 66.1619 40.5009 65.8817C40.5009 65.7135 40.4441 65.5454 40.3873 65.3773C40.2736 65.2091 40.1599 65.097 40.0463 64.9849C39.8758 64.8729 39.7053 64.7047 39.5348 64.5926C39.2506 64.4245 38.9664 64.2564 38.6822 64.1443C38.2844 63.9762 37.8866 63.8641 37.4887 63.808C36.9772 63.6959 36.4657 63.6399 35.9542 63.6399C34.9312 63.6399 33.9081 63.808 32.9988 64.2003C32.2031 64.5366 31.4643 65.097 30.8959 65.7696C30.3276 66.4421 29.8729 67.2827 29.6455 68.1234C29.3614 69.0762 29.1909 70.0849 29.2477 71.0937C29.2477 72.1025 29.3614 73.1113 29.6455 74.0641C29.8729 74.9047 30.2707 75.6893 30.8391 76.4179C31.4074 77.0904 32.1463 77.5948 32.942 77.9311C33.9081 78.3234 34.9312 78.4915 35.9542 78.4915C36.4657 78.4915 37.034 78.4355 37.5455 78.3795C37.9434 78.2674 38.3412 78.1553 38.7391 77.9871C39.0232 77.8751 39.3074 77.763 39.5348 77.5948C39.7053 77.4827 39.8189 77.3707 39.9894 77.2586C40.1031 77.1465 40.2168 76.9784 40.3304 76.8102C40.3873 76.6421 40.4441 76.53 40.4441 76.3619C40.4441 76.1937 40.3873 76.0816 40.3304 75.9135C40.2736 75.7454 40.1599 75.6333 40.1031 75.4652C39.9894 75.297 39.8758 75.1849 39.7621 75.0168L39.4779 74.6245C39.3643 74.7366 39.1937 74.8487 38.9664 75.0168C38.7391 75.1849 38.5117 75.3531 38.2844 75.4652C38.0002 75.6333 37.7161 75.7454 37.4319 75.8575C37.0909 75.9696 36.693 76.0256 36.2952 76.0256C35.6132 76.0256 34.988 75.9135 34.3628 75.5773C33.8513 75.297 33.4535 74.9047 33.1125 74.4564C32.7714 73.952 32.5441 73.3915 32.4304 72.8311C32.3168 72.2146 32.2599 71.5421 32.2599 70.9256C32.2599 70.3091 32.3168 69.6926 32.4304 69.0762C32.5441 68.6838 32.7714 68.1795 33.1125 67.6751Z" fill="#002E47"/>
<path d="M35.726 79.5001C34.6461 79.5001 33.5663 79.2759 32.5433 78.8836C31.5771 78.4913 30.7246 77.8748 30.0994 77.0902C29.4174 76.3056 28.9627 75.4089 28.6785 74.4001C28.3943 73.3353 28.2238 72.2704 28.2807 71.1495C28.2807 70.0847 28.3943 68.9638 28.7353 67.899C29.0195 66.8902 29.531 65.9935 30.1562 65.2089C30.8382 64.4243 31.6907 63.8078 32.6001 63.4155C33.6799 62.9671 34.8166 62.7429 35.9533 62.799C36.5217 62.799 37.09 62.855 37.6584 62.9671C38.113 63.0792 38.5677 63.1913 39.0224 63.3594C39.3634 63.4715 39.7044 63.6397 40.0454 63.8638C40.2727 63.9759 40.4433 64.144 40.6706 64.3122C40.8979 64.5364 41.0684 64.7045 41.1821 64.9287C41.3526 65.2089 41.4663 65.5451 41.4663 65.8814C41.4663 66.3858 41.2389 66.8902 40.9548 67.2825C40.7274 67.5627 40.4433 67.899 40.1591 68.1792C39.8181 68.5155 39.1929 68.5155 38.8519 68.1232C38.6814 67.955 38.5109 67.7869 38.3404 67.6748C38.1699 67.5067 37.9994 67.3946 37.772 67.3386C37.5447 67.2265 37.3174 67.1144 37.0332 67.0583C36.749 67.0023 36.4648 66.9462 36.1238 66.9462C35.1576 66.8902 34.362 67.3386 33.8504 68.0671C33.6231 68.4594 33.4526 68.9078 33.3389 69.3561C33.2253 69.9166 33.1684 70.477 33.1684 71.0375C33.1684 71.5979 33.2253 72.2144 33.3389 72.7748C33.4526 73.2232 33.6231 73.6715 33.8504 74.0638C34.0778 74.4001 34.4188 74.6803 34.7598 74.9045C35.1576 75.1287 35.6692 75.2407 36.1807 75.2407C36.5217 75.2407 36.8058 75.1847 37.0332 75.1287C37.2605 75.0726 37.4879 74.9605 37.7152 74.8484C37.8857 74.7364 38.113 74.6243 38.2267 74.5122C38.3972 74.344 38.5677 74.232 38.6814 74.1199C38.8519 73.9517 39.1361 73.8957 39.3634 73.8957C39.5907 73.8957 39.8181 74.0638 39.9886 74.232L40.2728 74.5682C40.3864 74.7364 40.5569 74.9045 40.6706 75.0726C40.7843 75.2968 40.8979 75.4649 40.9548 75.6331C41.0684 75.8572 41.1253 76.1375 41.1821 76.4177C41.1821 76.7539 41.1253 77.0342 40.9548 77.3144C40.9548 77.3144 40.9548 77.3704 40.8979 77.3704C40.7843 77.5946 40.6138 77.8188 40.3864 77.9869C40.2159 78.155 39.9886 78.3232 39.8181 78.4353C39.5339 78.6034 39.1929 78.7715 38.8519 78.8836C38.454 79.0517 37.9994 79.2199 37.5447 79.2759C36.9195 79.388 36.3512 79.444 35.726 79.444C35.8965 79.5001 35.7828 79.5001 35.726 79.5001ZM35.7828 64.6484C34.9303 64.6484 34.1346 64.8166 33.3389 65.1528C32.6569 65.4331 32.0317 65.8814 31.5771 66.4418C31.0656 67.0583 30.7246 67.7309 30.4972 68.4594C30.213 69.3561 30.0994 70.2528 30.0994 71.2056C30.0994 72.1583 30.213 73.055 30.4404 73.9517C30.6677 74.6803 31.0087 75.3528 31.4634 75.9693C31.9181 76.5298 32.5433 76.9781 33.2253 77.2583C34.0778 77.5946 34.9303 77.7627 35.8397 77.7627C36.3512 77.7627 36.8058 77.7067 37.3174 77.6506C37.6584 77.5946 37.9994 77.4825 38.2835 77.3144C38.5677 77.2023 38.7382 77.0902 38.9656 76.9781C39.0792 76.9221 39.1361 76.866 39.2497 76.7539C39.3066 76.6979 39.3634 76.6418 39.4202 76.5858V76.5298C39.3634 76.4177 39.3066 76.3056 39.1929 76.1375C39.0224 76.2495 38.7951 76.3616 38.6245 76.4737C38.2835 76.6418 37.9425 76.81 37.6015 76.9221C37.1469 77.0342 36.6922 77.1462 36.2375 77.0902C35.4418 77.0902 34.6461 76.9221 33.9073 76.5858C33.2821 76.2495 32.7138 75.7451 32.3159 75.1847C31.9181 74.5682 31.6339 73.9517 31.5202 73.2232C31.3497 72.5506 31.2929 71.8221 31.2929 71.1495C31.2929 70.477 31.3497 69.8045 31.5202 69.132C31.6339 68.4594 31.9181 67.8429 32.2591 67.2265C33.1116 65.9375 34.5893 65.1528 36.1238 65.2089C36.5217 65.2089 37.0332 65.2649 37.4879 65.377C37.8289 65.4891 38.2267 65.6012 38.5677 65.7693C38.8519 65.9375 39.1361 66.1056 39.3634 66.2737C39.3634 66.2737 39.3634 66.2737 39.3634 66.2177C39.4771 66.1056 39.4771 65.9935 39.5339 65.8814C39.4771 65.7693 39.4202 65.7133 39.3634 65.6572C39.2497 65.5451 39.1361 65.4891 38.9656 65.377C38.7382 65.2089 38.5109 65.0968 38.2835 65.0407C37.9425 64.9287 37.6015 64.8166 37.2605 64.7045C36.8627 64.6484 36.408 64.6484 35.9533 64.6484C35.8965 64.6484 35.8397 64.6484 35.7828 64.6484Z" fill="#002E47"/>
<path d="M51.0717 71.7659C51.0717 71.2054 51.0148 70.5889 50.8443 70.0285C50.7307 69.5801 50.4465 69.1318 50.1055 68.7955C49.7076 68.4593 49.253 68.179 48.7983 68.0669C48.1731 67.8988 47.4911 67.8428 46.8091 67.8428C46.2976 67.8428 45.7292 67.8988 45.2177 67.9549C44.763 68.0109 44.3084 68.179 43.8537 68.2911C43.5127 68.4032 43.2285 68.5713 42.9443 68.7955C42.7738 68.9076 42.6601 69.1318 42.6033 69.356C42.6033 69.5801 42.717 69.8043 42.7738 70.0285C42.8875 70.3087 43.058 70.5889 43.2285 70.8131C43.6832 70.5329 44.1378 70.3087 44.6494 70.1406C45.1609 69.9164 45.7292 69.8604 46.2976 69.8604C46.8091 69.8043 47.3206 69.9164 47.7184 70.1966C48.0594 70.4768 48.2299 70.9252 48.1731 71.3735V71.7659H47.7184C47.5479 71.7659 47.3774 71.7659 47.2069 71.7659C46.6386 71.8219 46.0702 71.8779 45.5019 71.934C44.9335 72.0461 44.3084 72.2142 43.7968 72.4944C43.2853 72.7186 42.7738 73.1109 42.4328 73.5593C42.035 74.0637 41.8645 74.6801 41.9213 75.3527C41.9213 75.8571 42.035 76.3615 42.2055 76.8098C42.376 77.2021 42.6602 77.5384 43.0012 77.8186C43.3422 78.0428 43.6832 78.2109 44.081 78.323C44.4789 78.4351 44.8767 78.4911 45.2745 78.4911C45.8997 78.4911 46.5817 78.379 47.2069 78.1549C47.6616 77.9307 48.1163 77.6505 48.4573 77.3142C48.5141 77.6505 48.6846 77.9307 48.9688 78.1549C49.3098 78.379 49.7076 78.4911 50.1623 78.4351C50.3896 78.4351 50.617 78.4351 50.8443 78.379C51.0717 78.323 51.3558 78.2669 51.5832 78.1549C51.1853 77.3702 51.0148 76.5296 51.0717 75.6889V71.7659ZM48.2868 75.4648C48.2868 75.5768 48.2299 75.745 48.1163 75.8571C48.0026 76.0252 47.8321 76.1373 47.6616 76.2494C47.4343 76.3615 47.2637 76.4735 47.0364 76.5296C46.8091 76.5856 46.5249 76.6417 46.2407 76.6417C45.786 76.6977 45.3882 76.5296 45.0472 76.1933C44.8199 75.9131 44.7062 75.5208 44.7062 75.1845C44.7062 74.8483 44.763 74.568 44.9904 74.2878C45.1609 74.0637 45.3882 73.8395 45.6724 73.7274C45.9566 73.5593 46.2976 73.4472 46.6386 73.4472C46.9796 73.3911 47.3206 73.3351 47.7184 73.3351H48.0026H48.2868V75.4648Z" fill="#002E47"/>
<path d="M45.3878 79.4438C45.331 79.4438 45.2741 79.4438 45.2173 79.4438C44.7626 79.4438 44.308 79.3878 43.7964 79.2757C43.2849 79.1636 42.8303 78.9395 42.4324 78.6032C41.9777 78.2669 41.5799 77.7625 41.3526 77.2581C41.0684 76.6977 40.9547 76.0252 40.9547 75.4087C40.8979 74.568 41.1821 73.7834 41.6367 73.1109C42.0914 72.5504 42.6029 72.1021 43.2281 71.8219C42.9439 71.8219 42.6598 71.7098 42.4892 71.4856C42.2619 71.2054 42.0346 70.8691 41.8641 70.4768C41.7504 70.1966 41.6367 69.8603 41.5799 69.5241C41.5799 69.468 41.5799 69.412 41.5799 69.3559C41.6367 68.8515 41.9209 68.4032 42.3187 68.123C42.6597 67.8988 43.0008 67.6746 43.4554 67.5065C43.9669 67.3384 44.4785 67.1702 44.99 67.1142C45.5583 67.0021 46.1835 66.946 46.7518 66.946C47.4907 66.946 48.2295 67.0021 48.9684 67.2263C49.5936 67.3944 50.2187 67.7307 50.6734 68.179C51.1281 68.6274 51.4691 69.1878 51.6396 69.8043C51.8101 70.4768 51.9238 71.0933 51.8669 71.7658V75.801V75.857C51.8101 76.5296 51.9806 77.2021 52.2648 77.8186C52.3785 78.0427 52.3785 78.323 52.3216 78.5471C52.208 78.7713 52.0374 78.9955 51.8101 79.0515C51.5259 79.1636 51.2418 79.2757 50.9008 79.3318C50.6166 79.3878 50.3324 79.3878 50.0482 79.3878C49.4231 79.4438 48.8547 79.2757 48.3432 78.9395C48.3432 78.9395 48.2864 78.9395 48.2864 78.8834C48.2295 78.8274 48.1159 78.7713 48.059 78.6592C47.8885 78.7713 47.6612 78.8834 47.4338 78.9395C46.8655 79.3318 46.1267 79.4438 45.3878 79.4438ZM45.0468 73.0548C44.7626 73.1109 44.5353 73.223 44.308 73.3911C43.9101 73.6153 43.5123 73.8955 43.2849 74.2318C43.0576 74.568 42.9439 74.9603 42.9439 75.4087V75.4647C42.9439 75.857 43.0008 76.1933 43.1713 76.5296C43.2849 76.7537 43.4554 76.9779 43.6828 77.2021C43.9101 77.3702 44.1374 77.4823 44.4216 77.5384C44.7058 77.6504 45.0468 77.6504 45.331 77.6504C45.672 77.6504 46.013 77.6504 46.2972 77.5384C45.6151 77.5944 44.9331 77.3142 44.4216 76.8098L44.3648 76.7537C44.0238 76.3054 43.7964 75.7449 43.7964 75.1845C43.7964 74.6801 43.9101 74.1757 44.2511 73.7834C44.4216 73.5032 44.7058 73.223 45.0468 73.0548ZM49.4799 77.4823C49.6504 77.5944 49.8777 77.6504 50.0482 77.5944H50.1051H50.2756C50.1051 76.9779 50.0482 76.3614 50.1051 75.7449V71.7658C50.1051 71.2614 50.0482 70.757 49.9346 70.3087C49.8209 70.0285 49.7072 69.7482 49.4231 69.468C49.1957 69.2438 48.8547 69.0757 48.5137 68.9636C47.9454 68.7955 47.377 68.7395 46.8087 68.7395C46.2972 68.7395 45.8425 68.7955 45.331 68.8515C44.9331 68.9076 44.5353 69.0197 44.1374 69.1878C43.9101 69.2438 43.7396 69.3559 43.5123 69.5241C43.5123 69.5801 43.5691 69.6362 43.5691 69.6362C43.7964 69.5241 44.0238 69.412 44.308 69.2999C44.9331 69.0197 45.6151 68.9076 46.2972 68.9076C46.9792 68.8515 47.6612 69.0197 48.2295 69.412C48.2864 69.468 48.3432 69.468 48.4 69.5241C48.9116 70.0285 49.1957 70.701 49.1389 71.4296V71.7658C49.1389 72.1021 48.9684 72.3263 48.741 72.4944C49.0252 72.6625 49.1957 72.9427 49.1957 73.279V75.4647V75.5208C49.1389 75.857 49.0252 76.1933 48.7979 76.4175V76.4735C49.1389 76.5856 49.3662 76.8658 49.4231 77.2021C49.3662 77.3142 49.4231 77.4263 49.4799 77.4823ZM45.7857 75.5768C45.8993 75.6889 46.013 75.6889 46.1835 75.6889H46.2972C46.4677 75.6889 46.6382 75.6889 46.8087 75.6329C46.9792 75.5768 47.0928 75.5208 47.2633 75.4647C47.3202 75.4087 47.377 75.4087 47.4338 75.3526V74.2878C47.2065 74.2878 47.036 74.3438 46.8087 74.3438C46.5813 74.3999 46.354 74.4559 46.1267 74.568C45.9562 74.6241 45.8425 74.7362 45.7857 74.8482C45.7288 74.9043 45.672 75.0164 45.7288 75.1285V75.1845C45.672 75.3526 45.672 75.4647 45.7857 75.5768ZM46.2972 70.8131C45.8425 70.8131 45.4446 70.8691 45.0468 71.0373C44.8195 71.1493 44.5921 71.2054 44.3648 71.3175C44.7058 71.2054 45.0468 71.0933 45.3878 71.0373C45.9562 70.9252 46.4677 70.8691 47.036 70.8691C46.8655 70.8131 46.6382 70.757 46.4108 70.757C46.354 70.757 46.354 70.757 46.2972 70.757V70.8131Z" fill="#002E47"/>
<path d="M62.2111 68.9637C61.8701 68.5713 61.4154 68.2911 60.9039 68.123C60.3924 67.9549 59.8809 67.8428 59.3694 67.8428C58.7442 67.8428 58.0622 67.9549 57.4938 68.2351C57.096 68.4593 56.6982 68.7395 56.414 69.0757C56.3572 68.7395 56.1298 68.4593 55.7888 68.2911C55.391 68.123 54.9931 68.0669 54.5385 68.0669H54.1406C54.0269 68.0669 53.9133 68.0669 53.8564 68.123L53.5723 68.179V82.8626H56.5277V77.5384C56.5845 77.6505 56.6413 77.7065 56.755 77.7626C56.9255 77.8746 57.0392 78.0428 57.2665 78.0988C57.4938 78.2109 57.778 78.323 58.0622 78.379C58.4032 78.4911 58.801 78.5472 59.1421 78.4911C59.6536 78.4911 60.1651 78.379 60.6766 78.2109C61.1881 78.0428 61.6428 77.7065 62.0406 77.3142C62.4953 76.8098 62.8363 76.2494 63.0636 75.6329C63.3478 74.7362 63.4615 73.8395 63.4615 72.8867C63.4615 72.0461 63.3478 71.2615 63.1205 70.4768C62.8931 69.9724 62.609 69.468 62.2111 68.9637ZM59.8241 75.4087C59.4831 75.9691 58.8579 76.3054 58.2327 76.2494C57.8917 76.2494 57.5507 76.1933 57.2097 76.0252C56.9823 75.9131 56.755 75.801 56.5845 75.6329V71.0933C56.5845 70.8131 56.6982 70.5329 56.9255 70.3648C57.2665 70.0845 57.7212 69.9724 58.1759 70.0285C58.5169 70.0285 58.8579 70.0845 59.1989 70.2527C59.4831 70.4208 59.7104 70.5889 59.8809 70.8691C60.0514 71.1494 60.1651 71.4856 60.2219 71.8219C60.2787 72.2142 60.3356 72.6065 60.3356 72.9988C60.3924 73.8955 60.2219 74.6801 59.8241 75.4087Z" fill="#002E47"/>
<path d="M56.5271 83.7034H53.5717C53.0602 83.7034 52.6624 83.3111 52.6624 82.8067V68.1232C52.6624 67.6749 53.0034 67.2826 53.458 67.2265L53.7422 67.1705C53.8559 67.1705 53.9695 67.1144 54.1401 67.1144H54.5947C55.1062 67.1144 55.6746 67.2265 56.1861 67.4507C56.3566 67.5067 56.4703 67.6188 56.6408 67.7309C56.8113 67.6188 56.9249 67.5628 57.0954 67.4507C57.8343 67.0584 58.63 66.8903 59.4257 66.9463C59.994 66.9463 60.6192 67.0584 61.1875 67.2826C61.8127 67.5067 62.3811 67.899 62.8357 68.4034C63.3472 68.9639 63.6882 69.5804 63.9156 70.3089C64.1998 71.2056 64.3134 72.1023 64.3134 72.999C64.3134 74.0078 64.1998 75.0166 63.8588 75.9694C63.6314 76.754 63.1767 77.4265 62.6652 78.043C62.1537 78.5474 61.5854 78.9397 60.9034 79.1639C60.335 79.3881 59.7098 79.4441 59.0847 79.5001C58.63 79.5001 58.1753 79.4441 57.7206 79.332C57.607 79.276 57.4933 79.276 57.3796 79.2199V82.8067C57.4933 83.3111 57.0386 83.7034 56.5271 83.7034ZM54.5379 81.91H55.6177V77.5386C55.6177 77.1463 55.8451 76.81 56.2429 76.6979C56.2998 76.6979 56.2998 76.6979 56.3566 76.6419C56.2429 76.5298 56.0724 76.4738 55.9588 76.3617C55.7314 76.1936 55.6177 75.9133 55.6177 75.6892V71.1496C55.6177 70.7012 55.7883 70.3089 56.0724 69.9727C55.7883 69.8606 55.6177 69.6364 55.5041 69.3001C55.5041 69.2441 55.4472 69.1881 55.3904 69.132C55.1631 69.0199 54.8789 68.9639 54.5947 68.9639H54.5379V81.91ZM57.3796 77.0903C57.4933 77.1463 57.5501 77.2584 57.6638 77.2584C57.8911 77.3705 58.0616 77.4265 58.289 77.4826C58.5731 77.5386 58.8573 77.5946 59.0847 77.5946C59.5393 77.5946 59.9372 77.5386 60.335 77.3705C60.7329 77.2584 61.0739 77.0342 61.358 76.6979C61.699 76.3056 61.9832 75.8573 62.1537 75.3529C62.3811 74.5683 62.4947 73.7276 62.4947 72.943C62.4947 72.1584 62.4379 71.4859 62.2106 70.7573C62.04 70.3089 61.8127 69.9166 61.5285 69.5243C61.3012 69.2441 60.9602 69.0199 60.6192 68.9078C60.2213 68.7957 59.8235 68.6837 59.4257 68.6837C58.9142 68.6837 58.4026 68.7957 58.0048 69.0199C58.0048 69.0199 57.948 69.0199 57.948 69.076H58.289C58.8005 69.076 59.2552 69.1881 59.7098 69.4122C60.1645 69.6364 60.5055 69.9727 60.7329 70.365C60.9602 70.7573 61.1307 71.2056 61.1875 71.654C61.2444 72.1023 61.3012 72.5507 61.3012 72.999C61.358 73.9518 61.1307 74.9606 60.676 75.8573V75.9133C60.1645 76.754 59.2552 77.2584 58.2321 77.2023C57.948 77.2023 57.6638 77.1463 57.3796 77.0903ZM58.2321 75.3529C58.5731 75.3529 58.8573 75.2408 59.0278 74.9606C59.312 74.4001 59.4825 73.7276 59.4257 73.0551V72.999C59.4257 72.6628 59.4257 72.3265 59.312 71.9903C59.2552 71.7661 59.1983 71.5419 59.0847 71.3177C59.0278 71.2056 58.9141 71.0936 58.8005 71.0375C58.63 70.9815 58.4595 70.9254 58.2321 70.9254C58.1753 70.9254 58.1185 70.9254 58.1185 70.9254C57.948 70.9254 57.7206 70.9254 57.5501 71.0375V71.0936V75.1287C57.607 75.1287 57.607 75.1848 57.6638 75.1848C57.7775 75.3529 58.0048 75.3529 58.2321 75.3529C58.1753 75.3529 58.1753 75.3529 58.2321 75.3529Z" fill="#002E47"/>
<path d="M71.3046 75.5771C71.2478 75.6331 71.1909 75.6892 71.0773 75.7452C70.9636 75.8573 70.8499 75.9133 70.6794 75.9694C70.5089 76.0815 70.3384 76.1375 70.1679 76.1935C69.9974 76.2496 69.7701 76.3056 69.5996 76.3056C68.8039 76.3056 68.3492 75.8012 68.3492 74.7924V70.2529H71.3614V68.1232H68.3492V66.61C68.3492 66.3298 68.2924 65.9935 68.1787 65.7694C68.065 65.5452 67.8945 65.3771 67.724 65.265C67.5535 65.1529 67.3262 65.0408 67.0988 64.9848C66.8715 64.9287 66.6442 64.9287 66.4168 64.9287H66.0758C65.9621 64.9287 65.8485 64.9287 65.7348 64.9848L65.3938 65.0408V74.9606C65.3938 75.2968 65.3938 75.5771 65.4506 75.9133C65.4506 76.1935 65.5643 76.5298 65.6211 76.81C65.7916 77.3705 66.1895 77.8188 66.6442 78.1551C67.2693 78.5474 68.0082 78.7155 68.747 78.6595C69.2017 78.6595 69.5996 78.6034 69.9974 78.5474C70.3384 78.4913 70.6794 78.3232 71.0204 78.1551C71.2478 78.043 71.4751 77.8749 71.6456 77.6507C71.8161 77.4826 71.8729 77.3144 71.8729 77.0903C71.8729 76.8661 71.8161 76.6419 71.7024 76.4177C71.6456 76.0815 71.4751 75.8012 71.3046 75.5771Z" fill="#002E47"/>
<path d="M68.6332 79.5001C67.7806 79.5001 66.985 79.276 66.3029 78.8276C65.6209 78.3793 65.1094 77.7628 64.8821 76.9782C64.7684 76.6419 64.6547 76.2496 64.6547 75.8573C64.5979 75.521 64.5979 75.1287 64.5979 74.7924V64.9287C64.5979 64.4804 64.9389 64.0881 65.3936 64.032L65.7346 63.976C65.8483 63.976 65.9619 63.9199 66.1324 63.9199H66.5303C66.8144 63.9199 67.0986 63.9199 67.3828 63.976C67.7238 64.032 68.0648 64.2001 68.349 64.3683C68.69 64.5924 68.9173 64.8727 69.0878 65.265C69.2583 65.6573 69.372 66.1056 69.372 66.554V67.1144H71.4749C71.9864 67.1144 72.3842 67.5067 72.3842 68.0111V70.2529C72.3842 70.7573 71.9864 71.1496 71.4749 71.1496H69.372V74.7924C69.372 75.3529 69.4857 75.3529 69.6562 75.3529C69.7698 75.3529 69.8267 75.3529 69.9403 75.2968C70.054 75.2408 70.1677 75.1848 70.2814 75.1287C70.3382 75.0727 70.4519 75.0166 70.5087 74.9606C70.5655 74.9045 70.6224 74.8485 70.6792 74.8485C70.8497 74.6804 71.1339 74.5683 71.418 74.5683C71.7022 74.5683 71.9296 74.7364 72.1001 74.9606C72.3274 75.2408 72.4979 75.5771 72.6684 75.8573C72.8389 76.1935 72.9526 76.5298 72.9526 76.9221C72.9526 77.3705 72.7821 77.8188 72.4979 78.099C72.2706 78.3793 71.9864 78.6034 71.5885 78.7716C71.1907 78.9957 70.7929 79.1078 70.3382 79.2199C69.8835 79.332 69.372 79.3881 68.8605 79.3881C68.8037 79.5001 68.69 79.5001 68.6332 79.5001ZM66.3598 65.7694V74.8485C66.3598 75.1287 66.3598 75.4089 66.4166 75.6331V75.6892C66.4166 75.9133 66.4734 76.1375 66.5871 76.3617C66.7008 76.6979 66.9849 77.0342 67.2691 77.2584C67.7238 77.5386 68.2353 77.6507 68.8037 77.5946H68.8605C69.2015 77.5946 69.5993 77.5386 69.9403 77.4826C70.2245 77.4265 70.4519 77.3144 70.736 77.2023C70.8497 77.1463 71.0202 77.0342 71.077 76.9221C71.077 76.8661 71.077 76.8661 71.077 76.81C70.9065 76.8661 70.736 76.9782 70.5655 77.0342C70.2814 77.1463 69.9972 77.2023 69.713 77.2023C68.349 77.2023 67.5533 76.3056 67.5533 74.7924V70.2529C67.5533 69.7485 67.9511 69.3562 68.4626 69.3562H70.5655V69.0199H68.4626C67.9511 69.0199 67.5533 68.6276 67.5533 68.1232V66.61C67.5533 66.4419 67.5533 66.2738 67.4396 66.1056C67.4396 66.0496 67.3828 65.9935 67.2691 65.9375C67.2123 65.8815 67.0986 65.8254 66.9849 65.8254C66.8144 65.8254 66.6439 65.7694 66.4734 65.7694H66.3598Z" fill="#002E47"/>
<path d="M81.5348 69.2439C81.137 68.7955 80.6823 68.4593 80.1708 68.2351C79.5456 67.9549 78.8068 67.8428 78.1248 67.8428C77.4996 67.8428 76.8744 67.9549 76.3061 68.123C75.7377 68.3472 75.1694 68.6274 74.7147 69.0757C74.2032 69.5241 73.8053 70.0845 73.578 70.701C73.2938 71.4296 73.1233 72.2142 73.1233 72.9988C73.0665 73.9516 73.237 74.8483 73.578 75.745C73.8622 76.4175 74.3168 76.9779 74.8284 77.4823C75.3399 77.9307 75.965 78.2109 76.5902 78.379C77.2722 78.5472 77.8974 78.6593 78.5794 78.6593C79.2614 78.6593 79.8866 78.6032 80.5118 78.4351C80.9665 78.323 81.4212 78.0988 81.819 77.8746C82.16 77.7065 82.3305 77.3702 82.3873 77.034C82.3873 76.7538 82.2737 76.4735 82.1032 76.1933C81.9327 75.9131 81.7622 75.6329 81.5348 75.3527L81.0801 75.745C80.9096 75.9131 80.7391 76.0252 80.5118 76.1373C80.2845 76.2494 80.0003 76.3615 79.773 76.4175C79.4888 76.4735 79.1478 76.5296 78.8068 76.5296C78.0111 76.5856 77.2722 76.3054 76.7607 75.745C76.3061 75.1845 76.0787 74.512 76.0219 73.7834H82.3873C82.3873 73.6713 82.3873 73.6153 82.4442 73.5032C82.4442 73.3911 82.4442 73.279 82.4442 73.1109C82.4442 72.9428 82.4442 72.8867 82.4442 72.7186V72.4384C82.4442 71.8779 82.3873 71.3175 82.2168 70.7571C82.16 70.1406 81.8758 69.6362 81.5348 69.2439ZM76.0787 72.1021C76.0219 71.4856 76.2492 70.9252 76.5902 70.4208C76.9312 70.0285 77.4996 69.8043 78.0111 69.8043C78.5794 69.7483 79.1478 69.9724 79.4888 70.4208C79.773 70.9252 79.9435 71.5417 79.8866 72.1021H76.0787Z" fill="#002E47"/>
<path d="M78.7501 79.556C78.6932 79.556 78.6364 79.556 78.6364 79.556C77.8976 79.556 77.1587 79.444 76.4199 79.2758C75.6242 79.0516 74.9422 78.7154 74.317 78.211C73.635 77.6505 73.1235 76.922 72.7825 76.1374C72.3846 75.1286 72.2141 74.0637 72.2141 73.0549C72.2141 72.1582 72.3278 71.2615 72.7256 70.4209C73.0098 69.6923 73.5213 69.0198 74.0897 68.4593C74.658 67.9549 75.2832 67.5626 76.022 67.3385C76.704 67.1143 77.4429 67.0022 78.1249 67.0022C78.9206 67.0022 79.7731 67.1143 80.5119 67.4505C81.194 67.7308 81.7623 68.1791 82.217 68.6835C82.6717 69.1879 82.9558 69.8604 83.1832 70.4769C83.3537 71.0934 83.4674 71.7659 83.4674 72.3824V73.4473C83.4674 73.6154 83.4673 73.7835 83.4105 73.8956C83.3537 74.344 82.9558 74.6802 82.5012 74.6802H82.217C82.2738 74.6802 82.2738 74.7363 82.2738 74.7923C82.5012 75.0725 82.7285 75.4088 82.9558 75.7451C83.1832 76.0813 83.2968 76.4736 83.3537 76.922V77.0901C83.2968 77.7626 82.899 78.3231 82.3307 78.6593C81.876 78.9956 81.3645 79.2198 80.7961 79.3319C80.1709 79.444 79.4889 79.556 78.7501 79.556ZM78.6364 77.7066C79.2048 77.7066 79.7731 77.6505 80.3415 77.4824C80.6825 77.3703 81.0235 77.2582 81.3645 77.0341C81.4213 77.0341 81.4213 76.978 81.4781 76.978C81.535 76.978 81.535 76.922 81.535 76.922C81.535 76.8099 81.4781 76.6978 81.4213 76.6418C81.3076 76.6978 81.194 76.8099 81.0235 76.8659C80.7393 77.0341 80.3983 77.1462 80.1141 77.2022C79.7163 77.3143 79.3184 77.3703 78.9206 77.3703C77.8976 77.4264 76.8745 77.0341 76.1357 76.3055L76.0789 76.2495C75.5105 75.5209 75.1695 74.6802 75.1127 73.7835C75.1127 73.5593 75.1695 73.2791 75.3968 73.111C75.4537 73.0549 75.5105 72.9989 75.6242 72.9429C75.34 72.7747 75.1127 72.4945 75.1127 72.1582C75.0558 71.3176 75.34 70.533 75.8515 69.8604C76.4199 69.244 77.1587 68.9077 77.9544 68.9077C78.8069 68.8516 79.6594 69.244 80.1709 69.9165L80.2278 69.9725C80.6256 70.6451 80.7961 71.3736 80.7393 72.1582C80.7393 72.3824 80.6256 72.6066 80.4551 72.7747H81.535V72.3824C81.535 71.878 81.4781 71.4297 81.3076 70.9253C81.194 70.4769 80.9666 70.1407 80.7393 69.8044C80.4551 69.4681 80.1141 69.244 79.7163 69.0758C79.2048 68.8516 78.6364 68.7396 78.0681 68.7956C77.4997 68.7956 76.9882 68.9077 76.5335 69.0198C76.0789 69.1879 75.6242 69.4121 75.2832 69.7484C74.8853 70.0846 74.6012 70.533 74.3738 71.0374C74.1465 71.6538 73.976 72.3264 74.0328 72.9989C74.0328 73.8396 74.1465 74.6802 74.4307 75.4088C74.658 75.9132 74.999 76.4176 75.4537 76.7538C75.8515 77.0901 76.3062 77.3143 76.8177 77.4824C77.4429 77.6505 78.0112 77.7066 78.6364 77.7066ZM77.5566 75.0725C77.8976 75.4088 78.3522 75.5769 78.8069 75.5209H78.9206C79.1479 75.5209 79.3753 75.5209 79.6026 75.4088C79.7731 75.3527 80.0004 75.2967 80.1709 75.1846C80.2846 75.1286 80.4551 75.0165 80.5688 74.9044L80.9666 74.5681H77.2724C77.3292 74.7923 77.4429 74.9044 77.5566 75.0725ZM77.1587 71.2055H78.8069C78.7501 71.0934 78.7501 71.0374 78.6932 70.9253C78.5796 70.7571 78.3522 70.7011 78.1249 70.7011C78.0681 70.7011 78.0112 70.7011 77.9544 70.7011C77.6702 70.7011 77.4429 70.8132 77.2724 70.9813C77.2724 71.0934 77.2155 71.1495 77.1587 71.2055Z" fill="#002E47"/>
<path d="M91.1397 68.0669C90.9692 68.0109 90.7419 67.9549 90.5714 67.8988C90.4009 67.8988 90.1736 67.8428 90.003 67.8428C89.7189 67.8428 89.4347 67.8988 89.2074 67.9549C88.98 68.0109 88.7527 68.123 88.5253 68.2911C88.3548 68.4032 88.1275 68.5713 88.0138 68.7395C87.9002 68.8516 87.7865 69.0197 87.6728 69.1878C87.616 68.8516 87.3318 68.5153 87.0476 68.3472C86.6498 68.179 86.252 68.0669 85.8541 68.0669H85.4563C85.3426 68.0669 85.2289 68.0669 85.1721 68.123L84.8879 68.179V78.6032H87.8433V71.6538C87.8433 71.3175 88.0138 70.9812 88.298 70.7571C88.639 70.4768 89.0369 70.3648 89.4347 70.3648C89.7189 70.3648 90.003 70.4208 90.2872 70.5329C90.5714 70.645 90.7987 70.8131 91.0261 70.9812C91.1966 70.645 91.3671 70.3087 91.4807 69.9724C91.6512 69.6362 91.7081 69.2439 91.7081 68.9076C91.7081 68.7395 91.6512 68.5713 91.5376 68.4032C91.4239 68.2351 91.3102 68.123 91.1397 68.0669Z" fill="#002E47"/>
<path d="M87.73 79.5H84.7746C84.2631 79.5 83.8652 79.1077 83.8652 78.6033V68.1231C83.8652 67.6748 84.2062 67.2824 84.6609 67.2264L84.9451 67.1704C85.0588 67.1704 85.2293 67.1143 85.3429 67.1143H85.7976C86.366 67.1143 86.8775 67.2264 87.389 67.4506C87.5026 67.5066 87.6163 67.5627 87.73 67.6748C87.8437 67.6187 87.9005 67.5627 88.0142 67.4506C88.2983 67.2824 88.5825 67.1704 88.8667 67.0583C89.2645 66.9462 89.6055 66.8901 90.0034 66.8901C90.2307 66.8901 90.458 66.8901 90.6854 66.9462C90.9696 67.0022 91.2537 67.0583 91.5379 67.1704C91.8221 67.3385 92.0494 67.5066 92.2199 67.7868C92.4472 68.0671 92.5609 68.4594 92.5609 68.8517C92.5609 69.3561 92.4473 69.8044 92.2767 70.2528C92.1631 70.589 91.9357 70.9813 91.7652 71.3737C91.6516 71.5978 91.4242 71.766 91.1401 71.822C90.8559 71.878 90.5717 71.822 90.3444 71.6539C90.1739 71.5418 90.0034 71.4297 89.8329 71.3176C89.7192 71.2616 89.5487 71.2616 89.3782 71.2616H89.3213C89.1508 71.2616 88.9803 71.3176 88.8098 71.4297C88.6962 71.4857 88.6962 71.5978 88.6962 71.6539V78.5473C88.6962 79.0517 88.2415 79.5 87.73 79.5ZM85.7408 77.6506H86.8206V71.6539C86.8206 71.0374 87.1048 70.4209 87.5595 70.0286C87.5026 70.0286 87.4458 70.0286 87.4458 70.0286C87.1048 69.9726 86.8206 69.6923 86.707 69.3C86.707 69.1879 86.6501 69.1319 86.5365 69.0759C86.3091 68.9638 86.0249 68.9077 85.7976 68.9077H85.7408V77.6506ZM89.3782 69.4121C89.776 69.4121 90.1739 69.4682 90.5149 69.6363V69.5802C90.6285 69.3 90.6854 69.0759 90.6854 68.8517C90.5717 68.7956 90.5149 68.7956 90.4012 68.7956C90.2307 68.7956 90.117 68.7396 89.9465 68.7396C89.776 68.7396 89.6055 68.7396 89.435 68.7956C89.2645 68.8517 89.094 68.9077 88.9235 69.0198C88.8098 69.0759 88.6962 69.1879 88.5825 69.3C88.5257 69.3561 88.4688 69.4682 88.412 69.5242C88.753 69.4682 89.0372 69.4121 89.3782 69.4121Z" fill="#002E47"/>
<path d="M99.5514 68.0669C99.3809 68.0109 99.2104 67.9549 99.0399 67.8988C98.8694 67.8988 98.6421 67.8428 98.4716 67.8428C98.1874 67.8428 97.9032 67.8988 97.6759 67.9549C97.4485 68.0109 97.2212 68.123 96.9939 68.2911C96.8233 68.4032 96.596 68.5713 96.4823 68.7395C96.3687 68.8516 96.255 69.0197 96.1413 69.1878C96.0845 68.8516 95.8572 68.5153 95.5162 68.3472C95.1752 68.179 94.7205 68.0669 94.3226 68.0669H93.9248C93.8111 68.0669 93.6975 68.0669 93.6406 68.123L93.3564 68.179V78.6032H96.3118V71.6538C96.3118 71.3175 96.4823 70.9812 96.7665 70.7571C97.1075 70.4768 97.5054 70.3648 97.9032 70.3648C98.1874 70.3648 98.4716 70.4208 98.7557 70.5329C99.0399 70.645 99.2672 70.8131 99.4946 70.9812C99.6651 70.645 99.8356 70.3087 99.9493 69.9724C100.12 69.6362 100.177 69.2439 100.177 68.9076C100.177 68.7395 100.12 68.5713 100.006 68.4032C99.8356 68.2351 99.6651 68.123 99.5514 68.0669Z" fill="#002E47"/>
<path d="M96.1987 79.5H93.2433C92.7318 79.5 92.334 79.1077 92.334 78.6033V68.1231C92.334 67.6748 92.675 67.2824 93.1297 67.2264L93.4138 67.1704C93.5275 67.1704 93.698 67.1143 93.8117 67.1143H94.2664C94.8347 67.1143 95.3462 67.2264 95.8577 67.4506C95.9714 67.5066 96.0851 67.5627 96.1987 67.6748C96.3124 67.6187 96.3692 67.5627 96.4829 67.4506C96.7671 67.2824 97.0513 67.1704 97.3354 67.0583C97.7333 66.9462 98.0743 66.8901 98.4721 66.8901C98.6995 66.8901 98.9268 66.8901 99.1541 66.9462C99.4383 67.0022 99.7225 67.0583 99.9498 67.1704C100.234 67.2824 100.518 67.5066 100.689 67.7308L100.745 67.7868C100.973 68.0671 101.087 68.4594 101.03 68.8517C101.03 69.3561 100.916 69.8044 100.745 70.2528C100.632 70.589 100.404 70.9813 100.234 71.3737C100.12 71.5978 99.893 71.766 99.6088 71.822C99.3246 71.878 99.0405 71.822 98.8131 71.5978C98.6426 71.4857 98.4721 71.3737 98.3016 71.2616C98.1879 71.2055 98.0174 71.2055 97.8469 71.2055C97.6196 71.2055 97.4491 71.2616 97.2786 71.3737C97.2218 71.4297 97.1649 71.4857 97.1649 71.5978V78.4912C97.1081 79.0517 96.7102 79.5 96.1987 79.5ZM94.1527 77.6506H95.2325V71.6539C95.2325 71.0374 95.5167 70.477 95.9714 70.0286C95.9146 70.0286 95.8577 70.0286 95.8009 70.0286C95.4599 69.9726 95.1757 69.6923 95.062 69.3C95.062 69.244 95.0052 69.1319 94.8915 69.1319C94.6642 69.0198 94.38 68.9638 94.1527 68.9638H94.0959V77.6506H94.1527ZM97.8469 69.4121C98.1879 69.4121 98.5858 69.4682 98.9268 69.6363C98.9268 69.6363 98.9268 69.6363 98.9268 69.5802C99.0405 69.3561 99.0973 69.0759 99.0973 68.8517C99.0973 68.8517 99.0973 68.8517 99.0405 68.8517C98.9836 68.7956 98.87 68.7956 98.7563 68.7956C98.5858 68.7956 98.4721 68.7396 98.3016 68.7396C98.1311 68.7396 97.9606 68.7396 97.7901 68.7956C97.6196 68.8517 97.4491 68.9077 97.2786 69.0198C97.1649 69.0759 97.0513 69.1879 96.9376 69.3C96.8808 69.3561 96.8239 69.4682 96.7671 69.5242C97.0513 69.4121 97.3923 69.3561 97.7333 69.3561C97.8469 69.4121 97.8469 69.4121 97.8469 69.4121Z" fill="#002E47"/>
<path d="M110.123 75.801V71.7658C110.123 71.2054 110.066 70.5889 109.895 70.0285C109.782 69.5801 109.498 69.1318 109.157 68.7955C108.759 68.4593 108.304 68.179 107.849 68.0669C107.224 67.8988 106.542 67.8428 105.86 67.8428C105.349 67.8428 104.78 67.8988 104.269 67.9549C103.814 68.0109 103.359 68.179 102.905 68.2911C102.564 68.4032 102.28 68.5713 101.995 68.7955C101.825 68.9076 101.654 69.1318 101.654 69.356C101.654 69.5801 101.711 69.8043 101.825 70.0285C101.939 70.3087 102.109 70.5889 102.336 70.8131C102.791 70.5329 103.246 70.3087 103.757 70.1406C104.269 69.9164 104.837 69.8604 105.405 69.8604C105.917 69.8043 106.428 69.9164 106.826 70.1966C107.167 70.4768 107.338 70.9252 107.281 71.3735V71.7658H106.826C106.656 71.7658 106.485 71.7658 106.315 71.7658C105.746 71.8219 105.178 71.8779 104.61 71.934C104.041 72.0461 103.416 72.2142 102.905 72.4944C102.393 72.7186 101.882 73.1109 101.541 73.5593C101.143 74.0637 100.972 74.6801 101.029 75.3527C101.029 75.8571 101.143 76.3615 101.313 76.8098C101.484 77.2021 101.768 77.5384 102.109 77.7626C102.45 77.9867 102.791 78.1549 103.189 78.2669C103.587 78.379 103.985 78.4351 104.382 78.4351C105.008 78.4351 105.69 78.323 106.315 78.0988C106.77 77.8746 107.224 77.5944 107.565 77.2582C107.622 77.5944 107.793 77.8746 108.077 78.0988C108.418 78.323 108.816 78.4351 109.27 78.379C109.498 78.379 109.725 78.379 109.952 78.323C110.18 78.2669 110.464 78.2109 110.691 78.0988C110.236 77.4823 110.066 76.6417 110.123 75.801ZM107.338 75.4647C107.338 75.5768 107.281 75.745 107.167 75.8571C107.054 76.0252 106.883 76.1373 106.713 76.2494C106.485 76.3615 106.315 76.4735 106.087 76.5296C105.86 76.5856 105.576 76.6417 105.292 76.6417C104.837 76.6977 104.439 76.5296 104.098 76.1933C103.871 75.9131 103.757 75.5208 103.757 75.1845C103.757 74.8483 103.814 74.568 104.041 74.2878C104.212 74.0637 104.439 73.8395 104.723 73.7274C105.008 73.5593 105.349 73.4472 105.69 73.4472C106.031 73.3911 106.372 73.3351 106.77 73.3351H107.054H107.338V75.4647Z" fill="#002E47"/>
<path d="M104.44 79.4438C104.383 79.4438 104.326 79.4438 104.269 79.4438C103.814 79.4438 103.303 79.3878 102.848 79.2197C102.337 79.1076 101.882 78.8834 101.484 78.5471C101.029 78.2109 100.688 77.7625 100.404 77.2581C100.12 76.6977 100.006 76.0252 100.006 75.4087C99.9496 74.568 100.234 73.7834 100.688 73.1109C101.143 72.5504 101.655 72.1021 102.28 71.8219C101.996 71.8219 101.712 71.7098 101.541 71.4856C101.257 71.2054 101.086 70.8131 100.916 70.4768C100.802 70.1966 100.688 69.8603 100.632 69.5241C100.632 69.468 100.632 69.412 100.632 69.3559C100.688 68.8515 100.916 68.4032 101.314 68.123C101.655 67.8427 102.053 67.6186 102.45 67.5065C102.905 67.3384 103.417 67.1702 103.928 67.1142C104.496 67.0021 105.122 66.946 105.69 66.946C106.429 66.946 107.168 67.0021 107.906 67.2263C108.532 67.3944 109.157 67.7307 109.612 68.179C110.066 68.6274 110.407 69.1878 110.578 69.8043C110.748 70.4768 110.862 71.0933 110.805 71.7658V75.7449V75.801C110.748 76.4735 110.862 77.146 111.203 77.7625C111.317 77.9867 111.317 78.2669 111.26 78.4911C111.146 78.7153 110.976 78.9394 110.748 78.9955C110.464 79.1076 110.18 79.2197 109.839 79.2757C109.555 79.3318 109.271 79.3318 108.986 79.3878C108.361 79.4438 107.793 79.2757 107.281 78.9395C107.281 78.9395 107.224 78.9395 107.224 78.8834C107.168 78.8274 107.054 78.7713 106.997 78.6592C106.827 78.7713 106.599 78.8834 106.372 78.9395C105.917 79.2757 105.178 79.4438 104.44 79.4438ZM104.099 73.0548C103.814 73.1109 103.587 73.223 103.303 73.3911C102.848 73.6153 102.507 73.8955 102.223 74.2318C101.996 74.568 101.882 74.9603 101.882 75.4087V75.4647C101.882 75.857 101.939 76.1933 102.109 76.5296C102.223 76.7537 102.394 76.9779 102.621 77.146C102.848 77.3142 103.076 77.4263 103.36 77.4823C103.644 77.5944 103.985 77.5944 104.269 77.5944C104.553 77.5944 104.837 77.5944 105.122 77.5384C104.496 77.5384 103.871 77.3142 103.417 76.8098L103.36 76.7537C102.962 76.3054 102.791 75.7449 102.791 75.1845C102.791 74.6801 102.905 74.1757 103.246 73.7834C103.53 73.4471 103.814 73.223 104.099 73.0548ZM108.532 77.4263C108.702 77.5384 108.929 77.5944 109.1 77.5384H109.157H109.327C109.157 76.9219 109.1 76.3054 109.157 75.6889V71.7098C109.157 71.2054 109.1 70.701 108.986 70.2526C108.873 69.9724 108.759 69.6922 108.475 69.412C108.247 69.1878 107.906 69.0197 107.565 68.9076C106.997 68.7395 106.429 68.6834 105.86 68.6834C105.349 68.6834 104.894 68.7395 104.383 68.7955C103.985 68.8515 103.587 68.9636 103.189 69.1318C102.962 69.1878 102.735 69.2999 102.564 69.468C102.564 69.5241 102.621 69.5801 102.621 69.5801C102.848 69.468 103.076 69.3559 103.36 69.2438C103.985 68.9636 104.667 68.8515 105.349 68.8515C106.031 68.7955 106.713 68.9636 107.281 69.3559C107.338 69.412 107.395 69.412 107.395 69.468C107.906 69.9724 108.191 70.6449 108.134 71.3735V71.7098C108.134 72.046 107.963 72.2702 107.736 72.4384C108.02 72.6065 108.191 72.8867 108.191 73.223V75.4087V75.4647C108.191 75.801 108.02 76.1373 107.793 76.3614V76.4175C108.077 76.5296 108.304 76.8098 108.361 77.146C108.418 77.3142 108.475 77.3702 108.532 77.4263ZM104.837 75.5768C104.951 75.6889 105.065 75.6889 105.235 75.6889H105.349C105.519 75.6889 105.69 75.6889 105.86 75.6329C106.031 75.5768 106.145 75.5208 106.315 75.4647C106.372 75.4087 106.429 75.4087 106.486 75.3526V74.2878C106.258 74.2878 106.088 74.3438 105.86 74.3438C105.633 74.3999 105.406 74.4559 105.178 74.568C105.065 74.6241 104.894 74.7362 104.837 74.8482C104.781 74.9043 104.724 75.0164 104.781 75.1285V75.1845C104.724 75.3526 104.781 75.4647 104.837 75.5768ZM105.349 70.8131C104.894 70.8131 104.496 70.8691 104.099 71.0373C103.871 71.1493 103.644 71.2054 103.417 71.3175C103.758 71.2054 104.099 71.0933 104.44 71.0373C105.008 70.9252 105.519 70.8691 106.088 70.8691C105.917 70.8131 105.69 70.757 105.463 70.757C105.463 70.8131 105.406 70.8131 105.349 70.8131Z" fill="#002E47"/>
<path d="M15.209 71.878L3.95581 68.1231L19.6421 62.2945L27.0875 59.5483L19.6421 82.8066L15.209 71.878Z" fill="#002E47"/>
<path d="M3.95581 68.179H13.7313H19.6421V62.4065L3.95581 68.179Z" fill="#FF9D28"/>
<path d="M19.6418 62.4066V82.9186L27.0872 59.6604L19.6418 62.4066Z" fill="#69C3EA"/>
<path d="M19.6413 68.1792H13.7305L19.6413 82.9188V68.1792Z" fill="#004F80"/>
<path d="M3.95581 68.1792L15.209 71.9902L13.7313 68.1792H3.95581Z" fill="#E14748"/>
<path d="M39.9324 77.4826C39.8187 77.5947 39.6482 77.7068 39.4777 77.8188C39.2504 77.987 38.9662 78.0991 38.682 78.2112C38.2842 78.3793 37.8864 78.4353 37.4885 78.5474C36.977 78.6595 36.4087 78.7156 35.8972 78.6595C34.8741 78.6595 33.8511 78.4914 32.8849 78.0991C32.0892 77.7628 31.3504 77.2584 30.782 76.5859C30.2137 75.9134 29.8159 75.1287 29.5885 74.232C29.3043 73.2793 29.1907 72.2705 29.1907 71.2617C29.1907 70.2529 29.3043 69.2441 29.5885 68.2914C29.8159 67.4507 30.2705 66.6101 30.8389 65.9375C31.4072 65.265 32.1461 64.7046 32.9418 64.3683C33.8511 63.976 34.8741 63.8079 35.8972 63.8079C36.4087 63.8079 36.9202 63.8639 37.4317 63.976C37.8295 64.0881 38.2274 64.2002 38.6252 64.3123C38.9094 64.4243 39.1936 64.5925 39.4777 64.7606C39.6482 64.8727 39.8187 64.9848 39.9892 65.1529C40.1029 65.265 40.2166 65.4331 40.3302 65.5452C40.4439 65.7134 40.5007 65.8815 40.4439 66.0496C40.4439 66.3859 40.3302 66.6661 40.1029 66.9463C39.8756 67.2265 39.6482 67.5068 39.4209 67.7309C39.2504 67.5628 39.023 67.3947 38.8525 67.2265C38.6252 67.0584 38.3979 66.8903 38.1137 66.7782C37.8295 66.6101 37.4885 66.498 37.2043 66.4419C36.8065 66.3298 36.4655 66.2738 36.0677 66.3298C34.8173 66.2738 33.6806 66.8903 33.0554 67.8991C32.7713 68.4035 32.5439 68.9079 32.4302 69.5243C32.3166 70.1408 32.2597 70.7573 32.2597 71.3738C32.2597 71.9903 32.3166 72.6628 32.4302 73.2793C32.5439 73.8397 32.7713 74.4002 33.1123 74.9046C33.4533 75.3529 33.8511 75.7452 34.3626 76.0254C35.3288 76.4738 36.3518 76.5859 37.3748 76.3057C37.659 76.1936 38 76.0815 38.2842 75.9694C38.5115 75.8573 38.7389 75.6892 38.9662 75.521C39.1367 75.3529 39.3072 75.2408 39.4777 75.1287L39.7619 75.521C39.8756 75.6331 39.9892 75.8013 40.1029 75.9694C40.2166 76.1375 40.2734 76.3057 40.3302 76.4178C40.3871 76.5298 40.4439 76.698 40.4439 76.8661C40.4439 77.0342 40.3871 77.2024 40.3302 77.3145C40.2166 77.2584 40.1029 77.3705 39.9324 77.4826Z" fill="white"/>
<path d="M51.0711 75.8573C51.0143 76.6979 51.1848 77.5386 51.5827 78.3232C51.3553 78.4353 51.128 78.4913 50.8438 78.5474C50.6165 78.6034 50.3891 78.6034 50.1618 78.6034C49.7639 78.6034 49.3093 78.5474 48.9683 78.3232C48.6841 78.099 48.5136 77.8188 48.4568 77.4825C48.1157 77.8188 47.6611 78.099 47.2064 78.3232C46.5812 78.5474 45.956 78.6595 45.274 78.6595C44.8762 78.6595 44.4783 78.6034 44.0805 78.4913C43.6827 78.3792 43.3416 78.2111 43.0575 77.9869C42.7165 77.7067 42.4323 77.3704 42.2618 77.0342C42.0345 76.5858 41.9208 76.0814 41.9776 75.577C41.9776 74.9606 42.1481 74.3441 42.4891 73.7836C42.8301 73.3353 43.2848 72.943 43.7963 72.7188C44.3078 72.4386 44.933 72.2705 45.5014 72.1584C46.0697 72.0463 46.6381 71.9902 47.2064 71.9902H47.7179H48.1726V71.5979C48.2294 71.1496 48.0589 70.7573 47.7179 70.421C47.2632 70.1408 46.8086 70.0287 46.297 70.0847C45.7287 70.0847 45.1604 70.1968 44.6488 70.365C44.1373 70.5891 43.6827 70.8133 43.228 71.0375C43.0006 70.8133 42.8301 70.5331 42.7165 70.2529C42.6028 70.0287 42.546 69.8045 42.546 69.5803C42.546 69.3562 42.7165 69.132 42.887 69.0199C43.1711 68.7957 43.4553 68.6276 43.7963 68.5155C44.251 68.3474 44.7057 68.2353 45.1604 68.1792C45.6719 68.0672 46.2402 68.0111 46.7517 68.0672C47.4337 68.0672 48.1157 68.1232 48.7409 68.2913C49.2524 68.4034 49.7071 68.6836 50.0481 69.0199C50.3891 69.3562 50.6733 69.8045 50.787 70.2529C50.9575 70.8133 51.0143 71.3737 51.0143 71.9902L51.0711 75.8573ZM48.2863 73.3913H48.0021C47.8884 73.3913 47.7747 73.3913 47.7179 73.3913C47.3769 73.3913 46.9791 73.4474 46.6381 73.5034C46.297 73.5595 46.0129 73.6715 45.6719 73.7836C45.3877 73.8957 45.1604 74.1199 44.9899 74.3441C44.8193 74.6243 44.7057 74.9606 44.7057 75.2968C44.7057 75.6891 44.8193 76.0254 45.0467 76.3056C45.3309 76.6419 45.7855 76.754 46.2402 76.754C46.5244 76.754 46.7517 76.6979 47.0359 76.6419C47.2632 76.5858 47.4906 76.4737 47.6611 76.3617C47.8316 76.2496 48.0021 76.1375 48.1157 75.9694C48.2294 75.8573 48.2863 75.7452 48.2863 75.577V73.3913Z" fill="white"/>
<path d="M56.4706 69.188C56.7548 68.8518 57.1526 68.5716 57.5505 68.3474C58.1188 68.0672 58.744 67.899 59.426 67.9551C59.9375 67.9551 60.4491 68.0672 60.9606 68.2353C61.4721 68.4034 61.8699 68.7397 62.2678 69.076C62.6656 69.5243 63.0066 70.0847 63.1771 70.6452C63.4044 71.4298 63.5181 72.2705 63.5181 73.0551C63.5181 74.0078 63.4044 74.9045 63.1203 75.8012C62.8929 76.4177 62.5519 76.9782 62.0973 77.4825C61.6994 77.8749 61.2447 78.2111 60.7332 78.3792C60.2217 78.5474 59.7102 78.6034 59.1987 78.6595C58.8577 78.6595 58.4598 78.6034 58.1188 78.5474C57.8347 78.4913 57.5505 78.3792 57.3232 78.2111C57.1526 78.099 56.9821 77.9869 56.8116 77.8749C56.7548 77.8188 56.6411 77.7067 56.5843 77.6507V82.9188H53.6289V68.2353L53.9131 68.1792C54.0267 68.1792 54.1404 68.1232 54.1973 68.1232H54.5951C54.9929 68.1232 55.4476 68.1793 55.8455 68.3474C56.1296 68.5716 56.357 68.8518 56.4706 69.188ZM60.3354 73.1111C60.3354 72.7188 60.2785 72.3265 60.2217 71.9342C60.1649 71.5979 60.0512 71.2617 59.8807 70.9814C59.7102 70.7012 59.4829 70.4771 59.1987 70.365C58.8577 70.1968 58.5167 70.1408 58.1757 70.1408C57.721 70.0847 57.2663 70.1968 56.9253 70.4771C56.698 70.6452 56.5843 70.9254 56.5843 71.2056V75.7452C56.7548 75.9133 56.9821 76.0254 57.2095 76.1375C57.5505 76.3056 57.8915 76.3617 58.2325 76.3617C58.9145 76.4177 59.5397 76.0814 59.8239 75.521C60.2217 74.7924 60.3922 73.9518 60.3354 73.1111Z" fill="white"/>
<path d="M65.6785 76.81C65.5648 76.5298 65.508 76.1935 65.508 75.9133C65.508 75.5771 65.4512 75.2968 65.4512 74.9606V65.0408L65.7922 64.9848C65.9058 64.9848 66.0195 64.9287 66.1332 64.9287H66.4742C66.7015 64.9287 66.9289 64.9287 67.1562 64.9848C67.3835 65.0408 67.6109 65.0968 67.7814 65.265C67.9519 65.3771 68.1224 65.6012 68.2361 65.7694C68.3497 66.0496 68.4066 66.3298 68.4066 66.61V68.1232H71.4188V70.2529H68.4066V74.7924C68.4066 75.8012 68.8044 76.3056 69.6569 76.3056C69.8274 76.3056 70.0548 76.2496 70.2253 76.1935C70.3958 76.1375 70.5663 76.0815 70.7368 75.9694C70.8505 75.9133 71.021 75.8012 71.1346 75.7452C71.1915 75.6891 71.3051 75.6331 71.362 75.5771C71.5325 75.8573 71.703 76.0815 71.8735 76.4177C71.9871 76.6419 72.044 76.81 72.044 77.0902C72.044 77.3144 71.9871 77.4826 71.8166 77.6507C71.6461 77.8749 71.4188 78.043 71.1915 78.1551C70.8505 78.3232 70.5663 78.4353 70.1684 78.5474C69.7706 78.6595 69.3159 78.7155 68.9181 78.6595C68.1792 78.7155 67.4404 78.5474 66.8152 78.1551C66.2469 77.8188 65.9058 77.3705 65.6785 76.81Z" fill="white"/>
<path d="M78.9201 76.5297C79.2611 76.5297 79.5452 76.4737 79.8862 76.4176C80.1136 76.3616 80.3978 76.2495 80.6251 76.1374C80.8524 76.0253 81.0229 75.9132 81.1934 75.7451L81.6481 75.3528C81.8754 75.633 82.046 75.9132 82.2165 76.1934C82.387 76.4176 82.5006 76.6978 82.5006 77.0341C82.4438 77.3704 82.2733 77.7066 81.9323 77.8748C81.5344 78.155 81.0798 78.3231 80.6251 78.4352C79.9999 78.6033 79.3179 78.7154 78.6927 78.6594C78.0107 78.6594 77.3287 78.5473 76.7035 78.3791C76.0783 78.211 75.4532 77.9308 74.9416 77.4824C74.3733 77.0341 73.9755 76.4737 73.6913 75.8011C73.3503 74.9605 73.1798 74.0077 73.2366 73.055C73.2366 72.2704 73.3503 71.4857 73.6913 70.7572C73.9186 70.1407 74.3165 69.5802 74.828 69.1319C75.2826 68.7396 75.851 68.4033 76.4193 68.1791C76.9877 68.011 77.6129 67.8989 78.238 67.8989C78.9201 67.8989 79.6589 68.011 80.2841 68.2912C80.7956 68.5154 81.3071 68.8517 81.6481 69.3C81.9891 69.7484 82.2733 70.1967 82.4438 70.7572C82.6143 71.3176 82.6711 71.878 82.6711 72.4385V72.7187V73.111C82.6711 73.111 82.6711 73.3912 82.6711 73.5033C82.6711 73.6154 82.6711 73.6715 82.6143 73.7835H76.192C76.2488 74.5121 76.4762 75.1846 76.9308 75.7451C77.3287 76.3055 78.1244 76.5857 78.9201 76.5297ZM79.8862 72.2143C79.8862 71.6539 79.7726 71.0374 79.4884 70.533C79.1474 70.0846 78.579 69.8044 78.0107 69.9165C77.4424 69.9165 76.9308 70.1407 76.5898 70.533C76.192 71.0374 76.0215 71.5978 76.0783 72.2143H79.8862Z" fill="white"/>
<path d="M87.6726 69.244C87.7863 69.0758 87.8999 68.9638 88.0136 68.7956C88.1841 68.6275 88.3546 68.4594 88.5251 68.3473C88.7524 68.2352 88.9798 68.1231 89.2071 68.011C89.4913 67.8989 89.7186 67.8989 90.0028 67.8989C90.1733 67.8989 90.4006 67.8989 90.5711 67.955C90.7417 67.955 90.969 68.011 91.1395 68.1231C91.31 68.1791 91.4237 68.2912 91.5373 68.4594C91.651 68.6275 91.7078 68.7956 91.7078 68.9638C91.7078 69.3561 91.5942 69.6923 91.4805 70.0286C91.3668 70.3649 91.1963 70.7011 91.0258 71.0374C90.7985 70.8693 90.5711 70.7011 90.287 70.589C90.0028 70.4769 89.7186 70.4209 89.4345 70.4209C89.0366 70.4209 88.6388 70.533 88.2978 70.8132C88.0136 71.0374 87.8431 71.3737 87.8431 71.7099V78.6594H84.8877V68.2352L85.1719 68.1791C85.2855 68.1791 85.3992 68.1231 85.456 68.1231H85.8539C86.2517 68.1231 86.7064 68.1791 87.0474 68.4033C87.3884 68.6275 87.6157 68.9077 87.6726 69.244Z" fill="white"/>
<path d="M96.0268 69.2437C96.1405 69.0756 96.2541 68.9635 96.3678 68.7954C96.5383 68.6273 96.7088 68.5152 96.8793 68.347C97.1066 68.2349 97.334 68.1229 97.5613 68.0108C97.8455 67.8987 98.0728 67.8987 98.357 67.8987C98.5275 67.8987 98.7548 67.8987 98.9253 67.9547C99.0959 67.9547 99.2664 68.0108 99.4369 68.1229C99.6074 68.1789 99.721 68.291 99.8347 68.4591C99.9484 68.6273 100.005 68.7954 100.005 68.9635C100.005 69.3558 99.8915 69.6921 99.7779 70.0284C99.6642 70.3646 99.4937 70.7009 99.3232 71.0371C99.0959 70.869 98.8685 70.7009 98.5843 70.5888C98.3002 70.4767 98.016 70.4207 97.7318 70.4207C97.334 70.4207 96.9361 70.5327 96.5951 70.813C96.311 71.0371 96.1405 71.3734 96.1405 71.7097V78.6591H93.1851V68.2349L93.4692 68.1789C93.5829 68.1789 93.6966 68.1229 93.7534 68.1229H94.1512C94.5491 68.1229 95.0038 68.1789 95.3448 68.4031C95.7426 68.5712 95.97 68.9075 96.0268 69.2437Z" fill="white"/>
<path d="M110.122 75.8573C110.065 76.6979 110.235 77.5386 110.633 78.3232C110.406 78.4353 110.178 78.4913 109.894 78.5474C109.667 78.6034 109.44 78.6034 109.212 78.6034C108.814 78.6034 108.36 78.5474 108.019 78.3232C107.735 78.099 107.564 77.8188 107.507 77.4825C107.166 77.8188 106.712 78.099 106.257 78.3232C105.632 78.5474 105.007 78.6595 104.325 78.6595C103.927 78.6595 103.529 78.6034 103.131 78.4913C102.733 78.3792 102.392 78.2111 102.051 77.9869C101.71 77.7628 101.426 77.4265 101.255 77.0342C101.028 76.5858 100.914 76.0814 100.971 75.577C100.914 74.9606 101.142 74.3441 101.483 73.7836C101.824 73.3353 102.278 72.943 102.79 72.7188C103.301 72.4386 103.927 72.2705 104.495 72.1584C105.063 72.0463 105.632 71.9902 106.2 71.9902H106.712H107.223V71.5979C107.28 71.1496 107.109 70.7573 106.768 70.421C106.314 70.1408 105.859 70.0287 105.348 70.0847C104.779 70.0847 104.211 70.1968 103.699 70.365C103.188 70.5891 102.733 70.8133 102.278 71.0375C102.051 70.8133 101.881 70.5331 101.767 70.2529C101.653 70.0287 101.596 69.8045 101.596 69.5803C101.596 69.3562 101.767 69.132 101.937 69.0199C102.222 68.7957 102.506 68.6276 102.847 68.5155C103.301 68.3474 103.756 68.2353 104.211 68.1792C104.722 68.0672 105.291 68.0111 105.802 68.0672C106.484 68.0672 107.166 68.1232 107.791 68.2913C108.303 68.4034 108.758 68.6836 109.099 69.0199C109.44 69.3562 109.724 69.8045 109.837 70.2529C110.008 70.8133 110.065 71.3737 110.065 71.9902L110.122 75.8573ZM107.337 73.3913H107.053C106.939 73.3913 106.825 73.3913 106.768 73.3913C106.427 73.3913 106.03 73.4474 105.689 73.5034C105.348 73.5595 105.063 73.6715 104.722 73.7836C104.438 73.8957 104.211 74.1199 104.04 74.3441C103.87 74.6243 103.756 74.9045 103.756 75.2408C103.756 75.6331 103.87 75.9694 104.097 76.2496C104.381 76.5858 104.836 76.6979 105.291 76.6979C105.575 76.6979 105.802 76.6419 106.086 76.5858C106.314 76.5298 106.541 76.4177 106.712 76.3056C106.882 76.1935 107.053 76.0814 107.166 75.9133C107.28 75.8012 107.337 75.6891 107.337 75.521V73.3913Z" fill="white"/>
<path d="M51.1284 95.3044C50.9579 95.3044 50.7305 95.2483 50.56 95.1923L48.6845 94.2395C48.5708 94.1835 48.514 94.1835 48.4003 94.1835C48.2866 94.1835 48.173 94.1835 48.1161 94.2395L46.2406 95.1923C46.0701 95.3044 45.8428 95.3604 45.6723 95.3044C45.3313 95.3044 44.9902 95.1362 44.7629 94.9121C44.5356 94.6318 44.4219 94.2956 44.4787 93.9593L44.8197 91.8857C44.8766 91.6615 44.7629 91.4934 44.6492 91.3252L43.1147 89.8681C42.7737 89.5318 42.66 89.0835 42.8305 88.6351C42.9442 88.1868 43.342 87.9066 43.7967 87.7945L45.8996 87.4582C46.1269 87.4022 46.2974 87.2901 46.4111 87.1219L47.3205 85.2725C47.6046 84.656 48.3435 84.4318 48.9687 84.7121C49.196 84.8241 49.4233 85.0483 49.537 85.2725L50.5032 87.1219C50.6169 87.2901 50.7874 87.4582 51.0147 87.4582L53.1176 87.7384C53.5723 87.7945 53.9701 88.1307 54.0838 88.5791C54.1974 89.0274 54.0838 89.4758 53.7428 89.8121L52.1514 91.3252C51.9809 91.4934 51.9241 91.6615 51.9809 91.8857L52.3219 93.9593C52.3787 94.2956 52.3219 94.6879 52.0946 94.9681C51.8104 95.1923 51.4694 95.3604 51.1284 95.3044Z" fill="#FF9D28"/>
<path d="M48.4007 84.8803C48.7417 84.8803 49.0827 85.1044 49.2532 85.3847L50.1625 87.2341C50.2762 87.5143 50.5604 87.6825 50.8445 87.7385L52.9474 88.0187C53.4589 88.0748 53.7999 88.5792 53.7431 89.0836C53.6863 89.3077 53.6294 89.4759 53.4589 89.588L51.9244 91.0451C51.6971 91.2693 51.5834 91.5495 51.6402 91.8858L51.9812 93.9033C52.0381 94.4077 51.6971 94.8561 51.1855 94.9682C51.015 94.9682 50.7877 94.9682 50.6172 94.8561L48.7417 93.9033C48.4575 93.7352 48.1165 93.7352 47.8891 93.9033L46.1273 94.9121C45.6726 95.1363 45.1042 94.9682 44.8769 94.4638C44.7632 94.2956 44.7632 94.1275 44.7632 93.9594L45.1042 91.9418C45.1611 91.6616 45.0474 91.3253 44.8201 91.1011L43.2855 89.644C42.8877 89.3077 42.8877 88.6913 43.2855 88.355C43.456 88.1869 43.6266 88.1308 43.7971 88.0748L45.8999 87.7946C46.1841 87.7385 46.4683 87.5704 46.5819 87.2902L47.4913 85.4407C47.7186 85.1044 48.0596 84.8803 48.4007 84.8803ZM48.4007 84.3198C47.8323 84.3198 47.264 84.6561 47.0366 85.1605L46.1273 87.0099C46.0704 87.122 45.9568 87.1781 45.8431 87.1781L43.7402 87.4583C43.1719 87.5143 42.7172 87.9066 42.5467 88.4671C42.3762 89.0275 42.4899 89.588 42.9445 89.9803L44.4791 91.4374C44.5927 91.4935 44.5927 91.6616 44.5927 91.7737L44.1949 93.8473C44.1381 94.2956 44.2517 94.744 44.5359 95.0803C44.8201 95.4165 45.2179 95.6407 45.6726 95.6407C45.8999 95.6407 46.1841 95.5847 46.3546 95.4726L48.2301 94.4638C48.3438 94.4077 48.4575 94.4077 48.5712 94.4638L50.4467 95.4165C50.674 95.5286 50.9014 95.5847 51.1287 95.5847C51.5834 95.5847 51.9812 95.3605 52.2654 95.0242C52.5496 94.688 52.6632 94.2396 52.6064 93.7913L52.2654 91.7737C52.2654 91.6616 52.2654 91.5495 52.3791 91.4374L53.8568 90.0363C54.2546 89.644 54.4251 89.0275 54.2546 88.5231C54.0841 87.9627 53.6294 87.5704 53.0611 87.5143L50.9582 87.2341C50.8445 87.2341 50.7309 87.122 50.674 87.066L49.7647 85.2165C49.4805 84.6561 48.969 84.3198 48.4007 84.3198Z" fill="#FF9D28"/>
<path d="M116.601 95.4165C116.544 95.4165 116.487 95.3604 116.487 95.3044V63.6956C116.487 63.6395 116.544 63.5835 116.601 63.5835C116.658 63.5835 116.715 63.6395 116.715 63.6956V95.3044C116.715 95.3604 116.658 95.4165 116.601 95.4165Z" fill="#68C5ED"/>
<path d="M134.163 83.8714H132.515V86.7297H128.536V83.8714H122.569V80.9572L128.821 71.9341H132.572V80.9011H134.22V83.8714H134.163ZM128.48 80.9011V79.1638C128.48 78.8275 128.48 78.3791 128.536 77.8747C128.536 77.3143 128.593 77.0341 128.593 77.0341H128.48C128.252 77.5385 127.968 78.0429 127.684 78.4912L126.036 80.9011H128.48Z" fill="#68C5ED"/>
<path d="M135.357 85.0485C135.357 84.432 135.527 83.9276 135.925 83.5913C136.323 83.255 136.835 83.0869 137.573 83.0869C138.255 83.0869 138.767 83.255 139.108 83.5913C139.449 83.9276 139.676 84.432 139.676 85.0485C139.676 85.6649 139.506 86.1133 139.108 86.4496C138.71 86.7858 138.199 86.9539 137.573 86.9539C136.891 86.9539 136.38 86.7858 135.982 86.4496C135.527 86.1693 135.357 85.6649 135.357 85.0485Z" fill="#68C5ED"/>
<path d="M146.724 71.71C148.315 71.71 149.509 72.0462 150.418 72.6627C151.27 73.2792 151.725 74.1759 151.725 75.3528C151.725 76.1374 151.498 76.81 151.1 77.4264C150.702 78.0429 150.02 78.5473 149.111 78.9957C150.247 79.6122 150.986 80.2286 151.441 80.8451C151.896 81.4616 152.123 82.1341 152.123 82.8627C152.123 84.1517 151.668 85.2166 150.702 85.9451C149.736 86.6737 148.372 87.01 146.667 87.01C144.905 87.01 143.541 86.6737 142.632 85.9451C141.722 85.2166 141.211 84.2078 141.211 82.9188C141.211 82.0781 141.438 81.3495 141.836 80.733C142.234 80.1166 142.973 79.5561 143.939 79.1078C143.143 78.6034 142.575 78.0429 142.177 77.4264C141.836 76.81 141.609 76.1374 141.609 75.4649C141.609 74.344 142.063 73.4473 142.973 72.8308C143.939 72.0462 145.189 71.71 146.724 71.71ZM144.962 82.6946C144.962 83.0869 145.132 83.4231 145.416 83.7034C145.701 83.9836 146.155 84.0957 146.667 84.0957C147.86 84.0957 148.486 83.6473 148.486 82.8067C148.486 82.4704 148.372 82.1341 148.088 81.8539C147.803 81.5177 147.349 81.1814 146.667 80.7891C146.042 81.1253 145.644 81.4056 145.36 81.7418C145.075 81.966 144.962 82.3023 144.962 82.6946ZM146.724 74.6242C146.383 74.6242 146.098 74.7363 145.814 74.9045C145.587 75.1286 145.473 75.3528 145.473 75.6891C145.473 76.2495 145.871 76.81 146.667 77.2023C147.178 76.922 147.462 76.6979 147.69 76.4177C147.86 76.1935 147.974 75.9133 147.974 75.633C147.974 75.2968 147.86 75.0726 147.633 74.8484C147.349 74.7363 147.065 74.6242 146.724 74.6242Z" fill="#68C5ED"/>
<path d="M62.8928 84.8803C63.2338 84.8803 63.5748 85.1044 63.7453 85.3847L64.6547 87.2341C64.7683 87.5143 65.0525 87.6825 65.3367 87.7385L67.4396 88.0187C67.9511 88.0748 68.2921 88.5792 68.2353 89.0836C68.1784 89.3077 68.1216 89.4759 67.9511 89.588L66.4165 91.0451C66.1892 91.2693 66.0755 91.5495 66.1324 91.8858L66.4734 93.9033C66.587 94.4077 66.246 94.9121 65.7345 94.9682C65.6777 94.9682 65.6209 94.9682 65.564 94.9682C65.3935 94.9682 65.2799 94.9121 65.1094 94.8561L63.2338 93.9033C62.9496 93.7352 62.6086 93.7352 62.3813 93.9033L60.5058 94.8561C60.0511 95.0803 59.4827 94.9121 59.2554 94.4638C59.1417 94.2956 59.1417 94.0715 59.1417 93.8473L59.4827 91.8297C59.5396 91.5495 59.4259 91.2132 59.1986 90.9891L57.7209 89.588C57.323 89.2517 57.323 88.6352 57.7209 88.2989C57.8914 88.1308 58.0619 88.0748 58.2324 88.0187L60.3353 87.7385C60.6194 87.6825 60.9036 87.5143 61.0173 87.2341L61.9266 85.3847C62.2108 85.1044 62.5518 84.8803 62.8928 84.8803ZM62.8928 84.3198C62.3245 84.3198 61.8129 84.6561 61.5288 85.1605L60.6194 87.0099C60.5626 87.122 60.4489 87.1781 60.3353 87.1781L58.2324 87.4583C57.4367 87.5704 56.8683 88.2989 56.982 89.1396C57.0388 89.4759 57.2094 89.7561 57.4367 89.9803L58.9712 91.4374C59.0849 91.4935 59.0849 91.6616 59.0849 91.7737L58.7439 93.7913C58.687 94.2396 58.8007 94.688 59.0849 95.0242C59.3691 95.3605 59.7669 95.5847 60.2216 95.5847C60.4489 95.5847 60.7331 95.5286 60.9036 95.4165L62.7791 94.4638C62.836 94.4638 62.8928 94.4077 62.9496 94.4077C63.0065 94.4077 63.0633 94.4077 63.1201 94.4638L64.9957 95.4165C65.223 95.5286 65.4504 95.5847 65.6777 95.5847C66.1324 95.5847 66.5302 95.3605 66.8144 95.0242C67.0986 94.688 67.2122 94.2396 67.1554 93.7913L66.8144 91.7737C66.8144 91.6616 66.8144 91.5495 66.9281 91.4374L68.4626 89.9803C69.0309 89.4198 69.0878 88.4671 68.5194 87.9066C68.2921 87.6825 67.9511 87.5143 67.6669 87.4583L65.564 87.1781C65.4504 87.1781 65.3367 87.066 65.2799 87.0099L64.3705 85.1605C63.9727 84.6561 63.4611 84.3198 62.8928 84.3198Z" fill="#FF9D28"/>
<path d="M67.7234 87.9623L65.5069 87.6821C65.2227 87.6261 64.8817 87.4579 64.768 87.1217L63.8018 85.1601C63.5745 84.6557 62.9493 84.4316 62.4946 84.6557C62.2673 84.7678 62.1536 84.936 61.9831 85.1601L61.0169 87.1217C60.9033 87.4019 60.6191 87.6261 60.2781 87.6821L58.0616 87.9623C57.4932 88.0184 57.1522 88.5788 57.209 89.0832C57.2659 89.3074 57.3227 89.4755 57.4932 89.6437L59.1414 91.2129C59.3687 91.4371 59.4824 91.7733 59.4256 92.1096L59.0846 94.2393C58.9709 94.7997 59.3119 95.2481 59.8803 95.3601C60.1076 95.4162 60.3918 95.3601 60.5623 95.2481L62.5515 94.2393C62.8357 94.0711 63.2335 94.0711 63.4608 94.2393L65.45 95.2481C65.9616 95.4722 66.5299 95.3041 66.7572 94.8557C66.8709 94.6876 66.8709 94.4634 66.8709 94.2393L66.5299 92.1096C66.4731 91.8294 66.5867 91.4371 66.8141 91.2129L68.4623 89.6437C68.8033 89.2513 68.8033 88.6349 68.4623 88.2426C68.1213 88.0744 67.8939 88.0184 67.7234 87.9623Z" fill="#FF9D28"/>
<path d="M81.3643 87.9625L79.2046 87.6823C78.9204 87.6262 78.6362 87.4581 78.5225 87.1779L77.6132 85.2724C77.3859 84.824 76.8175 84.5999 76.3628 84.824C76.1355 84.9361 76.0218 85.1042 75.9082 85.2724L74.9988 87.1779C74.8851 87.4581 74.601 87.6262 74.3168 87.6823L72.1571 87.9625C71.6456 88.0185 71.3046 88.5229 71.3614 89.0273C71.4182 89.2515 71.4751 89.4196 71.6456 89.5317L73.1801 90.9889C73.4074 91.213 73.5211 91.4933 73.4643 91.8295L73.1233 93.9031C73.0096 94.4075 73.3506 94.8559 73.8621 94.968C74.0895 95.024 74.3168 94.968 74.4873 94.8559L76.4197 93.9031C76.7038 93.735 77.0448 93.735 77.2722 93.9031L79.2046 94.8559C79.6592 95.0801 80.2276 94.9119 80.4549 94.4636C80.5686 94.2955 80.5686 94.0713 80.5686 93.9031L80.2276 91.8295C80.1707 91.5493 80.2844 91.213 80.5118 90.9889L81.9895 89.5317C82.3305 89.1394 82.3305 88.579 81.9895 88.2427C81.819 88.0746 81.5916 88.0185 81.3643 87.9625Z" fill="#FF9D28"/>
<path d="M95.9139 87.9066L93.7541 87.6264C93.47 87.5703 93.1858 87.4022 93.0721 87.122L92.1059 85.2165C91.8786 84.7681 91.2534 84.5439 90.7987 84.7681C90.5714 84.8802 90.4577 85.0483 90.3441 85.2165L89.3779 87.122C89.2642 87.4022 88.98 87.5703 88.6959 87.6264L86.5362 87.9066C86.0246 87.9626 85.6268 88.467 85.6836 89.0275C85.7405 89.2516 85.7973 89.4198 85.9678 89.5319L87.5023 91.045C87.7297 91.2692 87.8433 91.5494 87.7865 91.9417L87.4455 94.0154C87.3318 94.5198 87.6728 95.0242 88.1844 95.1363C88.4117 95.1923 88.639 95.1362 88.8095 95.0242L90.7419 94.0154C91.0261 93.8472 91.3671 93.8472 91.6513 94.0154L93.5836 95.0242C94.0383 95.2483 94.6635 95.0802 94.8908 94.6319C95.0045 94.4637 95.0045 94.2395 95.0045 94.0154L94.6635 91.9417C94.6067 91.6615 94.7203 91.3253 94.9477 91.045L96.4822 89.5319C96.8232 89.1395 96.8232 88.5231 96.4822 88.1868C96.2549 88.0187 96.0844 87.9626 95.9139 87.9066Z" fill="#FF9D28"/>
<path d="M76.8174 84.8803C77.1584 84.8803 77.4994 85.1044 77.6699 85.3847L78.5792 87.2341C78.6929 87.5143 78.9771 87.6825 79.2612 87.7385L81.3641 88.0187C81.8756 88.0748 82.2166 88.5792 82.1598 89.0836C82.103 89.3077 82.0461 89.4759 81.8756 89.588L80.3979 91.0451C80.1706 91.2693 80.0569 91.5495 80.1138 91.8858L80.4548 93.9033C80.5116 94.4077 80.1706 94.8561 79.6591 94.9682C79.4886 95.0242 79.2612 94.9682 79.0907 94.8561L77.2152 93.9033C76.931 93.7352 76.59 93.7352 76.3627 93.9033L74.4872 94.8561C74.0325 95.0803 73.4641 94.8561 73.2368 94.4077C73.18 94.2396 73.1231 94.0715 73.18 93.9033L73.521 91.8858C73.5778 91.6055 73.4641 91.2693 73.2368 91.0451L71.7023 89.588C71.3044 89.2517 71.3044 88.6352 71.7023 88.2989C71.8728 88.1308 72.0433 88.0748 72.2138 88.0187L74.3166 87.7385C74.6008 87.6825 74.885 87.5143 74.9987 87.2341L75.908 85.3847C76.1354 85.1044 76.4764 84.8803 76.8174 84.8803ZM76.8174 84.3198C76.249 84.3198 75.6807 84.6561 75.4533 85.1605L74.544 87.0099C74.4871 87.122 74.3735 87.1781 74.2598 87.1781L72.1569 87.4583C71.3612 87.5704 70.7929 88.2989 70.9066 89.1396C70.9634 89.4759 71.1339 89.7561 71.3613 89.9803L72.8958 91.4374C73.0095 91.4935 73.0094 91.6616 73.0094 91.7737L72.6684 93.7913C72.6116 94.2396 72.7253 94.688 73.0094 95.0242C73.2936 95.3605 73.6915 95.5847 74.1461 95.5847C74.3735 95.5847 74.6576 95.5286 74.8282 95.4165L76.7037 94.4638C76.7605 94.4638 76.8174 94.4077 76.8742 94.4077C76.931 94.4077 76.9879 94.4077 77.0447 94.4638L78.9202 95.4165C79.1476 95.5286 79.3749 95.5847 79.6023 95.5847C80.0569 95.5847 80.4548 95.3605 80.7389 95.0242C81.0231 94.688 81.1368 94.2396 81.08 93.7913L80.7389 91.7737C80.7389 91.6616 80.7389 91.5495 80.8526 91.4374L82.3303 90.0363C82.8987 89.4759 82.9555 88.5231 82.3871 87.9627C82.1598 87.7385 81.8756 87.5704 81.5346 87.5143L79.4318 87.2341C79.3181 87.2341 79.2044 87.122 79.1476 87.066L78.2382 85.2165C77.8972 84.6561 77.3857 84.3198 76.8174 84.3198Z" fill="#FF9D28"/>
<path d="M76.8174 84.8803C77.1584 84.8803 77.4994 85.1044 77.6699 85.3847L78.5792 87.2341C78.6929 87.5143 78.9771 87.6825 79.2612 87.7385L81.3641 88.0187C81.8756 88.0748 82.2166 88.5792 82.1598 89.0836C82.103 89.3077 82.0461 89.4759 81.8756 89.588L80.3979 91.0451C80.1706 91.2693 80.0569 91.5495 80.1138 91.8858L80.4548 93.9033C80.5684 94.4077 80.2274 94.8561 79.7159 94.9682C79.6591 94.9682 79.6023 94.9682 79.5454 94.9682C79.3749 94.9682 79.2612 94.9121 79.0907 94.8561L77.2152 93.9033C76.931 93.7352 76.59 93.7352 76.3627 93.9033L74.4872 94.8561C74.0325 95.0803 73.4641 94.9121 73.2368 94.4638C73.1231 94.2956 73.1231 94.0715 73.1231 93.8473L73.4641 91.8297C73.521 91.5495 73.4073 91.2132 73.18 90.9891L71.6454 89.5319C71.2476 89.1957 71.2476 88.5792 71.6454 88.2429C71.8159 88.0748 71.9864 88.0187 72.1569 87.9627L74.2598 87.6825C74.544 87.6264 74.8282 87.4583 74.9418 87.1781L75.8512 85.3286C76.1353 85.1044 76.4195 84.8803 76.8174 84.8803ZM76.8174 84.3198C76.249 84.3198 75.7375 84.6561 75.4533 85.1605L74.544 87.0099C74.4871 87.122 74.3735 87.1781 74.2598 87.1781L72.1569 87.4583C71.3612 87.5704 70.7929 88.2989 70.9066 89.1396C70.9634 89.4759 71.1339 89.7561 71.3613 89.9803L72.8958 91.4374C73.0095 91.4935 73.0094 91.6616 73.0094 91.7737L72.6684 93.7913C72.6116 94.2396 72.7253 94.688 73.0094 95.0242C73.2936 95.3605 73.6915 95.5847 74.1461 95.5847C74.3735 95.5847 74.6576 95.5286 74.8282 95.4165L76.7037 94.4638C76.7605 94.4638 76.8174 94.4077 76.8742 94.4077C76.931 94.4077 76.9879 94.4077 77.0447 94.4638L78.8634 95.4726C79.0907 95.5847 79.3181 95.6407 79.5454 95.6407C80.0001 95.6407 80.3979 95.4165 80.6821 95.0803C80.9663 94.744 81.08 94.2956 81.0231 93.8473L80.6821 91.8297C80.6821 91.7176 80.6821 91.6055 80.7958 91.4935L82.3303 90.0363C82.8987 89.4759 82.9555 88.5231 82.3871 87.9627C82.1598 87.7385 81.8756 87.5704 81.5346 87.5143L79.4318 87.2341C79.3181 87.2341 79.2044 87.122 79.1476 87.066L78.2382 85.2165C77.8972 84.6561 77.3857 84.3198 76.8174 84.3198Z" fill="#FF9D28"/>
<path d="M91.14 84.8803C91.481 84.8803 91.822 85.1044 91.9925 85.3847L92.9018 87.2341C93.0155 87.5143 93.2997 87.6825 93.5838 87.7385L95.6867 88.0187C96.1982 88.0748 96.5392 88.5792 96.4824 89.0836C96.4256 89.3077 96.3687 89.4759 96.1982 89.588L94.7205 91.0451C94.4932 91.2693 94.3795 91.5495 94.4364 91.8858L94.7774 93.9033C94.8342 94.4077 94.4932 94.8561 93.9817 94.9682C93.8112 95.0242 93.5838 94.9682 93.4133 94.8561L91.5378 93.9033C91.2536 93.7352 90.9126 93.7352 90.6853 93.9033L88.8097 94.8561C88.3551 95.0803 87.7867 94.9121 87.5594 94.4638C87.4457 94.2956 87.4457 94.0715 87.4457 93.8473L87.7867 91.8297C87.8436 91.5495 87.7299 91.2132 87.5025 90.9891L86.0249 89.5319C85.627 89.1957 85.627 88.5792 86.0249 88.2429C86.1954 88.0748 86.3659 88.0187 86.5364 87.9627L88.6392 87.6825C88.9234 87.6264 89.2076 87.4583 89.3213 87.1781L90.2306 85.3286C90.4579 85.1044 90.799 84.8803 91.14 84.8803ZM91.1968 84.3198C90.6284 84.3198 90.1169 84.6561 89.8328 85.1605L88.9234 87.0099C88.8666 87.122 88.7529 87.1781 88.6392 87.1781L86.5364 87.4583C85.968 87.5143 85.5133 87.9066 85.3428 88.4671C85.1723 89.0275 85.286 89.588 85.7407 89.9803L87.2184 91.4374C87.332 91.4935 87.332 91.6616 87.332 91.7737L86.991 93.7913C86.9342 94.2396 87.0479 94.688 87.332 95.0242C87.6162 95.3605 88.0141 95.5847 88.4687 95.5847C88.6961 95.5847 88.9803 95.5286 89.1508 95.4165L91.0263 94.4638C91.0831 94.4638 91.14 94.4077 91.1968 94.4077C91.2536 94.4077 91.3105 94.4077 91.3673 94.4638L93.2428 95.4165C93.4702 95.5286 93.6975 95.5847 93.9249 95.5847C94.3795 95.5847 94.7774 95.3605 95.0615 95.0242C95.3457 94.688 95.4594 94.2396 95.4026 93.7913L95.0615 91.7737C95.0615 91.6616 95.0615 91.5495 95.1752 91.4374L96.6529 89.9803C97.0508 89.588 97.2213 88.9715 97.0508 88.4671C96.8802 87.9066 96.4256 87.5143 95.8572 87.4583L93.7543 87.1781C93.6407 87.1781 93.527 87.066 93.4702 87.0099L92.5608 85.1605C92.2767 84.6561 91.7083 84.3198 91.1968 84.3198Z" fill="#FF9D28"/>
<path d="M110.634 89.9803C111.203 89.4198 111.259 88.4671 110.691 87.9066C110.464 87.6825 110.123 87.5143 109.839 87.4583L107.736 87.1781C107.622 87.1781 107.508 87.066 107.451 87.0099L106.542 85.1605C106.144 84.6561 105.633 84.3198 105.064 84.3198C104.496 84.3198 103.985 84.6561 103.7 85.1605L102.791 87.0099C102.734 87.122 102.621 87.1781 102.507 87.1781L100.404 87.4583C99.6083 87.5704 99.04 88.2989 99.1536 89.1396C99.2105 89.4759 99.381 89.7561 99.6083 89.9803L101.143 91.4374C101.257 91.4935 101.257 91.6616 101.257 91.7737L100.916 93.7913C100.859 94.2396 100.972 94.688 101.257 95.0242C101.541 95.3605 101.939 95.5847 102.393 95.5847C102.621 95.5847 102.905 95.5286 103.075 95.4165L104.951 94.4638C105.008 94.4638 105.064 94.4077 105.121 94.4077C105.178 94.4077 105.235 94.4077 105.292 94.4638L107.167 95.4165C107.395 95.5286 107.622 95.5847 107.849 95.5847C108.304 95.5847 108.702 95.3605 108.986 95.0242C109.27 94.688 109.384 94.2396 109.327 93.7913L108.986 91.7737C108.986 91.6616 108.986 91.5495 109.1 91.4374L110.634 89.9803ZM108.588 91.0451C108.361 91.2693 108.247 91.5495 108.304 91.8858L108.645 93.9033C108.759 94.2956 108.531 94.688 108.247 94.8561V87.8506L109.611 88.0187C110.123 88.0748 110.464 88.5792 110.407 89.0836C110.35 89.3077 110.293 89.4759 110.123 89.588L108.588 91.0451Z" fill="#FF9D28"/>
</g>
<defs>
<clipPath id="clip0_2554_2890">
<rect width="158" height="51" fill="white" transform="translate(1 54)"/>
</clipPath>
</defs>
</svg>
