<svg width="26" height="26" viewBox="0 0 26 26" fill="none" xmlns="http://www.w3.org/2000/svg">
<g clip-path="url(#clip0_5421_33329)">
<g filter="url(#filter0_d_5421_33329)">
<path d="M12.35 14.3001V23.4001H8.45C6.72688 23.4001 5.31695 22.0591 5.20692 20.3638L5.2 20.1501V14.3001H12.35ZM20.8 14.3001V20.1501C20.8 21.8732 19.459 23.2831 17.7637 23.3932L17.55 23.4001H13.65V14.3001H20.8ZM15.6 2.6001C17.3949 2.6001 18.85 4.05517 18.85 5.8501C18.85 6.58231 18.6078 7.25796 18.1993 7.80136L20.8 7.8001C21.518 7.8001 22.1 8.38213 22.1 9.1001V11.7001C22.1 12.4181 21.518 13.0001 20.8 13.0001H13.65V7.8001H12.35V13.0001H5.2C4.48204 13.0001 3.9 12.4181 3.9 11.7001V9.1001C3.9 8.38213 4.48204 7.8001 5.2 7.8001L7.80071 7.80136C7.39214 7.25796 7.15 6.58231 7.15 5.8501C7.15 4.05517 8.60508 2.6001 10.4 2.6001C11.4639 2.6001 12.4084 3.1113 13.0013 3.90148C13.5916 3.1113 14.5361 2.6001 15.6 2.6001ZM15.6 3.9001C14.5231 3.9001 13.65 4.77314 13.65 5.8501V7.8001H15.6C16.6769 7.8001 17.55 6.92706 17.55 5.8501C17.55 4.77314 16.6769 3.9001 15.6 3.9001ZM10.4 3.9001C9.32304 3.9001 8.45 4.77314 8.45 5.8501C8.45 6.86371 9.22336 7.69668 10.2122 7.79117L10.4 7.8001H12.35V5.8501L12.3411 5.6623C12.2466 4.67345 11.4136 3.9001 10.4 3.9001Z" fill="url(#paint0_linear_5421_33329)"/>
<path d="M18.0794 7.71123L17.8988 7.9515L18.1994 7.95136L20.8 7.9501C20.8 7.9501 20.8 7.9501 20.8001 7.9501C21.4352 7.95013 21.95 8.465 21.95 9.1001V11.7001C21.95 12.3352 21.4351 12.8501 20.8 12.8501H13.8V7.9501H15.6C16.7598 7.9501 17.7 7.0099 17.7 5.8501C17.7 4.69029 16.7598 3.7501 15.6 3.7501C14.4402 3.7501 13.5 4.69029 13.5 5.8501V7.6501H12.5V5.8501H12.5002L12.4998 5.84297L12.4909 5.65517L12.4911 5.65517L12.4904 5.64803C12.3886 4.58296 11.4917 3.7501 10.4 3.7501C9.2402 3.7501 8.3 4.6903 8.3 5.8501C8.3 6.94176 9.13286 7.83872 10.1979 7.94049L10.1979 7.94066L10.2051 7.941L10.3929 7.94993L10.3929 7.9501H10.4H12.2V12.8501H5.2C4.56488 12.8501 4.05 12.3352 4.05 11.7001V9.1001C4.05 8.465 4.56484 7.95014 5.19993 7.9501C5.19995 7.9501 5.19998 7.9501 5.2 7.9501L7.80064 7.95136L8.10128 7.9515L7.92061 7.71121C7.5309 7.19291 7.3 6.54869 7.3 5.8501C7.3 4.13802 8.68792 2.7501 10.4 2.7501C11.4147 2.7501 12.3155 3.23745 12.8813 3.9915L13.0016 4.15175L13.1215 3.99125C13.6846 3.23748 14.5852 2.7501 15.6 2.7501C17.3121 2.7501 18.7 4.13802 18.7 5.8501C18.7 6.54868 18.4691 7.19291 18.0794 7.71123ZM12.2 14.4501V23.2501H8.45C6.80728 23.2501 5.46288 21.9723 5.35676 20.3565L5.35 20.1477V14.4501H12.2ZM20.65 14.4501V20.1501C20.65 21.7929 19.3722 23.1372 17.7564 23.2434L17.5476 23.2501H13.8V14.4501H20.65Z" stroke="url(#paint1_linear_5421_33329)" stroke-width="0.3"/>
</g>
</g>
<defs>
<filter id="filter0_d_5421_33329" x="-2.1" y="-1.3999" width="30.2" height="32.7998" filterUnits="userSpaceOnUse" color-interpolation-filters="sRGB">
<feFlood flood-opacity="0" result="BackgroundImageFix"/>
<feColorMatrix in="SourceAlpha" type="matrix" values="0 0 0 0 0 0 0 0 0 0 0 0 0 0 0 0 0 0 127 0" result="hardAlpha"/>
<feOffset dy="2"/>
<feGaussianBlur stdDeviation="3"/>
<feComposite in2="hardAlpha" operator="out"/>
<feColorMatrix type="matrix" values="0 0 0 0 0 0 0 0 0 0 0 0 0 0 0 0 0 0 0.1 0"/>
<feBlend mode="normal" in2="BackgroundImageFix" result="effect1_dropShadow_5421_33329"/>
<feBlend mode="normal" in="SourceGraphic" in2="effect1_dropShadow_5421_33329" result="shape"/>
</filter>
<linearGradient id="paint0_linear_5421_33329" x1="13" y1="2.6001" x2="13" y2="23.4001" gradientUnits="userSpaceOnUse">
<stop stop-color="#FFE27A"/>
<stop offset="0.25" stop-color="#FFD34C"/>
<stop offset="1" stop-color="#FFC41A"/>
</linearGradient>
<linearGradient id="paint1_linear_5421_33329" x1="13" y1="2.6001" x2="13" y2="23.4001" gradientUnits="userSpaceOnUse">
<stop stop-color="white"/>
<stop offset="1" stop-color="white" stop-opacity="0"/>
</linearGradient>
<clipPath id="clip0_5421_33329">
<rect width="26" height="26" fill="white"/>
</clipPath>
</defs>
</svg>
