<svg width="40" height="40" viewBox="0 0 40 40" fill="none" xmlns="http://www.w3.org/2000/svg">
<path d="M19.3494 23.3182V23.2415C19.358 22.4276 19.4432 21.7798 19.6051 21.2983C19.767 20.8168 19.9972 20.4268 20.2955 20.1286C20.5938 19.8303 20.9517 19.5554 21.3693 19.304C21.6207 19.1506 21.8466 18.9695 22.0469 18.7607C22.2472 18.5476 22.4048 18.3026 22.5199 18.0256C22.6392 17.7486 22.6989 17.4418 22.6989 17.1051C22.6989 16.6875 22.6009 16.3253 22.4048 16.0185C22.2088 15.7116 21.9467 15.4751 21.6186 15.3089C21.2905 15.1428 20.9261 15.0597 20.5256 15.0597C20.1761 15.0597 19.8395 15.1321 19.5156 15.277C19.1918 15.4219 18.9212 15.6499 18.7038 15.9609C18.4865 16.272 18.3608 16.679 18.3267 17.1818H16.7159C16.75 16.4574 16.9375 15.8374 17.2784 15.3217C17.6236 14.8061 18.0774 14.4119 18.6399 14.1392C19.2067 13.8665 19.8352 13.7301 20.5256 13.7301C21.2756 13.7301 21.9276 13.8793 22.4815 14.1776C23.0398 14.4759 23.4702 14.8849 23.7727 15.4048C24.0795 15.9247 24.233 16.517 24.233 17.1818C24.233 17.6506 24.1605 18.0746 24.0156 18.4538C23.875 18.8331 23.6705 19.1719 23.402 19.4702C23.1378 19.7685 22.8182 20.0327 22.4432 20.2628C22.0682 20.4972 21.7678 20.7443 21.5419 21.0043C21.3161 21.2599 21.152 21.5646 21.0497 21.9183C20.9474 22.272 20.892 22.7131 20.8835 23.2415V23.3182H19.3494ZM20.1676 27.1023C19.8523 27.1023 19.5817 26.9893 19.3558 26.7635C19.13 26.5376 19.017 26.267 19.017 25.9517C19.017 25.6364 19.13 25.3658 19.3558 25.1399C19.5817 24.9141 19.8523 24.8011 20.1676 24.8011C20.483 24.8011 20.7536 24.9141 20.9794 25.1399C21.2053 25.3658 21.3182 25.6364 21.3182 25.9517C21.3182 26.1605 21.2649 26.3523 21.1584 26.527C21.0561 26.7017 20.9176 26.8423 20.7429 26.9489C20.5724 27.0511 20.3807 27.1023 20.1676 27.1023Z" fill="black"/>
</svg>
