<svg width="121" height="99" viewBox="0 0 121 99" fill="none" xmlns="http://www.w3.org/2000/svg">
<path d="M7.28516 56.1071C7.28516 53.0837 9.70685 50.6328 12.6942 50.6328H42.8956V86.2204H7.28516V56.1071Z" fill="#111111"/>
<path fill-rule="evenodd" clip-rule="evenodd" d="M6.38281 56.1054C6.38281 52.5781 9.20812 49.7188 12.6933 49.7188H43.7962V87.1311H6.38281V56.1054ZM12.6933 51.5435C10.2039 51.5435 8.18581 53.5859 8.18581 56.1054V85.3063H41.9932V51.5435H12.6933Z" fill="#111111"/>
<path fill-rule="evenodd" clip-rule="evenodd" d="M17.6641 56.4514C17.6641 55.9475 18.0677 55.5391 18.5656 55.5391H30.2127C30.7106 55.5391 31.1142 55.9475 31.1142 56.4514C31.1142 56.9553 30.7106 57.3638 30.2127 57.3638H18.5656C18.0677 57.3638 17.6641 56.9553 17.6641 56.4514Z" fill="white"/>
<path opacity="0.2" fill-rule="evenodd" clip-rule="evenodd" d="M54.3984 56.4514C54.3984 55.9475 54.8021 55.5391 55.2999 55.5391H56.7786C57.2765 55.5391 57.6801 55.9475 57.6801 56.4514C57.6801 56.9553 57.2765 57.3638 56.7786 57.3638H55.2999C54.8021 57.3638 54.3984 56.9553 54.3984 56.4514ZM58.8343 56.4514C58.8343 55.9475 59.238 55.5391 59.7358 55.5391H62.6931C63.191 55.5391 63.5946 55.9475 63.5946 56.4514C63.5946 56.9553 63.191 57.3638 62.6931 57.3638H59.7358C59.238 57.3638 58.8343 56.9553 58.8343 56.4514ZM64.7489 56.4514C64.7489 55.9475 65.1525 55.5391 65.6504 55.5391H67.129C67.6269 55.5391 68.0305 55.9475 68.0305 56.4514C68.0305 56.9553 67.6269 57.3638 67.129 57.3638H65.6504C65.1525 57.3638 64.7489 56.9553 64.7489 56.4514Z" fill="#111111"/>
<path fill-rule="evenodd" clip-rule="evenodd" d="M42.1562 49.7188H66.9153V51.5435H43.9593V85.3063H77.7666V50.6311H79.5696V87.1311H42.1562V49.7188Z" fill="url(#paint0_linear_468_8970)"/>
<path fill-rule="evenodd" clip-rule="evenodd" d="M77.7188 49.7188H108.822C112.307 49.7188 115.132 52.5782 115.132 56.1054V87.1311H77.7188V49.7188ZM79.5218 51.5435V85.3063H113.329V56.1054C113.329 53.5859 111.311 51.5435 108.822 51.5435H79.5218Z" fill="#111111"/>
<path fill-rule="evenodd" clip-rule="evenodd" d="M53.5725 66.9068V79.5904H68.8679V66.9068H53.5725ZM52.671 65.082C52.1731 65.082 51.7695 65.4905 51.7695 65.9944V80.5028C51.7695 81.0067 52.1731 81.4152 52.671 81.4152H69.7694C70.2672 81.4152 70.6709 81.0067 70.6709 80.5028V65.9944C70.6709 65.4905 70.2672 65.082 69.7694 65.082H52.671Z" fill="url(#paint1_linear_468_8970)"/>
<path opacity="0.2" fill-rule="evenodd" clip-rule="evenodd" d="M89.6211 56.4514C89.6211 55.9475 90.0247 55.5391 90.5226 55.5391H102.17C102.668 55.5391 103.071 55.9475 103.071 56.4514C103.071 56.9553 102.668 57.3638 102.17 57.3638H90.5226C90.0247 57.3638 89.6211 56.9553 89.6211 56.4514Z" fill="#111111"/>
<path fill-rule="evenodd" clip-rule="evenodd" d="M68.7285 41.6841H53.5491V43.9957C53.5491 47.019 55.9708 49.4699 58.9581 49.4699H63.3195C66.3068 49.4699 68.7285 47.019 68.7285 43.9957V41.6841ZM51.7461 39.8594V43.9957C51.7461 48.0268 54.975 51.2947 58.9581 51.2947H63.3195C67.3025 51.2947 70.5315 48.0268 70.5315 43.9957V39.8594H51.7461Z" fill="url(#paint2_linear_468_8970)"/>
<path fill-rule="evenodd" clip-rule="evenodd" d="M52.9531 42.6579C52.9531 43.1618 52.5495 43.5703 52.0516 43.5703L49.7979 43.5703C49.3 43.5703 48.8964 43.1618 48.8964 42.6579C48.8964 42.154 49.3 41.7456 49.7979 41.7456L52.0516 41.7456C52.5495 41.7456 52.9531 42.154 52.9531 42.6579Z" fill="#111111"/>
<path fill-rule="evenodd" clip-rule="evenodd" d="M73.3359 42.6579C73.3359 43.1618 72.9323 43.5703 72.4344 43.5703L70.1807 43.5703C69.6828 43.5703 69.2792 43.1618 69.2792 42.6579C69.2792 42.154 69.6828 41.7456 70.1807 41.7456L72.4344 41.7456C72.9323 41.7456 73.3359 42.154 73.3359 42.6579Z" fill="#111111"/>
<path opacity="0.2" fill-rule="evenodd" clip-rule="evenodd" d="M42.5234 19.4444C42.5234 17.3782 44.1785 15.7031 46.2201 15.7031H72.2659C75.8513 15.7031 78.7578 18.6447 78.7578 22.2733C78.7578 22.7772 78.3542 23.1857 77.8563 23.1857C77.3584 23.1857 76.9548 22.7772 76.9548 22.2733C76.9548 19.6525 74.8555 17.5279 72.2659 17.5279H46.2201C45.1743 17.5279 44.3264 18.3859 44.3264 19.4444C44.3264 20.5029 45.1743 21.3609 46.2201 21.3609H62.0457C62.5436 21.3609 62.9472 21.7694 62.9472 22.2733C62.9472 22.7772 62.5436 23.1857 62.0457 23.1857H46.2201C44.1785 23.1857 42.5234 21.5107 42.5234 19.4444Z" fill="url(#paint3_linear_468_8970)"/>
<path fill-rule="evenodd" clip-rule="evenodd" d="M77.2682 23.2617L96.8951 30.8637L96.5729 32.6282H25.8428L25.5039 30.8703L44.0199 23.2684L44.6977 24.9593L30.4632 30.8034H91.6951L76.6238 24.9659L77.2682 23.2617Z" fill="url(#paint4_linear_468_8970)"/>
<path opacity="0.2" fill-rule="evenodd" clip-rule="evenodd" d="M6.42483 63.3706L43.9688 63.3706L43.9688 65.1953L6.42483 65.1953L6.42483 63.3706Z" fill="white"/>
<defs>
<linearGradient id="paint0_linear_468_8970" x1="46.3955" y1="82.6005" x2="79.5819" y2="38.9779" gradientUnits="userSpaceOnUse">
<stop stop-color="#111111"/>
<stop offset="0.716484" stop-color="#666666" stop-opacity="0"/>
</linearGradient>
<linearGradient id="paint1_linear_468_8970" x1="61.2202" y1="65.082" x2="61.2202" y2="81.4152" gradientUnits="userSpaceOnUse">
<stop stop-color="#111111"/>
<stop offset="1" stop-color="#666666" stop-opacity="0"/>
</linearGradient>
<linearGradient id="paint2_linear_468_8970" x1="61.1388" y1="39.8594" x2="61.1388" y2="51.2947" gradientUnits="userSpaceOnUse">
<stop offset="0.17916" stop-color="#111111"/>
<stop offset="1" stop-color="#666666" stop-opacity="0"/>
</linearGradient>
<linearGradient id="paint3_linear_468_8970" x1="43.4249" y1="19.4444" x2="77.8563" y2="19.4444" gradientUnits="userSpaceOnUse">
<stop stop-color="#111111"/>
<stop offset="1" stop-color="#666666" stop-opacity="0"/>
</linearGradient>
<linearGradient id="paint4_linear_468_8970" x1="57.8503" y1="32.5254" x2="57.8503" y2="24.1138" gradientUnits="userSpaceOnUse">
<stop stop-color="#111111"/>
<stop offset="0.85" stop-color="#666666" stop-opacity="0"/>
</linearGradient>
</defs>
</svg>
