<svg width="121" height="99" viewBox="0 0 121 99" fill="none" xmlns="http://www.w3.org/2000/svg">
<path fill-rule="evenodd" clip-rule="evenodd" d="M38.1577 16.9922V18.9813H36.2518V16.9922H38.1577ZM19.4707 16.9922H17.7719C17.2628 16.9922 16.7653 17.0419 16.2841 17.1368L16.654 19.0007C17.014 18.9297 17.3876 18.8921 17.7719 18.8921H19.4707V16.9922ZM13.5362 18.2723L14.5965 19.8511C13.9721 20.2677 13.4342 20.804 13.0162 21.4264L11.4325 20.3694C11.9891 19.5406 12.7048 18.8271 13.5362 18.2723ZM10.1484 71.0252H12.0543V73.044C12.0543 73.4271 12.092 73.7996 12.1632 74.1585L10.2935 74.5272C10.1983 74.0475 10.1484 73.5516 10.1484 73.044V71.0252ZM11.4325 77.2666L13.0162 76.2096C13.4342 76.832 13.9721 77.3683 14.5965 77.7849L13.5362 79.3637C12.7048 78.8089 11.9891 78.0953 11.4325 77.2666ZM36.2518 80.6438H38.1577V78.6547H36.2518V80.6438ZM38.1577 22.9595H36.2518V26.9378H38.1577V22.9595ZM38.1577 30.916H36.2518V34.8942H38.1577V30.916ZM38.1577 38.8724H36.2518V42.8507H38.1577V38.8724ZM38.1577 46.8289H36.2518V50.8071H38.1577V46.8289ZM38.1577 54.7853H36.2518V58.7636H38.1577V54.7853ZM38.1577 62.7418H36.2518V66.72H38.1577V62.7418ZM38.1577 70.6982H36.2518V74.6765H38.1577V70.6982ZM33.0612 80.6438V78.7439H29.6636V80.6438H33.0612ZM26.266 80.6438V78.7439H22.8684V80.6438H26.266ZM19.4707 80.6438V78.7439H17.7719C17.3876 78.7439 17.014 78.7063 16.654 78.6353L16.2841 80.4991C16.7653 80.594 17.2628 80.6438 17.7719 80.6438H19.4707ZM10.1484 66.9875H12.0543V62.9498H10.1484V66.9875ZM10.1484 58.9122H12.0543V54.8745H10.1484V58.9122ZM10.1484 50.8368H12.0543V46.7992H10.1484V50.8368ZM10.1484 42.7615H12.0543V38.7238H10.1484V42.7615ZM10.1484 34.6862H12.0543V30.6485H10.1484V34.6862ZM10.1484 26.6108H12.0543V24.592C12.0543 24.2089 12.092 23.8364 12.1632 23.4775L10.2935 23.1088C10.1983 23.5885 10.1484 24.0844 10.1484 24.592V26.6108ZM22.8684 16.9922V18.8921H26.266V16.9922H22.8684ZM29.6636 16.9922V18.8921H33.0612V16.9922H29.6636Z" fill="url(#paint0_linear_468_9020)"/>
<path fill-rule="evenodd" clip-rule="evenodd" d="M54.9513 78.7407L106.529 78.7407C109.687 78.7407 112.246 76.1888 112.246 73.0408L112.246 24.5888C112.246 21.4409 109.687 18.889 106.529 18.889L54.9513 18.889L54.9513 78.7407ZM106.529 80.6406C110.739 80.6406 114.152 77.2381 114.152 73.0408L114.152 24.5888C114.152 20.3916 110.739 16.989 106.529 16.989L53.0454 16.989L53.0454 80.6406L106.529 80.6406Z" fill="url(#paint1_linear_468_9020)"/>
<path d="M42.0547 13.646C42.0547 12.5967 42.908 11.7461 43.9606 11.7461H45.8664C46.919 11.7461 47.7723 12.5967 47.7723 13.646V83.8867C47.7723 84.936 46.919 85.7866 45.8664 85.7866H43.9606C42.908 85.7866 42.0547 84.936 42.0547 83.8867V13.646Z" fill="#111111"/>
<path opacity="0.2" d="M71.9365 26.1851C72.09 25.7716 72.6767 25.7716 72.8302 26.1851L74.5436 30.8012C74.5918 30.9312 74.6947 31.0337 74.8251 31.0818L79.4555 32.7899C79.8703 32.9429 79.8703 33.5278 79.4555 33.6808L74.8251 35.3889C74.6947 35.437 74.5918 35.5396 74.5436 35.6696L72.8302 40.2856C72.6767 40.6991 72.09 40.6991 71.9365 40.2856L70.223 35.6696C70.1748 35.5396 70.072 35.437 69.9415 35.3889L65.3111 33.6808C64.8963 33.5278 64.8963 32.9429 65.3111 32.7899L69.9415 31.0818C70.072 31.0337 70.1748 30.9312 70.223 30.8012L71.9365 26.1851Z" fill="#111111"/>
<path d="M90.5323 32.4859C90.6858 32.0724 91.2725 32.0724 91.426 32.4859L95.3535 43.0667C95.4017 43.1968 95.5045 43.2993 95.635 43.3474L106.249 47.2626C106.664 47.4157 106.664 48.0005 106.249 48.1536L95.635 52.0688C95.5045 52.1169 95.4017 52.2194 95.3535 52.3495L91.426 62.9303C91.2725 63.3438 90.6858 63.3438 90.5323 62.9303L86.6048 52.3495C86.5566 52.2194 86.4538 52.1169 86.3233 52.0688L75.7096 48.1536C75.2947 48.0005 75.2947 47.4157 75.7096 47.2626L86.3233 43.3474C86.4538 43.2993 86.5566 43.1968 86.6048 43.0667L90.5323 32.4859Z" fill="#111111"/>
<defs>
<linearGradient id="paint0_linear_468_9020" x1="10.1484" y1="55.3104" x2="38.1577" y2="55.3104" gradientUnits="userSpaceOnUse">
<stop stop-color="#111111"/>
<stop offset="0.85" stop-color="#666666" stop-opacity="0"/>
</linearGradient>
<linearGradient id="paint1_linear_468_9020" x1="114.152" y1="42.3224" x2="53.0454" y2="42.3224" gradientUnits="userSpaceOnUse">
<stop stop-color="#111111"/>
<stop offset="0.946376" stop-color="#666666" stop-opacity="0"/>
</linearGradient>
</defs>
</svg>
