<svg width="121" height="99" viewBox="0 0 121 99" fill="none" xmlns="http://www.w3.org/2000/svg">
<path fill-rule="evenodd" clip-rule="evenodd" d="M27.0566 25.1091C22.56 25.1091 18.9148 28.7446 18.9148 33.2292V59.7217H99.3069V25.1091H95.3268C94.8272 25.1091 94.4222 24.7052 94.4222 24.2069C94.4222 23.7086 94.8272 23.3047 95.3268 23.3047H101.116V61.5261H17.1055V33.2292C17.1055 27.7481 21.5608 23.3047 27.0566 23.3047H60.2119C60.7116 23.3047 61.1166 23.7086 61.1166 24.2069C61.1166 24.7052 60.7116 25.1091 60.2119 25.1091H27.0566Z" fill="url(#paint0_linear_468_8944)"/>
<path fill-rule="evenodd" clip-rule="evenodd" d="M18.8703 61.6094H99.7981L120.21 84.7255H0.5L18.8703 61.6094ZM19.745 63.4138L4.24267 82.921H116.205L98.9806 63.4138H19.745Z" fill="url(#paint1_linear_468_8944)"/>
<path fill-rule="evenodd" clip-rule="evenodd" d="M39.8047 45.8982C39.8047 44.9016 40.6147 44.0938 41.614 44.0938H43.5287C44.5279 44.0938 45.338 44.9016 45.338 45.8982V55.995H75.0157V45.8982C75.0157 44.9016 75.8257 44.0938 76.825 44.0938H78.7397C79.7389 44.0938 80.549 44.9016 80.549 45.8982V56.4307C80.5491 56.4358 80.5492 56.441 80.5492 56.4461V68.4365C80.5492 68.6856 80.3467 68.8876 80.0969 68.8876H40.257C40.0072 68.8876 39.8047 68.6857 39.8047 68.4365V66.091V56.4461V45.8982Z" fill="#111111"/>
<path fill-rule="evenodd" clip-rule="evenodd" d="M44.4333 56.8972V45.8982C44.4333 45.3999 44.0283 44.996 43.5287 44.996H41.614C41.1144 44.996 40.7093 45.3999 40.7093 45.8982V67.9854H79.6446V56.4536L79.6443 56.4459V45.8982C79.6443 45.3999 79.2393 44.996 78.7397 44.996H76.825C76.3254 44.996 75.9203 45.3999 75.9203 45.8982V56.8972H44.4333ZM80.549 56.4307V45.8982C80.549 44.9016 79.7389 44.0938 78.7397 44.0938H76.825C75.8257 44.0938 75.0157 44.9016 75.0157 45.8982V55.995H45.338V45.8982C45.338 44.9016 44.5279 44.0938 43.5287 44.0938H41.614C40.6147 44.0938 39.8047 44.9016 39.8047 45.8982V68.4365C39.8047 68.6857 40.0072 68.8876 40.257 68.8876H80.0969C80.3467 68.8876 80.5492 68.6856 80.5492 68.4365V56.4461C80.5492 56.441 80.5491 56.4358 80.549 56.4307Z" fill="#111111"/>
<path d="M47.832 42.4256C47.832 41.429 48.6421 40.6211 49.6413 40.6211H70.9225C71.9218 40.6211 72.7318 41.429 72.7318 42.4256V53.7415C72.7318 54.0611 72.4106 54.2833 72.1105 54.171C70.2368 53.4697 64.5105 51.4648 60.2819 51.4648C56.0533 51.4648 50.327 53.4697 48.4533 54.171C48.1532 54.2833 47.832 54.0611 47.832 53.7415V42.4256Z" fill="#111111"/>
<path fill-rule="evenodd" clip-rule="evenodd" d="M43.0328 69.3281C43.5325 69.3281 43.9375 69.7321 43.9375 70.2304L43.9375 73.6152C43.9375 74.1135 43.5325 74.5174 43.0328 74.5174C42.5332 74.5174 42.1282 74.1135 42.1282 73.6152L42.1282 70.2304C42.1282 69.7321 42.5332 69.3281 43.0328 69.3281Z" fill="#111111"/>
<path fill-rule="evenodd" clip-rule="evenodd" d="M77.3258 69.3281C77.8254 69.3281 78.2305 69.7321 78.2305 70.2304L78.2305 73.6152C78.2305 74.1135 77.8254 74.5174 77.3258 74.5174C76.8262 74.5174 76.4212 74.1135 76.4212 73.6152L76.4212 70.2304C76.4212 69.7321 76.8262 69.3281 77.3258 69.3281Z" fill="#111111"/>
<path d="M59.8203 15.1025C59.8203 14.7287 60.1241 14.4258 60.4988 14.4258H93.3631C93.7379 14.4258 94.0416 14.7287 94.0416 15.1025V15.5536C94.0416 15.9273 93.7379 16.2302 93.3631 16.2302H60.4988C60.1241 16.2302 59.8203 15.9273 59.8203 15.5536V15.1025Z" fill="#111111"/>
<path d="M91.6992 31.4472H85.3984L86.6804 23.5022C86.8215 22.6275 87.5784 21.9844 88.4667 21.9844H88.646C89.5356 21.9844 90.2931 22.6293 90.4329 23.5054L91.6992 31.4472Z" fill="#111111"/>
<path d="M81.2812 31.4472H74.9805L76.2624 23.5022C76.4035 22.6275 77.1604 21.9844 78.0487 21.9844H78.228C79.1176 21.9844 79.8752 22.6293 80.0149 23.5054L81.2812 31.4472Z" fill="#111111"/>
<path d="M69.5937 31.4472H63.293L64.5749 23.5022C64.716 22.6275 65.4729 21.9844 66.3612 21.9844H66.5405C67.4301 21.9844 68.1877 22.6293 68.3274 23.5054L69.5937 31.4472Z" fill="#111111"/>
<path opacity="0.2" fill-rule="evenodd" clip-rule="evenodd" d="M67.3484 15.3088L67.3484 22.6641L65.5391 22.6641L65.5391 15.3088L67.3484 15.3088Z" fill="url(#paint2_linear_468_8944)"/>
<path opacity="0.2" fill-rule="evenodd" clip-rule="evenodd" d="M89.4968 15.3088L89.4968 22.6641L87.6875 22.6641L87.6875 15.3088L89.4968 15.3088Z" fill="url(#paint3_linear_468_8944)"/>
<path opacity="0.2" fill-rule="evenodd" clip-rule="evenodd" d="M79.0359 15.3088L79.0359 22.6641L77.2266 22.6641L77.2266 15.3088L79.0359 15.3088Z" fill="url(#paint4_linear_468_8944)"/>
<defs>
<linearGradient id="paint0_linear_468_8944" x1="59.1109" y1="24.2069" x2="59.1109" y2="60.6239" gradientUnits="userSpaceOnUse">
<stop stop-color="#111111"/>
<stop offset="0.95" stop-color="#666666" stop-opacity="0"/>
</linearGradient>
<linearGradient id="paint1_linear_468_8944" x1="42.7743" y1="79.9693" x2="42.7743" y2="47.0811" gradientUnits="userSpaceOnUse">
<stop stop-color="#111111"/>
<stop offset="0.75" stop-color="#666666" stop-opacity="0"/>
</linearGradient>
<linearGradient id="paint2_linear_468_8944" x1="66.4437" y1="15.3088" x2="66.4437" y2="22.6641" gradientUnits="userSpaceOnUse">
<stop stop-color="#111111"/>
<stop offset="1" stop-color="#666666" stop-opacity="0"/>
</linearGradient>
<linearGradient id="paint3_linear_468_8944" x1="89.723" y1="15.3088" x2="89.723" y2="22.6641" gradientUnits="userSpaceOnUse">
<stop stop-color="#111111"/>
<stop offset="1" stop-color="#666666" stop-opacity="0"/>
</linearGradient>
<linearGradient id="paint4_linear_468_8944" x1="78.1312" y1="15.3088" x2="78.1312" y2="22.6641" gradientUnits="userSpaceOnUse">
<stop stop-color="#111111"/>
<stop offset="1" stop-color="#666666" stop-opacity="0"/>
</linearGradient>
</defs>
</svg>
