<svg width="121" height="99" viewBox="0 0 121 99" fill="none" xmlns="http://www.w3.org/2000/svg">
<path fill-rule="evenodd" clip-rule="evenodd" d="M55.8676 75.5098C68.2228 75.5098 77.9993 66.2857 77.9993 55.1907C77.9993 44.0957 68.2228 34.8716 55.8676 34.8716C43.5123 34.8716 33.7358 44.0957 33.7358 55.1907C33.7358 66.2857 43.5123 75.5098 55.8676 75.5098ZM55.8676 77.3111C69.0881 77.3111 79.8055 67.4074 79.8055 55.1907C79.8055 42.9739 69.0881 33.0703 55.8676 33.0703C42.647 33.0703 31.9297 42.9739 31.9297 55.1907C31.9297 67.4074 42.647 77.3111 55.8676 77.3111Z" fill="url(#paint0_linear_468_8995)"/>
<path fill-rule="evenodd" clip-rule="evenodd" d="M55.8616 70.6379C65.0942 70.6379 72.5787 63.7216 72.5787 55.19C72.5787 46.6584 65.0942 39.7422 55.8616 39.7422C46.629 39.7422 39.1445 46.6584 39.1445 55.19C39.1445 63.7216 46.629 70.6379 55.8616 70.6379ZM49.6314 58.3228C51.5037 58.3228 53.0215 56.9203 53.0215 55.1901C53.0215 53.46 51.5037 52.0575 49.6314 52.0575C47.7591 52.0575 46.2413 53.46 46.2413 55.1901C46.2413 56.9203 47.7591 58.3228 49.6314 58.3228Z" fill="#111111"/>
<path fill-rule="evenodd" clip-rule="evenodd" d="M39.6936 18.3716C38.1797 18.3716 36.8264 19.3131 36.3036 20.73L33.0624 29.5143C32.2782 31.6397 30.2482 33.0519 27.9774 33.0519L13.4557 33.0519C9.96446 33.0519 7.13425 35.8746 7.13425 39.3565V82.7615H69.7038V84.5628H5.32812V39.3565C5.32812 34.8798 8.96697 31.2506 13.4557 31.2506L27.9774 31.2506C29.4913 31.2506 30.8446 30.3092 31.3674 28.8922L34.6086 20.108C35.3928 17.9825 37.4227 16.5703 39.6936 16.5703H71.2495C73.4865 16.5703 75.4936 17.9414 76.3019 20.0217L79.7707 28.9497C80.3095 30.3366 81.6476 31.2506 83.1389 31.2506H95.1636C99.6523 31.2506 103.291 34.8797 103.291 39.3565V84.5628H88.2033V82.7615H101.485V39.3565C101.485 35.8746 98.6548 33.0519 95.1636 33.0519H83.1389C80.9019 33.0519 78.8948 31.6809 78.0866 29.6006L74.6178 20.6725C74.0789 19.2857 72.7409 18.3716 71.2495 18.3716H39.6936Z" fill="url(#paint1_linear_468_8995)"/>
<path fill-rule="evenodd" clip-rule="evenodd" d="M99.758 67.2561L89.0475 66.3783C88.044 66.3783 87.3828 66.9047 87.3828 68.0695C87.3828 69.5255 87.9057 75.6485 88.5078 76.9333C89.1099 78.218 90.8283 80.4448 95.2932 81.13C96.7446 81.3528 98.2233 81.6117 99.6232 81.8568C102.53 82.3658 105.096 82.8152 106.372 82.7574C108.261 82.6717 111.782 81.5583 112.984 79.2458C113.946 77.3958 115.574 72.5812 115.975 70.2687C116.175 69.1131 115.534 68.2406 114.015 67.8544L113.738 62.63C113.738 61.7287 113.21 60.9994 111.094 60.7455C108.54 60.4388 104.995 60.3881 103.108 60.7455C102.679 60.9172 101.734 61.5345 101.391 62.63C101.047 63.7254 100.159 66.1705 99.758 67.2561ZM108.836 72.373C107.091 72.0293 102.887 71.8568 99.8175 71.8574C95.7886 71.8582 93.5315 72.0066 93.3469 72.8947C93.3327 72.9632 93.3168 73.0343 93.3004 73.1076C93.1049 73.9832 92.844 75.1519 94.5478 75.5959C96.394 76.0769 104.517 77.076 106.179 76.7059C107.84 76.3359 108.071 75.5959 108.256 74.8188C108.404 74.1972 108.704 72.9293 108.836 72.373Z" fill="#111111"/>
<path fill-rule="evenodd" clip-rule="evenodd" d="M91.9557 78.2385C92.4273 78.4005 92.6779 78.913 92.5155 79.3833L90.5229 85.1541C90.3605 85.6244 89.8465 85.8743 89.375 85.7124C88.9034 85.5504 88.6528 85.0379 88.8152 84.5675L90.8078 78.7968C90.9702 78.3265 91.4841 78.0765 91.9557 78.2385Z" fill="#111111"/>
<path fill-rule="evenodd" clip-rule="evenodd" d="M105.06 88.6021C104.564 88.6503 104.122 88.288 104.074 87.793L103.46 81.5024C103.412 81.0073 103.775 80.5669 104.271 80.5187C104.768 80.4706 105.209 80.8328 105.258 81.3279L105.871 87.6185C105.92 88.1136 105.556 88.554 105.06 88.6021Z" fill="#111111"/>
<path fill-rule="evenodd" clip-rule="evenodd" d="M115.168 85.2431C114.71 85.441 114.178 85.2315 113.98 84.7752L113.041 82.6161C112.843 82.1597 113.053 81.6294 113.51 81.4314C113.968 81.2335 114.5 81.443 114.698 81.8994L115.637 84.0584C115.835 84.5148 115.625 85.0452 115.168 85.2431Z" fill="#111111"/>
<path opacity="0.2" fill-rule="evenodd" clip-rule="evenodd" d="M16.698 45.4175C18.6662 45.4175 20.2618 43.8263 20.2618 41.8633C20.2618 39.9004 18.6662 38.3091 16.698 38.3091C14.7298 38.3091 13.1343 39.9004 13.1343 41.8633C13.1343 43.8263 14.7298 45.4175 16.698 45.4175ZM16.698 47.2188C19.6637 47.2188 22.0679 44.8211 22.0679 41.8633C22.0679 38.9056 19.6637 36.5078 16.698 36.5078C13.7323 36.5078 11.3281 38.9056 11.3281 41.8633C11.3281 44.8211 13.7323 47.2188 16.698 47.2188Z" fill="#111111"/>
<defs>
<linearGradient id="paint0_linear_468_8995" x1="52.2881" y1="33.0703" x2="52.2881" y2="73.6112" gradientUnits="userSpaceOnUse">
<stop stop-color="#111111"/>
<stop offset="1" stop-color="#666666" stop-opacity="0.1"/>
</linearGradient>
<linearGradient id="paint1_linear_468_8995" x1="40.5629" y1="21.3367" x2="83.4852" y2="71.005" gradientUnits="userSpaceOnUse">
<stop stop-color="#111111"/>
<stop offset="1" stop-color="#666666" stop-opacity="0"/>
</linearGradient>
</defs>
</svg>
