<svg width="300" height="601" viewBox="0 0 300 601" fill="none" xmlns="http://www.w3.org/2000/svg">
<path d="M180.381 417.816C177.461 418.948 174.235 420.023 170.812 420.983C164.184 422.863 156.771 424.384 149.047 425.381C148.2 425.496 147.374 425.594 146.548 425.688C142.013 426.228 137.79 426.55 133.925 426.685C118.554 427.225 108.55 424.67 105.724 418.984C105.36 418.293 105.204 417.546 105.262 416.756C105.454 412.763 110.716 407.81 119.864 403.411C124.227 401.319 129.468 399.34 135.463 397.653C138.938 396.671 142.647 395.789 146.605 395.041C149.239 394.579 151.81 394.215 154.33 393.909C160.168 393.239 165.685 392.969 170.698 393.083C183.856 393.312 193.559 396.022 196.671 399.823C197.268 400.535 197.632 401.303 197.725 402.087C198.957 407.695 191.814 413.345 180.381 417.816Z" fill="black"/>
<path d="M196.714 302.206C207.633 311.288 234.556 301.094 247.683 285.298C260.81 269.518 262.613 249.355 251.678 240.279C242.219 232.417 226.328 235.449 213.716 246.65C211.763 248.379 209.892 250.316 208.126 252.424C200.999 260.992 195.031 272.244 192.823 282.198C190.943 290.59 191.727 298.062 196.714 302.206Z" fill="#CECECE"/>
<path d="M130.973 250.57L161.242 280.827L178.534 298.129C191.438 311.012 208.289 317.041 223.146 306.816C223.354 306.697 223.572 306.541 223.779 306.39L240.35 292.479L202.783 272.659L177.418 253.592C167.958 246.514 160.535 244.801 148.951 247.065L130.973 250.57Z" fill="#CECECE"/>
<path d="M36.3185 247.503C37.1081 258.226 49.5648 264.379 77.4858 264.14C82.457 264.104 87.9061 263.85 93.8851 263.403C100.036 262.941 105.931 262.411 111.417 261.778C116.71 261.181 121.614 260.474 126.003 259.618C140.159 256.86 149.036 252.488 148.47 244.767C147.545 232.159 122.404 218.212 91.1788 220.507C68.177 222.184 48.7804 229.194 40.5366 237.809C37.586 240.888 36.0744 244.175 36.3185 247.503Z" fill="black"/>
<path opacity="0.5" d="M36.3185 247.505C37.1081 258.228 49.5648 264.381 77.4858 264.142C82.457 264.106 87.9061 263.851 93.8851 263.405C100.036 262.943 105.931 262.413 111.417 261.78V246.415C111.417 246.415 102.607 254.105 78.0676 253.077C53.5438 252.033 46.1883 246.259 44.1 241.43C43.3468 239.68 41.9755 238.532 40.5366 237.816C37.586 240.89 36.0744 244.177 36.3185 247.505Z" fill="black"/>
<path d="M132.366 228.003C140.743 213.499 139.102 196.875 128.699 190.871C118.297 184.867 103.073 191.758 94.6956 206.261C86.3184 220.765 87.9602 237.39 98.3627 243.393C108.765 249.397 123.989 242.507 132.366 228.003Z" fill="black"/>
<path d="M77.4844 264.138C82.4556 264.102 87.9048 263.848 93.8837 263.401C105.982 262.477 117.057 261.36 126.002 259.616L125.451 241.421L108.808 227.956C108.896 228.315 116.21 244.609 101.25 257.217C96.0966 261.552 87.084 263.489 77.4844 264.138Z" fill="black"/>
<path d="M73.0983 359.151C73.062 359.458 73.0827 359.769 73.0983 360.076C73.0827 360.813 73.1814 361.514 73.4048 362.184C73.5087 362.511 73.6438 362.833 73.8152 363.144C73.8152 363.181 73.8308 363.196 73.8516 363.227C74.0386 363.57 74.2463 363.897 74.5009 364.204C74.7398 364.51 75.0151 364.801 75.306 365.076C75.8878 365.626 76.5735 366.104 77.3631 366.566C77.5864 366.686 77.8254 366.805 78.0644 366.925C78.3033 367.044 78.5631 367.148 78.8176 367.267C79.0046 367.356 79.1968 367.439 79.3838 367.506C85.316 369.838 95.0299 370.3 106.889 368.877C117.221 367.662 129.153 365.024 141.579 360.979C172.497 350.957 195.888 335.712 197.655 325.155C197.862 324.008 197.79 322.928 197.468 321.899C195.462 315.58 189.208 311.535 184.408 307.438C179.525 303.294 174.398 299.317 170.508 294.197C164.835 286.745 164.269 276.947 163.464 267.985C162.742 259.879 160.004 252.583 151.739 249.514C148.706 248.382 145.397 248.144 142.228 248.762L136.914 249.805L108.037 255.543L99.6064 257.22C89.4769 259.225 83.259 269.522 86.2043 279.424L88.7237 287.955L90.1314 292.665C93.0092 302.38 93.4716 312.553 91.5859 322.356C91.5703 322.408 91.5496 322.476 91.534 322.528C90.4223 327.035 88.0899 331.469 85.4511 335.753C80.0227 344.57 73.2542 352.692 73.0983 359.151Z" fill="#CECECE"/>
<path d="M108.039 255.551C108.039 256.049 108.091 256.563 108.21 257.057C109.462 262.623 116.932 265.708 124.937 263.942C132.921 262.161 138.407 256.2 137.155 250.613C137.087 250.338 137.02 250.062 136.916 249.808L108.039 255.551Z" fill="white"/>
<path d="M147.578 233.271C147.833 233.048 148.077 232.824 148.316 232.585C148.181 232.689 147.89 232.928 147.578 233.271Z" fill="#613830"/>
<path d="M102.431 228.588C103.973 234.824 109.63 239.295 117.048 241.045C115.9 242.327 115.251 243.771 115.251 245.292C115.251 249.114 119.349 252.437 125.328 254.031C127.796 254.701 130.575 255.075 133.52 255.075C143.613 255.075 151.79 250.687 151.79 245.292C151.79 244.041 151.343 242.841 150.538 241.746V241.73C150.06 241.06 149.442 240.448 148.72 239.861C148.668 239.824 148.631 239.793 148.585 239.741C145.156 237 146.46 234.549 147.541 233.318C147.556 233.302 147.577 233.266 147.577 233.266C147.883 232.923 148.174 232.685 148.315 232.581C148.351 232.565 148.382 232.529 148.403 232.513C153.031 228.006 155.447 222.403 154.605 216.992C158.683 210.637 159.696 204.245 156.647 200.101C151.935 193.73 139.25 195.012 127.749 202.827C126.445 202.998 125.126 203.253 123.806 203.58C109.459 207.121 99.8957 218.311 102.431 228.588Z" fill="black"/>
<path opacity="0.5" d="M125.336 254.037C127.803 254.707 130.582 255.081 133.528 255.081C143.621 255.081 151.797 250.693 151.797 245.298C151.797 244.047 151.351 242.847 150.545 241.752C148.556 245.402 141.922 247.287 136.733 246.051C130.427 244.545 133.341 234.248 133.476 233.937L129.398 236.196L125.336 254.037Z" fill="black"/>
<path d="M132.566 214.54C132.566 214.54 135.049 202.031 130.701 198.962C126.779 196.194 119.985 199.466 115.361 204.066C110.738 208.662 131.371 212.473 132.566 214.54Z" fill="black"/>
<path d="M161.063 568.094L154.255 467.593L154.255 467.589C154.008 464.4 154.122 461.309 154.598 458.392L154.599 458.387C154.999 455.747 155.625 453.266 156.512 451.023L156.52 451.003L156.526 450.982C156.608 450.707 156.72 450.437 156.843 450.14C156.879 450.054 156.915 449.966 156.952 449.875L156.989 449.784V449.687V449.65V449.535L156.938 449.431L156.46 448.45L156.46 448.45L156.458 448.445L154.66 444.856L147.022 425.498L147.022 425.497L138.014 402.702L138.014 402.702L136.145 397.973C139.451 397.055 142.968 396.228 146.709 395.521C149.33 395.061 151.891 394.699 154.402 394.394C160.091 393.741 165.47 393.47 170.368 393.564L172.973 400.222L172.973 400.222L179.929 417.986L179.929 417.986L183.98 428.356L183.987 428.373L183.995 428.389C184.93 430.349 185.47 432.403 185.636 434.435L185.636 434.437C185.727 435.5 185.712 436.566 185.616 437.615L185.566 438.161H185.595C185.582 438.333 185.567 438.546 185.548 438.797C185.491 439.566 185.407 440.697 185.302 442.146C185.091 445.045 184.792 449.22 184.44 454.322C183.737 464.526 182.823 478.44 181.979 493.281C180.293 522.946 178.885 556.366 180.015 571.226M161.063 568.094L180.015 571.226M161.063 568.094C163.248 568.438 166.392 569.684 168.916 573.695M161.063 568.094L195.843 592.439M180.015 571.226C180.015 571.226 180.015 571.226 180.015 571.226L180.514 571.189L180.015 571.226ZM195.843 592.439C190.89 590.471 185.847 587.677 181.437 584.729C178.438 582.725 175.741 580.655 173.574 578.736C171.399 576.812 169.781 575.06 168.916 573.695M195.843 592.439C196.597 592.739 197.348 593.019 198.095 593.277L197.886 593.734C197.211 593.344 196.528 592.911 195.843 592.439ZM168.916 573.695C168.916 573.694 168.916 573.694 168.916 573.694L168.494 573.961L168.917 573.695C168.917 573.695 168.916 573.695 168.916 573.695Z" fill="white" stroke="black"/>
<path d="M154.09 458.314C170.458 448.017 171.57 440.378 172.084 439.179C172.084 439.179 168.349 439.589 163.908 440.051C158.957 443.323 155.305 450.125 154.09 458.314Z" fill="#070707"/>
<path d="M132.034 235.913H113.012V259.69H132.034V235.913Z" fill="white"/>
<path d="M113.012 236.433V246.403C120.383 245.702 124.461 243.287 124.513 243.251L119.952 237.222L113.012 236.433Z" fill="#342629"/>
<path d="M137.467 225.586C139.347 222.665 139.431 219.372 137.656 218.23C135.88 217.088 132.917 218.529 131.037 221.45C129.157 224.37 129.072 227.663 130.848 228.806C132.623 229.948 135.587 228.506 137.467 225.586Z" fill="white"/>
<path d="M210.798 599.514H180.504L168.322 588.853L167.018 599.514H161.408L158.567 577.123H158.588C158.452 576.069 158.494 575.01 158.743 573.992L160.51 568.519C162.567 568.732 165.87 569.765 168.504 573.956C172.114 579.657 187.828 591.164 201.027 594.695C201.048 594.716 201.085 594.716 201.105 594.731C201.355 594.809 201.604 594.903 201.838 594.98C210.315 597.826 210.798 599.514 210.798 599.514Z" fill="#9C9C9C"/>
<path d="M118.949 202.367C121.884 202.066 124.896 202.538 127.468 203.997C130.351 205.633 132.039 208.411 132.491 213.012C132.782 215.982 132.112 223.324 134.735 220.764L134.688 226.274C135.369 234.068 129.759 243.487 120.491 244.178C112.964 244.733 106.237 237.116 105.604 229.794L105.183 211.833C105.043 205.737 109.417 203.348 115.484 202.725L118.949 202.367Z" fill="white"/>
<path d="M34.8197 494.753C32.051 500.533 27.672 519.47 31.1108 536.73C31.1108 536.767 31.1108 536.824 31.1316 536.865C32.612 545.584 31.3601 546.794 31.3601 546.794L17.0282 520.119L20.6592 504.334L10.6492 508.233L8 503.3L26.3837 490.204C27.246 489.592 28.1914 489.13 29.2251 488.86L34.7938 487.863C35.7028 489.509 36.2067 491.835 34.8197 494.753Z" fill="#9C9C9C"/>
<path d="M118.254 228.94C117.1 228.94 116.695 228.566 116.591 228.441C116.508 228.343 116.472 228.213 116.482 228.088L117.563 217.906C117.589 217.641 117.854 217.475 118.087 217.48C118.352 217.506 118.539 217.745 118.513 218.004L117.464 227.891C117.833 228.016 119.002 228.208 121.89 227.169C122.139 227.081 122.414 227.211 122.503 227.455C122.591 227.704 122.461 227.979 122.217 228.068C120.368 228.737 119.105 228.94 118.254 228.94Z" fill="#404040"/>
<path d="M126.592 228.476C126.691 228.985 126.763 229.442 126.717 230.449C126.691 230.854 126.649 231.28 126.587 231.721C126.275 233.554 125.454 235.522 123.501 236.566C122.925 236.877 122.353 237.07 121.777 237.163C119.694 237.495 117.605 236.446 115.829 233.835C115.522 233.388 115.393 233.211 115.117 232.671C115.117 232.671 116.998 232.832 119.746 231.965C124.322 230.501 126.41 228.709 126.592 228.476Z" fill="white"/>
<path d="M113.681 231.59C118.309 233.195 123.488 230.962 126.787 227.841C126.657 228.007 126.922 228.376 127.171 228.241C126.807 228.381 126.6 227.805 126.968 227.68C126.994 227.69 127.005 227.628 127.207 227.711C127.462 227.903 127.322 228.127 127.322 228.127C124.584 232.545 118.023 235.064 113.395 232.114C113.094 231.922 113.353 231.445 113.681 231.59Z" fill="#797979"/>
<path d="M119.345 236.594C122.394 236.854 124.825 235.072 126.139 232.409C126.285 232.123 126.747 232.274 126.7 232.59C126.487 234.294 125.573 235.841 124.15 236.838C122.726 237.861 120.721 237.918 119.199 237.17C118.898 237.046 119.022 236.568 119.345 236.594Z" fill="#797979"/>
<path d="M109.371 223.64C109.34 223.64 109.309 223.64 109.283 223.634C109.023 223.582 108.852 223.333 108.904 223.074C109.257 221.209 110.364 219.942 111.86 219.688C113.335 219.444 114.789 220.223 115.667 221.734C115.802 221.962 115.724 222.253 115.496 222.388C115.267 222.518 114.971 222.445 114.841 222.217C114.166 221.059 113.08 220.451 112.021 220.633C110.935 220.82 110.119 221.801 109.839 223.255C109.797 223.479 109.6 223.64 109.371 223.64Z" fill="black"/>
<path d="M122.524 221.295C122.492 221.295 122.467 221.295 122.435 221.29C122.176 221.238 122.004 220.988 122.056 220.729C122.409 218.865 123.516 217.598 125.012 217.343C126.472 217.089 127.936 217.878 128.82 219.389C128.955 219.618 128.877 219.908 128.648 220.043C128.42 220.173 128.123 220.101 127.994 219.872C127.318 218.714 126.238 218.101 125.173 218.288C124.087 218.475 123.272 219.457 122.996 220.911C122.944 221.134 122.747 221.295 122.524 221.295Z" fill="black"/>
<path d="M120.55 208.911C123.666 207.82 128.653 208.88 129.843 212.286C129.905 212.525 129.76 212.774 129.521 212.831C129.308 212.899 129.116 212.743 128.954 212.634C126.607 211.185 123.381 211.736 120.799 211.279C119.578 211.118 119.417 209.316 120.55 208.911Z" fill="#2D2D2D"/>
<path d="M113.111 212.446C111.028 213.936 107.984 215.053 106.732 217.457C106.613 217.675 106.337 217.753 106.124 217.634C105.402 216.725 105.989 215.37 106.348 214.554C106.888 212.69 112.955 207.799 113.885 211.091C113.968 211.698 113.568 212.14 113.111 212.446Z" fill="#2D2D2D"/>
<path d="M17.0781 231.861C17.0781 239.281 35.2281 245.294 57.6116 245.294C79.9952 245.294 98.1244 239.281 98.1244 231.861C98.1244 230.921 97.8335 229.992 97.2672 229.104C95.4491 226.206 90.8052 223.657 84.3431 221.772C77.746 219.85 69.2424 218.62 59.9025 218.448C59.1337 218.433 58.3752 218.433 57.6064 218.433C54.3183 218.433 51.1288 218.568 48.0588 218.812C30.288 220.23 17.0781 225.542 17.0781 231.861Z" fill="black"/>
<path d="M74.678 234.812L92.3968 232.756L97.2641 229.105L98.1212 228.472L96.7862 211.222C95.2954 212.079 93.2903 213.055 90.7345 214.016C84.288 216.415 74.4339 218.627 61.1876 218.434C60.7253 218.434 60.2941 218.434 59.9045 218.45C56.9228 218.554 55.6346 219.203 55.4631 220.216C54.7671 224.448 74.678 234.812 74.678 234.812Z" fill="black"/>
<path opacity="0.5" d="M48.0625 218.809C51.0961 219.048 53.4441 219.562 55.4648 220.216C60.7425 221.894 63.8801 224.396 71.0954 224.807C72.1395 224.874 73.1525 224.859 74.1135 224.807C78.3626 222.117 83.23 218.861 86.6065 215.366C80.3522 217.184 71.8694 218.586 61.1893 218.435C60.727 218.435 60.2958 218.435 59.9062 218.451C59.1374 218.435 58.379 218.435 57.6102 218.435C54.3168 218.435 51.1273 218.57 48.0625 218.809Z" fill="black"/>
<path d="M30.491 222.559C37.0206 225.783 42.0906 228.452 41.9192 230.945C41.7581 233.364 36.3038 235.924 29.0573 234.299C21.7745 232.736 16.2422 226.193 17.1824 222.185C18.1019 218.114 24.0134 219.396 30.491 222.559Z" fill="black"/>
<path d="M23.2248 227.218C30.757 232.12 38.9385 232.042 38.8969 235.511C38.8606 238.881 32.8868 242.137 24.6481 239.431C16.3731 236.814 9.7604 227.332 10.576 221.782C11.3655 216.148 15.7602 222.41 23.2248 227.218Z" fill="black"/>
<path d="M125.467 197.116C125.467 197.116 113.633 203.566 105.623 212.715C97.6131 221.864 72.866 231.751 67.9675 231.86C63.0638 231.969 67.313 226.849 72.1076 225.219C76.9022 223.583 89.6238 214.387 95.6288 204.718C101.634 195.05 111.005 189.712 117.399 190.584C120.776 191.036 125.467 197.116 125.467 197.116Z" fill="black"/>
<path d="M69.4636 230.568C66.7417 230.568 64.6534 230.215 63.4535 229.815C63.2457 229.747 63.1106 229.545 63.1262 229.327C63.1418 229.109 63.3028 228.927 63.521 228.891C63.5678 228.88 68.1858 228.018 73.8531 224.399C78.1231 221.699 82.9332 218.474 86.263 215.032C86.6214 214.673 86.9383 214.32 87.2552 213.957C87.4266 213.759 87.7279 213.733 87.9305 213.91C88.1279 214.081 88.1538 214.383 87.9772 214.585C87.6448 214.969 87.3123 215.338 86.9435 215.707C83.5514 219.217 78.6841 222.483 74.3674 225.209C70.7103 227.541 67.5261 228.756 65.6041 229.342C71.474 230.303 85.1981 229.514 98.8287 216.948C109.275 207.315 117.867 201.38 117.95 201.318C118.168 201.167 118.464 201.224 118.615 201.443C118.766 201.661 118.708 201.957 118.49 202.107C118.407 202.164 109.867 208.068 99.4729 217.649C88.1071 228.127 76.601 230.568 69.4636 230.568Z" fill="black"/>
<path d="M154.778 219.755C154.773 219.755 154.768 219.755 154.763 219.755C154.498 219.75 154.29 219.527 154.3 219.262C154.596 209.012 140.265 205.257 137.387 204.608L137.423 204.125L137.594 203.674C140.597 204.349 155.568 208.29 155.251 219.288C155.246 219.553 155.033 219.755 154.778 219.755Z" fill="black"/>
<path d="M141.45 241.9C141.429 241.9 141.408 241.9 141.388 241.895C141.128 241.858 140.941 241.62 140.977 241.36C141.668 236.1 149.252 230.814 149.574 230.59C149.792 230.445 150.089 230.492 150.239 230.715C150.39 230.933 150.338 231.229 150.12 231.38C150.047 231.432 142.567 236.645 141.928 241.49C141.891 241.729 141.684 241.9 141.45 241.9Z" fill="black"/>
<path d="M39.996 228.438C39.9077 228.438 39.8142 228.412 39.7362 228.36C39.6375 228.297 29.8353 221.916 24.5888 220.581C21.5084 219.802 19.1241 219.984 18.0332 221.074C17.3891 221.724 17.228 222.679 17.5501 223.915C17.6176 224.169 17.4618 224.434 17.2072 224.496C16.9475 224.564 16.6878 224.408 16.6254 224.154C16.106 222.175 16.7397 221.017 17.3579 220.394C18.7137 219.034 21.3681 218.764 24.8277 219.647C30.2301 221.017 39.8609 227.285 40.2661 227.55C40.4843 227.695 40.5466 227.991 40.4064 228.209C40.3077 228.36 40.1518 228.438 39.996 228.438Z" fill="black"/>
<path d="M78.0375 248.26C77.9492 248.26 77.866 248.229 77.7881 248.172L77.6635 248.063C76.1622 246.718 72.1935 244.516 62.4485 244.984C45.9348 245.763 33.8989 244.34 25.6603 240.637C25.4213 240.528 25.3122 240.248 25.4213 240.004C25.5304 239.76 25.8109 239.656 26.0551 239.765C34.1535 243.4 46.0491 244.797 62.4069 244.028C69.8819 243.68 75.5285 244.859 78.3076 247.357C78.5154 247.518 78.5881 247.85 78.4271 248.058C78.318 248.182 78.1777 248.26 78.0375 248.26Z" fill="black"/>
<path d="M136.728 202.193C136.708 202.193 136.682 202.193 136.656 202.187C136.396 202.151 136.219 201.912 136.25 201.658C136.266 200.874 133.908 194.372 129.996 192.285C129.762 192.16 129.674 191.87 129.799 191.636C129.923 191.402 130.209 191.314 130.448 191.439C134.749 193.734 137.341 200.811 137.201 201.782C137.165 202.021 136.962 202.193 136.728 202.193Z" fill="black"/>
<path d="M95.7272 212.272C95.6961 212.272 95.6597 212.267 95.6285 212.262C95.3688 212.205 95.2078 211.951 95.2597 211.696C97.9505 199.177 107.072 192.229 107.161 192.161C107.368 192.006 107.67 192.042 107.831 192.255C107.987 192.468 107.945 192.769 107.737 192.925C107.649 192.992 98.8128 199.737 96.1947 211.893C96.148 212.122 95.9454 212.272 95.7272 212.272Z" fill="black"/>
<path d="M173.676 430.859L173.676 430.868C173.752 433.132 173.305 435.343 172.393 437.45L172.392 437.453C170.957 440.818 168.346 443.81 164.772 445.929L162.754 446.958L162.749 446.96L155.852 450.389L155.851 450.39L155.809 450.408L155.642 450.48L154.989 450.761C154.415 451.009 153.57 451.374 152.484 451.844C150.311 452.785 147.173 454.146 143.312 455.828C135.59 459.192 124.977 463.842 113.414 468.984C90.2914 479.265 63.3504 491.519 48.1229 499.391L48.1227 499.391C43.475 501.796 39.8142 505.721 37.758 510.533C36.0667 514.489 34.0448 519.569 32.5672 524.386C31.8285 526.794 31.2231 529.146 30.8641 531.264C30.8524 531.333 30.841 531.402 30.8298 531.47C30.0453 524.535 30.3542 517.561 31.1598 511.494C32.1673 503.907 33.9446 497.786 35.2974 494.963L35.2984 494.96C36.6186 492.172 36.3164 489.863 35.5274 488.135L121.521 433.829L121.521 433.829L121.527 433.825C125.797 431.034 130.368 429.199 134.727 428.288L135.415 428.144L135.053 427.541L134.383 426.424L134.382 426.423L123.931 409.121L123.931 409.121L120.326 403.16L120.321 403.15L120.29 403.093C120.263 403.042 120.222 402.966 120.169 402.867C120.063 402.669 119.907 402.377 119.712 402.006C119.321 401.263 118.768 400.198 118.124 398.916C116.835 396.35 115.18 392.915 113.713 389.43C112.243 385.938 110.974 382.425 110.441 379.695C110.173 378.325 110.101 377.2 110.253 376.389C110.401 375.596 110.738 375.196 111.239 375.055L111.239 375.055C111.319 375.032 111.521 375.029 111.9 375.133C112.26 375.231 112.714 375.406 113.256 375.656C114.339 376.156 115.718 376.928 117.305 377.89C120.437 379.789 124.328 382.397 128.256 385.031L128.409 385.134C132.383 387.798 136.386 390.478 139.643 392.446C141.271 393.429 142.725 394.242 143.904 394.787C144.493 395.059 145.025 395.27 145.484 395.401C145.927 395.528 146.359 395.598 146.724 395.53C149.234 395.089 151.69 394.739 154.099 394.441L156.757 398.813L156.758 398.814L169.57 419.818L169.573 419.823L170.414 421.236L170.417 421.241L171.339 422.83L171.343 422.838L171.348 422.846C171.571 423.2 171.791 423.583 171.948 423.936L171.953 423.946L171.957 423.956C173.083 426.211 173.641 428.578 173.676 430.859Z" fill="white" stroke="black"/>
<path opacity="0.5" d="M73.0983 359.154C73.062 359.46 73.0827 359.772 73.0983 360.078C73.0827 360.815 73.1814 361.516 73.4048 362.186C73.5087 362.513 73.6438 362.835 73.8152 363.147C73.8152 363.183 73.8308 363.199 73.8516 363.23C74.0386 363.573 74.2463 363.9 74.5009 364.206C74.7398 364.513 75.0151 364.803 75.306 365.079C75.8878 365.629 76.5735 366.107 77.3631 366.569C77.5864 366.688 77.8254 366.808 78.0644 366.927C78.3033 367.047 78.5631 367.15 78.8176 367.27C79.0046 367.358 79.1968 367.441 79.3838 367.509C85.316 369.84 95.0299 370.302 106.889 368.88L144.046 352.705L189.38 319.571C189.38 319.571 179.697 313.641 164.596 314.741C161.407 314.965 156.659 314.638 151.075 313.75C134.826 311.164 111.673 303.884 100.858 292.216C98.6662 289.869 96.9831 287.335 95.9754 284.624C95.9754 285.652 95.8715 286.665 95.6689 287.672L93.269 300.643C92.8742 301.121 92.5002 301.62 92.1365 302.082C93.0612 308.832 92.8742 315.686 91.5859 322.364C91.5703 322.416 91.5496 322.484 91.534 322.536C90.4223 327.043 88.0899 331.477 85.4511 335.761C80.0227 344.573 73.2542 352.694 73.0983 359.154Z" fill="#7D7D7D"/>
<path d="M133.274 219.497C133.253 219.497 133.233 219.497 133.212 219.492C132.952 219.455 132.765 219.216 132.801 218.957C133.113 216.553 133.955 214.818 135.295 213.811C137.175 212.388 139.544 212.741 140.817 212.933C141.092 212.975 141.315 213.011 141.461 213.011C141.726 213.011 141.939 213.224 141.939 213.489C141.939 213.754 141.726 213.967 141.461 213.967C141.284 213.967 141.014 213.93 140.676 213.878C139.466 213.702 137.435 213.395 135.871 214.574C134.744 215.426 134.033 216.942 133.752 219.081C133.716 219.32 133.513 219.497 133.274 219.497Z" fill="black"/>
<path d="M172.659 438.151C172.477 438.151 172.306 438.047 172.228 437.876C172.181 437.777 171.21 435.866 167.381 435.249C167.122 435.207 166.945 434.963 166.987 434.698C167.028 434.438 167.277 434.257 167.537 434.303C171.927 435.015 173.054 437.372 173.101 437.471C173.21 437.71 173.106 437.995 172.867 438.104C172.794 438.141 172.727 438.151 172.659 438.151Z" fill="black"/>
<path d="M127.374 430.598C127.192 430.598 127.016 430.494 126.938 430.313C126.834 430.068 126.943 429.788 127.182 429.684C141.758 423.287 149.732 428.277 150.064 428.495C150.288 428.635 150.35 428.936 150.204 429.155C150.064 429.373 149.763 429.44 149.545 429.295C149.467 429.248 141.633 424.383 127.566 430.557C127.504 430.583 127.436 430.598 127.374 430.598Z" fill="black"/>
<path d="M73.8154 363.15C73.8154 363.187 73.8309 363.202 73.8517 363.234C74.179 364.381 75.3945 365.529 77.3632 366.572C77.5866 366.692 77.8256 366.811 78.0645 366.931C78.3035 367.05 78.5632 367.154 78.8178 367.273C79.0048 367.362 79.1969 367.445 79.384 367.512C81.2177 368.234 83.4306 368.779 85.9499 369.138C98.63 370.971 119.32 368.213 141.579 360.985C146.961 359.235 152.119 357.335 156.971 355.315C179.988 345.792 196.2 333.885 197.655 325.161C197.655 324.715 197.572 324.305 197.431 323.925C195.068 317.897 181.614 315.051 146.41 329.045C141.766 330.894 136.743 333.018 131.309 335.489C110.655 344.862 92.6769 350.548 82.5319 355.227C76.423 358.041 73.1504 360.492 73.8154 363.15Z" fill="black"/>
<path d="M73.0938 359.153C75.5456 348.824 102.023 340.786 102.023 340.786L96.9681 332.359L85.7946 335.614L85.4517 335.77C80.0181 344.572 73.2496 352.693 73.0938 359.153Z" fill="#342629"/>
<path d="M180.506 599.996C180.392 599.996 180.277 599.955 180.189 599.877L158.652 580.716C158.455 580.54 158.439 580.238 158.611 580.041C158.787 579.844 159.088 579.828 159.286 580.005L180.823 599.166C181.02 599.342 181.036 599.643 180.864 599.841C180.766 599.939 180.636 599.996 180.506 599.996Z" fill="#342629"/>
<path d="M17.0395 520.592C17.0032 520.592 16.9668 520.587 16.9304 520.581C16.6707 520.519 16.5097 520.265 16.572 520.005C16.6967 519.475 23.0756 493.045 23.3458 491.918C23.4081 491.664 23.6626 491.498 23.9224 491.565C24.1821 491.627 24.3379 491.887 24.2756 492.142C24.2081 492.417 17.6265 519.694 17.507 520.218C17.4551 520.441 17.2577 520.592 17.0395 520.592Z" fill="#342629"/>
<path d="M67.7039 323.142C67.8078 324.684 68.0831 326.211 68.5454 327.701C72.0778 338.907 84.124 345.844 96.0716 342.334L114.357 337.603L121.042 335.874L120.959 335.054L119.603 321.813L116.673 293.393L92.4042 304.101L95.9885 284.639L102.04 257.144L100.378 257.3C84.524 258.686 71.9271 271.174 70.3843 287.006L67.7455 319.247C67.6312 320.535 67.6 321.839 67.7039 323.142Z" fill="#CECECE"/>
<path opacity="0.5" d="M174.901 403.819C168.917 403.767 164.845 404.256 161.198 405.185L156.57 397.869C148.918 396.7 128.882 402.21 123.48 409.391L119.87 403.42C119.87 403.42 106.291 376.439 112.286 374.746C115.761 373.765 142.653 395.797 146.612 395.044C149.245 394.582 151.817 394.218 154.336 393.912C160.175 393.242 165.691 392.972 170.704 393.086L174.901 403.819Z" fill="#D9D9D9"/>
<path d="M171.336 441.756C171.247 441.756 171.154 441.73 171.076 441.678C170.853 441.537 170.79 441.236 170.936 441.018C174.063 436.205 174.25 430.114 171.424 425.118L153.913 394.144C153.783 393.916 153.866 393.62 154.095 393.495C154.323 393.366 154.619 393.443 154.744 393.677L172.255 424.651C175.258 429.958 175.055 436.428 171.736 441.543C171.647 441.678 171.492 441.756 171.336 441.756Z" fill="black"/>
<path d="M106.869 286.245C90.7711 298.998 76.6365 321.492 85.457 332.62C94.2774 343.748 128.822 335.564 144.057 321.799C157.646 309.518 160.81 294.434 151.989 283.306C143.169 272.178 122.967 273.492 106.869 286.245Z" fill="#CECECE"/>
<path d="M196.829 399.779L196.673 399.815C191.868 393.937 171.37 390.712 146.607 395.033C140.228 396.242 134.447 397.8 129.356 399.545L129.392 399.488L113.523 376.157L119.86 403.408C110.718 407.806 105.45 412.76 105.258 416.753L100.261 392.535C98.6871 384.912 94.7859 377.959 89.0823 372.658L86.8538 370.586C86.5473 370.108 86.22 369.625 85.9499 369.127C84.8383 367.185 83.9916 365.133 83.415 362.984C82.7449 360.507 82.4539 357.895 82.5319 355.283V355.226C92.6769 350.542 110.655 344.856 131.309 335.484C136.748 333.028 141.761 330.893 146.41 329.05C147.584 333.91 149.329 338.615 151.656 343.013C151.869 343.454 152.119 343.875 152.347 344.337C154.326 347.868 156.648 351.233 159.303 354.343L196.829 399.779Z" fill="#606060"/>
<path d="M133.664 284.009C133.955 286.475 135.804 289.388 138.754 291.6C140.931 293.225 143.294 294.17 145.372 294.394C147.497 294.617 149.315 294.087 150.323 292.748C151.216 291.585 151.315 289.975 150.801 288.277C150.131 286.137 148.437 283.806 145.985 281.973C143.31 279.969 140.349 278.992 137.98 279.148C136.474 279.236 135.186 279.782 134.417 280.825C133.768 281.698 133.544 282.793 133.664 284.009Z" fill="#342629"/>
<path opacity="0.5" d="M67.7031 323.144C67.807 324.686 68.0823 326.213 68.5446 327.703C72.077 338.909 84.1233 345.846 96.0709 342.336L114.356 337.605L120.953 335.05C122.922 334.209 124.859 333.301 126.677 332.361C143.404 323.621 152.521 316.035 156.089 302.929C156.552 301.267 156.791 299.673 156.879 298.183C152.817 302.809 140.547 313.62 119.602 321.809C114.309 323.881 108.444 325.782 102.034 327.376C79.3235 333.01 70.8355 328.113 67.7031 323.144Z" fill="#7D7D7D"/>
<path d="M236.893 242.933C237.511 245.005 239.496 247.591 242.379 249.751C244.675 251.464 247.059 252.575 249.043 252.955C250.861 253.297 252.316 253.043 253.038 252.098C253.687 251.241 253.62 249.958 252.986 248.515C252.144 246.594 250.295 244.402 247.791 242.517C245.168 240.549 242.41 239.381 240.301 239.194C238.877 239.059 237.729 239.365 237.132 240.17C236.618 240.856 236.566 241.816 236.893 242.933Z" fill="#342629"/>
<path opacity="0.5" d="M85.3015 313.186C86.3145 310.361 89.1767 305.734 93.27 300.645L95.67 287.674C96.1167 285.447 96.0803 283.167 95.5868 280.991C94.283 284.881 91.3688 288.822 87.5664 295.983C83.4314 303.761 84.1847 309.81 85.3015 313.186Z" fill="#7D7D7D"/>
<path opacity="0.5" d="M166.174 285.746L178.443 298.032C191.347 310.915 208.198 316.944 223.055 306.719C214.582 307.145 202.863 301.895 188.23 288.919C176.111 278.176 167.888 270.023 165.041 262.863C163.924 268.273 163.104 276.566 166.174 285.746Z" fill="#7D7D7D"/>
<path opacity="0.5" d="M197.645 268.799C202.974 272.741 206.143 277.294 208.029 281.34C206.694 266.213 212.776 249.903 213.717 246.648C211.763 248.377 209.893 250.314 208.127 252.422C204.101 257.256 200.455 262.958 197.645 268.799Z" fill="#7D7D7D"/>
<path opacity="0.5" d="M82.5426 355.226V355.278C82.4542 357.9 82.7503 360.502 83.436 362.989C98.09 352.318 112.505 348.974 131.834 345.755C141.964 344.077 148.202 343.885 152.368 344.332C152.129 343.885 151.891 343.46 151.667 343.013C149.356 338.61 147.589 333.916 146.421 329.05C141.777 330.899 136.753 333.022 131.32 335.494C110.666 344.862 92.6876 350.553 82.5426 355.226Z" fill="#151515"/>
<path d="M89.6659 344.793C89.4426 344.793 89.24 344.632 89.1984 344.403C89.1517 344.144 89.3231 343.894 89.5776 343.843C89.7023 343.822 101.904 341.501 114.184 337.144C116.766 336.225 118.849 335.415 120.756 334.605C122.75 333.753 124.667 332.855 126.449 331.931C139.124 325.315 146.147 319.967 150.682 313.476C152.91 310.298 154.521 306.809 155.617 302.795C156.037 301.279 156.297 299.716 156.391 298.148C157.071 287.638 149.565 281.427 149.492 281.365C149.31 281.173 135.939 267.054 113.281 282.435C110.226 284.507 107.141 286.968 104.117 289.756C103.167 290.613 102.19 291.548 101.203 292.55C100.268 293.453 99.2707 294.487 98.1435 295.707C96.5696 297.41 95.0579 299.176 93.6398 300.941C93.3385 301.31 93.0476 301.679 92.7671 302.042L92.5074 302.374C89.1361 306.736 86.6686 310.734 85.744 313.341L85.6921 313.492C85.6661 313.564 85.6401 313.632 85.6193 313.71C85.557 313.964 85.2973 314.115 85.0375 314.058C84.783 313.99 84.6272 313.731 84.6895 313.476C84.7155 313.372 84.7518 313.274 84.7882 313.17L84.8349 313.035C85.7959 310.329 88.3153 306.232 91.749 301.793L92.0087 301.46C92.2944 301.092 92.5905 300.713 92.8918 300.344C94.3203 298.563 95.8475 296.787 97.4319 295.063C98.5695 293.827 99.5772 292.784 100.517 291.875C101.51 290.868 102.502 289.917 103.463 289.05C106.517 286.231 109.639 283.738 112.735 281.645C136.095 265.777 149.996 280.524 150.136 280.674C150.162 280.69 158.048 287.196 157.336 298.21C157.243 299.84 156.972 301.471 156.531 303.055C155.409 307.172 153.747 310.76 151.456 314.027C146.822 320.652 139.706 326.089 126.88 332.782C125.078 333.717 123.14 334.626 121.124 335.488C119.202 336.308 117.099 337.123 114.501 338.053C102.149 342.435 89.8737 344.767 89.749 344.788C89.7283 344.788 89.6971 344.793 89.6659 344.793Z" fill="#342629"/>
<path d="M93.1677 301.727C93.1418 301.727 93.1106 301.727 93.0846 301.722C92.8249 301.675 92.6483 301.431 92.695 301.166L92.7989 300.569L95.1988 287.593C95.4014 286.601 95.5001 285.635 95.5001 284.633C95.5157 283.454 95.3858 282.27 95.1209 281.107C95.1105 281.071 95.1105 281.019 95.1105 280.983C94.8508 279.84 94.43 278.656 93.8742 277.566C93.5469 276.891 93.2145 276.309 92.8612 275.785L92.7677 275.634C92.6275 275.411 92.695 275.115 92.9184 274.975C93.1417 274.835 93.4378 274.902 93.5781 275.125L93.6664 275.26C94.0352 275.811 94.3936 276.429 94.7365 277.135C95.3235 278.293 95.7702 279.555 96.0611 280.874C96.0663 280.905 96.0715 280.957 96.0715 280.993C96.3468 282.125 96.4819 283.387 96.4663 284.633C96.4663 285.677 96.3572 286.736 96.1494 287.769L93.6508 301.322C93.5989 301.566 93.3963 301.727 93.1677 301.727Z" fill="#342629"/>
<path d="M166.501 287.177C166.303 287.177 166.122 287.058 166.049 286.86C165.961 286.611 165.872 286.346 165.799 286.097C163.379 278.853 162.994 271.07 164.662 262.98C165.057 261.012 165.488 259.449 165.799 258.306C165.992 257.595 166.194 256.863 166.189 256.691C166.111 256.442 166.251 256.198 166.506 256.12C166.755 256.042 167.036 256.208 167.114 256.458C167.212 256.759 167.103 257.174 166.724 258.561C166.412 259.688 165.992 261.235 165.602 263.172C163.971 271.096 164.345 278.713 166.719 285.812C166.792 286.066 166.875 286.31 166.958 286.544C167.046 286.793 166.916 287.068 166.667 287.156C166.605 287.172 166.553 287.177 166.501 287.177Z" fill="#342629"/>
<path d="M210.8 292.565C210.535 292.565 210.322 292.352 210.322 292.087C210.322 292.04 210.286 287.31 207.59 281.546C205.33 276.696 201.886 272.537 197.356 269.187C196.624 268.627 195.782 268.05 194.847 267.458C194.624 267.318 194.556 267.022 194.702 266.799C194.842 266.575 195.138 266.513 195.362 266.648C196.317 267.256 197.185 267.853 197.933 268.419C202.593 271.862 206.135 276.14 208.462 281.141C211.252 287.097 211.283 291.884 211.283 292.082C211.283 292.352 211.065 292.565 210.8 292.565Z" fill="#342629"/>
<mask id="path-68-inside-1_101_237" fill="white">
<path fill-rule="evenodd" clip-rule="evenodd" d="M141.435 275.27L137.987 279.152L134.663 282.906L133.66 284.012C133.951 286.479 135.8 289.392 138.751 291.604C140.927 293.229 143.291 294.174 145.369 294.398L146.912 292.648L150.802 288.281L153.626 285.1C156.888 282.911 160.584 279.765 164.69 276.037C165.963 274.885 166.29 272.491 165.262 271.198C162.327 267.511 159.044 264.52 155.413 262.49C153.823 261.597 151.257 262.874 150.202 264.733C149.843 265.366 149.49 265.985 149.144 266.589C149.113 264.749 149.112 263.034 149.142 262.203C149.838 254.56 148.519 252.966 147.573 253.075C147.573 253.075 145.35 259.539 144.805 261.321C144.249 263.148 143.392 265.656 142.716 267.521C141.492 271.308 141.422 273.408 141.435 275.27Z"/>
</mask>
<path fill-rule="evenodd" clip-rule="evenodd" d="M141.435 275.27L137.987 279.152L134.663 282.906L133.66 284.012C133.951 286.479 135.8 289.392 138.751 291.604C140.927 293.229 143.291 294.174 145.369 294.398L146.912 292.648L150.802 288.281L153.626 285.1C156.888 282.911 160.584 279.765 164.69 276.037C165.963 274.885 166.29 272.491 165.262 271.198C162.327 267.511 159.044 264.52 155.413 262.49C153.823 261.597 151.257 262.874 150.202 264.733C149.843 265.366 149.49 265.985 149.144 266.589C149.113 264.749 149.112 263.034 149.142 262.203C149.838 254.56 148.519 252.966 147.573 253.075C147.573 253.075 145.35 259.539 144.805 261.321C144.249 263.148 143.392 265.656 142.716 267.521C141.492 271.308 141.422 273.408 141.435 275.27Z" fill="white"/>
<path d="M141.435 275.27L142.183 275.934L142.438 275.647L142.435 275.263L141.435 275.27ZM137.987 279.152L137.24 278.488L137.239 278.489L137.987 279.152ZM134.663 282.906L135.404 283.578L135.411 283.569L134.663 282.906ZM133.66 284.012L132.919 283.341L132.614 283.678L132.667 284.13L133.66 284.012ZM138.751 291.604L138.151 292.404L138.153 292.405L138.751 291.604ZM145.369 294.398L145.262 295.392L145.777 295.447L146.119 295.059L145.369 294.398ZM146.912 292.648L146.165 291.983L146.161 291.986L146.912 292.648ZM150.802 288.281L151.549 288.946L151.55 288.945L150.802 288.281ZM153.626 285.1L153.069 284.27L152.963 284.341L152.879 284.436L153.626 285.1ZM164.69 276.037L164.019 275.296L164.018 275.297L164.69 276.037ZM165.262 271.198L166.044 270.575L166.044 270.575L165.262 271.198ZM155.413 262.49L154.923 263.362L154.925 263.363L155.413 262.49ZM150.202 264.733L151.072 265.227L151.072 265.226L150.202 264.733ZM149.144 266.589L148.144 266.606L148.205 270.241L150.012 267.086L149.144 266.589ZM149.142 262.203L148.146 262.113L148.144 262.14L148.143 262.167L149.142 262.203ZM147.573 253.075L147.459 252.081L146.833 252.153L146.628 252.749L147.573 253.075ZM144.805 261.321L143.848 261.028L143.848 261.03L144.805 261.321ZM142.716 267.521L141.776 267.18L141.77 267.196L141.765 267.213L142.716 267.521ZM140.687 274.606L137.24 278.488L138.735 279.816L142.183 275.934L140.687 274.606ZM137.239 278.489L133.914 282.243L135.411 283.569L138.736 279.815L137.239 278.489ZM133.922 282.235L132.919 283.341L134.401 284.684L135.404 283.578L133.922 282.235ZM132.667 284.13C133 286.95 135.058 290.085 138.151 292.404L139.351 290.804C136.543 288.699 134.902 286.008 134.653 283.895L132.667 284.13ZM138.153 292.405C140.449 294.12 142.979 295.147 145.262 295.392L145.476 293.403C143.603 293.202 141.405 292.338 139.349 290.803L138.153 292.405ZM146.119 295.059L147.662 293.309L146.161 291.986L144.619 293.736L146.119 295.059ZM147.658 293.313L151.549 288.946L150.056 287.616L146.165 291.983L147.658 293.313ZM151.55 288.945L154.374 285.764L152.879 284.436L150.055 287.617L151.55 288.945ZM154.184 285.931C157.51 283.698 161.252 280.509 165.362 276.778L164.018 275.297C159.916 279.02 156.266 282.125 153.069 284.27L154.184 285.931ZM165.361 276.778C166.21 276.009 166.696 274.884 166.831 273.793C166.966 272.708 166.773 271.491 166.044 270.575L164.479 271.82C164.779 272.197 164.936 272.824 164.846 273.547C164.757 274.265 164.442 274.912 164.019 275.296L165.361 276.778ZM166.044 270.575C163.049 266.813 159.671 263.725 155.901 261.617L154.925 263.363C158.416 265.315 161.604 268.209 164.479 271.821L166.044 270.575ZM155.902 261.618C154.722 260.955 153.32 261.159 152.194 261.668C151.048 262.187 149.974 263.109 149.333 264.24L151.072 265.226C151.485 264.498 152.222 263.851 153.019 263.49C153.837 263.12 154.514 263.132 154.923 263.362L155.902 261.618ZM149.333 264.239C148.974 264.871 148.622 265.489 148.276 266.092L150.012 267.086C150.358 266.481 150.712 265.861 151.072 265.227L149.333 264.239ZM150.144 266.572C150.113 264.734 150.112 263.041 150.141 262.239L148.143 262.167C148.112 263.026 148.113 264.765 148.144 266.606L150.144 266.572ZM150.138 262.294C150.489 258.436 150.347 255.985 149.939 254.472C149.735 253.715 149.443 253.106 149.033 252.684C148.596 252.233 148.038 252.014 147.459 252.081L147.688 254.068C147.582 254.08 147.543 254.02 147.597 254.076C147.679 254.161 147.851 254.408 148.008 254.992C148.322 256.159 148.491 258.327 148.146 262.113L150.138 262.294ZM147.573 253.075C146.628 252.749 146.628 252.749 146.628 252.75C146.628 252.75 146.628 252.75 146.628 252.75C146.628 252.75 146.627 252.75 146.627 252.751C146.627 252.751 146.627 252.753 146.626 252.754C146.625 252.757 146.623 252.762 146.621 252.768C146.617 252.781 146.611 252.799 146.602 252.823C146.586 252.871 146.562 252.941 146.531 253.031C146.469 253.212 146.38 253.472 146.271 253.789C146.054 254.423 145.759 255.288 145.447 256.208C144.824 258.041 144.127 260.12 143.848 261.028L145.761 261.613C146.028 260.741 146.714 258.696 147.34 256.851C147.652 255.933 147.947 255.07 148.164 254.436C148.272 254.12 148.361 253.861 148.423 253.681C148.453 253.591 148.478 253.52 148.494 253.473C148.502 253.449 148.508 253.431 148.513 253.418C148.515 253.412 148.516 253.408 148.517 253.405C148.518 253.403 148.518 253.402 148.519 253.401C148.519 253.401 148.519 253.4 148.519 253.4C148.519 253.4 148.519 253.4 148.519 253.4C148.519 253.4 148.519 253.4 147.573 253.075ZM143.848 261.03C143.299 262.835 142.448 265.326 141.776 267.18L143.657 267.861C144.335 265.987 145.199 263.462 145.761 261.611L143.848 261.03ZM141.765 267.213C140.501 271.122 140.421 273.332 140.435 275.277L142.435 275.263C142.422 273.485 142.483 271.494 143.668 267.828L141.765 267.213Z" fill="black" mask="url(#path-68-inside-1_101_237)"/>
<mask id="path-70-inside-2_101_237" fill="white">
<path fill-rule="evenodd" clip-rule="evenodd" d="M257.19 243.78L254.303 247.031L252.984 248.521L250.755 251.04L249.041 252.961C247.056 252.582 244.672 251.471 242.376 249.757C239.493 247.597 237.509 245.011 236.891 242.939L238.693 240.971L240.304 239.206L241.488 237.902L245.629 233.239C246.164 231.515 246.898 229.565 249.111 226.454C250.316 224.881 251.885 222.741 252.965 221.168C254.02 219.631 258.082 214.132 258.082 214.132C259.022 214.314 259.801 216.23 256.84 223.313C256.482 224.326 255.726 226.769 255.067 229.068L257.963 227.901C258.12 227.787 258.297 227.684 258.495 227.593L270.166 222.539L278.208 215.609C278.878 215.032 279.886 215.11 280.458 215.775C280.998 216.403 280.961 217.333 280.4 217.919L273.899 224.71L284.582 216.287C285.272 215.742 286.275 215.861 286.82 216.552C287.34 217.211 287.252 218.156 286.644 218.717L280.097 224.691L285.467 220.806C286.179 220.291 287.176 220.447 287.696 221.164C288.189 221.844 288.059 222.784 287.431 223.319L276.33 232.66C276.205 232.769 276.049 232.847 275.909 232.915L275.103 233.323L276.243 232.999L283.224 227.934C284.814 226.771 286.7 229.077 285.245 230.401L278.528 236.58C278.331 236.767 278.087 236.876 277.838 236.954L265.459 241.492C264.901 241.684 264.39 241.705 263.941 241.601L257.19 243.78Z"/>
</mask>
<path fill-rule="evenodd" clip-rule="evenodd" d="M257.19 243.78L254.303 247.031L252.984 248.521L250.755 251.04L249.041 252.961C247.056 252.582 244.672 251.471 242.376 249.757C239.493 247.597 237.509 245.011 236.891 242.939L238.693 240.971L240.304 239.206L241.488 237.902L245.629 233.239C246.164 231.515 246.898 229.565 249.111 226.454C250.316 224.881 251.885 222.741 252.965 221.168C254.02 219.631 258.082 214.132 258.082 214.132C259.022 214.314 259.801 216.23 256.84 223.313C256.482 224.326 255.726 226.769 255.067 229.068L257.963 227.901C258.12 227.787 258.297 227.684 258.495 227.593L270.166 222.539L278.208 215.609C278.878 215.032 279.886 215.11 280.458 215.775C280.998 216.403 280.961 217.333 280.4 217.919L273.899 224.71L284.582 216.287C285.272 215.742 286.275 215.861 286.82 216.552C287.34 217.211 287.252 218.156 286.644 218.717L280.097 224.691L285.467 220.806C286.179 220.291 287.176 220.447 287.696 221.164C288.189 221.844 288.059 222.784 287.431 223.319L276.33 232.66C276.205 232.769 276.049 232.847 275.909 232.915L275.103 233.323L276.243 232.999L283.224 227.934C284.814 226.771 286.7 229.077 285.245 230.401L278.528 236.58C278.331 236.767 278.087 236.876 277.838 236.954L265.459 241.492C264.901 241.684 264.39 241.705 263.941 241.601L257.19 243.78Z" fill="white"/>
<path d="M254.303 247.031L253.555 246.367L253.554 246.368L254.303 247.031ZM257.19 243.78L256.883 242.828L256.623 242.912L256.442 243.116L257.19 243.78ZM252.984 248.521L252.235 247.858L252.235 247.859L252.984 248.521ZM250.755 251.04L251.501 251.705L251.504 251.702L250.755 251.04ZM249.041 252.961L248.853 253.943L249.41 254.049L249.787 253.627L249.041 252.961ZM242.376 249.757L241.777 250.557L241.778 250.558L242.376 249.757ZM236.891 242.939L236.153 242.264L235.77 242.682L235.932 243.225L236.891 242.939ZM238.693 240.971L239.431 241.647L239.432 241.645L238.693 240.971ZM240.304 239.206L241.042 239.88L241.044 239.878L240.304 239.206ZM241.488 237.902L242.228 238.575L242.236 238.566L241.488 237.902ZM245.629 233.239L246.377 233.903L246.52 233.742L246.584 233.536L245.629 233.239ZM249.111 226.454L248.317 225.846L248.306 225.86L248.296 225.875L249.111 226.454ZM252.965 221.168L253.789 221.734L253.79 221.734L252.965 221.168ZM258.082 214.132L258.272 213.15L257.652 213.031L257.277 213.538L258.082 214.132ZM256.84 223.313L255.918 222.927L255.907 222.953L255.897 222.979L256.84 223.313ZM255.067 229.068L254.106 228.792L253.541 230.761L255.441 229.995L255.067 229.068ZM257.963 227.901L258.336 228.828L258.448 228.783L258.546 228.713L257.963 227.901ZM258.495 227.593L258.097 226.676L258.087 226.68L258.077 226.685L258.495 227.593ZM270.166 222.539L270.564 223.457L270.703 223.396L270.819 223.297L270.166 222.539ZM278.208 215.609L277.556 214.851L277.556 214.851L278.208 215.609ZM280.458 215.775L279.699 216.427L279.699 216.427L280.458 215.775ZM280.4 217.919L281.123 218.611L281.123 218.61L280.4 217.919ZM273.899 224.71L273.176 224.019L274.518 225.496L273.899 224.71ZM284.582 216.287L285.201 217.072L285.201 217.072L284.582 216.287ZM286.82 216.552L287.606 215.933L287.605 215.932L286.82 216.552ZM286.644 218.717L287.318 219.456L287.322 219.452L286.644 218.717ZM280.097 224.691L279.423 223.952L280.683 225.501L280.097 224.691ZM285.467 220.806L284.882 219.995L284.881 219.995L285.467 220.806ZM287.696 221.164L286.886 221.751L286.886 221.751L287.696 221.164ZM287.431 223.319L288.075 224.084L288.079 224.08L287.431 223.319ZM276.33 232.66L275.686 231.895L275.679 231.901L275.671 231.908L276.33 232.66ZM275.909 232.915L275.475 232.014L275.466 232.018L275.457 232.023L275.909 232.915ZM275.103 233.323L274.651 232.431L275.376 234.285L275.103 233.323ZM276.243 232.999L276.517 233.961L276.687 233.912L276.831 233.808L276.243 232.999ZM283.224 227.934L283.812 228.744L283.815 228.741L283.224 227.934ZM285.245 230.401L284.572 229.661L284.568 229.665L285.245 230.401ZM278.528 236.58L277.851 235.844L277.846 235.849L277.841 235.854L278.528 236.58ZM277.838 236.954L277.539 235.999L277.516 236.007L277.493 236.015L277.838 236.954ZM265.459 241.492L265.784 242.438L265.793 242.435L265.803 242.431L265.459 241.492ZM263.941 241.601L264.165 240.627L263.896 240.565L263.634 240.65L263.941 241.601ZM255.051 247.695L257.938 244.444L256.442 243.116L253.555 246.367L255.051 247.695ZM253.732 249.184L255.052 247.694L253.554 246.368L252.235 247.858L253.732 249.184ZM251.504 251.702L253.732 249.184L252.235 247.859L250.006 250.377L251.504 251.702ZM249.787 253.627L251.501 251.705L250.009 250.374L248.295 252.295L249.787 253.627ZM241.778 250.558C244.16 252.336 246.682 253.528 248.853 253.943L249.228 251.979C247.431 251.635 245.184 250.605 242.974 248.956L241.778 250.558ZM235.932 243.225C236.635 245.578 238.799 248.326 241.777 250.557L242.976 248.957C240.188 246.868 238.383 244.444 237.849 242.653L235.932 243.225ZM237.956 240.296L236.153 242.264L237.628 243.615L239.431 241.647L237.956 240.296ZM239.565 238.532L237.954 240.297L239.432 241.645L241.042 239.88L239.565 238.532ZM240.748 237.23L239.563 238.533L241.044 239.878L242.228 238.575L240.748 237.23ZM244.881 232.575L240.74 237.238L242.236 238.566L246.377 233.903L244.881 232.575ZM248.296 225.875C246.014 229.082 245.236 231.13 244.674 232.943L246.584 233.536C247.092 231.899 247.782 230.048 249.926 227.034L248.296 225.875ZM252.141 220.602C251.072 222.158 249.514 224.283 248.317 225.846L249.905 227.062C251.118 225.479 252.697 223.325 253.789 221.734L252.141 220.602ZM258.082 214.132C257.277 213.538 257.277 213.538 257.277 213.538C257.277 213.538 257.277 213.538 257.277 213.538C257.277 213.538 257.277 213.539 257.277 213.539C257.276 213.54 257.275 213.541 257.274 213.542C257.272 213.545 257.27 213.549 257.266 213.554C257.258 213.564 257.246 213.58 257.231 213.6C257.201 213.641 257.157 213.701 257.1 213.778C256.987 213.931 256.824 214.152 256.625 214.422C256.228 214.962 255.686 215.699 255.112 216.483C253.968 218.045 252.678 219.818 252.141 220.602L253.79 221.734C254.306 220.981 255.575 219.236 256.726 217.664C257.299 216.882 257.839 216.147 258.236 215.608C258.434 215.339 258.597 215.118 258.71 214.965C258.766 214.888 258.81 214.829 258.84 214.788C258.855 214.768 258.867 214.752 258.875 214.742C258.878 214.737 258.881 214.733 258.883 214.73C258.884 214.729 258.885 214.728 258.885 214.727C258.886 214.727 258.886 214.727 258.886 214.726C258.886 214.726 258.886 214.726 258.886 214.726C258.886 214.726 258.886 214.726 258.082 214.132ZM257.763 223.698C259.257 220.124 259.858 217.743 259.923 216.176C259.956 215.393 259.859 214.724 259.594 214.198C259.311 213.635 258.843 213.261 258.272 213.15L257.892 215.114C257.791 215.094 257.773 215.027 257.808 215.097C257.861 215.202 257.95 215.489 257.925 216.093C257.875 217.3 257.384 219.419 255.918 222.927L257.763 223.698ZM256.028 229.343C256.686 227.049 257.435 224.63 257.783 223.646L255.897 222.979C255.529 224.022 254.766 226.489 254.106 228.792L256.028 229.343ZM257.589 226.973L254.693 228.14L255.441 229.995L258.336 228.828L257.589 226.973ZM258.077 226.685C257.824 226.801 257.591 226.936 257.379 227.089L258.546 228.713C258.649 228.639 258.77 228.567 258.913 228.502L258.077 226.685ZM269.769 221.622L258.097 226.676L258.892 228.511L270.564 223.457L269.769 221.622ZM277.556 214.851L269.513 221.782L270.819 223.297L278.861 216.366L277.556 214.851ZM281.216 215.123C280.284 214.039 278.645 213.914 277.556 214.851L278.86 216.367C279.112 216.15 279.488 216.182 279.699 216.427L281.216 215.123ZM281.123 218.61C282.035 217.657 282.096 216.147 281.216 215.123L279.699 216.427C279.899 216.66 279.888 217.008 279.678 217.228L281.123 218.61ZM274.621 225.402L281.123 218.611L279.678 217.228L273.176 224.019L274.621 225.402ZM283.962 215.502L273.28 223.925L274.518 225.496L285.201 217.072L283.962 215.502ZM287.605 215.932C286.719 214.809 285.088 214.613 283.962 215.502L285.201 217.072C285.457 216.87 285.831 216.913 286.036 217.171L287.605 215.932ZM287.322 219.452C288.306 218.544 288.455 217.011 287.606 215.933L286.035 217.17C286.225 217.412 286.197 217.768 285.966 217.982L287.322 219.452ZM280.771 225.43L287.318 219.456L285.97 217.978L279.423 223.952L280.771 225.43ZM284.881 219.995L279.511 223.881L280.683 225.501L286.053 221.616L284.881 219.995ZM288.505 220.577C287.661 219.412 286.039 219.159 284.882 219.995L286.053 221.616C286.319 221.424 286.691 221.482 286.886 221.751L288.505 220.577ZM288.079 224.08C289.094 223.216 289.313 221.691 288.505 220.577L286.886 221.751C287.065 221.997 287.024 222.352 286.783 222.557L288.079 224.08ZM276.974 233.425L288.075 224.084L286.787 222.554L275.686 231.895L276.974 233.425ZM276.343 233.816C276.474 233.752 276.748 233.623 276.988 233.413L275.671 231.908C275.674 231.906 275.662 231.916 275.626 231.937C275.589 231.958 275.544 231.981 275.475 232.014L276.343 233.816ZM275.555 234.215L276.361 233.807L275.457 232.023L274.651 232.431L275.555 234.215ZM275.376 234.285L276.517 233.961L275.97 232.037L274.83 232.361L275.376 234.285ZM276.831 233.808L283.812 228.744L282.637 227.125L275.656 232.189L276.831 233.808ZM283.815 228.741C283.992 228.612 284.126 228.605 284.225 228.624C284.346 228.648 284.487 228.728 284.602 228.868C284.718 229.009 284.767 229.163 284.767 229.286C284.766 229.386 284.733 229.514 284.572 229.661L285.918 231.14C287.125 230.042 286.896 228.513 286.15 227.601C285.404 226.689 283.95 226.164 282.634 227.127L283.815 228.741ZM284.568 229.665L277.851 235.844L279.206 237.316L285.922 231.137L284.568 229.665ZM277.841 235.854C277.801 235.891 277.722 235.942 277.539 235.999L278.136 237.908C278.452 237.81 278.861 237.643 279.216 237.306L277.841 235.854ZM277.493 236.015L265.115 240.553L265.803 242.431L278.182 237.893L277.493 236.015ZM265.134 240.546C264.737 240.683 264.417 240.685 264.165 240.627L263.717 242.576C264.363 242.725 265.065 242.685 265.784 242.438L265.134 240.546ZM257.497 244.731L264.248 242.553L263.634 240.65L256.883 242.828L257.497 244.731Z" fill="black" mask="url(#path-70-inside-2_101_237)"/>
<path opacity="0.5" d="M236.887 242.933C237.505 245.005 239.489 247.591 242.372 249.751C244.668 251.465 247.053 252.576 249.037 252.955L250.751 251.034C248.71 250.587 246.331 249.647 243.931 247.814C241.001 245.571 239.474 243.037 238.684 240.96L236.887 242.933Z" fill="#F5F5F5"/>
<path opacity="0.5" d="M133.664 284.013C133.955 286.479 135.804 289.392 138.755 291.604C140.931 293.23 143.295 294.175 145.373 294.398L146.916 292.648C145.201 292.768 142.495 292.321 138.999 289.616C136.033 287.336 134.973 284.87 134.661 282.902L133.664 284.013Z" fill="#ECECEC"/>
<path opacity="0.5" d="M109.038 394.71L109.001 394.866C108.866 394.845 108.996 394.752 109.038 394.71Z" fill="#C97125"/>
<path d="M241.238 526.06C242.377 526.06 243.3 525.137 243.3 523.998C243.3 522.86 242.377 521.937 241.238 521.937C240.099 521.937 239.176 522.86 239.176 523.998C239.176 525.137 240.099 526.06 241.238 526.06Z" fill="white"/>
<path d="M220.244 80L220.61 82.9442C221.341 89.4461 224.268 94.4758 228.171 95.948L230 96.684L228.171 97.2974C224.268 98.6468 221.22 103.677 220.244 110.056L219.756 113L219.39 110.056C218.659 103.554 215.732 98.5242 211.829 97.052L210 96.316L211.829 95.7026C215.732 94.3532 218.78 89.3234 219.756 82.9442L220.244 80Z" fill="#FFC430"/>
<path d="M254.388 10L255.306 16.1988C257.345 29.6127 263.971 39.9779 272.228 42.8233L276 44.1443L272.228 45.567C264.073 48.7172 257.854 59.3873 256.325 72.8012L255.612 79L254.694 72.8012C252.655 59.3873 246.029 49.0221 237.772 46.1767L234 44.8557L237.772 43.433C245.927 40.2828 252.146 29.6127 253.675 16.1988L254.388 10Z" fill="#FFC430"/>
<path d="M0 600H300" stroke="#111111" stroke-width="2"/>
</svg>
