<svg width="1334" height="354" viewBox="0 0 1334 354" fill="none" xmlns="http://www.w3.org/2000/svg">
<path d="M1188.87 20.0653C1189.5 20.1738 1190.14 20.2823 1190.78 20.3948C1200.93 22.2011 1211 24.4532 1220.96 27.1433C1221.97 27.4147 1222.98 27.6976 1223.99 27.9806C1224.29 27.7946 1224.59 27.6162 1224.89 27.4418C1225.18 25.7091 1225.45 23.9687 1225.68 22.2244C1226.08 19.1892 1226.69 15.9177 1225.85 12.898C1225.13 10.3087 1223.31 8.33567 1221.08 6.92859C1215.95 3.69578 1209.23 2.42047 1203.34 1.46691C1200.14 0.94749 1196.91 0.571501 1193.68 0.265276C1190.75 -0.0138156 1187.68 -0.358806 1184.91 0.89323C1178.5 3.78493 1178.49 11.5569 1176.5 17.3558C1176.39 17.5302 1176.3 17.7356 1176.24 17.9721C1176.23 18.0225 1176.21 18.069 1176.2 18.1194C1177.51 18.2977 1178.82 18.4799 1180.13 18.6737C1183.04 19.0962 1185.96 19.5613 1188.87 20.0653Z" fill="#888888"/>
<path d="M1185.18 35.1562C1185.82 35.2725 1186.45 35.381 1187.09 35.4973C1192.55 36.4935 1198.01 37.5401 1203.46 38.6332C1204.09 38.7611 1204.73 38.8813 1205.36 39.0092C1208.98 39.7418 1212.59 40.5016 1216.21 41.2768C1214.54 37.3502 1217.21 33.5088 1220.19 30.8148C1220.76 30.2992 1221.34 29.8263 1221.9 29.4038C1221.45 29.2798 1221 29.1596 1220.56 29.0394C1210.58 26.3415 1200.49 24.0817 1190.31 22.2715C1189.68 22.1591 1189.04 22.0505 1188.4 21.9381C1185.47 21.4342 1182.53 20.9652 1179.58 20.5349C1178.3 20.3488 1177.02 20.1666 1175.73 19.9961C1174.67 24.322 1173.61 28.6441 1172.55 32.97C1173.83 33.1832 1175.11 33.4002 1176.38 33.6173C1179.31 34.1135 1182.25 34.629 1185.18 35.1562Z" fill="#888888"/>
<path d="M1157.16 158.305C1156.2 162.274 1155.23 166.243 1154.26 170.209C1147.14 199.444 1140.01 228.678 1132.89 257.917C1135.06 255.801 1138.08 254.607 1141.21 255.018C1144.88 255.498 1147.84 258.107 1149.17 261.414C1152.16 249.137 1155.15 236.865 1158.14 224.589C1163.1 204.254 1168.05 183.923 1173.01 163.588C1170.28 163.073 1167.59 162.394 1164.96 161.499C1162.29 160.596 1159.7 159.502 1157.16 158.305Z" fill="#E5E5E5"/>
<path d="M1176.94 142.43C1177.37 142.341 1177.8 142.251 1178.23 142.162C1179.45 137.146 1180.67 132.127 1181.89 127.111C1188.93 98.2441 1195.96 69.3736 1203 40.507C1197.55 39.4139 1192.09 38.3673 1186.63 37.3711C1184.96 44.2243 1183.29 51.0776 1181.62 57.9308C1182.42 58.0355 1183.19 58.2332 1183.89 58.5704C1185.64 59.4116 1186.5 61.4582 1185.33 62.9894C1189.21 65.4043 1195.81 70.3271 1191.75 73.4282C1191.56 73.5716 1191.37 73.6801 1191.17 73.7732C1192.07 74.7306 1192.66 75.9129 1192.37 77.3161C1191.99 79.1418 1190.36 79.793 1188.71 79.9209C1188.8 80.3667 1188.77 80.8435 1188.58 81.3513C1187.54 84.1306 1183.8 83.0762 1181.41 82.3823C1181.26 82.6537 1181 82.8746 1180.63 82.9212C1178.91 83.146 1177.18 83.2584 1175.45 83.2739C1171.68 98.7674 1167.9 114.261 1164.12 129.754C1168.89 133.289 1172.64 138.468 1176.94 142.43Z" fill="#E5E5E5"/>
<path d="M1193.02 165.092C1191.7 165.096 1190.37 165.085 1189.05 165.058C1184.3 164.965 1179.56 164.662 1174.92 163.914C1173.42 170.066 1171.92 176.217 1170.42 182.365C1163.98 208.821 1157.53 235.272 1151.09 261.728C1154.09 259.829 1158.23 259.658 1161.69 260.15C1162.16 260.216 1162.62 260.298 1163.07 260.391C1164.35 260.643 1165.59 260.991 1166.8 261.429C1175.4 231.737 1183.56 201.917 1191.27 171.984C1191.86 169.686 1192.44 167.387 1193.02 165.092Z" fill="#E5E5E5"/>
<path d="M1130.71 258.702C1134.47 243.279 1138.23 227.851 1141.99 212.427C1146.45 194.1 1150.92 175.773 1155.39 157.446C1155.31 157.412 1155.24 157.377 1155.17 157.338C1152.5 156.016 1149.68 154.714 1147.1 153.155C1146.64 152.876 1146.17 152.589 1145.73 152.291C1145.02 151.814 1144.31 151.217 1143.76 150.523C1143.3 152.415 1142.84 154.303 1142.38 156.194C1142.99 156.113 1143.72 156.609 1143.53 157.408C1137.69 181.82 1131.86 206.233 1126.04 230.646C1125.78 231.696 1124.38 231.468 1124.15 230.619C1122.61 236.898 1121.07 243.182 1119.53 249.461C1120.78 249.872 1121.98 250.407 1123.12 251.051C1126.28 252.845 1128.93 255.489 1130.71 258.702Z" fill="#E5E5E5"/>
<path d="M1230.7 56.1872C1232.62 56.8655 1234.54 57.5438 1236.46 58.2182C1237.63 58.6329 1238.14 56.7647 1236.97 56.3538C1235.59 55.8655 1234.2 55.3732 1232.81 54.8848C1234.52 53.3344 1236.24 51.784 1237.95 50.2375C1238.88 49.4003 1237.51 48.036 1236.59 48.8693C1234.48 50.7685 1232.38 52.6716 1230.28 54.5709C1229.7 55.0903 1230.05 55.9585 1230.7 56.1872Z" fill="#070707"/>
<path d="M1242.2 57.6935C1240.01 59.6664 1237.11 60.3292 1234.28 59.554C1233.08 59.2246 1232.56 61.0889 1233.76 61.4184C1237.27 62.3796 1240.87 61.4959 1243.56 59.0579C1244.49 58.2246 1243.11 56.8602 1242.2 57.6935Z" fill="#070707"/>
<path d="M1242.24 51.5961C1242.22 52.5574 1243.56 52.9101 1244.04 52.0845C1244.59 51.1233 1244.72 49.9643 1244.35 48.914C1244.12 48.2744 1243.25 47.9023 1242.73 48.4876C1242.27 49.007 1242.07 49.6659 1242.26 50.3442C1242.25 50.7589 1242.24 51.1775 1242.24 51.5961Z" fill="#070707"/>
<path d="M1230.45 51.949C1231.04 50.9877 1231.18 49.8133 1230.82 48.7474C1230.45 47.6699 1228.85 48.0109 1228.9 48.9877C1228.88 49.0342 1228.86 49.0807 1228.84 49.135C1228.56 49.9838 1228.54 50.8404 1228.69 51.7164C1228.83 52.573 1230.05 52.6079 1230.45 51.949Z" fill="#070707"/>
<path d="M1257.22 50.8557C1258.39 51.2084 1258.41 52.7433 1257.23 53.1038C1256.04 53.4681 1256.55 55.3325 1257.74 54.9681C1260.75 54.0495 1260.75 49.9061 1257.74 48.9913C1256.55 48.6309 1256.03 50.4952 1257.22 50.8557Z" fill="#070707"/>
<path d="M1170.04 59.4775C1171.26 58.9929 1172.52 58.7914 1173.81 58.8107C1173.93 58.6945 1174.08 58.6053 1174.29 58.5665C1175.89 58.2797 1177.79 57.9076 1179.65 57.8533C1181.34 50.9148 1183.03 43.9724 1184.72 37.0338C1181.79 36.5067 1178.86 35.9911 1175.92 35.4911C1174.64 35.274 1173.37 35.0569 1172.09 34.8438C1169.69 44.643 1167.29 54.4383 1164.89 64.2375C1165.51 63.1677 1166.25 62.1792 1167.16 61.3303C1168.07 60.4814 1169.03 59.8806 1170.04 59.4775Z" fill="#E5E5E5"/>
<path d="M1136.67 296.82C1138.22 297.014 1139.77 297.142 1141.33 297.216C1146.45 290.928 1151.46 284.544 1156.35 278.071C1159.63 273.489 1162.98 268.954 1165.99 264.197C1166.01 264.151 1166.03 264.104 1166.04 264.054C1166.12 263.802 1166.19 263.546 1166.26 263.294C1165.19 262.899 1164.09 262.577 1162.95 262.337C1162.82 262.306 1162.68 262.279 1162.53 262.252C1158.45 261.453 1152.85 261.445 1150.25 265.128C1150.09 265.36 1149.93 265.605 1149.79 265.864C1149.41 266.578 1148.42 266.415 1148.1 265.798C1148.03 265.674 1147.99 265.531 1147.99 265.376C1148.03 261.43 1145.2 257.635 1141.21 256.96C1137.35 256.309 1133.42 258.86 1132.13 262.469C1132.03 262.744 1131.85 262.938 1131.63 263.046C1131.14 263.298 1130.48 263.112 1130.26 262.469C1130.17 262.201 1130.08 261.938 1129.97 261.678C1128.55 258.026 1125.91 254.999 1122.62 253.007C1121.5 252.324 1120.3 251.766 1119.05 251.344L1118.93 251.832C1119.02 254.266 1119.03 256.712 1119.24 259.127C1119.77 265.236 1120.01 271.357 1120.59 277.466C1121.08 282.683 1121.52 287.905 1122.03 293.122C1123.34 293.63 1124.67 294.095 1126.01 294.514C1129.49 295.599 1133.06 296.371 1136.67 296.82Z" fill="#E5E5E5"/>
<path d="M1153.8 125.794C1154.74 125.837 1155.63 125.973 1156.34 126.12C1158.57 126.589 1160.57 127.461 1162.41 128.597C1163.52 124.05 1164.63 119.499 1165.74 114.953C1168.31 104.386 1170.89 93.8191 1173.46 83.2485C1171.69 83.1787 1169.92 83.0082 1168.17 82.7097C1167.04 82.5198 1165.73 82.3182 1164.55 81.915C1163.05 81.4073 1161.75 80.57 1161.28 79.0117C1158.75 89.3342 1156.22 99.6606 1153.69 109.983C1152.33 115.515 1150.98 121.042 1149.62 126.574C1150.75 125.887 1152.32 125.729 1153.8 125.794Z" fill="#E5E5E5"/>
<path d="M1219.89 50.8487C1219.64 48.7284 1219.51 46.6081 1219.46 44.5575C1218.9 44.3288 1218.37 44.0187 1217.9 43.6234C1217.77 43.5962 1217.63 43.5652 1217.5 43.5381C1213.31 42.6272 1209.11 41.7395 1204.9 40.8867C1201.33 55.5584 1197.75 70.2262 1194.18 84.8979C1189.56 103.841 1184.94 122.785 1180.33 141.732C1185.45 140.666 1190.58 139.604 1195.7 138.538C1197.1 138.247 1198.5 137.956 1199.9 137.666C1201.48 131.227 1203.03 124.781 1204.57 118.327C1204.93 116.838 1205.29 115.35 1205.64 113.861C1208.37 102.318 1211.05 90.7627 1213.65 79.1882C1215.78 69.7494 1217.86 60.303 1219.89 50.8487Z" fill="#E5E5E5"/>
<path d="M1147.25 136.266C1147.08 136.967 1146.9 137.669 1146.73 138.374C1147.3 137.835 1147.96 137.494 1148.68 137.316C1148.17 137.01 1147.68 136.665 1147.25 136.266Z" fill="#E5E5E5"/>
<path d="M1146.33 144.467C1146 144.103 1145.73 143.712 1145.53 143.289C1145.43 143.719 1145.32 144.146 1145.22 144.576C1145.57 144.463 1145.95 144.425 1146.33 144.467Z" fill="#E5E5E5"/>
<path d="M1331.27 117.511C1325.43 93.4123 1310.75 72.7324 1290.71 58.332C1280.5 50.9943 1269.31 45.1837 1257.91 39.9159C1257.3 34.4619 1255.56 29.1515 1252.75 24.403C1251.53 22.3525 1249.48 18.232 1246.6 18.3793C1244.79 18.4685 1243.98 19.6817 1243.75 21.1315C1241.68 18.8445 1238.8 16.7009 1236.35 17.8599C1234.97 18.5111 1234.47 20.1818 1234.78 21.5927C1234.96 22.43 1235.41 23.1084 1235.98 23.6782C1232.08 24.217 1228.3 25.4767 1224.89 27.4381C1224.59 27.6126 1224.29 27.7909 1223.99 27.977C1222.98 27.694 1221.97 27.4149 1220.96 27.1397C1211 24.4495 1200.93 22.2013 1190.78 20.3911C1190.14 20.2787 1189.51 20.1701 1188.87 20.0616C1185.96 19.5616 1183.04 19.0964 1180.12 18.6661C1178.82 18.4762 1177.51 18.2901 1176.2 18.1118C1176.18 18.1816 1176.16 18.2514 1176.15 18.3212C1176.13 18.3638 1176.12 18.4103 1176.11 18.4529C1175.99 18.9646 1175.86 19.4763 1175.74 19.9918C1177.02 20.1663 1178.3 20.3446 1179.59 20.5306C1182.53 20.9609 1185.47 21.4299 1188.41 21.9338C1189.04 22.0424 1189.68 22.1509 1190.32 22.2672C1200.49 24.0774 1210.58 26.3373 1220.56 29.0352C1221.01 29.1553 1221.46 29.2755 1221.91 29.3995C1221.34 29.822 1220.76 30.295 1220.19 30.8105C1217.22 33.5006 1214.54 37.342 1216.21 41.2726C1212.6 40.4973 1208.98 39.7376 1205.36 39.0049C1204.73 38.877 1204.09 38.7569 1203.46 38.6289C1198.02 37.5358 1192.56 36.4892 1187.09 35.493C1186.46 35.3767 1185.82 35.2682 1185.19 35.1519C1182.26 34.6247 1179.32 34.1092 1176.39 33.6092C1175.11 33.3921 1173.84 33.175 1172.56 32.9618C1172.41 33.5859 1172.26 34.21 1172.11 34.8379C1173.38 35.0511 1174.66 35.2682 1175.93 35.4853C1178.87 35.9853 1181.8 36.5009 1184.74 37.028C1183.05 43.9666 1181.35 50.909 1179.66 57.8475C1177.81 57.9018 1175.9 58.2739 1174.31 58.5607C1174.09 58.5995 1173.94 58.6887 1173.83 58.8049C1172.54 58.7894 1171.27 58.9871 1170.06 59.4717C1169.05 59.8748 1168.08 60.4756 1167.18 61.3206C1166.27 62.1695 1165.53 63.158 1164.91 64.2278C1164.06 65.6853 1163.44 67.2862 1162.94 68.8716C1162.04 71.6587 1160.68 75.4845 1161.16 78.4538C1161.19 78.6476 1161.23 78.8298 1161.29 79.0042C1161.76 80.5663 1163.06 81.3997 1164.56 81.9075C1165.75 82.3107 1167.06 82.5122 1168.18 82.7022C1169.94 82.9967 1171.71 83.1712 1173.47 83.241C1170.9 93.8077 1168.32 104.374 1165.75 114.945C1164.64 119.492 1163.53 124.043 1162.42 128.589C1160.59 127.454 1158.59 126.582 1156.35 126.113C1155.65 125.965 1154.75 125.83 1153.81 125.787C1152.33 125.721 1150.76 125.88 1149.64 126.562C1148.87 127.027 1148.32 127.733 1148.16 128.776C1148.07 129.357 1148.15 129.834 1148.34 130.233C1146.38 130.923 1145.13 133.063 1146.42 135.245C1146.65 135.621 1146.94 135.954 1147.26 136.257C1147.69 136.656 1148.18 136.997 1148.7 137.307C1147.97 137.482 1147.31 137.823 1146.75 138.365C1146.28 138.807 1145.88 139.381 1145.57 140.125C1145.08 141.331 1145.13 142.37 1145.54 143.273C1145.74 143.695 1146.01 144.087 1146.34 144.451C1145.96 144.409 1145.58 144.451 1145.23 144.56C1144.23 144.862 1143.39 145.695 1143 146.785C1142.49 148.184 1142.94 149.459 1143.77 150.514C1144.32 151.208 1145.02 151.804 1145.73 152.281C1146.18 152.58 1146.64 152.867 1147.11 153.146C1149.69 154.7 1152.5 156.006 1155.17 157.328C1155.25 157.363 1155.32 157.402 1155.39 157.437C1150.93 175.764 1146.46 194.091 1141.99 212.418C1138.23 227.841 1134.47 243.269 1130.72 258.693C1128.94 255.479 1126.28 252.836 1123.13 251.045C1121.99 250.401 1120.78 249.866 1119.53 249.456C1119.38 250.08 1119.23 250.708 1119.07 251.332C1120.32 251.754 1121.52 252.312 1122.64 252.995C1125.93 254.983 1128.57 258.014 1129.99 261.666C1130.09 261.925 1130.2 262.189 1130.28 262.457C1130.5 263.104 1131.16 263.286 1131.65 263.034C1131.87 262.926 1132.05 262.732 1132.15 262.457C1133.44 258.844 1137.37 256.297 1141.23 256.948C1145.22 257.623 1148.05 261.418 1148.01 265.364C1148.01 265.523 1148.05 265.662 1148.12 265.786C1148.44 266.399 1149.44 266.565 1149.82 265.852C1149.96 265.592 1150.11 265.344 1150.27 265.116C1152.87 261.433 1158.46 261.441 1162.56 262.239C1162.7 262.267 1162.83 262.294 1162.97 262.325C1164.11 262.565 1165.21 262.891 1166.28 263.282C1166.46 262.662 1166.64 262.042 1166.82 261.422C1165.61 260.984 1164.36 260.635 1163.09 260.383C1162.63 260.294 1162.17 260.208 1161.71 260.142C1158.24 259.654 1154.11 259.825 1151.1 261.72C1157.55 235.264 1163.99 208.813 1170.44 182.357C1171.94 176.206 1173.44 170.054 1174.94 163.906C1179.58 164.654 1184.31 164.957 1189.06 165.05C1190.39 165.077 1191.72 165.085 1193.04 165.085C1198.64 165.073 1204.23 164.864 1209.68 164.821C1217.51 164.763 1225.34 164.709 1233.16 164.65C1237.14 164.623 1241.12 164.592 1245.1 164.565C1248.57 164.542 1252.16 164.643 1255.53 163.654C1249.3 185.307 1251.29 208.01 1252.02 230.221C1252.2 235.943 1252.12 241.664 1252.25 247.386C1252.32 250.82 1252.61 254.464 1253.81 257.743C1250.79 259.832 1247.78 261.918 1244.76 264.007C1241.74 266.096 1238.34 268.007 1235.63 270.504C1233.68 272.306 1232.27 275.147 1233.54 277.745C1234.58 279.857 1236.93 280.601 1239.13 280.764C1242.38 281.004 1245.8 280.268 1249.01 279.764C1252.85 279.159 1256.69 278.33 1260.32 276.872C1266.14 274.531 1271.36 270.573 1274.06 264.778C1274.17 264.55 1274.26 264.313 1274.36 264.081C1274.42 263.484 1274.47 262.887 1274.52 262.294C1275.76 247.781 1276.91 233.222 1278.99 218.798C1279.32 216.507 1279.65 214.216 1279.98 211.922C1280.58 205.382 1281.48 198.87 1282.7 192.412C1283.43 186.811 1284.15 181.179 1285.35 175.682C1285.49 175.043 1286.53 175.186 1286.49 175.837C1285.99 184.086 1284.65 192.331 1283.74 200.545C1282.11 215.135 1280.98 229.768 1279.36 244.358C1278.56 251.603 1277.86 258.859 1277.18 266.116C1276.79 270.333 1276.51 274.659 1275.98 278.927C1276.05 282.978 1276.96 286.908 1279.73 290.152C1279.74 290.164 1279.75 290.176 1279.76 290.187C1248.66 287.734 1217.64 294.432 1188.02 303.518C1186.7 303.925 1185.37 304.332 1184.05 304.743C1168.49 305.731 1152.99 307.813 1137.66 310.425C1134.76 310.922 1131.85 311.441 1128.95 311.972C1132.64 307.708 1136.27 303.39 1139.85 299.033C1140.35 298.424 1140.85 297.816 1141.35 297.203C1139.79 297.13 1138.24 297.002 1136.69 296.808C1133.08 296.358 1129.51 295.587 1126.03 294.506C1124.7 294.087 1123.37 293.622 1122.06 293.114C1122.18 294.366 1122.31 295.618 1122.44 296.87C1122.76 299.847 1123.17 302.816 1123.45 305.797C1123.69 307.848 1123.93 309.898 1124.18 311.945C1124.25 312.488 1124.49 312.91 1124.82 313.212C1124.68 313.821 1125.18 314.627 1126.01 314.472C1142.52 311.379 1159.21 308.743 1175.97 307.278C1165.18 310.736 1154.44 314.499 1144.15 319.151C1137.38 322.209 1130.8 325.756 1124.74 330.063C1120.26 333.233 1113.28 337.741 1114.06 344.122C1114.9 351.06 1122.57 353.115 1128.4 353.568C1136.37 354.192 1144.42 354.099 1152.39 353.522C1168.4 352.355 1184.21 349.087 1199.58 344.49C1207.33 342.172 1214.98 339.521 1222.53 336.617C1229.49 333.939 1236.82 331.357 1243.28 327.582C1247.81 324.934 1255.07 319.476 1253.15 313.313C1252.37 310.813 1250.05 309.352 1247.71 308.514C1244.25 307.274 1240.37 306.933 1236.75 306.413C1221.89 304.285 1206.92 303.766 1191.97 304.34C1218.47 296.401 1245.91 290.544 1273.68 291.73C1275.46 291.808 1277.23 291.916 1278.99 292.052C1275.48 299.568 1271.76 307.038 1268.56 314.682C1267.32 317.662 1266.65 321.108 1268.83 323.833C1270.46 325.876 1273.13 326.927 1275.7 326.985C1282.58 327.144 1287.89 320.349 1291.7 315.492C1296.31 309.611 1300.05 303.099 1302.79 296.149C1308.8 280.896 1309.37 264.294 1309.94 248.11C1310.24 239.827 1310.53 231.524 1311.57 223.291C1312.61 215.112 1314.58 207.189 1317.46 199.463C1318.7 196.118 1320.06 192.792 1321.45 189.459C1333.43 167.705 1337.13 141.703 1331.27 117.511ZM1219.44 306.561C1227.29 307.069 1235.11 307.96 1242.86 309.34C1245.58 309.825 1249.23 310.391 1250.84 312.941C1252.99 316.348 1249.53 320.29 1247.12 322.465C1241.89 327.175 1234.8 329.632 1228.39 332.233C1221.46 335.044 1214.44 337.66 1207.34 340.017C1192.94 344.796 1178.14 348.533 1163.08 350.502C1155.73 351.464 1148.32 352.002 1140.9 352.049C1137.19 352.072 1133.47 351.971 1129.76 351.735C1126.18 351.506 1122.21 351.204 1119.21 348.994C1116.08 346.688 1114.99 342.916 1117.09 339.517C1118.88 336.625 1121.92 334.489 1124.62 332.516C1130.17 328.454 1136.18 325.047 1142.39 322.093C1155.47 315.864 1169.42 311.422 1183.21 307.045C1183.64 306.91 1184.07 306.778 1184.5 306.642C1196.12 305.913 1207.78 305.809 1219.44 306.561ZM1224.44 45.0597C1226.03 44.8969 1227.6 44.517 1228.97 44.1061C1229.23 44.0286 1229.48 43.9511 1229.72 43.8735C1234.44 42.3695 1238.76 39.8345 1242.41 36.5164C1245.2 41.9625 1250.35 46.1179 1256.42 47.5095C1256.59 47.5482 1256.75 47.5405 1256.89 47.5056C1257.01 47.5638 1257.16 47.5909 1257.33 47.5792C1260.21 47.4087 1262.72 49.5678 1262.33 52.5796C1261.94 55.5799 1258.96 57.0374 1256.22 56.1264C1255.76 55.9753 1255.4 56.1613 1255.2 56.4714C1254.93 56.5489 1254.71 56.7583 1254.63 57.1304C1252.63 66.8908 1241.74 74.3372 1232.19 69.2941C1223.39 64.6542 1221.64 54.2154 1221.39 45.048C1222.38 45.1837 1223.41 45.1643 1224.44 45.0597ZM1179.42 59.898C1179.65 59.8942 1180.34 59.9174 1181.11 60.0105C1182.81 60.212 1184.93 60.7392 1183.63 61.9835C1183.53 61.9253 1183.44 61.8749 1183.35 61.8284C1182.58 61.4098 1181.78 61.0105 1180.96 60.6423C1180.38 60.3787 1179.79 60.1306 1179.19 59.9097C1179.27 59.9097 1179.34 59.9019 1179.42 59.898ZM1170.57 81.109C1168.99 80.9268 1167.4 80.6594 1165.86 80.2601C1165.56 80.1826 1165.28 80.1089 1165.01 80.0198C1164.46 79.8376 1163.98 79.5818 1163.58 79.0662C1162.8 78.0778 1163.03 77.1048 1163.22 75.9148C1163.94 71.4377 1165.29 64.7124 1169.45 61.8904C1170.14 61.4214 1170.91 61.0532 1171.77 60.8284C1173.96 60.2547 1176.46 60.8787 1178.69 61.7703C1179.32 62.0184 1179.92 62.2858 1180.49 62.5533C1180.74 62.6735 1180.99 62.7897 1181.23 62.906C1183.86 64.193 1186.3 65.852 1188.49 67.7863C1188.97 68.2088 1189.47 68.639 1189.9 69.1119C1190.48 69.6197 1190.83 70.2554 1190.94 71.0229C1190.46 72.0424 1189.79 72.3486 1188.93 71.9455C1187.55 71.4881 1186.26 70.4996 1185 69.7709C1183.17 68.7127 1181.34 67.6545 1179.5 66.5962C1178.92 66.259 1178.34 65.9257 1177.76 65.5884C1177.16 65.2473 1176.58 64.9062 1175.98 64.5651C1174.9 63.941 1173.93 65.6117 1175.01 66.2357L1177.28 67.5498L1179.03 68.5576L1184.99 71.9998C1185.91 72.5308 1187.02 73.2673 1188.16 73.6976C1188.23 73.8139 1188.33 73.9185 1188.46 74.0077C1189.34 74.6007 1190.62 75.5039 1190.5 76.7327C1190.38 78.008 1188.86 78.0235 1187.88 78.008C1187.77 78.008 1187.67 78.0235 1187.58 78.0506C1186.59 77.0661 1185.19 76.2986 1184.24 75.7287C1182.25 74.5387 1180.17 73.5309 1178.02 72.6975C1177.41 72.4649 1176.8 72.244 1176.19 72.0385C1175.43 71.7827 1174.67 71.5462 1173.9 71.3292C1172.7 70.9919 1172.19 72.8564 1173.39 73.1937C1174.18 73.4146 1174.96 73.6588 1175.73 73.9185C1176.34 74.1278 1176.95 74.3488 1177.55 74.5891C1178.67 75.031 1179.77 75.5194 1180.85 76.066C1181.87 76.5854 1182.87 77.1513 1183.85 77.7599C1184.42 78.1204 1185.03 78.4848 1185.57 78.8995L1186.3 79.5197C1186.23 80.9462 1185.73 81.485 1184.78 81.1362C1182.35 81.0896 1179.5 79.8802 1177.18 79.1592C1176.96 79.0895 1176.73 79.0119 1176.5 78.9383C1175.88 78.7406 1175.27 78.539 1174.66 78.3259C1172.98 77.7483 1171.32 77.1281 1169.68 76.4614C1168.52 75.9962 1168.02 77.8646 1169.16 78.3259C1170.83 78.9964 1172.51 79.6205 1174.2 80.202C1174.81 80.4113 1175.42 80.6167 1176.04 80.8144C1176.53 80.9695 1177.02 81.1284 1177.51 81.2757C1176.97 81.3067 1176.44 81.3261 1175.91 81.3377C1175.25 81.3532 1174.59 81.3532 1173.92 81.3338C1172.81 81.3106 1171.68 81.2369 1170.57 81.109ZM1175.45 83.272C1177.18 83.2565 1178.9 83.1402 1180.63 82.9192C1181.01 82.8688 1181.27 82.6518 1181.41 82.3804C1183.8 83.0743 1187.53 84.1247 1188.58 81.3493C1188.77 80.8415 1188.8 80.3648 1188.71 79.919C1190.36 79.7872 1191.99 79.1399 1192.37 77.3141C1192.66 75.907 1192.06 74.7287 1191.16 73.7712C1191.36 73.6782 1191.56 73.5697 1191.75 73.4262C1195.8 70.3252 1189.2 65.4023 1185.32 62.9874C1186.5 61.4563 1185.64 59.4096 1183.89 58.5685C1183.19 58.2351 1182.42 58.0336 1181.61 57.9289C1183.28 51.0756 1184.96 44.2224 1186.63 37.3692C1192.09 38.3654 1197.54 39.4119 1202.99 40.5051C1195.96 69.3717 1188.92 98.2421 1181.89 127.109C1180.67 132.125 1179.44 137.144 1178.22 142.16C1177.8 142.249 1177.37 142.339 1176.94 142.428C1172.64 138.466 1168.89 133.288 1164.11 129.756C1167.9 114.259 1171.67 98.7654 1175.45 83.272ZM1158.14 224.585C1155.15 236.861 1152.16 249.134 1149.17 261.41C1147.84 258.103 1144.87 255.495 1141.21 255.014C1138.08 254.603 1135.06 255.797 1132.89 257.914C1140.01 228.679 1147.14 199.444 1154.26 170.205C1155.23 166.236 1156.2 162.266 1157.16 158.301C1159.7 159.499 1162.29 160.592 1164.96 161.491C1167.59 162.387 1170.28 163.065 1173.01 163.581C1168.05 183.915 1163.1 204.25 1158.14 224.585ZM1183.3 162.782C1180.65 162.631 1178.01 162.363 1175.39 161.96C1174.75 161.859 1174.12 161.751 1173.48 161.635C1169.61 160.921 1165.81 159.879 1162.11 158.379C1160.6 157.766 1159.11 157.096 1157.63 156.39C1157.03 156.107 1156.44 155.816 1155.85 155.526C1154.55 154.878 1153.26 154.208 1151.98 153.529C1150.52 152.754 1149.01 152.01 1147.58 151.161C1147.45 151.083 1147.32 151.01 1147.19 150.928C1146.49 150.498 1145.8 150.045 1145.31 149.386C1144.89 148.831 1144.69 148.451 1144.81 147.754C1144.92 147.13 1145.44 145.92 1146.46 146.49C1146.78 146.676 1147.1 146.645 1147.36 146.506C1147.79 146.595 1148.23 146.68 1148.66 146.769C1149.03 146.843 1149.39 146.916 1149.76 146.994C1149.94 147.033 1150.11 147.017 1150.25 146.971C1151.51 147.506 1152.78 147.905 1153.75 148.196C1154.95 148.552 1155.46 146.688 1154.27 146.331C1153.15 145.994 1150.9 145.381 1149.25 144.397C1147.79 143.536 1146.78 142.389 1147.37 140.897C1147.97 139.327 1149.2 138.889 1150.57 139.009C1152.51 139.179 1154.75 140.47 1156 141.292C1156.4 141.548 1156.78 141.47 1157.05 141.238C1158.03 141.362 1158.39 139.726 1157.32 139.315C1155.41 138.579 1153.54 137.741 1151.72 136.78C1151.54 136.687 1151.37 136.59 1151.18 136.493C1150.57 136.164 1149.95 135.826 1149.37 135.443C1148.86 135.148 1148.43 134.764 1148.09 134.284C1148 134.028 1147.94 133.791 1147.92 133.578C1147.86 133.109 1147.95 132.741 1148.19 132.473C1148.49 132.132 1149.04 131.95 1149.83 131.935C1149.99 131.962 1150.14 131.946 1150.28 131.908C1150.39 131.966 1150.5 132.02 1150.61 132.074C1151.1 132.322 1151.59 132.563 1152.09 132.807C1154.13 133.822 1156.18 134.823 1158.23 135.834C1159.35 136.381 1160.33 134.714 1159.21 134.164C1157.48 133.311 1155.74 132.454 1154.01 131.601C1153.57 131.384 1153.04 131.19 1152.54 130.962C1152.19 130.799 1151.85 130.621 1151.58 130.404C1150.58 130.155 1150.3 129.423 1150.72 128.198C1151.25 127.934 1151.81 127.787 1152.4 127.76C1152.71 127.733 1153.02 127.721 1153.34 127.717C1156.18 127.706 1158.97 128.791 1161.37 130.245C1161.56 130.361 1161.75 130.489 1161.94 130.613C1162.52 130.993 1163.09 131.392 1163.63 131.815C1168.13 135.284 1171.53 140.079 1175.71 143.905C1175.89 144.071 1176.09 144.149 1176.29 144.16C1176.5 144.339 1176.78 144.436 1177.12 144.366C1177.33 144.323 1177.53 144.281 1177.74 144.238L1179.84 143.804C1181.43 143.474 1183.02 143.145 1184.61 142.812C1184.16 149.467 1183.73 156.123 1183.3 162.782ZM1263.61 273.136C1258.1 276.353 1251.71 277.512 1245.46 278.341C1242.98 278.671 1240.19 279.272 1237.71 278.613C1233.95 277.613 1234.76 273.787 1237.21 271.682C1240.01 269.283 1243.32 267.348 1246.34 265.255C1249.08 263.36 1251.82 261.46 1254.56 259.565C1254.84 260.115 1255.15 260.654 1255.49 261.173C1257.65 264.453 1261.23 267.081 1265.22 267.457C1267.39 267.662 1269.41 267.085 1271.11 265.984C1269.27 268.895 1266.74 271.31 1263.61 273.136ZM1285.89 319.29C1283.29 322.035 1279.96 325.023 1275.95 325.051C1274.26 325.062 1272.53 324.551 1271.2 323.485C1269.22 321.899 1269.02 319.554 1269.67 317.224C1270.3 314.957 1271.52 312.802 1272.5 310.67C1273.46 308.6 1274.42 306.53 1275.37 304.464C1277.26 300.386 1279.15 296.304 1281.03 292.226C1281.39 292.257 1281.75 292.288 1282.11 292.319C1287.35 295.913 1294.59 294.932 1300.69 295.994C1297.25 304.568 1292.34 312.507 1285.89 319.29ZM1286.7 124.477C1293.24 113.453 1299.18 102.076 1304.49 90.4082C1305.01 89.2841 1303.34 88.2995 1302.82 89.4314C1297.46 101.215 1291.47 112.708 1284.84 123.829C1281.59 129.287 1278.19 134.66 1274.64 139.935C1271.08 145.238 1267.5 150.673 1263.41 155.588C1261.48 157.902 1259.27 160.076 1256.46 161.266C1253.36 162.58 1249.93 162.596 1246.62 162.623C1239.56 162.681 1232.51 162.724 1225.45 162.774C1214.84 162.852 1204.16 163.228 1193.53 163.092C1192.2 163.077 1190.88 163.05 1189.56 163.015C1188.11 162.976 1186.67 162.929 1185.23 162.867C1185.66 156.041 1186.1 149.215 1186.54 142.393C1189.42 141.796 1192.3 141.195 1195.18 140.598C1196.58 140.307 1197.98 140.017 1199.38 139.726C1213.07 136.881 1226.77 134.032 1240.46 131.187C1240.91 131.094 1241.12 130.783 1241.15 130.438C1249.06 114.805 1256.96 99.1763 1264.87 83.5433C1265.43 82.4347 1263.76 81.454 1263.2 82.5665C1258.63 91.606 1254.06 100.642 1249.49 109.681C1242.58 99.9477 1236.49 89.6639 1231.28 78.9189C1231.3 78.5933 1231.12 78.3103 1230.87 78.1282C1230.33 77.3917 1229.16 78.0002 1229.2 78.8685C1222.15 91.0555 1214.27 102.739 1205.63 113.844C1205.28 115.333 1204.92 116.821 1204.57 118.31C1213.99 106.53 1222.55 94.0751 1230.17 81.047C1235.38 91.6292 1241.44 101.758 1248.31 111.348C1248.37 111.441 1248.45 111.514 1248.53 111.573C1245.53 117.519 1242.52 123.465 1239.51 129.411L1199.9 137.652C1198.5 137.943 1197.09 138.234 1195.7 138.524C1190.57 139.59 1185.45 140.652 1180.33 141.718C1184.94 122.775 1189.56 103.832 1194.18 84.8845C1197.75 70.2128 1201.33 55.545 1204.9 40.8733C1209.11 41.7261 1213.31 42.6137 1217.5 43.5247C1217.63 43.5518 1217.77 43.5828 1217.9 43.6099C1218.37 44.0053 1218.9 44.3154 1219.46 44.5441C1219.51 46.5947 1219.64 48.715 1219.89 50.8353C1220.92 59.4717 1224.04 68.0692 1232.62 71.6121C1242.88 75.8528 1253.97 68.3716 1256.38 58.1731C1260.02 58.9832 1263.75 56.704 1264.26 52.8355C1264.77 49.0019 1261.8 45.8388 1258.12 45.6411C1258.14 45.5597 1258.16 45.4783 1258.16 45.3814C1258.19 44.2922 1258.17 43.2068 1258.1 42.1215C1278.29 51.5641 1297.91 63.0223 1311.68 80.9656C1321.38 93.6061 1327.85 108.452 1330.59 124.004C1315.96 123.895 1301.32 124.05 1286.7 124.477Z" fill="#070707"/>
<path d="M1126.03 230.659C1131.86 206.246 1137.69 181.833 1143.52 157.42C1143.71 156.626 1142.98 156.13 1142.37 156.207C1142.03 156.25 1141.73 156.463 1141.62 156.897C1135.79 181.31 1129.96 205.723 1124.13 230.139C1124.09 230.321 1124.1 230.484 1124.13 230.635C1124.37 231.48 1125.77 231.705 1126.03 230.659Z" fill="#070707"/>
<path d="M1126 313.503C1074.5 323.003 707.5 338.003 429.178 317.701C358.358 312.535 287.252 314.684 216.483 308.687C172.235 304.937 128.129 299.3 83.8212 296.395C56.0696 294.575 21 289 1 280" stroke="black" stroke-width="2" stroke-linecap="round"/>
</svg>
