<svg width="128" height="128" viewBox="0 0 128 128" fill="none" xmlns="http://www.w3.org/2000/svg">
<path d="M39.0352 46.2714C38.9298 46.6365 38.8245 46.8962 38.8245 47.1596C38.561 50.9193 39.1406 54.5736 40.3524 58.0736C40.8793 59.5865 41.5153 60.9978 42.3056 62.4091C43.254 64.1289 44.6766 65.4349 46.6825 65.8526C46.9098 65.9112 47.1128 66.0403 47.2621 66.2214C47.5782 67.0569 48.0524 67.8924 48.0524 68.7279C48.2105 73.4284 48.632 78.0235 49.7422 82.6149C49.7949 82.773 49.7949 82.9311 49.6368 83.1418C49.5314 82.8784 49.3734 82.6149 49.3169 82.3063C48.6847 79.3295 47.7363 76.4542 45.8395 73.9515C43.5175 70.9182 40.7212 68.5171 36.9766 67.2639C36.8713 67.2112 36.7659 67.2112 36.6605 67.1585C36.6078 67.1585 36.5551 67.1585 36.3444 67.2112C36.3444 67.7343 36.2917 68.3101 36.4497 68.8295C37.56 73.4284 39.5094 77.5531 42.8325 80.9477C44.3605 82.5133 46.2083 83.5069 48.5793 83.2961C48.79 83.2961 49.1589 83.4015 49.2642 83.5596C49.7422 84.3424 50.318 85.1252 50.6379 86.0133C52.1659 90.7139 54.0137 95.2563 56.4373 99.5391C56.5954 99.8025 56.7008 100.111 56.8589 100.375C56.7535 100.427 56.7008 100.48 56.5954 100.533C56.332 100.164 56.0158 99.8552 55.8578 99.4864C54.646 97.138 53.2234 94.9966 51.1648 93.273C48.2105 90.7665 44.8347 89.4079 40.8793 89.4606C39.8255 89.4606 39.7729 89.5622 40.089 90.6085C40.6686 92.3848 41.6696 93.9504 42.8325 95.4144C44.4659 97.4466 46.2573 99.381 48.6847 100.582C50.9013 101.681 53.2196 102.151 55.647 100.999C55.8051 100.95 56.0158 100.898 56.1212 100.95C56.8062 101.47 57.7019 101.835 58.1271 102.516C60.5508 106.276 63.2943 109.776 66.5121 112.96C66.6301 113.07 66.7361 113.192 66.8282 113.325C66.8809 113.377 66.8282 113.43 66.8809 113.795C66.4067 113.43 66.0379 113.223 65.7744 112.907C63.9793 110.976 61.9244 109.358 59.339 108.575C55.4363 107.424 51.639 107.841 47.8981 109.411C47.789 109.46 47.7363 109.512 47.4728 109.723C47.9997 110.348 48.4212 111.029 49.0008 111.548C52.64 114.683 56.7535 116.667 61.661 116.565C63.0816 116.522 64.4429 115.986 65.511 115.048C66.4594 114.213 67.6185 114.16 68.6723 115.048C71.4677 117.486 74.5502 119.574 77.8513 121.265L80.0642 122.357C80.0115 122.466 80.0115 122.519 79.9588 122.62C79.59 122.519 79.2212 122.466 78.9577 122.308C77.1626 121.314 75.3185 120.479 73.2599 120.219C69.0449 119.696 65.3529 121.002 61.9244 123.354C61.3411 123.768 60.7615 124.239 60.0239 124.814C60.8142 125.337 61.3976 125.861 62.1314 126.169C66.0906 127.897 70.204 128.521 74.4755 127.373C76.5303 126.798 78.2728 125.755 79.3266 123.873C79.6954 123.196 81.2233 122.778 82.0701 123.091C84.8626 124.19 87.8169 124.92 90.7712 125.386C91.0346 125.443 91.298 125.443 91.6142 125.443C91.7196 124.66 91.4034 124.239 90.6658 124.137C87.7033 123.656 84.803 122.849 82.0174 121.732C80.5911 121.16 80.0115 120.325 80.2223 118.808C80.5911 115.778 80.0115 112.907 78.6943 110.141C77.2848 107.235 75.021 104.829 72.2061 103.246C71.9954 103.141 71.7319 103.039 71.3631 102.832C71.4158 103.404 71.4685 103.822 71.5212 104.24C72.1008 107.529 72.4169 110.818 73.5271 114.006C74.3701 116.407 75.8454 118.236 78.1147 119.436C78.4263 119.612 78.7645 119.735 79.1158 119.801C79.8534 119.801 79.9588 120.166 79.9588 120.897C79.6954 120.795 79.4846 120.742 79.2739 120.637C75.0416 118.668 71.1583 116.023 67.7766 112.805C66.8809 111.917 67.0389 110.66 67.4078 109.719C69.0411 105.387 68.7776 101.052 67.3024 96.773C66.5393 94.5802 65.3569 92.5568 63.8212 90.8155C63.6631 90.6612 63.5051 90.5558 63.2416 90.2961C63.0836 91.4966 62.9255 92.5918 62.8201 93.638C62.6094 95.7267 62.3459 97.8155 62.2406 99.9042C62.0825 102.776 62.2933 105.647 64.0846 108.052C64.6115 108.782 65.2965 109.512 66.0906 110.035C66.7228 110.506 66.8282 110.924 66.6174 111.759C65.8271 110.871 65.0857 110.141 64.4008 109.358C61.8717 106.483 59.6024 103.457 57.811 100.111C57.2841 99.1214 57.6003 97.9208 58.1798 97.0854C62.3949 90.8155 62.2933 84.2897 59.5497 77.5531C59.497 77.3951 59.3916 77.2897 59.339 77.1354C59.339 77.0827 59.2336 77.0827 59.1282 77.03C57.5476 81.2074 55.4363 85.1778 55.0148 89.6676C54.7513 92.3848 55.1728 94.944 57.0169 97.138C57.2804 97.4504 57.175 98.0224 57.2277 98.4402C57.1223 98.4929 57.0169 98.4929 56.9642 98.5456L56.0158 96.8219C53.8903 92.4645 52.229 87.8957 51.0594 83.1907C51.0067 82.9838 50.954 82.7241 51.0067 82.566C51.5336 81.5198 51.8497 80.3719 53.0089 79.6418C55.1728 78.1778 56.3847 75.9348 57.4422 73.5827C59.1282 69.7703 59.339 65.8526 58.7594 61.8332C58.7594 61.7279 58.7067 61.6225 58.654 61.5209C58.5486 61.5736 58.4433 61.5736 58.4433 61.6225C56.5427 64.2343 54.4879 66.7408 52.6927 69.458C50.954 72.0171 49.9529 74.8397 50.4271 77.9709C50.5325 78.5956 50.6906 79.2768 51.0067 79.7961C51.5336 80.53 51.1648 81.0004 50.6379 81.7832C50.3218 80.1123 49.953 78.6483 49.7949 77.1881C49.4261 73.4773 49.2116 69.823 48.9481 66.116C48.8954 65.3859 50.0019 63.6623 50.6379 63.4515C53.9083 62.458 56.0196 60.1096 57.7056 57.3435C59.497 54.4155 60.34 51.2317 60.4981 47.8897V47.3139C60.4981 47.2612 60.4454 47.2085 60.3927 47.0505C59.9712 47.4193 59.497 47.7317 59.0755 48.0967C57.175 49.6661 55.2255 51.1827 53.4304 52.8499C51.2702 54.8859 49.9003 57.3924 49.6895 60.422C49.6368 61.2048 49.6895 61.9913 49.7949 62.7177C49.953 63.4515 49.5841 63.7639 48.9481 64.287C48.9481 63.4515 48.8954 62.8268 48.9481 62.1983C49.2642 57.5505 49.7949 52.9553 50.9013 48.4128C51.0409 47.7896 51.3888 47.2326 51.8875 46.8337C52.3863 46.4348 53.0062 46.2179 53.6449 46.2188C56.5954 46.1661 58.8648 44.7021 60.8707 42.8241C63.2943 40.5774 64.7169 37.7585 65.7217 34.6763C65.7217 34.6236 65.7744 34.5182 65.7744 34.4129C65.7744 34.3639 65.7217 34.3112 65.7217 34.2623C65.6691 34.2623 65.6164 34.2059 65.5637 34.2059C62.8164 35.3537 59.9712 36.3999 57.2841 37.7059C54.9094 38.9102 53.1669 40.7881 52.5874 43.4489C52.4541 44.031 52.4009 44.6287 52.4293 45.2252C52.482 45.9026 52.1132 46.1661 51.4809 46.4295C51.4809 46.2188 51.4282 46.008 51.4809 45.8537C52.7432 41.2143 54.4379 36.7035 56.5427 32.3806C56.8062 31.8537 58.3868 31.1236 58.9701 31.3344C62.9782 32.5876 66.2486 31.1236 69.2518 28.6699C70.7309 27.4693 71.9427 25.9564 72.9438 24.1801C72.3642 24.1801 71.8373 24.1274 71.3631 24.1801C68.7287 24.3871 66.0906 24.2854 63.5578 25.1736C60.9723 26.058 59.1282 27.6274 58.4959 30.3408C58.3379 31.0182 57.8637 31.0182 57.2277 31.1763C57.3895 30.8112 57.4422 30.6043 57.5476 30.3935C59.3276 26.9435 61.4093 23.6578 63.7685 20.5747C64.2427 20.0027 65.6691 19.6338 66.3013 19.95C70.5728 22.1441 74.4755 21.2032 78.1147 18.4333C79.0631 17.7559 79.8008 16.815 80.6438 15.9795C80.5911 15.8742 80.5384 15.8252 80.4857 15.7161C80.0642 15.6672 79.59 15.5656 79.1685 15.5091C76.8991 15.1441 74.6336 14.5683 72.3115 14.8317C69.5717 15.1441 67.2497 16.1376 66.0379 18.851C65.7744 19.4269 65.7217 19.4269 64.7207 19.2688C65.7217 18.1209 66.5648 17.0258 67.5658 16.0322C69.0411 14.572 70.5201 13.1607 72.0481 11.6968C72.3044 11.47 72.6117 11.3087 72.9438 11.2263C76.9518 10.9667 79.9588 8.98332 82.2282 5.84838C83.3815 4.27665 84.2386 2.50775 84.7572 0.628494C84.8099 0.470429 84.8099 0.259677 84.8626 0C83.7034 0.417741 82.6497 0.782795 81.5959 1.14785C79.0631 2.03602 76.583 3.02957 74.6336 5.0129C73.1018 6.57849 72.1008 8.30214 72.3115 10.5489C72.3115 10.707 72.2061 10.9667 72.0481 11.072C68.6234 14.0451 65.6126 17.3908 62.8728 20.9435C62.8201 21.0451 62.6621 21.0978 62.6094 21.2032C62.5567 21.1505 62.4513 21.1505 62.3986 21.0978C62.6094 20.6274 62.7148 20.0553 63.0309 19.743C66.1922 16.3446 67.7239 12.2726 68.04 7.7301C68.1981 5.743 68.04 3.75967 67.9873 1.77634C67.9873 1.46398 67.8293 1.20054 67.6712 0.628494C66.6174 1.77634 65.6691 2.66075 64.875 3.70698C62.6621 6.63117 61.025 9.87149 60.6035 13.5785C60.34 15.8252 60.4454 17.9666 61.9771 19.8446C62.0825 20.0027 62.1879 20.2623 62.1352 20.4204C62.0298 21.4629 61.8717 22.4527 61.183 23.3935C58.654 26.7919 56.5954 30.4989 54.804 34.3075L54.4879 34.936C54.4352 34.936 54.3298 34.887 54.2771 34.887C54.3825 34.5182 54.3825 34.0516 54.5406 33.7354C56.7535 29.9231 57.4949 25.7984 57.2804 21.4666C57.1458 18.8298 56.464 16.2499 55.2782 13.8908C55.2255 13.7365 55.1201 13.6274 54.9621 13.3677C54.6986 13.7855 54.3825 14.1016 54.2244 14.4666C51.9024 19.1672 50.7433 24.1274 51.2175 29.4037C51.3755 31.1763 52.1132 32.7457 53.4341 33.9951C53.5922 34.1532 53.8029 34.4166 53.7503 34.5709C53.7503 35.6172 53.8029 36.6107 53.3814 37.6532C51.7559 41.5389 50.5363 45.5822 49.7422 49.7188C49.7422 49.7677 49.6895 49.8731 49.4261 49.9257C49.4261 49.508 49.3169 49.0376 49.3734 48.6198C49.6895 46.2714 50.2691 43.9193 50.3745 41.5709C50.5852 36.7161 48.9481 32.4822 45.7341 28.7752C45.6814 28.7225 45.5761 28.7225 45.3653 28.5682C45.1508 29.2983 44.8384 29.9758 44.6766 30.7059C43.7282 35.2521 43.6228 39.7946 44.7293 44.2843C45.2035 46.3731 46.3099 48.0967 48.3159 49.1392C48.4739 49.1956 48.632 49.3499 48.632 49.4553C48.79 50.4489 49.2116 51.4913 49.0535 52.4322C48.3685 56.873 48.1051 61.3139 47.9997 65.751C47.9997 65.8526 47.947 66.0144 47.947 66.116C47.8944 66.116 47.789 66.116 47.7363 66.1687C47.6836 65.8037 47.5255 65.3859 47.5255 65.0171C47.5782 62.4091 47.6309 59.7972 46.8933 57.2908C45.5761 52.9553 43.254 49.3499 39.5094 46.6365C39.4567 46.5311 39.3514 46.4257 39.0352 46.2714Z" fill="url(#paint0_linear_2615_3198)"/>
<defs>
<linearGradient id="paint0_linear_2615_3198" x1="91.6339" y1="0.000118497" x2="24.0839" y2="6.83304" gradientUnits="userSpaceOnUse">
<stop stop-color="#FFFCA3"/>
<stop offset="1" stop-color="#DEAE35"/>
</linearGradient>
</defs>
</svg>
