<svg width="128" height="128" viewBox="0 0 128 128" fill="none" xmlns="http://www.w3.org/2000/svg">
<path d="M88.9648 46.2714C89.0702 46.6365 89.1755 46.8962 89.1755 47.1596C89.439 50.9193 88.8594 54.5736 87.6476 58.0736C87.1207 59.5865 86.4847 60.9978 85.6944 62.4091C84.746 64.1289 83.3234 65.4349 81.3175 65.8526C81.0902 65.9112 80.8872 66.0403 80.7379 66.2214C80.4218 67.0569 79.9476 67.8924 79.9476 68.7279C79.7895 73.4284 79.368 78.0235 78.2578 82.6149C78.2051 82.773 78.2051 82.9311 78.3632 83.1418C78.4686 82.8784 78.6266 82.6149 78.6831 82.3063C79.3153 79.3295 80.2637 76.4542 82.1605 73.9515C84.4825 70.9182 87.2788 68.5171 91.0234 67.2639C91.1287 67.2112 91.2341 67.2112 91.3395 67.1585C91.3922 67.1585 91.4449 67.1585 91.6556 67.2112C91.6556 67.7343 91.7083 68.3101 91.5503 68.8295C90.44 73.4284 88.4906 77.5531 85.1675 80.9477C83.6395 82.5133 81.7917 83.5069 79.4207 83.2961C79.21 83.2961 78.8411 83.4015 78.7358 83.5596C78.2578 84.3424 77.682 85.1252 77.3621 86.0133C75.8341 90.7139 73.9863 95.2563 71.5627 99.5391C71.4046 99.8025 71.2992 100.111 71.1411 100.375C71.2465 100.427 71.2992 100.48 71.4046 100.533C71.668 100.164 71.9842 99.8552 72.1422 99.4864C73.354 97.138 74.7766 94.9966 76.8352 93.273C79.7895 90.7665 83.1653 89.4079 87.1207 89.4606C88.1745 89.4606 88.2271 89.5622 87.911 90.6085C87.3314 92.3848 86.3304 93.9504 85.1675 95.4144C83.5341 97.4466 81.7427 99.381 79.3153 100.582C77.0987 101.681 74.7804 102.151 72.353 100.999C72.1949 100.95 71.9842 100.898 71.8788 100.95C71.1938 101.47 70.2981 101.835 69.8729 102.516C67.4492 106.276 64.7057 109.776 61.4879 112.96C61.3699 113.07 61.2639 113.192 61.1718 113.325C61.1191 113.377 61.1718 113.43 61.1191 113.795C61.5933 113.43 61.9621 113.223 62.2256 112.907C64.0207 110.976 66.0756 109.358 68.661 108.575C72.5637 107.424 76.361 107.841 80.1019 109.411C80.211 109.46 80.2637 109.512 80.5272 109.723C80.0003 110.348 79.5788 111.029 78.9992 111.548C75.36 114.683 71.2465 116.667 66.339 116.565C64.9184 116.522 63.5571 115.986 62.489 115.048C61.5406 114.213 60.3815 114.16 59.3277 115.048C56.5323 117.486 53.4498 119.574 50.1487 121.265L47.9358 122.357C47.9885 122.466 47.9885 122.519 48.0412 122.62C48.41 122.519 48.7788 122.466 49.0423 122.308C50.8374 121.314 52.6815 120.479 54.7401 120.219C58.9551 119.696 62.6471 121.002 66.0756 123.354C66.6589 123.768 67.2385 124.239 67.9761 124.814C67.1858 125.337 66.6024 125.861 65.8686 126.169C61.9094 127.897 57.796 128.521 53.5245 127.373C51.4697 126.798 49.7272 125.755 48.6734 123.873C48.3046 123.196 46.7767 122.778 45.9299 123.091C43.1374 124.19 40.1831 124.92 37.2288 125.386C36.9654 125.443 36.702 125.443 36.3858 125.443C36.2804 124.66 36.5966 124.239 37.3342 124.137C40.2967 123.656 43.197 122.849 45.9826 121.732C47.4089 121.16 47.9885 120.325 47.7777 118.808C47.4089 115.778 47.9885 112.907 49.3057 110.141C50.7152 107.235 52.979 104.829 55.7939 103.246C56.0046 103.141 56.2681 103.039 56.6369 102.832C56.5842 103.404 56.5315 103.822 56.4788 104.24C55.8992 107.529 55.5831 110.818 54.4729 114.006C53.6299 116.407 52.1546 118.236 49.8853 119.436C49.5737 119.612 49.2355 119.735 48.8842 119.801C48.1466 119.801 48.0412 120.166 48.0412 120.897C48.3046 120.795 48.5154 120.742 48.7261 120.637C52.9584 118.668 56.8417 116.023 60.2234 112.805C61.1191 111.917 60.9611 110.66 60.5922 109.719C58.9589 105.387 59.2224 101.052 60.6976 96.773C61.4607 94.5802 62.6431 92.5568 64.1788 90.8155C64.3369 90.6612 64.4949 90.5558 64.7584 90.2961C64.9164 91.4966 65.0745 92.5918 65.1799 93.638C65.3906 95.7267 65.6541 97.8155 65.7594 99.9042C65.9175 102.776 65.7067 105.647 63.9154 108.052C63.3885 108.782 62.7035 109.512 61.9094 110.035C61.2772 110.506 61.1718 110.924 61.3826 111.759C62.1729 110.871 62.9143 110.141 63.5992 109.358C66.1283 106.483 68.3976 103.457 70.189 100.111C70.7159 99.1214 70.3997 97.9208 69.8202 97.0854C65.6051 90.8155 65.7067 84.2897 68.4503 77.5531C68.503 77.3951 68.6084 77.2897 68.661 77.1354C68.661 77.0827 68.7664 77.0827 68.8718 77.03C70.4524 81.2074 72.5637 85.1778 72.9852 89.6676C73.2487 92.3848 72.8272 94.944 70.9831 97.138C70.7196 97.4504 70.825 98.0224 70.7723 98.4402C70.8777 98.4929 70.9831 98.4929 71.0358 98.5456L71.9842 96.8219C74.1097 92.4645 75.771 87.8957 76.9406 83.1907C76.9933 82.9838 77.046 82.7241 76.9933 82.566C76.4664 81.5198 76.1503 80.3719 74.9911 79.6418C72.8272 78.1778 71.6153 75.9348 70.5578 73.5827C68.8718 69.7703 68.661 65.8526 69.2406 61.8332C69.2406 61.7279 69.2933 61.6225 69.346 61.5209C69.4514 61.5736 69.5567 61.5736 69.5567 61.6225C71.4573 64.2343 73.5121 66.7408 75.3073 69.458C77.046 72.0171 78.0471 74.8397 77.5729 77.9709C77.4675 78.5956 77.3094 79.2768 76.9933 79.7961C76.4664 80.53 76.8352 81.0004 77.3621 81.7832C77.6782 80.1123 78.047 78.6483 78.2051 77.1881C78.5739 73.4773 78.7884 69.823 79.0519 66.116C79.1046 65.3859 77.9981 63.6623 77.3621 63.4515C74.0917 62.458 71.9804 60.1096 70.2944 57.3435C68.503 54.4155 67.66 51.2317 67.5019 47.8897V47.3139C67.5019 47.2612 67.5546 47.2085 67.6073 47.0505C68.0288 47.4193 68.503 47.7317 68.9245 48.0967C70.825 49.6661 72.7745 51.1827 74.5696 52.8499C76.7298 54.8859 78.0997 57.3924 78.3105 60.422C78.3632 61.2048 78.3105 61.9913 78.2051 62.7177C78.047 63.4515 78.4159 63.7639 79.0519 64.287C79.0519 63.4515 79.1046 62.8268 79.0519 62.1983C78.7358 57.5505 78.2051 52.9553 77.0987 48.4128C76.9591 47.7896 76.6112 47.2326 76.1125 46.8337C75.6137 46.4348 74.9938 46.2179 74.3551 46.2188C71.4046 46.1661 69.1352 44.7021 67.1293 42.8241C64.7057 40.5774 63.2831 37.7585 62.2783 34.6763C62.2783 34.6236 62.2256 34.5182 62.2256 34.4129C62.2256 34.3639 62.2783 34.3112 62.2783 34.2623C62.3309 34.2623 62.3836 34.2059 62.4363 34.2059C65.1836 35.3537 68.0288 36.3999 70.7159 37.7059C73.0906 38.9102 74.8331 40.7881 75.4126 43.4489C75.5459 44.031 75.5991 44.6287 75.5707 45.2252C75.518 45.9026 75.8868 46.1661 76.5191 46.4295C76.5191 46.2188 76.5718 46.008 76.5191 45.8537C75.2568 41.2143 73.5621 36.7035 71.4573 32.3806C71.1938 31.8537 69.6132 31.1236 69.0299 31.3344C65.0218 32.5876 61.7514 31.1236 58.7482 28.6699C57.2691 27.4693 56.0573 25.9564 55.0562 24.1801C55.6358 24.1801 56.1627 24.1274 56.6369 24.1801C59.2713 24.3871 61.9094 24.2854 64.4422 25.1736C67.0277 26.058 68.8718 27.6274 69.5041 30.3408C69.6621 31.0182 70.1363 31.0182 70.7723 31.1763C70.6105 30.8112 70.5578 30.6043 70.4524 30.3935C68.6724 26.9435 66.5907 23.6578 64.2315 20.5747C63.7573 20.0027 62.3309 19.6338 61.6987 19.95C57.4272 22.1441 53.5245 21.2032 49.8853 18.4333C48.9369 17.7559 48.1992 16.815 47.3562 15.9795C47.4089 15.8742 47.4616 15.8252 47.5143 15.7161C47.9358 15.6672 48.41 15.5656 48.8315 15.5091C51.1009 15.1441 53.3664 14.5683 55.6885 14.8317C58.4283 15.1441 60.7503 16.1376 61.9621 18.851C62.2256 19.4269 62.2783 19.4269 63.2793 19.2688C62.2783 18.1209 61.4352 17.0258 60.4342 16.0322C58.9589 14.572 57.4799 13.1607 55.9519 11.6968C55.6956 11.47 55.3883 11.3087 55.0562 11.2263C51.0482 10.9667 48.0412 8.98332 45.7718 5.84838C44.6185 4.27665 43.7614 2.50775 43.2428 0.628494C43.1901 0.470429 43.1901 0.259677 43.1374 0C44.2966 0.417741 45.3503 0.782795 46.4041 1.14785C48.9369 2.03602 51.417 3.02957 53.3664 5.0129C54.8982 6.57849 55.8992 8.30214 55.6885 10.5489C55.6885 10.707 55.7939 10.9667 55.9519 11.072C59.3766 14.0451 62.3874 17.3908 65.1272 20.9435C65.1799 21.0451 65.3379 21.0978 65.3906 21.2032C65.4433 21.1505 65.5487 21.1505 65.6014 21.0978C65.3906 20.6274 65.2852 20.0553 64.9691 19.743C61.8078 16.3446 60.2761 12.2726 59.96 7.7301C59.8019 5.743 59.96 3.75967 60.0127 1.77634C60.0127 1.46398 60.1707 1.20054 60.3288 0.628494C61.3826 1.77634 62.3309 2.66075 63.125 3.70698C65.3379 6.63117 66.975 9.87149 67.3965 13.5785C67.66 15.8252 67.5546 17.9666 66.0229 19.8446C65.9175 20.0027 65.8121 20.2623 65.8648 20.4204C65.9702 21.4629 66.1283 22.4527 66.817 23.3935C69.346 26.7919 71.4046 30.4989 73.196 34.3075L73.5121 34.936C73.5648 34.936 73.6702 34.887 73.7229 34.887C73.6175 34.5182 73.6175 34.0516 73.4594 33.7354C71.2465 29.9231 70.5051 25.7984 70.7196 21.4666C70.8542 18.8298 71.536 16.2499 72.7218 13.8908C72.7745 13.7365 72.8799 13.6274 73.0379 13.3677C73.3014 13.7855 73.6175 14.1016 73.7756 14.4666C76.0976 19.1672 77.2567 24.1274 76.7825 29.4037C76.6245 31.1763 75.8868 32.7457 74.5659 33.9951C74.4078 34.1532 74.1971 34.4166 74.2497 34.5709C74.2497 35.6172 74.1971 36.6107 74.6186 37.6532C76.2441 41.5389 77.4637 45.5822 78.2578 49.7188C78.2578 49.7677 78.3105 49.8731 78.5739 49.9257C78.5739 49.508 78.6831 49.0376 78.6266 48.6198C78.3105 46.2714 77.7309 43.9193 77.6255 41.5709C77.4148 36.7161 79.0519 32.4822 82.2659 28.7752C82.3186 28.7225 82.4239 28.7225 82.6347 28.5682C82.8492 29.2983 83.1616 29.9758 83.3234 30.7059C84.2718 35.2521 84.3772 39.7946 83.2707 44.2843C82.7965 46.3731 81.6901 48.0967 79.6841 49.1392C79.5261 49.1956 79.368 49.3499 79.368 49.4553C79.21 50.4489 78.7884 51.4913 78.9465 52.4322C79.6315 56.873 79.8949 61.3139 80.0003 65.751C80.0003 65.8526 80.053 66.0144 80.053 66.116C80.1056 66.116 80.211 66.116 80.2637 66.1687C80.3164 65.8037 80.4745 65.3859 80.4745 65.0171C80.4218 62.4091 80.3691 59.7972 81.1067 57.2908C82.4239 52.9553 84.746 49.3499 88.4906 46.6365C88.5433 46.5311 88.6486 46.4257 88.9648 46.2714Z" fill="url(#paint0_linear_2615_3196)"/>
<defs>
<linearGradient id="paint0_linear_2615_3196" x1="36.3661" y1="0.000118497" x2="103.916" y2="6.83304" gradientUnits="userSpaceOnUse">
<stop stop-color="#FFFCA3"/>
<stop offset="1" stop-color="#DEAE35"/>
</linearGradient>
</defs>
</svg>
