<svg width="15" height="14" viewBox="0 0 15 14" fill="none" xmlns="http://www.w3.org/2000/svg">
<path d="M4.69352 2.33333C4.69352 1.68667 4.43352 1.10667 4.00686 0.686667C3.59352 0.26 3.00686 0 2.36019 0C1.71352 0 1.13352 0.26 0.713522 0.686667C0.293522 1.10667 0.0268555 1.68667 0.0268555 2.33333V11.62C0.0268555 12.2733 0.293522 12.8733 0.726855 13.3067C1.16019 13.74 1.75352 14.0067 2.40686 13.9933C3.04019 13.98 3.61352 13.7133 4.02686 13.2933C4.44019 12.8733 4.69352 12.2933 4.69352 11.66V2.33333Z" fill="white"/>
<path d="M13.14 4.55333V13.1333C13.14 13.36 13.2266 13.5733 13.38 13.7333C13.5266 13.8933 13.7333 13.9933 13.96 13.9933C14.1933 14 14.4066 13.9067 14.56 13.7533C14.7133 13.6 14.8066 13.3933 14.8066 13.16V2.32667C14.8066 1.68 14.5466 1.1 14.12 0.68C13.7 0.26 13.12 0 12.4733 0C11.66 0 10.9133 0.253333 10.28 0.613333C9.64663 0.966667 9.13329 1.42667 8.77329 1.82667C8.51996 2.10667 8.25329 2.45333 8.01996 2.77333C7.78663 3.08667 7.59329 3.36667 7.49329 3.52C7.46663 3.55333 7.45996 3.59333 7.45996 3.63333C7.45996 3.67333 7.47329 3.71333 7.49996 3.74667C7.53329 3.79333 7.57329 3.84 7.60663 3.89333C7.64663 3.94 7.67996 3.98667 7.70663 4.02667C7.95329 4.32667 8.25329 4.58667 8.59329 4.76667C8.93996 4.94667 9.32663 5.06 9.73996 5.06C9.87996 5.06 10.02 5.04667 10.1533 5.02667C10.2866 5.00667 10.4266 4.97333 10.5533 4.92667C10.68 4.88667 10.8066 4.82667 10.92 4.76667C11.04 4.70667 11.1533 4.63333 11.26 4.55333C11.32 4.50667 11.3866 4.45333 11.44 4.4C11.5 4.34667 11.5533 4.29333 11.6066 4.23333C11.6266 4.21333 11.66 4.17333 11.6866 4.14C11.7133 4.10667 11.74 4.08 11.74 4.08C11.8133 3.99333 11.9 3.91333 12.0066 3.86667C12.1133 3.81333 12.2266 3.78667 12.3533 3.78667C12.5666 3.78667 12.76 3.87333 12.9 4.01333C13.0533 4.14667 13.14 4.34 13.14 4.55333Z" fill="white"/>
</svg>
