<svg width="300" height="601" viewBox="0 0 300 601" fill="none" xmlns="http://www.w3.org/2000/svg">
<path d="M153.468 371.059C153.433 371.169 153.393 371.28 153.338 371.395C150.607 378.683 141.123 387.421 127.381 395.196C127.271 395.251 127.16 395.326 127.045 395.381C121.361 398.551 114.94 401.596 107.976 404.265C106.842 404.691 105.712 405.117 104.562 405.544C101.163 406.732 97.8043 407.771 94.4606 408.679C82.4311 411.944 70.974 413.389 61.6708 413.464C49.822 413.594 41.4526 411.498 39.9464 408.142C39.61 407.475 39.5749 406.823 39.8159 406.196C40.9104 403.081 47.0757 405.117 60.1495 399.961C69.026 396.49 81.0755 389.703 96.8956 375.714C97.3575 375.322 97.8244 374.896 98.3064 374.47C100.089 372.875 101.871 371.37 103.653 370.016C104.452 369.404 105.25 368.812 106.028 368.255C106.661 367.793 107.308 367.347 107.941 366.921C108.092 366.81 108.237 366.715 108.388 366.625C109.964 365.566 111.526 364.623 113.067 363.751C113.83 363.304 114.608 362.898 115.372 362.492C116.135 362.1 116.893 361.729 117.636 361.358C117.656 361.338 117.671 361.338 117.691 361.323C118.434 360.987 119.157 360.676 119.88 360.36C120.623 360.044 121.346 359.748 122.089 359.467C130.278 356.332 137.628 355.625 143.236 356.723C143.457 356.758 143.698 356.813 143.924 356.889C148.287 357.852 151.465 359.989 153.062 362.898C153.097 362.953 153.117 363.028 153.152 363.083C153.338 363.53 153.524 363.936 153.689 364.383C153.724 364.533 153.78 364.658 153.82 364.809C154.412 366.7 154.282 368.817 153.468 371.059Z" fill="black"/>
<mask id="path-2-inside-1_101_239" fill="white">
<path fill-rule="evenodd" clip-rule="evenodd" d="M159.528 380.98L159.538 380.971L153.333 371.411L143.919 356.904C143.693 356.829 143.452 356.774 143.231 356.739C137.623 355.64 130.273 356.348 122.084 359.483C121.341 359.763 120.618 360.059 119.875 360.375C119.706 360.45 119.536 360.523 119.366 360.597L119.365 360.598C118.811 360.839 118.255 361.081 117.686 361.338C117.678 361.345 117.67 361.348 117.663 361.352C117.653 361.357 117.643 361.362 117.631 361.374C117.409 361.484 117.186 361.595 116.962 361.707C116.435 361.968 115.902 362.233 115.367 362.507L115.04 362.681L115.04 362.681L115.04 362.681C114.382 363.03 113.717 363.383 113.062 363.766C111.521 364.619 109.959 365.582 108.383 366.64C108.232 366.731 108.087 366.826 107.936 366.936C107.303 367.363 106.656 367.809 106.023 368.271C105.245 368.827 104.447 369.419 103.648 370.031L104.241 370.663L104.612 371.069L127.045 395.387L134.994 403.991C137.051 406.869 139.821 409.224 143.091 410.787L220.636 447.811L220.657 447.823C220.657 447.823 232.591 453.622 241.046 465.118C242.938 467.708 244.564 471.383 246.077 474.805L246.078 474.805L246.078 474.805C246.962 476.805 247.809 478.717 248.647 480.277L248.642 480.292L248.682 480.382C249.867 482.599 250.801 484.204 251.233 484.65C251.268 484.686 251.308 484.711 251.328 484.736C253.136 486.526 256.178 485.834 256.896 481.139C257.037 480.221 257.027 479.308 256.916 478.396C256.861 477.939 256.781 477.488 256.67 477.036C256.565 476.605 256.429 476.163 256.274 475.722L251.881 463.323L251.886 463.307L249.094 455.427C249.093 455.422 249.091 455.415 249.088 455.407C249.087 455.403 249.086 455.398 249.084 455.394C249.079 455.377 249.074 455.362 249.074 455.362L245.479 445.205L245.439 445.15L241.804 434.807C241.728 434.593 241.637 434.384 241.547 434.178L241.513 434.1C240.941 432.921 240.057 431.948 238.977 431.281C238.254 430.804 237.421 430.478 236.547 430.312C236.206 430.252 235.85 430.222 235.488 430.202C235.137 430.192 234.775 430.207 234.409 430.262L233.53 430.378C233.224 430.422 232.873 430.496 232.499 430.575L232.498 430.575L232.497 430.575L232.497 430.575L232.481 430.578C232.149 430.633 231.828 430.704 231.502 430.814C231.065 430.934 230.603 431.06 230.211 431.165C230.07 431.213 229.935 431.266 229.799 431.318C229.723 431.348 229.646 431.377 229.569 431.406L229.503 431.43L229.532 431.378L172.055 391.1C169.59 389.374 166.864 388.286 164.072 387.794L159.528 380.98ZM69.9287 533.294C70.1604 538.187 70.7052 549.342 70.7052 549.342C70.7052 549.342 70.7353 587.539 69.5705 592.184L69.5404 592.274C68.9128 594.712 68.5262 596.512 68.5563 597.149C68.5563 597.178 68.5597 597.201 68.5627 597.221C68.5661 597.244 68.569 597.264 68.5664 597.285C68.6969 599.823 71.393 601.343 75.1033 598.348C76.5392 597.195 77.5684 595.615 78.2863 593.934L86.6256 574.081C86.6357 574.056 86.6658 574.026 86.6658 574.026L90.843 564.089V564.029L95.1156 553.922C96.3657 550.912 95.3766 547.441 92.7006 545.585L91.9726 545.079C91.0488 544.462 90.0748 543.925 89.0707 543.479C88.0083 543.007 88.4205 535.823 88.6069 533.209L96.4288 460.039C97.1317 453.268 95.4598 446.722 92.0457 441.305L94.3853 409.619L94.4606 408.671L96.8907 375.746C93.7879 378.475 90.8358 380.943 88.0142 383.15C76.4667 392.239 67.2739 397.189 60.1445 399.973L61.6859 413.476L62.9862 425.068L69.8745 533.293L69.9287 533.294Z"/>
</mask>
<path fill-rule="evenodd" clip-rule="evenodd" d="M159.528 380.98L159.538 380.971L153.333 371.411L143.919 356.904C143.693 356.829 143.452 356.774 143.231 356.739C137.623 355.64 130.273 356.348 122.084 359.483C121.341 359.763 120.618 360.059 119.875 360.375C119.706 360.45 119.536 360.523 119.366 360.597L119.365 360.598C118.811 360.839 118.255 361.081 117.686 361.338C117.678 361.345 117.67 361.348 117.663 361.352C117.653 361.357 117.643 361.362 117.631 361.374C117.409 361.484 117.186 361.595 116.962 361.707C116.435 361.968 115.902 362.233 115.367 362.507L115.04 362.681L115.04 362.681L115.04 362.681C114.382 363.03 113.717 363.383 113.062 363.766C111.521 364.619 109.959 365.582 108.383 366.64C108.232 366.731 108.087 366.826 107.936 366.936C107.303 367.363 106.656 367.809 106.023 368.271C105.245 368.827 104.447 369.419 103.648 370.031L104.241 370.663L104.612 371.069L127.045 395.387L134.994 403.991C137.051 406.869 139.821 409.224 143.091 410.787L220.636 447.811L220.657 447.823C220.657 447.823 232.591 453.622 241.046 465.118C242.938 467.708 244.564 471.383 246.077 474.805L246.078 474.805L246.078 474.805C246.962 476.805 247.809 478.717 248.647 480.277L248.642 480.292L248.682 480.382C249.867 482.599 250.801 484.204 251.233 484.65C251.268 484.686 251.308 484.711 251.328 484.736C253.136 486.526 256.178 485.834 256.896 481.139C257.037 480.221 257.027 479.308 256.916 478.396C256.861 477.939 256.781 477.488 256.67 477.036C256.565 476.605 256.429 476.163 256.274 475.722L251.881 463.323L251.886 463.307L249.094 455.427C249.093 455.422 249.091 455.415 249.088 455.407C249.087 455.403 249.086 455.398 249.084 455.394C249.079 455.377 249.074 455.362 249.074 455.362L245.479 445.205L245.439 445.15L241.804 434.807C241.728 434.593 241.637 434.384 241.547 434.178L241.513 434.1C240.941 432.921 240.057 431.948 238.977 431.281C238.254 430.804 237.421 430.478 236.547 430.312C236.206 430.252 235.85 430.222 235.488 430.202C235.137 430.192 234.775 430.207 234.409 430.262L233.53 430.378C233.224 430.422 232.873 430.496 232.499 430.575L232.498 430.575L232.497 430.575L232.497 430.575L232.481 430.578C232.149 430.633 231.828 430.704 231.502 430.814C231.065 430.934 230.603 431.06 230.211 431.165C230.07 431.213 229.935 431.266 229.799 431.318C229.723 431.348 229.646 431.377 229.569 431.406L229.503 431.43L229.532 431.378L172.055 391.1C169.59 389.374 166.864 388.286 164.072 387.794L159.528 380.98ZM69.9287 533.294C70.1604 538.187 70.7052 549.342 70.7052 549.342C70.7052 549.342 70.7353 587.539 69.5705 592.184L69.5404 592.274C68.9128 594.712 68.5262 596.512 68.5563 597.149C68.5563 597.178 68.5597 597.201 68.5627 597.221C68.5661 597.244 68.569 597.264 68.5664 597.285C68.6969 599.823 71.393 601.343 75.1033 598.348C76.5392 597.195 77.5684 595.615 78.2863 593.934L86.6256 574.081C86.6357 574.056 86.6658 574.026 86.6658 574.026L90.843 564.089V564.029L95.1156 553.922C96.3657 550.912 95.3766 547.441 92.7006 545.585L91.9726 545.079C91.0488 544.462 90.0748 543.925 89.0707 543.479C88.0083 543.007 88.4205 535.823 88.6069 533.209L96.4288 460.039C97.1317 453.268 95.4598 446.722 92.0457 441.305L94.3853 409.619L94.4606 408.671L96.8907 375.746C93.7879 378.475 90.8358 380.943 88.0142 383.15C76.4667 392.239 67.2739 397.189 60.1445 399.973L61.6859 413.476L62.9862 425.068L69.8745 533.293L69.9287 533.294Z" fill="white"/>
<path d="M159.538 380.971L160.224 381.699L160.831 381.127L160.377 380.427L159.538 380.971ZM159.528 380.98L158.843 380.253L158.227 380.832L158.696 381.535L159.528 380.98ZM153.333 371.411L152.494 371.955L152.494 371.955L153.333 371.411ZM143.919 356.904L144.758 356.36L144.567 356.066L144.235 355.956L143.919 356.904ZM143.231 356.739L143.039 357.72L143.057 357.724L143.074 357.726L143.231 356.739ZM122.084 359.483L122.438 360.418L122.442 360.416L122.084 359.483ZM119.875 360.375L119.484 359.455L119.475 359.459L119.875 360.375ZM119.366 360.597L119.765 361.514L119.765 361.514L119.366 360.597ZM119.365 360.598L118.966 359.681L118.966 359.681L119.365 360.598ZM117.686 361.338L117.274 360.427L117.174 360.472L117.086 360.538L117.686 361.338ZM117.663 361.352L118.101 362.251L118.101 362.251L117.663 361.352ZM117.631 361.374L118.078 362.268L118.223 362.196L118.338 362.081L117.631 361.374ZM116.962 361.707L117.406 362.602L117.406 362.602L116.962 361.707ZM115.367 362.507L114.91 361.617L114.904 361.621L114.897 361.624L115.367 362.507ZM115.04 362.681L115.502 363.568L115.509 363.564L115.04 362.681ZM115.04 362.681L115.487 363.575L115.494 363.572L115.502 363.568L115.04 362.681ZM115.04 362.681L114.592 361.786L114.582 361.792L114.571 361.798L115.04 362.681ZM113.062 363.766L113.546 364.641L113.557 364.635L113.567 364.629L113.062 363.766ZM108.383 366.64L108.897 367.498L108.919 367.485L108.94 367.471L108.383 366.64ZM107.936 366.936L108.495 367.766L108.511 367.755L108.527 367.743L107.936 366.936ZM106.023 368.271L106.605 369.084L106.613 369.078L106.023 368.271ZM103.648 370.031L103.04 369.238L102.164 369.909L102.919 370.715L103.648 370.031ZM104.241 370.663L104.979 369.988L104.97 369.979L104.241 370.663ZM104.612 371.069L103.874 371.744L103.877 371.747L104.612 371.069ZM127.045 395.387L126.31 396.065L126.31 396.065L127.045 395.387ZM134.994 403.991L135.807 403.41L135.771 403.359L135.729 403.313L134.994 403.991ZM143.091 410.787L142.66 411.69L142.66 411.69L143.091 410.787ZM220.636 447.811L221.129 446.941L221.098 446.924L221.067 446.909L220.636 447.811ZM220.657 447.823L220.164 448.693L220.192 448.709L220.22 448.723L220.657 447.823ZM241.046 465.118L241.853 464.528L241.852 464.526L241.046 465.118ZM246.077 474.805L245.163 475.209L245.164 475.211L246.077 474.805ZM246.078 474.805L245.164 475.211L245.168 475.221L245.173 475.231L246.078 474.805ZM246.078 474.805L246.992 474.401L246.988 474.39L246.983 474.38L246.078 474.805ZM248.647 480.277L249.595 480.594L249.733 480.184L249.528 479.803L248.647 480.277ZM248.642 480.292L247.694 479.974L247.57 480.343L247.729 480.698L248.642 480.292ZM248.682 480.382L247.769 480.789L247.783 480.821L247.8 480.853L248.682 480.382ZM251.233 484.65L250.514 485.346L250.52 485.352L250.526 485.358L251.233 484.65ZM251.328 484.736L250.548 485.361L250.584 485.406L250.624 485.446L251.328 484.736ZM256.896 481.139L255.908 480.988L255.908 480.988L256.896 481.139ZM256.916 478.396L255.923 478.516L255.923 478.516L256.916 478.396ZM256.67 477.036L255.699 477.274L255.699 477.274L256.67 477.036ZM256.274 475.722L257.217 475.389L257.216 475.388L256.274 475.722ZM251.881 463.323L250.932 463.005L250.823 463.332L250.938 463.656L251.881 463.323ZM251.886 463.307L252.834 463.625L252.943 463.298L252.828 462.974L251.886 463.307ZM249.094 455.427L248.124 455.672L248.136 455.717L248.151 455.761L249.094 455.427ZM249.088 455.407L248.131 455.695L248.131 455.696L249.088 455.407ZM249.084 455.394L248.13 455.693L248.13 455.694L249.084 455.394ZM249.074 455.362L250.023 455.046L250.02 455.037L250.017 455.029L249.074 455.362ZM245.479 445.205L246.422 444.871L246.373 444.734L246.287 444.616L245.479 445.205ZM245.439 445.15L244.496 445.481L244.544 445.62L244.631 445.739L245.439 445.15ZM241.804 434.807L242.747 434.475L242.747 434.473L241.804 434.807ZM241.547 434.178L240.631 434.578L240.631 434.578L241.547 434.178ZM241.513 434.1L242.429 433.7L242.421 433.681L242.412 433.663L241.513 434.1ZM238.977 431.281L238.427 432.115L238.439 432.124L238.452 432.131L238.977 431.281ZM236.547 430.312L236.734 429.33L236.721 429.328L236.547 430.312ZM235.488 430.202L235.544 429.204L235.53 429.203L235.517 429.203L235.488 430.202ZM234.409 430.262L234.539 431.254L234.548 431.253L234.558 431.251L234.409 430.262ZM233.53 430.378L233.4 429.386L233.386 429.388L233.53 430.378ZM232.499 430.575L232.293 429.596L232.283 429.598L232.274 429.6L232.499 430.575ZM232.498 430.575L232.715 431.551L232.723 431.549L232.498 430.575ZM232.497 430.575L232.707 431.553L232.714 431.551L232.497 430.575ZM232.497 430.575L232.702 431.554L232.706 431.553L232.497 430.575ZM232.481 430.578L232.645 431.565L232.666 431.561L232.686 431.557L232.481 430.578ZM231.502 430.814L231.767 431.778L231.795 431.771L231.822 431.761L231.502 430.814ZM230.211 431.165L229.952 430.2L229.92 430.208L229.889 430.219L230.211 431.165ZM229.799 431.318L230.159 432.251L230.159 432.251L229.799 431.318ZM229.569 431.406L229.22 430.469L229.218 430.47L229.569 431.406ZM229.503 431.43L228.623 430.956L227.358 433.303L229.854 432.367L229.503 431.43ZM229.532 431.378L230.412 431.852L230.834 431.069L230.106 430.559L229.532 431.378ZM172.055 391.1L172.629 390.281L172.629 390.28L172.055 391.1ZM164.072 387.794L163.241 388.349L163.478 388.705L163.899 388.779L164.072 387.794ZM70.7052 549.342L71.7052 549.342L71.7052 549.318L71.704 549.294L70.7052 549.342ZM69.9287 533.294L70.9276 533.247L70.8838 532.323L69.9597 532.295L69.9287 533.294ZM69.5705 592.184L70.519 592.501L70.5311 592.464L70.5405 592.427L69.5705 592.184ZM69.5404 592.274L68.5919 591.957L68.5807 591.99L68.5719 592.025L69.5404 592.274ZM68.5563 597.149H69.5563V597.126L69.5552 597.102L68.5563 597.149ZM68.5627 597.221L67.5735 597.368L67.5735 597.368L68.5627 597.221ZM68.5664 597.285L67.5741 597.161L67.5632 597.248L67.5677 597.336L68.5664 597.285ZM75.1033 598.348L74.4769 597.569L74.4752 597.57L75.1033 598.348ZM78.2863 593.934L79.2059 594.327L79.2083 594.322L78.2863 593.934ZM86.6256 574.081L87.5476 574.468L87.5509 574.46L87.554 574.453L86.6256 574.081ZM86.6658 574.026L87.3727 574.733L87.5116 574.594L87.5876 574.413L86.6658 574.026ZM90.843 564.089L91.7648 564.477L91.843 564.291V564.089H90.843ZM90.843 564.029L89.9219 563.64L89.843 563.826V564.029H90.843ZM95.1156 553.922L96.0367 554.311L96.0391 554.305L95.1156 553.922ZM92.7006 545.585L92.1294 546.406L92.1307 546.407L92.7006 545.585ZM91.9726 545.079L92.5439 544.258L92.536 544.252L92.528 544.247L91.9726 545.079ZM89.0707 543.479L89.4769 542.565L89.4762 542.565L89.0707 543.479ZM88.6069 533.209L87.6126 533.103L87.6107 533.12L87.6094 533.138L88.6069 533.209ZM96.4288 460.039L97.4231 460.146L97.4234 460.143L96.4288 460.039ZM92.0457 441.305L91.0485 441.231L91.0242 441.559L91.1997 441.838L92.0457 441.305ZM94.3853 409.619L93.3884 409.54L93.388 409.545L94.3853 409.619ZM94.4606 408.671L95.4575 408.75L95.4579 408.744L94.4606 408.671ZM96.8907 375.746L97.888 375.82L98.0681 373.379L96.2303 374.995L96.8907 375.746ZM88.0142 383.15L87.398 382.362L87.3957 382.364L88.0142 383.15ZM60.1445 399.973L59.7808 399.042L59.0637 399.322L59.151 400.087L60.1445 399.973ZM61.6859 413.476L62.6797 413.365L62.6795 413.363L61.6859 413.476ZM62.9862 425.068L63.9842 425.005L63.9827 424.981L63.98 424.957L62.9862 425.068ZM69.8745 533.293L68.8766 533.356L68.9343 534.264L69.8436 534.292L69.8745 533.293ZM158.853 380.243L158.843 380.253L160.214 381.708L160.224 381.699L158.853 380.243ZM152.494 371.955L158.699 381.515L160.377 380.427L154.172 370.866L152.494 371.955ZM143.08 357.449L152.494 371.955L154.172 370.866L144.758 356.36L143.08 357.449ZM143.074 357.726C143.25 357.754 143.437 357.798 143.603 357.853L144.235 355.956C143.95 355.861 143.655 355.794 143.388 355.751L143.074 357.726ZM122.442 360.416C130.503 357.33 137.659 356.666 143.039 357.72L143.423 355.757C137.587 354.614 130.043 355.365 121.727 358.549L122.442 360.416ZM120.267 361.296C121.002 360.983 121.711 360.693 122.438 360.418L121.731 358.547C120.971 358.834 120.235 359.136 119.484 359.455L120.267 361.296ZM119.765 361.514C119.935 361.44 120.105 361.366 120.276 361.292L119.475 359.459C119.306 359.533 119.137 359.607 118.967 359.681L119.765 361.514ZM119.764 361.515L119.765 361.514L118.967 359.68L118.966 359.681L119.764 361.515ZM118.098 362.25C118.659 361.996 119.209 361.756 119.764 361.515L118.966 359.681C118.413 359.922 117.85 360.167 117.274 360.427L118.098 362.25ZM118.101 362.251C118.109 362.247 118.194 362.208 118.286 362.139L117.086 360.538C117.162 360.482 117.231 360.45 117.224 360.453L118.101 362.251ZM118.338 362.081C118.289 362.13 118.236 362.172 118.181 362.206C118.133 362.236 118.091 362.256 118.101 362.251L117.224 360.453C117.196 360.467 117.059 360.531 116.924 360.666L118.338 362.081ZM117.406 362.602C117.631 362.491 117.855 362.38 118.078 362.268L117.184 360.479C116.964 360.589 116.741 360.699 116.517 360.811L117.406 362.602ZM115.823 363.397C116.352 363.126 116.879 362.864 117.406 362.602L116.517 360.811C115.991 361.072 115.452 361.339 114.91 361.617L115.823 363.397ZM115.509 363.564L115.836 363.39L114.897 361.624L114.571 361.798L115.509 363.564ZM115.502 363.568L115.502 363.568L114.578 361.794L114.578 361.794L115.502 363.568ZM115.487 363.575L115.487 363.575L114.593 361.786L114.592 361.786L115.487 363.575ZM113.567 364.629C114.201 364.259 114.848 363.915 115.509 363.564L114.571 361.798C113.916 362.145 113.232 362.508 112.557 362.903L113.567 364.629ZM108.94 367.471C110.496 366.426 112.033 365.478 113.546 364.641L112.578 362.891C111.008 363.76 109.422 364.738 107.825 365.81L108.94 367.471ZM108.527 367.743C108.65 367.653 108.77 367.574 108.897 367.498L107.869 365.783C107.695 365.887 107.523 365.999 107.345 366.13L108.527 367.743ZM106.613 369.078C107.231 368.627 107.868 368.188 108.495 367.766L107.377 366.107C106.739 366.537 106.08 366.991 105.434 367.463L106.613 369.078ZM104.257 370.825C105.047 370.219 105.836 369.634 106.605 369.084L105.441 367.457C104.654 368.021 103.847 368.619 103.04 369.238L104.257 370.825ZM104.97 369.979L104.378 369.347L102.919 370.715L103.511 371.347L104.97 369.979ZM105.35 370.395L104.979 369.988L103.503 371.338L103.874 371.744L105.35 370.395ZM127.78 394.709L105.347 370.391L103.877 371.747L126.31 396.065L127.78 394.709ZM135.729 403.313L127.779 394.708L126.31 396.065L134.26 404.67L135.729 403.313ZM143.522 409.885C140.408 408.396 137.768 406.152 135.807 403.41L134.181 404.573C136.334 407.585 139.235 410.053 142.66 411.69L143.522 409.885ZM221.067 446.909L143.522 409.885L142.66 411.69L220.205 448.714L221.067 446.909ZM221.15 446.953L221.129 446.941L220.143 448.681L220.164 448.693L221.15 446.953ZM241.852 464.526C237.542 458.666 232.358 454.272 228.262 451.346C226.212 449.881 224.429 448.78 223.154 448.043C222.517 447.675 222.007 447.397 221.653 447.21C221.477 447.117 221.339 447.047 221.245 446.999C221.197 446.975 221.161 446.957 221.136 446.944C221.123 446.938 221.113 446.933 221.106 446.93C221.103 446.928 221.1 446.927 221.098 446.926C221.097 446.925 221.096 446.925 221.096 446.924C221.095 446.924 221.095 446.924 221.095 446.924C221.094 446.924 221.094 446.924 220.657 447.823C220.22 448.723 220.22 448.723 220.22 448.723C220.22 448.723 220.22 448.722 220.22 448.722C220.22 448.723 220.22 448.723 220.22 448.723C220.221 448.723 220.223 448.724 220.225 448.725C220.23 448.727 220.237 448.731 220.247 448.736C220.268 448.746 220.299 448.762 220.342 448.783C220.426 448.826 220.553 448.891 220.719 448.979C221.052 449.155 221.54 449.42 222.153 449.775C223.381 450.484 225.109 451.551 227.1 452.973C231.085 455.821 236.095 460.074 240.24 465.711L241.852 464.526ZM246.992 474.4C245.492 471.01 243.822 467.223 241.853 464.528L240.238 465.708C242.053 468.193 243.635 471.756 245.163 475.209L246.992 474.4ZM246.991 474.399L246.991 474.398L245.164 475.211L245.164 475.211L246.991 474.399ZM246.983 474.38L246.982 474.379L245.173 475.231L245.173 475.231L246.983 474.38ZM249.528 479.803C248.711 478.284 247.881 476.411 246.992 474.401L245.163 475.21C246.043 477.199 246.906 479.15 247.767 480.75L249.528 479.803ZM249.59 480.609L249.595 480.594L247.699 479.959L247.694 479.974L249.59 480.609ZM249.596 479.975L249.556 479.885L247.729 480.698L247.769 480.789L249.596 479.975ZM251.952 483.955C251.831 483.831 251.547 483.424 251.1 482.67C250.675 481.954 250.154 481.013 249.564 479.91L247.8 480.853C248.396 481.967 248.933 482.938 249.38 483.69C249.804 484.405 250.202 485.023 250.514 485.346L251.952 483.955ZM252.109 484.111C252.056 484.045 252.006 483.998 251.979 483.973C251.951 483.948 251.925 483.928 251.917 483.921C251.904 483.91 251.906 483.912 251.908 483.913C251.911 483.917 251.924 483.927 251.94 483.943L250.526 485.358C250.56 485.391 250.59 485.418 250.612 485.437C250.623 485.446 250.632 485.454 250.639 485.46C250.643 485.463 250.646 485.465 250.649 485.467C250.65 485.468 250.651 485.47 250.652 485.47C250.653 485.471 250.654 485.472 250.655 485.472C250.659 485.475 250.658 485.475 250.656 485.474C250.655 485.472 250.649 485.467 250.641 485.46C250.633 485.453 250.62 485.441 250.605 485.426C250.59 485.411 250.57 485.389 250.548 485.361L252.109 484.111ZM255.908 480.988C255.575 483.166 254.746 484.14 254.075 484.474C253.445 484.788 252.685 484.672 252.032 484.025L250.624 485.446C251.779 486.59 253.444 487.023 254.967 486.265C256.449 485.527 257.5 483.808 257.885 481.29L255.908 480.988ZM255.923 478.516C256.025 479.356 256.032 480.176 255.908 480.988L257.885 481.291C258.041 480.266 258.028 479.26 257.909 478.275L255.923 478.516ZM255.699 477.274C255.799 477.684 255.873 478.096 255.923 478.516L257.909 478.275C257.849 477.782 257.762 477.291 257.642 476.799L255.699 477.274ZM255.331 476.055C255.477 476.471 255.603 476.88 255.699 477.274L257.642 476.799C257.527 476.329 257.381 475.856 257.217 475.389L255.331 476.055ZM250.938 463.656L255.331 476.056L257.216 475.388L252.823 462.989L250.938 463.656ZM250.937 462.99L250.932 463.005L252.829 463.64L252.834 463.625L250.937 462.99ZM248.151 455.761L250.943 463.641L252.828 462.974L250.037 455.093L248.151 455.761ZM248.131 455.696C248.131 455.695 248.13 455.694 248.129 455.691C248.129 455.689 248.128 455.687 248.128 455.684C248.127 455.681 248.126 455.677 248.124 455.672L250.064 455.183C250.057 455.156 250.05 455.132 250.046 455.119L248.131 455.696ZM248.13 455.694C248.131 455.695 248.131 455.695 248.131 455.695L250.046 455.12C250.043 455.11 250.041 455.101 250.038 455.094L248.13 455.694ZM249.074 455.362C248.125 455.678 248.125 455.678 248.125 455.678C248.125 455.678 248.125 455.678 248.125 455.678C248.125 455.678 248.125 455.678 248.125 455.678C248.125 455.678 248.125 455.678 248.125 455.678C248.125 455.678 248.125 455.678 248.125 455.678C248.125 455.678 248.125 455.678 248.125 455.678C248.125 455.678 248.125 455.678 248.125 455.678C248.125 455.678 248.125 455.678 248.125 455.678C248.125 455.679 248.126 455.68 248.126 455.682C248.128 455.685 248.129 455.689 248.13 455.693L250.038 455.095C250.034 455.082 250.031 455.07 250.028 455.062C250.027 455.057 250.025 455.054 250.024 455.051C250.024 455.05 250.024 455.049 250.023 455.048C250.023 455.048 250.023 455.047 250.023 455.047C250.023 455.047 250.023 455.047 250.023 455.046C250.023 455.046 250.023 455.046 250.023 455.046C250.023 455.046 250.023 455.046 250.023 455.046C250.023 455.046 250.023 455.046 250.023 455.046C250.023 455.046 250.023 455.046 250.023 455.046C250.023 455.046 250.023 455.046 249.074 455.362ZM244.536 445.538L248.131 455.696L250.017 455.029L246.422 444.871L244.536 445.538ZM244.631 445.739L244.671 445.794L246.287 444.616L246.247 444.561L244.631 445.739ZM240.861 435.138L244.496 445.481L246.382 444.818L242.747 434.475L240.861 435.138ZM240.631 434.578C240.723 434.789 240.8 434.966 240.862 435.141L242.747 434.473C242.657 434.22 242.551 433.978 242.464 433.778L240.631 434.578ZM240.596 434.499L240.631 434.578L242.464 433.778L242.429 433.7L240.596 434.499ZM238.452 432.131C239.369 432.698 240.123 433.527 240.613 434.536L242.412 433.663C241.758 432.315 240.745 431.197 239.503 430.43L238.452 432.131ZM236.361 431.295C237.115 431.438 237.823 431.717 238.427 432.115L239.528 430.446C238.686 429.891 237.727 429.518 236.734 429.33L236.361 431.295ZM235.433 431.201C235.779 431.22 236.09 431.247 236.374 431.297L236.721 429.328C236.322 429.257 235.92 429.225 235.544 429.204L235.433 431.201ZM234.558 431.251C234.855 431.206 235.156 431.193 235.46 431.202L235.517 429.203C235.117 429.191 234.695 429.208 234.26 429.273L234.558 431.251ZM233.66 431.369L234.539 431.254L234.278 429.271L233.4 429.386L233.66 431.369ZM232.704 431.553C233.088 431.472 233.405 431.406 233.674 431.367L233.386 429.388C233.042 429.438 232.659 429.519 232.293 429.596L232.704 431.553ZM232.723 431.549L232.723 431.549L232.274 429.6L232.273 429.6L232.723 431.549ZM232.714 431.551L232.715 431.551L232.281 429.598L232.28 429.599L232.714 431.551ZM232.706 431.553L232.707 431.553L232.288 429.597L232.287 429.597L232.706 431.553ZM232.686 431.557L232.702 431.554L232.291 429.596L232.275 429.6L232.686 431.557ZM231.822 431.761C232.081 431.674 232.346 431.615 232.645 431.565L232.316 429.592C231.953 429.652 231.575 429.734 231.181 429.867L231.822 431.761ZM230.471 432.131C230.864 432.025 231.328 431.899 231.767 431.778L231.236 429.85C230.802 429.97 230.342 430.095 229.952 430.2L230.471 432.131ZM230.159 432.251C230.298 432.197 230.415 432.152 230.534 432.112L229.889 430.219C229.725 430.274 229.571 430.334 229.438 430.385L230.159 432.251ZM229.917 432.343C230.002 432.312 230.084 432.28 230.159 432.251L229.438 430.385C229.361 430.415 229.291 430.442 229.22 430.469L229.917 432.343ZM229.854 432.367L229.92 432.342L229.218 430.47L229.152 430.494L229.854 432.367ZM228.651 430.903L228.623 430.956L230.384 431.905L230.412 431.852L228.651 430.903ZM171.481 391.919L228.958 432.197L230.106 430.559L172.629 390.281L171.481 391.919ZM163.899 388.779C166.551 389.246 169.14 390.28 171.482 391.919L172.629 390.28C170.04 388.469 167.177 387.325 164.246 386.809L163.899 388.779ZM158.696 381.535L163.241 388.349L164.904 387.239L160.36 380.426L158.696 381.535ZM70.7052 549.342C71.704 549.294 71.704 549.293 71.704 549.293C71.704 549.293 71.704 549.293 71.704 549.293C71.7039 549.293 71.7039 549.292 71.7039 549.292C71.7038 549.29 71.7037 549.288 71.7036 549.285C71.7033 549.28 71.7029 549.272 71.7024 549.261C71.7014 549.24 71.6998 549.209 71.6978 549.167C71.6938 549.084 71.6878 548.962 71.6801 548.805C71.6648 548.49 71.6426 548.035 71.6153 547.474C71.5606 546.352 71.4852 544.805 71.4026 543.105C71.2375 539.704 71.0434 535.693 70.9276 533.247L68.9298 533.342C69.0457 535.789 69.2398 539.801 69.405 543.202C69.4876 544.902 69.5629 546.449 69.6176 547.572C69.645 548.133 69.6672 548.588 69.6825 548.902C69.6902 549.059 69.6961 549.182 69.7002 549.265C69.7022 549.306 69.7038 549.338 69.7048 549.359C69.7053 549.37 69.7057 549.378 69.706 549.383C69.7061 549.386 69.7062 549.388 69.7063 549.389C69.7063 549.39 69.7063 549.39 69.7063 549.391C69.7064 549.391 69.7064 549.391 69.7064 549.391C69.7064 549.391 69.7064 549.391 70.7052 549.342ZM70.5405 592.427C70.7102 591.75 70.8411 590.561 70.9509 589.083C71.0629 587.577 71.1578 585.691 71.2385 583.568C71.3999 579.322 71.5055 574.103 71.5745 569.035C71.6436 563.966 71.6763 559.043 71.6917 555.387C71.6994 553.559 71.7027 552.048 71.7042 550.994C71.7049 550.467 71.7052 550.054 71.7052 549.773C71.7053 549.632 71.7053 549.524 71.7052 549.452C71.7052 549.415 71.7052 549.388 71.7052 549.369C71.7052 549.36 71.7052 549.353 71.7052 549.349C71.7052 549.346 71.7052 549.345 71.7052 549.343C71.7052 549.343 71.7052 549.342 71.7052 549.342C71.7052 549.342 71.7052 549.342 70.7052 549.342C69.7052 549.343 69.7052 549.343 69.7052 549.344C69.7052 549.344 69.7052 549.344 69.7052 549.345C69.7052 549.346 69.7052 549.348 69.7052 549.35C69.7052 549.355 69.7052 549.361 69.7052 549.371C69.7052 549.389 69.7052 549.416 69.7052 549.452C69.7053 549.525 69.7053 549.632 69.7052 549.772C69.7052 550.053 69.7049 550.465 69.7042 550.991C69.7028 552.044 69.6994 553.553 69.6917 555.379C69.6763 559.031 69.6437 563.947 69.5747 569.008C69.5057 574.07 69.4004 579.27 69.2399 583.492C69.1596 585.604 69.0658 587.463 68.9564 588.935C68.8449 590.435 68.722 591.456 68.6005 591.94L70.5405 592.427ZM70.4888 592.591L70.519 592.501L68.622 591.867L68.5919 591.957L70.4888 592.591ZM69.5552 597.102C69.5471 596.93 69.6056 596.444 69.7813 595.588C69.9478 594.777 70.1968 593.735 70.5088 592.523L68.5719 592.025C68.2564 593.25 67.9982 594.328 67.8221 595.186C67.6551 595.999 67.5355 596.732 67.5574 597.197L69.5552 597.102ZM69.552 597.075C69.5492 597.056 69.5563 597.097 69.5563 597.149H67.5563C67.5563 597.259 67.5703 597.346 67.5735 597.368L69.552 597.075ZM69.5586 597.409C69.581 597.23 69.5521 597.076 69.552 597.075L67.5735 597.368C67.5762 597.386 67.5722 597.362 67.5699 597.332C67.567 597.295 67.5648 597.235 67.5741 597.161L69.5586 597.409ZM74.4752 597.57C72.7503 598.962 71.4797 599.129 70.7619 598.928C70.0918 598.741 69.6123 598.151 69.5651 597.234L67.5677 597.336C67.651 598.956 68.5848 600.396 70.223 600.854C71.8134 601.299 73.746 600.729 75.7313 599.126L74.4752 597.57ZM77.3668 593.541C76.6923 595.12 75.7488 596.547 74.4769 597.569L75.7296 599.128C77.3296 597.842 78.4445 596.109 79.2059 594.327L77.3668 593.541ZM85.7037 573.694L77.3644 593.547L79.2083 594.322L87.5476 574.468L85.7037 573.694ZM86.6658 574.026C85.9588 573.319 85.9587 573.319 85.9586 573.319C85.9586 573.319 85.9585 573.319 85.9585 573.319C85.9583 573.319 85.9582 573.319 85.9581 573.319C85.9579 573.32 85.9576 573.32 85.9574 573.32C85.9569 573.321 85.9564 573.321 85.9559 573.322C85.9549 573.323 85.9538 573.324 85.9527 573.325C85.9505 573.327 85.9481 573.329 85.9455 573.332C85.9403 573.338 85.9343 573.344 85.9276 573.351C85.9147 573.365 85.8972 573.384 85.8777 573.408C85.8569 573.433 85.7626 573.546 85.6972 573.709L87.554 574.453C87.4987 574.591 87.4245 574.676 87.4213 574.68C87.4105 574.693 87.4012 574.703 87.3942 574.711C87.3905 574.715 87.3869 574.719 87.3835 574.722C87.3817 574.724 87.3799 574.726 87.3782 574.728C87.3773 574.729 87.3764 574.729 87.3755 574.73C87.375 574.731 87.3746 574.731 87.3741 574.732C87.3739 574.732 87.3737 574.732 87.3734 574.732C87.3733 574.733 87.3732 574.733 87.3731 574.733C87.373 574.733 87.373 574.733 87.3729 574.733C87.3728 574.733 87.3727 574.733 86.6658 574.026ZM89.9211 563.702L85.7439 573.638L87.5876 574.413L91.7648 564.477L89.9211 563.702ZM89.843 564.029V564.089H91.843V564.029H89.843ZM94.1945 553.533L89.9219 563.64L91.7641 564.418L96.0366 554.311L94.1945 553.533ZM92.1307 546.407C94.4132 547.99 95.2646 550.956 94.1921 553.538L96.0391 554.305C97.4668 550.868 96.3401 546.892 93.2705 544.764L92.1307 546.407ZM91.4014 545.9L92.1294 546.406L93.2718 544.765L92.5439 544.258L91.4014 545.9ZM88.6644 544.392C89.6163 544.816 90.5404 545.325 91.4173 545.91L92.528 544.247C91.5572 543.599 90.5333 543.035 89.4769 542.565L88.6644 544.392ZM87.6094 533.138C87.5158 534.451 87.3639 536.93 87.3705 539.15C87.3737 540.255 87.4161 541.332 87.5332 542.18C87.5911 542.599 87.6733 543.009 87.7987 543.352C87.8999 543.629 88.1284 544.155 88.6652 544.393L89.4762 542.565C89.7474 542.685 89.7564 542.883 89.6775 542.666C89.6228 542.516 89.5643 542.267 89.5144 541.906C89.4158 541.192 89.3737 540.221 89.3705 539.144C89.3641 537 89.5116 534.581 89.6044 533.28L87.6094 533.138ZM95.4344 459.933L87.6126 533.103L89.6012 533.315L97.4231 460.146L95.4344 459.933ZM91.1997 441.838C94.4986 447.072 96.1131 453.395 95.4341 459.936L97.4234 460.143C98.1502 453.14 96.421 446.372 92.8918 440.772L91.1997 441.838ZM93.388 409.545L91.0485 441.231L93.043 441.378L95.3826 409.693L93.388 409.545ZM93.4638 408.592L93.3885 409.54L95.3822 409.698L95.4575 408.75L93.4638 408.592ZM95.8934 375.672L93.4634 408.597L95.4579 408.744L97.888 375.82L95.8934 375.672ZM88.6303 383.937C91.4698 381.716 94.4369 379.236 97.5511 376.497L96.2303 374.995C93.1389 377.714 90.2017 380.169 87.398 382.362L88.6303 383.937ZM60.5083 400.905C67.7432 398.08 77.0207 393.075 88.6326 383.935L87.3957 382.364C75.9127 391.402 66.8045 396.299 59.7808 399.042L60.5083 400.905ZM62.6795 413.363L61.1381 399.86L59.151 400.087L60.6924 413.59L62.6795 413.363ZM63.98 424.957L62.6797 413.365L60.6921 413.588L61.9925 425.18L63.98 424.957ZM70.8725 533.229L63.9842 425.005L61.9883 425.132L68.8766 533.356L70.8725 533.229ZM69.9597 532.295L69.9055 532.293L69.8436 534.292L69.8977 534.294L69.9597 532.295Z" fill="black" mask="url(#path-2-inside-1_101_239)"/>
<path opacity="0.5" d="M103.656 370.02L104.249 370.647L104.625 371.054C110.354 367.517 117.604 364.924 126.731 364.312C137.034 363.625 144.735 364.844 150.258 366.564L143.927 356.889C139.022 355.625 132.394 356.161 125.617 358.228C118.829 360.325 111.313 364.122 103.656 370.02Z" fill="#ECECEC"/>
<path opacity="0.5" d="M96.8922 375.738L94.4621 408.663L94.3868 409.611L92.0472 441.297C92.0472 440.239 92.4187 400.412 88.0156 383.142C90.8372 380.935 93.7894 378.467 96.8922 375.738Z" fill="#ECECEC"/>
<path d="M31.4684 314.847C34.772 318.273 39.9231 321.523 46.2793 324.137C48.1269 324.904 50.085 325.606 52.1334 326.233C54.5935 327.016 57.1741 327.703 59.8501 328.265C68.4304 330.08 76.5839 330.391 83.2062 329.469C87.1223 328.907 90.5012 327.934 93.1018 326.559C96.2147 324.934 98.238 322.742 98.8003 320.099C98.8455 319.878 98.8806 319.677 98.9107 319.457C99.2873 316.201 97.4548 312.745 93.9805 309.51C92.1781 307.805 89.9439 306.179 87.3432 304.645C81.7853 301.389 74.5555 298.625 66.4623 296.92C60.0107 295.576 53.8153 295.059 48.3177 295.28C47.8809 295.295 47.439 295.31 47.0173 295.34C36.4037 295.997 28.702 299.498 27.5272 305.101C26.8494 308.246 28.3556 311.622 31.4684 314.847Z" fill="black"/>
<mask id="path-7-inside-2_101_239" fill="white">
<path fill-rule="evenodd" clip-rule="evenodd" d="M37.2101 117.134L33.0732 109.102L33.0079 108.976C32.9075 108.791 32.7719 108.625 32.6163 108.5L22.2436 100.264C21.7215 99.8473 20.9583 99.9326 20.5416 100.459C20.16 100.936 20.2002 101.613 20.6069 102.044L27.8534 109.708L15.0915 104.257C14.4739 103.996 13.766 104.282 13.4999 104.894C13.2589 105.456 13.4799 106.103 13.992 106.409L25.3063 113.154L13.5654 108.75C12.9679 108.524 12.3002 108.83 12.0742 109.427C11.8684 109.974 12.1044 110.581 12.6115 110.852L22.8011 116.325L14.5816 115.569C14.0243 115.393 13.4319 115.699 13.2562 116.256C13.0955 116.763 13.3415 117.305 13.8084 117.525L22.8148 119.839L23.821 122.01C24.9607 124.472 25.8795 127.026 26.728 129.604C27.2942 131.323 28.031 132.88 29.0828 133.912L29.6611 139.737L43.8398 138.332L42.8178 128.037L43.6578 101.353C42.1717 100.992 40.3291 105.366 40.0128 107.437C39.5315 110.586 38.4083 113.918 37.2101 117.134Z"/>
</mask>
<path fill-rule="evenodd" clip-rule="evenodd" d="M37.2101 117.134L33.0732 109.102L33.0079 108.976C32.9075 108.791 32.7719 108.625 32.6163 108.5L22.2436 100.264C21.7215 99.8473 20.9583 99.9326 20.5416 100.459C20.16 100.936 20.2002 101.613 20.6069 102.044L27.8534 109.708L15.0915 104.257C14.4739 103.996 13.766 104.282 13.4999 104.894C13.2589 105.456 13.4799 106.103 13.992 106.409L25.3063 113.154L13.5654 108.75C12.9679 108.524 12.3002 108.83 12.0742 109.427C11.8684 109.974 12.1044 110.581 12.6115 110.852L22.8011 116.325L14.5816 115.569C14.0243 115.393 13.4319 115.699 13.2562 116.256C13.0955 116.763 13.3415 117.305 13.8084 117.525L22.8148 119.839L23.821 122.01C24.9607 124.472 25.8795 127.026 26.728 129.604C27.2942 131.323 28.031 132.88 29.0828 133.912L29.6611 139.737L43.8398 138.332L42.8178 128.037L43.6578 101.353C42.1717 100.992 40.3291 105.366 40.0128 107.437C39.5315 110.586 38.4083 113.918 37.2101 117.134Z" fill="white"/>
<path d="M33.0732 109.102L33.9622 108.644L33.9602 108.64L33.0732 109.102ZM37.2101 117.134L36.3211 117.592L37.3571 119.603L38.1471 117.483L37.2101 117.134ZM33.0079 108.976L33.895 108.515L33.8913 108.508L33.8874 108.501L33.0079 108.976ZM32.6163 108.5L33.2437 107.721L33.2381 107.717L32.6163 108.5ZM22.2436 100.264L21.6202 101.046L21.6218 101.047L22.2436 100.264ZM20.5416 100.459L21.3222 101.084L21.3258 101.08L20.5416 100.459ZM20.6069 102.044L19.8793 102.73L19.8803 102.731L20.6069 102.044ZM27.8534 109.708L27.4606 110.627L28.58 109.02L27.8534 109.708ZM15.0915 104.257L15.4843 103.337L15.4806 103.336L15.0915 104.257ZM13.4999 104.894L12.5828 104.495L12.5809 104.5L13.4999 104.894ZM13.992 106.409L13.4791 107.267L13.4799 107.267L13.992 106.409ZM25.3063 113.154L24.9551 114.09L25.8184 112.295L25.3063 113.154ZM13.5654 108.75L13.2119 109.686L13.2142 109.686L13.5654 108.75ZM12.0742 109.427L11.139 109.073L11.1384 109.075L12.0742 109.427ZM12.6115 110.852L13.0847 109.971L13.0826 109.97L12.6115 110.852ZM22.8011 116.325L22.7096 117.321L23.2743 115.444L22.8011 116.325ZM14.5816 115.569L14.2812 116.523L14.3834 116.555L14.4901 116.565L14.5816 115.569ZM13.2562 116.256L14.2094 116.559L14.2098 116.557L13.2562 116.256ZM13.8084 117.525L13.3811 118.429L13.4673 118.47L13.5597 118.494L13.8084 117.525ZM22.8148 119.839L23.7221 119.418L23.5227 118.988L23.0636 118.87L22.8148 119.839ZM23.821 122.01L24.7286 121.59L24.7283 121.589L23.821 122.01ZM26.728 129.604L25.7781 129.916L25.7782 129.917L26.728 129.604ZM29.0828 133.912L30.078 133.813L30.0421 133.453L29.7832 133.199L29.0828 133.912ZM29.6611 139.737L28.666 139.836L28.7648 140.831L29.7597 140.732L29.6611 139.737ZM43.8398 138.332L43.9385 139.327L44.9338 139.229L44.835 138.233L43.8398 138.332ZM42.8178 128.037L41.8183 128.006L41.8162 128.071L41.8227 128.136L42.8178 128.037ZM43.6578 101.353L44.6573 101.385L44.6829 100.573L43.894 100.381L43.6578 101.353ZM40.0128 107.437L41.0014 107.589L41.0014 107.588L40.0128 107.437ZM32.1842 109.56L36.3211 117.592L38.0991 116.676L33.9622 108.644L32.1842 109.56ZM32.1209 109.438L32.1862 109.563L33.9602 108.64L33.895 108.515L32.1209 109.438ZM31.9889 109.279C32.0342 109.315 32.0867 109.375 32.1284 109.452L33.8874 108.501C33.7284 108.206 33.5097 107.935 33.2437 107.721L31.9889 109.279ZM21.6218 101.047L31.9945 109.283L33.2381 107.717L22.8655 99.4805L21.6218 101.047ZM21.3258 101.08C21.3981 100.988 21.53 100.974 21.6202 101.046L22.867 99.4817C21.913 98.721 20.5185 98.8768 19.7574 99.8388L21.3258 101.08ZM21.3345 101.358C21.2623 101.282 21.259 101.163 21.3222 101.084L19.761 99.8342C19.061 100.708 19.1382 101.944 19.8793 102.73L21.3345 101.358ZM28.58 109.02L21.3335 101.357L19.8803 102.731L27.1268 110.395L28.58 109.02ZM14.6987 105.176L27.4606 110.627L28.2462 108.788L15.4843 103.337L14.6987 105.176ZM14.417 105.293C14.4654 105.181 14.5919 105.131 14.7024 105.178L15.4806 103.336C14.356 102.861 13.0667 103.382 12.5829 104.495L14.417 105.293ZM14.5049 105.55C14.415 105.496 14.3789 105.381 14.4189 105.288L12.5809 104.5C12.1389 105.53 12.5447 106.709 13.4791 107.267L14.5049 105.55ZM25.8184 112.295L14.5041 105.55L13.4799 107.267L24.7942 114.013L25.8184 112.295ZM13.2142 109.686L24.9551 114.09L25.6575 112.218L13.9166 107.814L13.2142 109.686ZM13.0095 109.781C13.0423 109.695 13.137 109.657 13.2119 109.686L13.9188 107.815C12.7988 107.392 11.558 107.966 11.139 109.073L13.0095 109.781ZM13.0826 109.97C13.0126 109.932 12.9834 109.851 13.0101 109.78L11.1384 109.075C10.7534 110.097 11.1962 111.23 12.1403 111.734L13.0826 109.97ZM23.2743 115.444L13.0847 109.971L12.1383 111.733L22.3279 117.206L23.2743 115.444ZM14.4901 116.565L22.7096 117.321L22.8927 115.329L14.6732 114.573L14.4901 116.565ZM14.2098 116.557C14.2182 116.531 14.2466 116.512 14.2812 116.523L14.8821 114.615C13.8021 114.275 12.6456 114.868 12.3025 115.955L14.2098 116.557ZM14.2358 116.621C14.2286 116.618 14.2187 116.61 14.212 116.595C14.2059 116.581 14.2059 116.569 14.2094 116.559L12.303 115.954C11.9888 116.945 12.4683 117.998 13.3811 118.429L14.2358 116.621ZM23.0636 118.87L14.0572 116.557L13.5597 118.494L22.566 120.807L23.0636 118.87ZM24.7283 121.589L23.7221 119.418L21.9075 120.259L22.9137 122.43L24.7283 121.589ZM27.6779 129.291C26.8245 126.698 25.8918 124.103 24.7286 121.59L22.9135 122.43C24.0296 124.841 24.9345 127.353 25.7781 129.916L27.6779 129.291ZM29.7832 133.199C28.9049 132.337 28.2293 130.965 27.6778 129.291L25.7782 129.917C26.3592 131.681 27.157 133.424 28.3825 134.626L29.7832 133.199ZM28.0877 134.011L28.666 139.836L30.6562 139.638L30.078 133.813L28.0877 134.011ZM29.7597 140.732L43.9385 139.327L43.7412 137.337L29.5625 138.742L29.7597 140.732ZM44.835 138.233L43.8129 127.939L41.8227 128.136L42.8447 138.431L44.835 138.233ZM42.6583 101.322L41.8183 128.006L43.8173 128.069L44.6573 101.385L42.6583 101.322ZM41.0014 107.588C41.1398 106.682 41.6376 105.176 42.2822 103.948C42.6048 103.333 42.9304 102.853 43.2174 102.563C43.5467 102.229 43.5901 102.366 43.4217 102.325L43.894 100.381C42.9826 100.16 42.2383 100.708 41.7942 101.158C41.308 101.65 40.8745 102.326 40.5112 103.018C39.7838 104.405 39.2022 106.122 39.0243 107.287L41.0014 107.588ZM38.1471 117.483C39.3479 114.26 40.5034 110.846 41.0014 107.589L39.0243 107.286C38.5597 110.326 37.4688 113.575 36.273 116.785L38.1471 117.483Z" fill="black" mask="url(#path-7-inside-2_101_239)"/>
<mask id="path-9-inside-3_101_239" fill="white">
<path fill-rule="evenodd" clip-rule="evenodd" d="M144.915 137.61L144.896 137.648L144.895 137.649L144.895 137.65L144.895 137.651C144.895 137.651 144.897 137.658 144.902 137.673L142.592 148.755L156.541 151.657L157.798 145.628C158.399 145.203 158.991 144.703 159.57 144.16C161.548 142.299 163.571 140.488 165.745 138.863L167.786 137.341L178.346 137.869C178.868 137.899 179.34 137.543 179.44 137.016C179.551 136.444 179.174 135.893 178.602 135.782L170.453 134.169L180.899 133.544C181.471 133.544 181.968 133.127 182.049 132.546C182.134 131.914 181.692 131.327 181.06 131.241L168.616 130.311L182.373 128.914C182.97 128.889 183.472 128.428 183.528 127.816C183.588 127.149 183.101 126.557 182.433 126.497L170.006 126.159L180.042 124.327C180.604 124.141 180.961 123.564 180.855 122.963C180.74 122.3 180.107 121.864 179.45 121.979L164.428 122.812C164.232 122.847 164.031 122.922 163.855 123.043L163.74 123.118L156.285 128.21C156.764 124.81 157.363 121.344 158.44 118.344C159.148 116.373 159.615 111.648 158.134 111.262L144.939 137.561L144.926 137.559L144.915 137.61Z"/>
</mask>
<path fill-rule="evenodd" clip-rule="evenodd" d="M144.915 137.61L144.896 137.648L144.895 137.649L144.895 137.65L144.895 137.651C144.895 137.651 144.897 137.658 144.902 137.673L142.592 148.755L156.541 151.657L157.798 145.628C158.399 145.203 158.991 144.703 159.57 144.16C161.548 142.299 163.571 140.488 165.745 138.863L167.786 137.341L178.346 137.869C178.868 137.899 179.34 137.543 179.44 137.016C179.551 136.444 179.174 135.893 178.602 135.782L170.453 134.169L180.899 133.544C181.471 133.544 181.968 133.127 182.049 132.546C182.134 131.914 181.692 131.327 181.06 131.241L168.616 130.311L182.373 128.914C182.97 128.889 183.472 128.428 183.528 127.816C183.588 127.149 183.101 126.557 182.433 126.497L170.006 126.159L180.042 124.327C180.604 124.141 180.961 123.564 180.855 122.963C180.74 122.3 180.107 121.864 179.45 121.979L164.428 122.812C164.232 122.847 164.031 122.922 163.855 123.043L163.74 123.118L156.285 128.21C156.764 124.81 157.363 121.344 158.44 118.344C159.148 116.373 159.615 111.648 158.134 111.262L144.939 137.561L144.926 137.559L144.915 137.61Z" fill="white"/>
<path d="M144.896 137.648L145.494 138.449L145.684 138.308L145.79 138.096L144.896 137.648ZM144.915 137.61L145.809 138.058L145.868 137.941L145.894 137.814L144.915 137.61ZM144.895 137.649L144.297 136.848L143.463 137.47L144.117 138.278L144.895 137.649ZM144.895 137.65L145.789 138.098L146.078 137.522L145.672 137.02L144.895 137.65ZM144.895 137.651L144.001 137.202L143.818 137.567L143.942 137.956L144.895 137.651ZM144.902 137.673L145.881 137.877L145.936 137.615L145.852 137.36L144.902 137.673ZM142.592 148.755L141.613 148.551L141.409 149.53L142.388 149.734L142.592 148.755ZM156.541 151.657L156.337 152.636L157.316 152.84L157.52 151.861L156.541 151.657ZM157.798 145.628L157.221 144.812L156.899 145.039L156.819 145.424L157.798 145.628ZM159.57 144.16L160.254 144.889L160.255 144.888L159.57 144.16ZM165.745 138.863L165.147 138.061L165.147 138.062L165.745 138.863ZM167.786 137.341L167.835 136.342L167.476 136.324L167.188 136.539L167.786 137.341ZM178.346 137.869L178.403 136.87L178.396 136.87L178.346 137.869ZM179.44 137.016L178.458 136.826L178.458 136.829L179.44 137.016ZM178.602 135.782L178.408 136.763L178.413 136.764L178.602 135.782ZM170.453 134.169L170.393 133.17L170.259 135.15L170.453 134.169ZM180.899 133.544V132.544H180.869L180.839 132.546L180.899 133.544ZM182.049 132.546L183.039 132.682L183.04 132.679L182.049 132.546ZM181.06 131.241L181.193 130.25L181.164 130.246L181.134 130.244L181.06 131.241ZM168.616 130.311L168.515 129.317L168.541 131.309L168.616 130.311ZM182.373 128.914L182.331 127.915L182.301 127.916L182.272 127.919L182.373 128.914ZM183.528 127.816L182.532 127.726L182.532 127.726L183.528 127.816ZM182.433 126.497L182.523 125.501L182.492 125.498L182.46 125.497L182.433 126.497ZM170.006 126.159L169.827 125.175L169.979 127.158L170.006 126.159ZM180.042 124.327L180.222 125.311L180.29 125.298L180.355 125.277L180.042 124.327ZM180.855 122.963L179.87 123.134L179.87 123.135L180.855 122.963ZM179.45 121.979L179.505 122.978L179.564 122.975L179.622 122.964L179.45 121.979ZM164.428 122.812L164.372 121.814L164.311 121.817L164.251 121.828L164.428 122.812ZM163.855 123.043L164.401 123.881L164.411 123.874L164.421 123.868L163.855 123.043ZM163.74 123.118L163.194 122.28L163.185 122.286L163.176 122.292L163.74 123.118ZM156.285 128.21L155.295 128.07L154.979 130.313L156.849 129.036L156.285 128.21ZM158.44 118.344L157.499 118.006L157.499 118.006L158.44 118.344ZM158.134 111.262L158.386 110.294L157.603 110.09L157.24 110.813L158.134 111.262ZM144.939 137.561L144.736 138.54L145.488 138.697L145.833 138.01L144.939 137.561ZM144.926 137.559L145.13 136.58L144.151 136.376L143.947 137.355L144.926 137.559ZM145.79 138.096L145.809 138.058L144.021 137.161L144.002 137.2L145.79 138.096ZM145.493 138.45L145.494 138.449L144.298 136.847L144.297 136.848L145.493 138.45ZM145.672 137.02L145.672 137.02L144.117 138.278L144.118 138.279L145.672 137.02ZM145.788 138.099L145.789 138.098L144.001 137.201L144.001 137.202L145.788 138.099ZM145.852 137.36C145.85 137.354 145.848 137.35 145.847 137.347C145.847 137.346 145.847 137.345 145.847 137.345C145.847 137.345 145.847 137.345 145.847 137.345C145.847 137.345 145.847 137.345 145.847 137.345C145.847 137.345 145.847 137.345 145.847 137.345C145.847 137.345 145.847 137.345 145.847 137.345C145.847 137.345 145.847 137.345 145.847 137.345C145.847 137.345 145.847 137.345 145.847 137.345C145.847 137.345 145.847 137.345 145.847 137.345C145.847 137.345 145.847 137.345 144.895 137.651C143.942 137.956 143.942 137.956 143.942 137.956C143.942 137.956 143.942 137.956 143.942 137.956C143.942 137.956 143.942 137.956 143.942 137.956C143.942 137.956 143.942 137.956 143.942 137.956C143.942 137.956 143.942 137.956 143.942 137.956C143.943 137.957 143.943 137.957 143.943 137.957C143.943 137.957 143.943 137.957 143.943 137.957C143.943 137.958 143.943 137.959 143.943 137.959C143.944 137.961 143.945 137.963 143.945 137.966C143.947 137.971 143.949 137.978 143.952 137.986L145.852 137.36ZM143.923 137.469L141.613 148.551L143.571 148.959L145.881 137.877L143.923 137.469ZM142.388 149.734L156.337 152.636L156.745 150.678L142.796 147.776L142.388 149.734ZM157.52 151.861L158.777 145.832L156.819 145.424L155.562 151.453L157.52 151.861ZM158.886 143.43C158.33 143.952 157.774 144.421 157.221 144.812L158.375 146.445C159.024 145.986 159.652 145.454 160.254 144.889L158.886 143.43ZM165.147 138.062C162.928 139.721 160.873 141.561 158.885 143.431L160.255 144.888C162.223 143.036 164.215 141.256 166.344 139.664L165.147 138.062ZM167.188 136.539L165.147 138.061L166.343 139.664L168.383 138.143L167.188 136.539ZM178.396 136.87L167.835 136.342L167.736 138.34L178.296 138.868L178.396 136.87ZM178.458 136.829C178.456 136.838 178.453 136.844 178.451 136.848C178.449 136.852 178.445 136.856 178.44 136.86C178.431 136.867 178.418 136.871 178.403 136.87L178.288 138.867C179.302 138.926 180.226 138.232 180.423 137.203L178.458 136.829ZM178.413 136.764C178.447 136.771 178.463 136.802 178.458 136.826L180.422 137.206C180.638 136.087 179.901 135.014 178.791 134.8L178.413 136.764ZM170.259 135.15L178.408 136.763L178.796 134.801L170.647 133.188L170.259 135.15ZM180.839 132.546L170.393 133.17L170.513 135.167L180.959 134.542L180.839 132.546ZM181.058 132.409C181.048 132.483 180.985 132.544 180.899 132.544V134.544C181.958 134.544 182.889 133.771 183.039 132.682L181.058 132.409ZM180.926 132.232C181.005 132.243 181.07 132.321 181.058 132.412L183.04 132.679C183.198 131.507 182.38 130.41 181.193 130.25L180.926 132.232ZM168.541 131.309L180.985 132.239L181.134 130.244L168.69 129.314L168.541 131.309ZM182.272 127.919L168.515 129.317L168.717 131.306L182.474 129.909L182.272 127.919ZM182.532 127.726C182.522 127.828 182.438 127.911 182.331 127.915L182.415 129.913C183.502 129.868 184.422 129.028 184.524 127.906L182.532 127.726ZM182.343 127.493C182.453 127.503 182.543 127.601 182.532 127.726L184.524 127.906C184.633 126.696 183.748 125.611 182.523 125.501L182.343 127.493ZM169.979 127.158L182.406 127.496L182.46 125.497L170.033 125.159L169.979 127.158ZM179.862 123.343L169.827 125.175L170.186 127.142L180.222 125.311L179.862 123.343ZM179.87 123.135C179.889 123.243 179.825 123.346 179.729 123.377L180.355 125.277C181.384 124.937 182.032 123.886 181.84 122.79L179.87 123.135ZM179.622 122.964C179.743 122.943 179.851 123.024 179.87 123.134L181.841 122.791C181.629 121.577 180.472 120.785 179.277 120.994L179.622 122.964ZM164.483 123.811L179.505 122.978L179.394 120.981L164.372 121.814L164.483 123.811ZM164.421 123.868C164.466 123.837 164.531 123.81 164.604 123.796L164.251 121.828C163.933 121.885 163.596 122.008 163.29 122.218L164.421 123.868ZM164.286 123.956L164.401 123.881L163.31 122.205L163.194 122.28L164.286 123.956ZM156.849 129.036L164.304 123.944L163.176 122.292L155.721 127.384L156.849 129.036ZM157.499 118.006C156.385 121.11 155.774 124.664 155.295 128.07L157.275 128.349C157.753 124.957 158.342 121.579 159.381 118.682L157.499 118.006ZM157.882 112.229C157.713 112.185 157.816 112.084 157.946 112.533C158.06 112.925 158.118 113.501 158.108 114.195C158.089 115.582 157.809 117.143 157.499 118.006L159.381 118.682C159.779 117.574 160.087 115.787 160.108 114.222C160.119 113.44 160.06 112.64 159.867 111.975C159.69 111.368 159.296 110.531 158.386 110.294L157.882 112.229ZM145.833 138.01L159.028 111.71L157.24 110.813L144.046 137.113L145.833 138.01ZM145.143 136.582L145.13 136.58L144.722 138.538L144.736 138.54L145.143 136.582ZM143.947 137.355L143.936 137.406L145.894 137.814L145.905 137.763L143.947 137.355Z" fill="black" mask="url(#path-9-inside-3_101_239)"/>
<path d="M92.1532 300.63C136.947 293.141 174.577 329.412 222.223 320.182C222.223 320.182 240.167 308.841 240.167 298.363C240.167 287.884 230.718 276.859 201.016 276.859C171.314 276.859 80.7613 302.536 92.1532 300.63Z" fill="#3F3F3F"/>
<path d="M156.242 161.257C150.75 159.516 144.444 159.2 138.273 158.809C139.318 154.556 140.357 150.332 141.361 146.264C147.667 145.998 153.837 147.112 158.512 150.553C157.608 154.415 156.83 158.012 156.242 161.257Z" fill="#313131"/>
<path d="M29.3286 149.938C34.8764 148.383 41.1924 148.288 47.3729 148.102C46.4742 143.818 45.5805 139.56 44.7119 135.457C38.416 134.975 32.2155 135.878 27.4258 139.159C28.199 143.056 28.8517 146.672 29.3286 149.938Z" fill="#313131"/>
<path d="M115.952 276.223C117.099 270.78 102.799 263.164 84.0128 259.213C65.2266 255.262 49.0675 256.471 47.9205 261.914C46.7736 267.357 61.073 274.973 79.8593 278.924C98.6456 282.875 114.805 281.666 115.952 276.223Z" fill="#D97229"/>
<path d="M15.8266 300.973C18.598 307.544 24.4973 311.938 31.4659 314.847C36.5368 316.959 42.1749 318.303 47.5721 319.131C49.3394 319.411 51.0766 319.632 52.7535 319.803C54.9927 320.038 57.1365 320.194 59.1247 320.289C68.2371 320.741 76.6568 320.836 84.6898 320.51C87.647 320.4 90.559 320.229 93.4258 319.978C95.2734 319.838 97.0908 319.667 98.9032 319.462C116.892 317.46 133.752 312.986 153.412 305.357C215.422 281.27 239.06 302.121 221.869 320.309C232.372 316.964 243.99 310.112 248.057 306.31C257.932 297.095 259.89 282.88 252.595 271.434C246.018 261.111 234.124 255.854 222.195 255.107C196.946 253.527 187.894 258.673 152.423 266.182C150.887 266.508 149.371 266.744 147.9 266.899C136.207 268.133 126.502 264.226 119.126 257.67C117.766 256.451 116.481 255.152 115.306 253.758C108.166 245.592 103.939 234.787 103.065 224.635V224.575C102.844 222.242 102.97 219.93 102.393 217.633C101.248 213.068 98.1502 209.281 93.3756 208.313C85.5484 206.718 77.4249 214.161 75.2459 224.921C73.0519 235.68 72.3641 239.452 72.3641 239.452C72.098 239.156 64.8984 243.941 59.5765 247.553C59.5313 247.583 59.4811 247.613 59.4359 247.648C58.964 247.959 58.5121 248.275 58.0754 248.571C57.6034 248.882 57.1666 249.183 56.7599 249.449C56.3683 249.715 56.0068 249.965 55.6805 250.186H55.6654C54.6964 250.843 54.0538 251.295 53.863 251.405C45.7697 256.647 36.5468 260.82 28.9255 266.809C28.3933 267.23 27.8611 267.652 27.344 268.093C26.606 268.72 25.888 269.377 25.1851 270.049C23.1818 271.955 21.3493 274.052 19.7377 276.4C18.6733 277.95 17.7345 279.605 16.9362 281.355C16.9211 281.385 16.906 281.4 16.891 281.436C14.1196 287.57 13.1958 294.683 15.8266 300.973Z" fill="black"/>
<path d="M16.9453 281.34C24.6018 264.858 54.7658 272.02 56.8193 271.238L71.5197 254.284L59.5907 247.543L57.3966 246.309C57.7581 246.529 58.6166 247.046 59.4451 247.638C61.5437 249.107 63.4516 250.983 56.7691 249.439C56.3775 249.704 56.016 249.955 55.6896 250.176H55.6745C54.7056 250.833 54.0629 251.284 53.8721 251.395C45.7789 256.636 36.556 260.81 28.9346 266.799C28.4024 267.22 27.8702 267.641 27.3531 268.083C26.6151 268.71 25.8971 269.367 25.1942 270.039C23.191 271.945 21.3584 274.042 19.7468 276.389C18.6875 277.929 17.7436 279.585 16.9453 281.34Z" fill="#3F3F3F"/>
<path d="M59.1291 320.753C59.124 320.753 59.1191 320.753 59.114 320.753C58.8429 320.748 31.882 319.775 25.2749 301.717C20.3195 288.169 33.6342 279.251 45.3875 271.376C52.5621 266.57 59.335 262.031 59.6814 257.471C59.7015 257.215 59.8772 257.025 60.1834 257.04C60.4395 257.06 60.6303 257.281 60.6152 257.541C60.2387 262.552 53.5963 267.002 45.9097 272.148C34.4426 279.827 21.4491 288.535 26.1535 301.396C32.5448 318.857 58.878 319.815 59.1441 319.82C59.4002 319.825 59.606 320.04 59.596 320.296C59.591 320.557 59.3801 320.753 59.1291 320.753Z" fill="#2F2F2F"/>
<path d="M22.9922 206.028C29.6295 227.923 44.2496 263.491 54.9587 287.136C63.9607 283.369 73.0731 278.895 82.1655 273.718C80.3631 267.855 78.5808 261.896 76.7985 255.841C72.0239 239.765 67.2944 223.077 62.6453 205.792C62.3792 204.824 62.1282 203.851 61.8621 202.883C61.2345 203.068 60.5768 203.259 59.904 203.475C47.1315 207.492 27.325 216.612 23.2583 206.79C23.1629 206.544 23.0876 206.294 22.9922 206.028Z" fill="#D8D8D8"/>
<path d="M18.1605 185.395C19.3203 192.904 20.9319 199.956 22.9954 206.025C23.0908 206.291 23.1661 206.542 23.2615 206.793C27.519 218.931 33.6241 226.997 41.6572 226.716C42.5157 226.686 43.3491 226.636 44.1625 226.546C53.3051 225.527 59.8018 220.506 62.6485 205.79C63.1807 203.191 63.5723 200.282 63.8534 197.047C64.245 192.512 64.466 188.334 64.4961 184.517C64.5413 182.736 64.5413 181.016 64.4961 179.386C64.481 179.15 64.481 178.934 64.481 178.698C63.6375 150.795 53.2699 144.118 43.1282 142.899C25.5308 140.773 12.8687 151.472 18.1605 185.395Z" fill="#D8D8D8"/>
<path opacity="0.5" d="M52.5596 254.516C58.4288 261.834 66.1304 266.855 66.1304 266.855L76.8094 255.83C72.0347 239.754 67.3053 223.066 62.6561 205.781C63.1883 203.182 63.58 200.273 63.8611 197.038C64.2527 192.503 64.4736 188.325 64.5038 184.508C64.2226 189.574 64.5439 202.871 50.8175 219.68C40.1084 232.797 48.6787 249.67 52.5596 254.516Z" fill="#ABABAB"/>
<path d="M62.2983 206.6C61.5903 208.897 66.847 212.554 74.0416 214.771C81.2361 216.988 87.6425 216.923 88.3504 214.63C89.0583 212.333 83.8017 208.676 76.6071 206.459C69.4125 204.242 63.0062 204.303 62.2983 206.6Z" fill="black"/>
<path d="M67.922 228.112C67.8517 228.112 67.7765 228.092 67.7062 228.057C67.4903 227.942 67.3999 227.681 67.4953 227.46C67.7011 225.815 59.2262 210.376 45.5048 205.741C45.2588 205.661 45.1283 205.395 45.2136 205.149C45.294 204.903 45.5701 204.773 45.806 204.858C57.72 208.881 66.0494 220.995 68.0174 225.9C68.5346 227.189 68.4592 227.621 68.3387 227.851C68.2483 228.017 68.0877 228.112 67.922 228.112Z" fill="black"/>
<path d="M62.587 223.852C63.069 226.205 69.4351 226.897 76.8155 225.392C84.1908 223.888 89.7839 220.763 89.3019 218.41C88.8199 216.058 82.4537 215.365 75.0733 216.87C67.698 218.375 62.11 221.5 62.587 223.852Z" fill="black"/>
<path d="M61.0625 250.153V250.173L61.0976 250.544C61.6599 252.445 68.5934 255.028 77.2892 256.488C86.5824 258.068 94.3795 257.787 94.6958 255.891C95.0322 253.975 87.7623 251.146 78.469 249.561C69.211 247.971 61.434 248.252 61.0625 250.153Z" fill="black"/>
<path d="M98.4939 211.957C100.693 215.659 90.491 221.452 79.7619 222.827C69.0327 224.206 61.1904 221.478 59.3378 217.59C57.8869 214.545 55.4318 203.53 77.7736 207.363C88.4325 209.198 94.8639 205.863 98.4939 211.957Z" fill="black"/>
<path d="M67.9265 222.979C67.9115 222.979 67.8914 222.979 67.8764 222.974C67.5852 222.944 60.7671 222.156 58.7287 217.02C58.6334 216.779 58.7488 216.508 58.9898 216.418C59.2257 216.328 59.5019 216.438 59.5973 216.679C61.4248 221.284 67.9115 222.041 67.9767 222.046C68.2328 222.076 68.4186 222.302 68.3885 222.558C68.3634 222.803 68.1625 222.979 67.9265 222.979Z" fill="#2F2F2F"/>
<path d="M84.7961 263.227L67.5 261.933L68.3887 250.131L68.8706 243.675L69.0112 241.789L86.3174 243.093L84.7961 263.227Z" fill="white"/>
<path d="M78.4469 247.559C78.4469 247.559 72.8289 250.624 68.3906 250.127L68.8726 243.672L74.32 246.661L78.4469 247.559Z" fill="#342629"/>
<path d="M63.2062 238.376C63.2213 238.506 63.2363 238.642 63.2664 238.772C63.2664 238.802 63.2664 238.832 63.2815 238.872C63.8237 242.634 66.4144 245.985 70.2803 247.299L71.7463 247.796C77.5753 249.787 83.9164 246.667 85.8945 240.844L88.7362 232.577C84.9657 233.49 81.1199 229.653 80.3618 222.52C79.6187 215.553 76.8724 212.774 74.6483 211.671C73.1471 210.929 71.3346 211.701 70.7974 213.286L63.7384 233.992C63.6782 234.183 63.6079 234.373 63.5627 234.564C63.5326 234.649 63.5175 234.739 63.4874 234.815V234.86C63.387 235.226 63.3116 235.592 63.2664 235.958C63.1459 236.771 63.1309 237.588 63.2062 238.376Z" fill="white"/>
<path d="M112.605 272.716L120.197 277L135.63 276.142C135.63 276.142 143.397 270.338 147.906 266.897C136.213 268.131 126.508 264.224 119.132 257.668L114.297 260.091L112.605 272.716Z" fill="#3F3F3F"/>
<path d="M112.232 307.514C104.892 307.514 99.2235 305.904 95.3073 302.699C90.357 298.646 88.1228 292.331 88.2684 282.816C88.2734 282.56 88.4793 282.359 88.7353 282.359H88.7403C88.9964 282.364 89.2022 282.575 89.1972 282.831C89.0566 292.04 91.1854 298.125 95.8947 301.977C102.075 307.038 112.89 307.936 128.032 304.655C197.729 289.562 216.897 298.004 217.681 298.37C217.912 298.481 218.012 298.757 217.907 298.992C217.796 299.228 217.515 299.323 217.284 299.218C217.098 299.128 197.488 290.565 128.228 305.568C122.233 306.867 116.896 307.514 112.232 307.514Z" fill="#2F2F2F"/>
<path d="M68.238 223.773L62.2032 229.11C62.2032 229.11 62.153 230.144 65.4365 231.513L68.238 223.773Z" fill="white"/>
<path d="M74.5303 228.637C74.3797 228.637 74.2291 228.562 74.1387 228.426C73.6216 227.629 72.0401 226.099 70.559 225.989C69.9214 225.949 69.4043 226.164 68.9574 226.671C68.7867 226.866 68.4905 226.881 68.2997 226.711C68.1039 226.54 68.0889 226.244 68.2545 226.054C68.8871 225.337 69.7005 224.985 70.6243 225.056C72.5622 225.196 74.3546 227.047 74.922 227.92C75.0626 228.135 75.0023 228.426 74.7864 228.562C74.7061 228.612 74.6207 228.637 74.5303 228.637Z" fill="black"/>
<path d="M70.9075 217.525C70.9075 217.4 71.0481 217.605 71.1384 217.66C72.1426 218.488 73.6538 218.879 74.8989 219.266C76.9775 219.938 79.061 221.854 78.9054 224.231C78.8702 224.758 78.1272 224.798 77.9766 224.322C76.631 221.683 73.5132 222.155 71.1836 221.081C70.1644 220.494 69.1302 219.953 68.5629 218.272C68.0909 216.742 70.4155 216 70.9075 217.525Z" fill="black"/>
<path d="M107.613 263.215C109.652 270.172 119.296 273.468 127.631 272.47C150.982 269.666 177.942 244.044 187.482 262.277L147.547 283.776L110.154 280.229L107.613 263.215Z" fill="black"/>
<path d="M66.1282 238.526C67.0269 238.722 68.277 238.526 69.8585 237.578C70.6316 237.122 71.1789 236.54 71.5153 235.943C71.7965 235.431 71.9571 234.925 71.9722 234.448C72.0073 234.147 71.9923 233.902 71.9521 233.711C71.9521 233.711 70.2802 234.554 67.2026 234.835C64.0295 235.115 63.9442 238.05 66.1282 238.526Z" fill="black"/>
<path d="M61.1016 250.539L62.3065 268.165L78.1015 270.854L80.4009 271.245L89.0415 272.715L96.1808 256.137L94.6947 255.886C94.5843 256.543 93.5651 257.015 91.8932 257.26C88.7804 257.747 83.348 257.511 77.2881 256.478C76.2238 256.307 75.1745 256.102 74.1754 255.901C66.9908 254.401 61.6036 252.214 61.1016 250.539Z" fill="#3E3E3E"/>
<path d="M39.7422 406.235L39.8225 406.205C41.6701 400.918 59.4985 415.214 92.5645 391.849C108.048 380.899 123.828 369.704 135.536 364.011C144.272 359.772 150.739 358.598 153.083 362.917C149.92 355.504 145.522 347.919 139.964 340.646C132.75 331.186 124.511 323.492 116.217 317.969C112.898 315.747 109.579 313.901 106.306 312.416C103.409 311.102 102.159 307.742 103.424 304.943V304.928C103.535 304.677 103.66 304.426 103.816 304.19L106.055 300.704C106.07 300.659 106.085 300.644 106.085 300.644L116.935 283.645L124.2 272.274L89.4617 267.724L48.1317 262.297L52.1683 294.906L53.9356 309.031V309.046L55.1857 319.178C55.1957 319.168 59.0918 371.219 39.7422 406.235Z" fill="#D8D8D8"/>
<path opacity="0.5" d="M74.1758 255.895C74.221 259.601 75.0343 268.906 78.1069 270.847C78.4333 271.068 78.7948 271.173 79.1713 271.208C79.593 271.238 79.9997 271.238 80.4064 271.238C84.7593 271.223 88.4996 269.724 89.1875 269.658L92.4609 258.132L91.8986 257.254C88.7858 257.74 83.3535 257.505 77.2936 256.471C76.2242 256.301 75.1799 256.095 74.1758 255.895Z" fill="#828282"/>
<path d="M52.1641 294.894L53.9313 309.019C55.4677 302.734 59.5344 299.98 59.5846 299.293L53.369 294.227L52.1641 294.894Z" fill="black"/>
<path d="M58.1204 264.209C60.1688 267.465 65.2095 269.03 65.2095 269.03L65.32 268.779C63.5979 268.152 62.6138 267.655 62.5185 267.655C62.3779 267.655 61.8155 259.941 61.4992 255.777C57.2217 255.777 56.2276 261.225 58.1204 264.209Z" fill="black"/>
<path d="M46.0605 285.908C45.2836 293.159 52.152 300.265 57.283 300.948C62.414 301.626 62.0707 295.62 62.8476 288.369C63.6245 281.118 61.4294 270.713 56.2983 270.035C51.1673 269.357 46.8374 278.657 46.0605 285.908Z" fill="#D8D8D8"/>
<path d="M61.5207 291.122C61.6111 298.415 72.0892 304.199 77.8328 304.124C83.5765 304.048 82.4167 298.155 82.3263 290.861C82.236 283.568 78.4604 273.581 72.7168 273.657C66.9682 273.727 61.4254 283.829 61.5207 291.122Z" fill="#D8D8D8"/>
<path d="M87.3601 264.15C95.3931 270.746 105.846 271.303 110.711 265.389C115.576 259.481 110.455 250.703 102.422 244.107C94.389 237.511 86.4815 235.595 81.6215 241.503C76.7565 247.417 79.327 257.554 87.3601 264.15Z" fill="black"/>
<path d="M101.291 261.617C106.739 268.218 110.971 259.159 115.324 253.752C108.185 245.586 103.957 234.781 103.084 224.629C103.571 239.456 91.1797 249.358 101.291 261.617Z" fill="#3F3F3F"/>
<path d="M129.264 276.616C121.849 276.616 112.716 275.708 104.367 272.668C86.6941 266.238 85.6197 249.349 87.2263 243.922C87.2966 243.676 87.5476 243.531 87.8037 243.606C88.0497 243.681 88.1903 243.937 88.12 244.183C87.1711 247.388 86.2272 265.074 104.683 271.791C122.366 278.221 142.343 274.76 143.473 274.283C143.623 274.163 143.839 274.138 144.01 274.238C144.231 274.369 144.306 274.655 144.171 274.875C143.839 275.452 137.654 276.616 129.264 276.616Z" fill="#2F2F2F"/>
<path d="M85.1172 276.192C93.1653 282.903 101.334 288.907 109.523 294.209C124.223 272.876 144.838 240.548 155.266 220.154C155.205 220.279 155.14 220.404 155.06 220.515C150.456 228.239 137.352 221.001 126.191 214.711C123.124 212.991 120.196 211.315 117.646 210.066C117.209 210.989 116.787 211.897 116.346 212.82C107.675 231.229 99.0144 248.84 90.4692 265.698C88.6819 269.23 86.8995 272.721 85.1172 276.192Z" fill="#D8D8D8"/>
<path opacity="0.5" d="M92.4172 312.594C98.6779 319.962 133.024 335.396 135.529 364.002C144.265 359.764 150.732 358.59 153.077 362.909C149.914 355.495 145.516 347.911 139.958 340.638C132.743 331.178 124.504 323.484 116.21 317.961C112.891 315.739 109.573 313.893 106.299 312.408C103.402 311.094 102.152 307.733 103.417 304.935V304.919C103.528 304.669 103.653 304.418 103.809 304.182L106.048 300.696C106.063 300.651 106.078 300.636 106.078 300.636L116.928 283.637C116.617 284.013 116.285 284.389 115.944 284.76C113.313 287.715 110.245 290.624 107.022 292.58C105.913 293.252 104.783 293.814 103.658 294.22C92.9644 298.093 86.041 305.1 92.4172 312.594Z" fill="#ABABAB"/>
<path d="M116.341 212.829C116.371 215.658 116.607 218.161 117.014 220.398C117.295 221.978 117.687 223.417 118.138 224.732C120.769 232.24 126.121 235.541 133.306 237.101C141.213 238.821 148.694 231.844 155.05 220.523C155.131 220.413 155.191 220.287 155.256 220.162C158.404 214.514 161.251 207.808 163.756 200.58C174.967 168.126 164.399 155.366 146.691 154.348C138.924 153.896 130.474 156.54 124.354 169.862C123.696 171.271 123.069 172.801 122.476 174.462C122.29 175.008 122.085 175.57 121.899 176.152C121.005 178.876 120.192 181.905 119.459 185.301C119.253 186.224 119.067 187.177 118.881 188.165C118.676 189.244 118.475 190.372 118.289 191.526C117.661 195.293 117.144 199.441 116.723 203.991C116.421 207.226 116.296 210.17 116.341 212.829Z" fill="#D8D8D8"/>
<path d="M153.156 363.086C153.332 363.527 153.527 363.949 153.683 364.385C153.563 363.929 153.367 363.507 153.156 363.086Z" fill="#342629"/>
<path d="M90.7351 232.988C91.6489 234.689 90.1175 237.277 87.316 238.777C84.5195 240.277 81.5071 240.116 80.5984 238.416C79.6896 236.715 81.2159 234.127 84.0175 232.627C86.814 231.128 89.8213 231.293 90.7351 232.988Z" fill="white"/>
<path d="M88.3438 543.121C89.5035 546.121 92.4255 553.88 90.8541 564.018L95.1266 553.91C96.3768 550.901 95.3877 547.43 92.7117 545.574L91.9837 545.067C91.0549 544.455 89.3479 543.573 88.3438 543.121Z" fill="#9C9C9C"/>
<path d="M68.5854 597.258C68.5854 597.223 68.5704 597.183 68.5754 597.128C68.5503 596.496 68.9368 594.685 69.5594 592.258L69.5845 592.167C69.5845 592.167 80.3839 583.861 86.6497 574.055L78.3154 593.913C77.6025 595.598 76.5632 597.173 75.1323 598.322C71.417 601.321 68.716 599.802 68.5854 597.258Z" fill="#9C9C9C"/>
<path d="M64.5469 234.711C64.6021 234.802 64.6724 236.482 64.6724 236.482C65.551 236.482 66.4497 236.412 67.3484 236.236C70.165 235.674 71.4302 234.952 71.9775 234.44C72.0126 234.14 71.9975 233.894 71.9574 233.703L68.0162 234.686C66.8363 234.631 66.0079 234.651 65.4305 234.721C64.6222 234.812 64.5469 234.711 64.5469 234.711Z" fill="white"/>
<path d="M72.5155 233.603C70.0203 234.917 67.0932 235.675 64.3017 235.043C63.7997 234.937 63.8248 234.175 64.3268 234.095C67.038 233.729 69.7089 233.779 72.4201 233.322C72.5757 233.297 72.6561 233.528 72.5155 233.603Z" fill="#797979"/>
<path d="M66.1328 238.523C67.0315 238.719 68.2816 238.523 69.8631 237.575C70.6363 237.119 71.1836 236.537 71.52 235.94C70.6213 235.799 69.3561 236.1 68.1411 236.803C67.2725 237.294 66.5696 237.906 66.1328 238.523Z" fill="#5D5457"/>
<path d="M71.7726 235.656C71.0647 237.638 68.9761 239.017 66.8373 238.987C66.3151 239.062 64.0157 238.696 64.6031 237.638C64.8039 237.417 65.1002 237.477 65.3161 237.633C67.48 238.681 70.3919 237.783 71.5818 235.571C71.632 235.451 71.8278 235.531 71.7726 235.656Z" fill="#797979"/>
<path d="M79.5497 218.815C79.4192 218.815 79.2887 218.76 79.1933 218.649C79.0828 218.524 79.0577 218.358 79.1029 218.213C79.0728 217.766 78.4301 215.509 76.6629 213.658C75.0663 211.988 73.053 211.12 70.6682 211.09C70.5577 211.09 70.4473 211.085 70.3369 211.085C63.3582 211.085 61.5607 214.32 61.5206 214.927C61.5055 215.183 61.2595 215.364 61.0235 215.364C60.7675 215.349 60.5717 215.123 60.5868 214.867C60.6671 213.573 63.2527 210.092 70.6782 210.157C76.8336 210.247 79.133 215.299 79.6903 216.848C80.2376 218.368 79.9815 218.589 79.8459 218.709C79.7656 218.78 79.6552 218.815 79.5497 218.815Z" fill="#2F2F2F"/>
<path d="M93.5518 237.834C93.4714 237.834 93.3911 237.814 93.3208 237.774C93.0949 237.644 93.0196 237.363 93.1451 237.137C95.4194 233.159 92.3368 231.324 89.3545 229.553C88.7822 229.212 88.2399 228.891 87.773 228.565C85.3229 226.879 84.9263 220.81 84.7556 218.217C84.7305 217.816 84.7003 217.399 84.6803 217.274C84.605 217.083 84.6652 216.858 84.8409 216.727C85.0417 216.577 85.338 216.617 85.4936 216.827C85.6141 216.988 85.6242 217.143 85.6894 218.157C85.835 220.404 86.2266 226.368 88.3052 227.797C88.757 228.108 89.2842 228.419 89.8365 228.75C92.7284 230.471 96.6896 232.828 93.9584 237.599C93.8731 237.749 93.7124 237.834 93.5518 237.834Z" fill="#2F2F2F"/>
<path d="M216.838 321.173C216.587 321.173 216.382 320.977 216.371 320.727C216.361 320.471 216.557 320.25 216.818 320.24C226.046 319.849 232.342 314.597 235.997 310.263C242.152 302.965 245.406 292.592 244.281 283.834C244.246 283.578 244.427 283.343 244.683 283.312C244.959 283.262 245.17 283.463 245.205 283.714C246.38 292.853 243.121 303.256 236.71 310.86C231.368 317.185 224.319 320.847 216.858 321.163C216.853 321.173 216.843 321.173 216.838 321.173Z" fill="#2F2F2F"/>
<path opacity="0.5" d="M90.4414 265.698C94.227 257.136 108.571 236.626 118.12 224.723C120.922 221.202 123.317 218.312 124.868 216.467C125.37 215.875 125.792 215.293 126.168 214.716C127.986 211.962 128.548 209.384 128.548 207.177C128.548 203.515 126.952 201.032 126.921 200.907C124.276 192.475 121.74 180.372 124.341 169.863C123.683 171.273 123.056 172.803 122.463 174.463C122.277 175.01 122.071 175.571 121.886 176.153C120.992 178.877 120.179 181.907 119.446 185.302C119.24 186.225 119.054 187.178 118.868 188.167C118.662 189.245 118.462 190.374 118.276 191.527C117.648 195.294 117.131 199.442 116.709 203.992C116.413 207.227 116.288 210.172 116.333 212.83C107.642 231.229 98.9865 248.835 90.4414 265.698Z" fill="#ABABAB"/>
<path d="M223.256 319.758C223.146 319.758 223.035 319.718 222.945 319.642C222.754 319.472 222.734 319.176 222.91 318.985C228.538 312.695 231.365 305.718 231.31 298.249C231.219 286.627 222.81 279.194 207 276.761C206.231 276.646 206.096 276.62 205.96 276.525C205.749 276.38 205.699 276.089 205.845 275.878C205.99 275.667 206.287 275.617 206.492 275.763C206.497 275.748 206.754 275.778 207.14 275.843C223.236 278.321 232.148 286.276 232.238 298.244C232.299 305.954 229.392 313.142 223.603 319.607C223.512 319.703 223.387 319.758 223.256 319.758Z" fill="#2F2F2F"/>
<path d="M52.5803 326.85C52.5401 326.85 52.4999 326.845 52.4547 326.835C28.0544 320.078 25.6445 302.748 25.6244 302.572C25.5942 302.317 25.775 302.086 26.0311 302.051C26.3173 302.001 26.5231 302.201 26.5532 302.457C26.5733 302.628 28.938 319.356 52.7058 325.937C52.9518 326.007 53.0973 326.263 53.0321 326.509C52.9768 326.714 52.7861 326.85 52.5803 326.85Z" fill="#2F2F2F"/>
<path d="M64.6307 210.767C64.5504 210.767 64.47 210.747 64.3997 210.706C63.1546 209.999 61.1163 208.088 62.3363 205.941C62.4618 205.716 62.748 205.635 62.9739 205.766C63.1998 205.891 63.2751 206.177 63.1496 206.403C62.0802 208.279 64.7462 209.834 64.8617 209.899C65.0876 210.029 65.1629 210.31 65.0374 210.536C64.947 210.681 64.7914 210.767 64.6307 210.767Z" fill="#2F2F2F"/>
<path d="M222.742 258.459C223.435 258.043 233.331 254.622 239.466 257.777C245.601 260.932 241.173 269.815 241.173 269.815L222.742 258.459Z" fill="black"/>
<path d="M73.4756 303.853C72.1401 303.853 68.7069 302.614 65.4836 299.519C63.2143 297.337 62.0595 294.734 62.0395 291.769C61.9893 282.911 66.6425 276.561 66.6977 276.501C66.8735 276.31 67.1646 276.295 67.3554 276.47C67.5462 276.641 67.5613 276.937 67.3906 277.128C67.3354 277.188 62.9231 283.262 62.9733 291.769C62.9884 294.468 64.0528 296.85 66.1313 298.852C69.1537 301.751 72.4263 302.925 73.4706 302.925C73.4857 302.925 73.5007 302.925 73.5258 302.925C73.7768 302.925 73.9827 303.12 73.9927 303.376C74.0027 303.632 73.802 303.848 73.5409 303.858C73.5158 303.853 73.4957 303.853 73.4756 303.853Z" fill="black"/>
<path d="M46.6979 280.698C46.6477 280.698 46.5925 280.693 46.5423 280.673C46.3013 280.588 46.1758 280.317 46.2611 280.076C49.0727 272.216 54.192 268.61 54.2573 268.59L54.3828 269.036L54.5585 269.468C54.4932 269.498 49.7555 273.064 47.1397 280.387C47.0695 280.578 46.8887 280.698 46.6979 280.698Z" fill="black"/>
<path d="M79.2781 271.678C73.3939 271.678 68.5389 270.439 65.1751 269.215C64.0655 268.814 63.2723 268.468 62.7953 268.257C62.6096 268.177 62.484 268.121 62.4238 268.101C61.992 268.126 61.9167 268.116 61.269 259.459C60.9427 255.06 60.6414 250.556 60.6414 250.556C60.6264 250.3 60.8222 250.079 61.0732 250.059C61.3644 250.049 61.5502 250.235 61.5702 250.495C61.5702 250.495 61.8665 255 62.1978 259.389C62.6296 265.177 62.8305 266.827 62.9108 267.294C62.9761 267.324 63.0614 267.359 63.1668 267.404C63.6338 267.605 64.412 267.946 65.4914 268.337C69.9146 269.947 76.9887 271.582 85.5941 270.253C85.8652 270.208 86.0861 270.389 86.1263 270.644C86.1664 270.9 85.9907 271.136 85.7346 271.176C83.4753 271.527 81.3165 271.678 79.2781 271.678Z" fill="black"/>
<path d="M85.3923 277.459C85.3722 277.459 85.3471 277.459 85.322 277.454C85.0659 277.414 84.8952 277.178 84.9304 276.923C85.7387 271.666 88.6758 264.127 98.0543 258.088C98.2501 257.962 98.3857 257.877 98.456 257.822C98.5916 257.671 98.8225 257.621 99.0133 257.717C99.2443 257.832 99.3346 258.113 99.2192 258.344C99.1439 258.494 99.0535 258.549 98.5614 258.865C89.4741 264.719 86.6324 271.992 85.8492 277.058C85.8191 277.299 85.6232 277.459 85.3923 277.459Z" fill="black"/>
<path d="M124.907 325.045C124.696 325.045 124.521 324.91 124.46 324.719C124.119 324.222 120.991 321.454 115.93 318.394C109.895 314.752 100.652 310.408 90.9023 310.408L90.7919 310.413C90.5007 310.428 90.2596 310.439 90.0688 310.418C89.9835 310.418 89.8781 310.418 89.7576 310.433C89.0647 310.449 88.407 310.499 87.7594 310.559C87.5134 310.584 87.2774 310.393 87.2523 310.143C87.2272 309.887 87.413 309.661 87.669 309.636C88.3368 309.571 89.0195 309.526 89.6923 309.511C89.8078 309.496 89.9534 309.496 90.1091 309.496C90.3099 309.506 90.5107 309.496 90.7517 309.485L90.8872 309.48C100.873 309.48 110.277 313.895 116.412 317.601C120.936 320.33 125.374 323.791 125.374 324.584C125.369 324.834 125.163 325.045 124.907 325.045Z" fill="black"/>
<path d="M109.491 227.682C109.441 227.682 109.391 227.672 109.341 227.657C109.095 227.572 108.964 227.311 109.05 227.065C110.862 221.809 113.202 217.289 116.008 213.638C120.21 208.16 124.609 205.652 127.967 204.082L128.56 203.806C129.584 203.33 130.473 202.918 130.643 202.628C130.769 202.402 131.055 202.327 131.281 202.462C131.507 202.592 131.577 202.878 131.447 203.099C131.13 203.646 130.307 204.027 128.951 204.654L128.359 204.93C125.091 206.455 120.823 208.887 116.746 214.204C114 217.776 111.706 222.205 109.928 227.366C109.868 227.562 109.687 227.682 109.491 227.682Z" fill="black"/>
<path d="M99.5652 308.028C96.4022 309.563 92.7421 309.874 90.8945 309.934C100.429 309.934 109.712 314.093 116.158 317.99L116.204 317.96C112.885 315.738 109.566 313.892 106.293 312.407C103.396 311.093 102.146 307.733 103.411 304.934C102.417 306.107 101.132 307.261 99.5652 308.028Z" fill="black"/>
<path d="M89.6875 309.961V309.976C89.8279 309.961 89.9533 309.961 90.0938 309.961C89.828 309.961 89.6875 309.961 89.6875 309.961Z" fill="#342629"/>
<path d="M181.178 274.26C181.068 274.26 180.957 274.22 180.867 274.14C180.676 273.97 180.656 273.674 180.832 273.483C184.386 269.515 186.008 265.879 185.651 262.664C185.305 259.514 183.096 257.903 183.076 257.888C182.865 257.738 182.815 257.447 182.965 257.236C183.116 257.026 183.407 256.975 183.618 257.126C183.723 257.201 186.179 258.972 186.58 262.538C186.977 266.029 185.275 269.922 181.529 274.105C181.434 274.21 181.309 274.26 181.178 274.26Z" fill="#2F2F2F"/>
<path d="M241.778 268.797C241.717 268.797 241.657 268.787 241.597 268.757C241.361 268.656 241.25 268.381 241.351 268.145C241.471 267.854 244.328 260.977 239.232 258.188C239.006 258.063 238.921 257.782 239.046 257.556C239.172 257.33 239.458 257.245 239.679 257.37C245.518 260.566 242.239 268.431 242.209 268.511C242.134 268.691 241.958 268.797 241.778 268.797Z" fill="#2F2F2F"/>
<path d="M175.196 393.739C175.1 393.739 175.01 393.714 174.93 393.654C163.367 385.543 157.453 388.382 157.398 388.412C157.167 388.528 156.886 388.437 156.77 388.212C156.655 387.986 156.74 387.705 156.966 387.585C157.227 387.454 163.382 384.414 175.467 392.891C175.678 393.042 175.728 393.333 175.582 393.544C175.487 393.669 175.341 393.739 175.196 393.739Z" fill="black"/>
<path d="M142.702 410.917C141.186 410.917 139.865 410.481 139.79 410.456C139.544 410.376 139.413 410.11 139.499 409.864C139.579 409.623 139.84 409.483 140.091 409.573C140.111 409.578 142.451 410.351 144.273 409.769C147.301 408.801 148.471 406.744 148.481 406.724C148.601 406.498 148.887 406.413 149.113 406.538C149.339 406.659 149.425 406.945 149.299 407.17C149.244 407.266 147.964 409.568 144.555 410.652C143.952 410.847 143.309 410.917 142.702 410.917Z" fill="black"/>
<path d="M96.4053 454.157C96.1643 454.157 95.9585 453.971 95.9384 453.725C94.9694 440.694 84.6369 437.082 84.2001 436.932C83.9541 436.852 83.8236 436.586 83.909 436.34C83.9893 436.099 84.2453 435.964 84.5014 436.049C84.9633 436.205 95.8631 440.012 96.8722 453.65C96.8923 453.906 96.6965 454.132 96.4405 454.152C96.4304 454.157 96.4204 454.157 96.4053 454.157Z" fill="black"/>
<path d="M63.0307 442.492C62.3881 442.492 61.9111 442.422 61.7053 442.251C61.5597 442.131 61.4844 441.965 61.4844 441.79C61.4844 440.786 63.3872 440.29 64.5168 440.079C64.7678 440.029 65.0139 440.199 65.0591 440.455C65.1043 440.706 64.9386 440.952 64.6825 440.997C63.9395 441.132 63.1914 441.368 62.7596 441.579C63.8742 441.639 66.4197 441.258 68.6338 440.852C68.8898 440.806 69.1308 440.972 69.176 441.228C69.2212 441.479 69.0555 441.724 68.7994 441.769C66.8113 442.131 64.4867 442.492 63.0307 442.492Z" fill="black"/>
<path d="M229.523 431.381L229.564 431.401C232.466 432.961 235.388 434.567 237.913 436.698C240.489 438.87 242.296 441.539 243.531 444.659C244.42 446.901 245.032 449.243 245.625 451.576C246.81 456.246 247.678 461.001 248.396 465.761C248.662 467.541 248.928 469.327 249.119 471.118C248.958 478.085 248.712 479.921 248.642 480.277L248.682 480.367C249.867 482.584 250.801 484.189 251.233 484.636C251.268 484.671 251.308 484.696 251.328 484.721C253.136 486.512 256.178 485.82 256.896 481.125C257.037 480.207 257.027 479.294 256.916 478.381C256.861 477.925 256.781 477.473 256.67 477.022C256.565 476.59 256.429 476.149 256.273 475.707C256.273 475.707 251.88 463.308 251.89 463.293L249.099 455.413C249.094 455.393 249.079 455.348 249.079 455.348L245.484 445.19L245.444 445.135L241.809 434.792C241.724 434.551 241.618 434.316 241.483 434.08C240.91 432.901 240.042 431.938 238.982 431.261C238.254 430.8 237.426 430.458 236.552 430.293C236.211 430.233 235.854 430.203 235.493 430.183C235.142 430.173 234.78 430.188 234.414 430.243L233.535 430.358C233.224 430.403 232.867 430.479 232.486 430.559C232.174 430.639 231.853 430.714 231.507 430.795C231.07 430.915 230.608 431.04 230.216 431.146C229.955 431.241 229.719 431.306 229.523 431.381Z" fill="#9C9C9C"/>
<path d="M73.9612 56L74.7694 61.3903C76.5655 73.0545 82.4029 82.0677 89.6772 84.542L93 85.6907L89.6772 86.9278C82.4927 89.6672 77.0146 98.9455 75.6675 110.61L75.0388 116L74.2306 110.61C72.4345 98.9455 66.5971 89.9323 59.3228 87.458L56 86.3093L59.3228 85.0722C66.5073 82.3328 71.9854 73.0545 73.3325 61.3903L73.9612 56Z" fill="#FFC430"/>
<path d="M0 600H300" stroke="#111111" stroke-width="2"/>
</svg>
