<svg width="24" height="24" viewBox="0 0 24 24" fill="none" xmlns="http://www.w3.org/2000/svg">
<rect width="24" height="24" rx="12" fill="#FF492C"/>
<path fill-rule="evenodd" clip-rule="evenodd" d="M15.07 15.1121C15.6373 16.0965 16.1982 17.0697 16.7587 18.0419C14.2766 19.9422 10.4149 20.1718 7.55617 17.9835C4.26637 15.4632 3.72566 11.1629 5.48697 8.06729C7.51273 4.50672 11.3036 3.71927 13.7444 4.29668C13.6784 4.44008 12.2165 7.47281 12.2165 7.47281C12.2165 7.47281 12.1009 7.4804 12.0356 7.48166C11.3141 7.51224 10.7768 7.68011 10.2009 7.97787C9.569 8.30759 9.02751 8.78705 8.62372 9.37436C8.21992 9.96166 7.96613 10.6389 7.88452 11.347C7.79936 12.065 7.89865 12.7929 8.17301 13.4619C8.40498 14.0275 8.73312 14.5298 9.17302 14.9539C9.84785 15.6051 10.6509 16.0084 11.5817 16.1418C12.4632 16.2684 13.311 16.1431 14.1054 15.7439C14.4034 15.5944 14.6569 15.4293 14.9532 15.2028C14.9773 15.1871 14.9998 15.1688 15.0247 15.1484L15.0247 15.1484C15.0388 15.1369 15.0536 15.1248 15.07 15.1121ZM15.0751 6.47841L14.9512 6.35659C14.8531 6.26015 14.7588 6.16746 14.6648 6.07436C14.6345 6.04443 14.6047 6.01405 14.5749 5.98367L14.5749 5.98363L14.5748 5.98359C14.5265 5.93434 14.4781 5.88507 14.4279 5.83774C14.3988 5.81012 14.3647 5.77237 14.3647 5.77237C14.3647 5.77237 14.3923 5.71374 14.4041 5.6897C14.5595 5.3778 14.8031 5.14984 15.092 4.96848C15.4115 4.76641 15.7837 4.66359 16.1616 4.67303C16.6452 4.68252 17.0948 4.80293 17.4742 5.12727C17.7542 5.36663 17.8978 5.6703 17.9231 6.03281C17.9653 6.64438 17.7123 7.11275 17.2097 7.43962C17.0107 7.56928 16.8011 7.6791 16.5878 7.79085L16.5878 7.79086L16.5878 7.79087C16.4847 7.84488 16.3808 7.89934 16.2768 7.95671C16.1007 8.05393 15.9501 8.13934 15.778 8.31521C15.6266 8.49172 15.6192 8.65811 15.6192 8.65811L17.9067 8.65516V9.67394H14.3759V9.57546C14.3624 9.07482 14.4208 8.6037 14.65 8.14904C14.8609 7.73191 15.1886 7.42655 15.5823 7.19141C15.7365 7.09931 15.8948 7.01419 16.0532 6.92906L16.0532 6.92904L16.0532 6.92902C16.2063 6.84672 16.3594 6.76442 16.5087 6.6758C16.6962 6.56466 16.8287 6.40165 16.8276 6.16525C16.8276 5.96238 16.68 5.78207 16.4691 5.72576C15.9718 5.59164 15.4657 5.80569 15.2025 6.26078C15.1795 6.30055 15.1563 6.34016 15.1306 6.38384L15.0751 6.47841ZM17.5728 10.7001L19.5005 14.0291L17.557 17.3767L15.6607 14.0635H11.8179L13.7581 10.7001H17.5728Z" fill="white"/>
</svg>
