<svg width="20" height="24" viewBox="0 0 20 24" fill="none" xmlns="http://www.w3.org/2000/svg">
<path d="M10.8108 4.49945L12.5808 8.01439C12.6455 8.14384 12.7414 8.25586 12.8602 8.34072C12.979 8.42558 13.1172 8.48072 13.2627 8.50135L17.2227 9.06357C17.3903 9.08667 17.5479 9.1555 17.6775 9.26219C17.8072 9.36889 17.9036 9.50915 17.9559 9.66699C18.0081 9.82484 18.0141 9.9939 17.9731 10.1549C17.9321 10.3159 17.8457 10.4624 17.7239 10.5776L14.8611 13.3178C14.7559 13.4178 14.6771 13.5414 14.6315 13.6779C14.5858 13.8144 14.5748 13.9597 14.5992 14.1014L15.272 17.9572C15.3012 18.1205 15.2829 18.2887 15.2194 18.4424C15.1558 18.596 15.0495 18.7292 14.9126 18.8265C14.7756 18.9239 14.6135 18.9816 14.4448 18.993C14.276 19.0044 14.1074 18.9692 13.958 18.8912L10.418 17.0718C10.2884 17.0051 10.1443 16.9703 9.99803 16.9703C9.85173 16.9703 9.70762 17.0051 9.5781 17.0718L6.03803 18.8957C5.88835 18.974 5.71918 19.0094 5.54991 18.9979C5.38064 18.9863 5.21812 18.9282 5.08097 18.8302C4.94383 18.7323 4.83761 18.5984 4.77448 18.444C4.71135 18.2896 4.69388 18.1209 4.72405 17.9572L5.40136 14.0925C5.42582 13.9509 5.41476 13.8055 5.36913 13.669C5.32351 13.5325 5.24468 13.4089 5.13947 13.3089L2.27671 10.5776C2.15497 10.4626 2.06856 10.3165 2.02731 10.1559C1.98606 9.9952 1.99163 9.8264 2.04337 9.66867C2.09512 9.51095 2.19097 9.37062 2.32002 9.26365C2.44908 9.15668 2.60616 9.08736 2.7734 9.06357L6.72889 8.50135C6.87438 8.48072 7.01254 8.42558 7.13136 8.34072C7.25018 8.25586 7.34607 8.14384 7.41071 8.01439L9.18526 4.49945C9.25921 4.34976 9.37467 4.22352 9.51842 4.13518C9.66217 4.04685 9.82838 4 9.99803 4C10.1677 4 10.3339 4.04685 10.4776 4.13518C10.6214 4.22352 10.7369 4.34976 10.8108 4.49945Z" fill="#FFC700"/>
</svg>
